<svg width="315" height="150" viewBox="0 0 315 150" fill="none" xmlns="http://www.w3.org/2000/svg">
<path d="M21.24 110.12C20.52 102.28 19.68 94.8 18.72 87.68C17.84 80.48 16.96 73.48 16.08 66.68C15.84 65 15.48 63.96 15 63.56C14.52 63.08 13.92 62.84 13.2 62.84C11.68 62.84 9.8 64.24 7.56 67.04L4.8 63.8C8.08 59.32 11.2 55.92 14.16 53.6C17.12 51.28 20.08 50.12 23.04 50.12C26.16 50.12 28.48 51.04 30 52.88C31.52 54.72 32.48 57.56 32.88 61.4C33.44 66.2 33.92 71.24 34.32 76.52C34.72 81.8 35.08 87.08 35.4 92.36C38.68 86.04 41.92 79.6 45.12 73.04C48.4 66.48 51.6 59.76 54.72 52.88H65.16C65.56 55.52 65.96 58.68 66.36 62.36C66.76 65.96 67.16 69.8 67.56 73.88C68.04 77.88 68.48 81.8 68.88 85.64C69.28 89.48 69.68 92.96 70.08 96.08C72.8 92.4 75.32 88.76 77.64 85.16C79.96 81.56 82.24 77.76 84.48 73.76L83.04 69.56C82.48 67.96 81.92 66.32 81.36 64.64C80.8 62.96 80.52 61.36 80.52 59.84C80.52 56.4 81.52 53.88 83.52 52.28C85.52 50.6 87.92 49.76 90.72 49.76C91.84 49.76 92.88 49.96 93.84 50.36C94.8 50.68 95.56 51.04 96.12 51.44C96.76 52.4 97.2 53.4 97.44 54.44C97.68 55.48 97.8 56.92 97.8 58.76C97.8 60.52 97.44 62.48 96.72 64.64C96.08 66.8 94.72 69.8 92.64 73.64C89.68 79 85.8 84.88 81 91.28C76.28 97.6 70.92 103.88 64.92 110.12L56.16 111.08L54.96 110.12C54.56 107.08 54.12 103.56 53.64 99.56C53.16 95.48 52.68 91.4 52.2 87.32C51.72 83.16 51.24 79.44 50.76 76.16C48.04 81.52 45.08 87.16 41.88 93.08C38.76 99 35.56 104.68 32.28 110.12L22.56 111.08L21.24 110.12Z" fill="black"/>
<path d="M129.84 56.72C128.16 56.72 126.36 57.44 124.44 58.88C122.6 60.24 120.84 62.16 119.16 64.64C117.48 67.12 116.04 69.96 114.84 73.16C113.72 76.36 113.08 79.72 112.92 83.24C118.36 81.32 122.64 79.2 125.76 76.88C128.88 74.48 131.08 72.04 132.36 69.56C133.64 67.08 134.28 64.76 134.28 62.6C134.28 60.6 133.84 59.12 132.96 58.16C132.08 57.2 131.04 56.72 129.84 56.72ZM117 111.8C110.76 111.8 105.68 109.8 101.76 105.8C97.92 101.8 96 96.28 96 89.24C96 84.04 96.88 79.12 98.64 74.48C100.48 69.76 103 65.6 106.2 62C109.4 58.32 113.16 55.44 117.48 53.36C121.8 51.2 126.48 50.12 131.52 50.12C136.96 50.12 141.08 51.32 143.88 53.72C146.76 56.12 148.2 59.24 148.2 63.08C148.2 68.12 145.32 72.84 139.56 77.24C133.88 81.56 125.08 85.2 113.16 88.16C113.56 92 114.8 94.84 116.88 96.68C118.96 98.52 121.64 99.44 124.92 99.44C128.44 99.44 131.56 98.56 134.28 96.8C137 95.04 139.28 93 141.12 90.68L144.48 93.08C142.88 96.12 140.72 99.08 138 101.96C135.36 104.84 132.28 107.2 128.76 109.04C125.24 110.88 121.32 111.8 117 111.8Z" fill="black"/>
<path d="M168.24 110.12C167.44 102.28 166.6 94.84 165.72 87.8C164.92 80.68 164.04 73.68 163.08 66.8C162.84 65.04 162.44 63.96 161.88 63.56C161.4 63.08 160.84 62.84 160.2 62.84C159.48 62.84 158.64 63.16 157.68 63.8C156.8 64.44 155.76 65.52 154.56 67.04L151.8 63.8C155.08 59.32 158.2 55.92 161.16 53.6C164.12 51.28 167.12 50.12 170.16 50.12C173.2 50.12 175.48 51.08 177 53C178.52 54.92 179.52 57.84 180 61.76C180.64 67.36 181.2 73.16 181.68 79.16C182.16 85.08 182.6 91.04 183 97.04C188.84 89.44 194 81.56 198.48 73.4L197.28 69.44C196.72 67.84 196.16 66.24 195.6 64.64C195.12 62.96 194.88 61.36 194.88 59.84C194.88 56.4 195.8 53.88 197.64 52.28C199.56 50.6 201.96 49.76 204.84 49.76C205.96 49.76 207 49.96 207.96 50.36C209 50.68 209.8 51.04 210.36 51.44C211 52.4 211.44 53.4 211.68 54.44C211.92 55.48 212.04 56.92 212.04 58.76C212.04 60.44 211.72 62.36 211.08 64.52C210.44 66.68 209.04 69.72 206.88 73.64C203.92 78.92 199.92 84.8 194.88 91.28C189.84 97.68 184.24 103.96 178.08 110.12L169.44 111.08L168.24 110.12Z" fill="black"/>
<path d="M232.4 110L216.8 110.96L215.12 109.52L224.96 62.6L216.56 61.28L217.4 56.84L241.88 50L244.16 51.92L242.12 62.48C246.12 58.64 250.16 55.64 254.24 53.48C258.4 51.24 262.32 50.12 266 50.12C268.64 50.12 270.84 50.96 272.6 52.64C274.36 54.32 275.24 56.84 275.24 60.2C275.24 60.6 275.24 61.04 275.24 61.52C275.24 61.92 275.2 62.32 275.12 62.72C279.12 58.72 283.16 55.64 287.24 53.48C291.4 51.24 295.32 50.12 299 50.12C301.56 50.12 303.72 50.96 305.48 52.64C307.24 54.32 308.12 56.84 308.12 60.2C308.12 61.8 307.96 63.48 307.64 65.24C307.4 67 307.04 68.8 306.56 70.64L300.92 93.32C300.6 94.44 300.32 95.44 300.08 96.32C299.92 97.12 299.84 97.84 299.84 98.48C299.84 100.08 300.48 100.88 301.76 100.88C303.76 100.88 306.72 98.4 310.64 93.44L314.24 95.84C312.64 98.56 310.68 101.16 308.36 103.64C306.12 106.04 303.52 108 300.56 109.52C297.68 111.04 294.48 111.8 290.96 111.8C288.16 111.8 285.96 111.16 284.36 109.88C282.84 108.52 282.08 106.64 282.08 104.24C282.08 102.4 282.28 100.52 282.68 98.6C283.16 96.68 283.64 94.84 284.12 93.08L288.56 75.08C289.04 73.24 289.4 71.56 289.64 70.04C289.96 68.44 290.12 67.16 290.12 66.2C290.12 64.84 289.8 63.88 289.16 63.32C288.6 62.76 287.88 62.48 287 62.48C285.32 62.48 283.36 63.04 281.12 64.16C278.96 65.28 276.56 67.04 273.92 69.44L270.8 84.32C269.92 88.56 269.04 92.84 268.16 97.16C267.36 101.4 266.56 105.68 265.76 110L250.16 110.96L248.48 109.52L255.92 73.76C256.32 72.16 256.64 70.72 256.88 69.44C257.12 68.08 257.24 66.92 257.24 65.96C257.24 64.76 256.92 63.88 256.28 63.32C255.72 62.76 255 62.48 254.12 62.48C252.36 62.48 250.36 63.04 248.12 64.16C245.88 65.28 243.4 67 240.68 69.32L237.44 84.32C236.56 88.56 235.72 92.84 234.92 97.16C234.12 101.4 233.28 105.68 232.4 110Z" fill="black"/>
</svg>
