<svg width="213" height="61" viewBox="0 0 213 61" fill="none" xmlns="http://www.w3.org/2000/svg">
<path d="M41.712 10.0999C39.6725 10.0999 37.9971 11.78 37.9971 13.8689C37.9971 15.9579 39.6737 17.5466 41.712 17.5466C43.7503 17.5466 45.4269 15.8664 45.4269 13.8689C45.4269 11.8715 43.7952 10.0999 41.712 10.0999Z" fill="#FF4E17"/>
<path d="M44.7473 19.8552H38.7216V42.1928H44.7473V19.8552Z" fill="#FF4E17"/>
<path d="M108.627 19.2646C106.226 19.2646 103.553 20.3091 102.193 22.625V19.8552H96.3486V42.1928H102.374V29.3445C102.374 26.7565 103.915 24.7139 106.542 24.7139C109.441 24.7139 110.665 26.6662 110.665 29.1627V42.1928H116.691V28.1182C116.691 23.2155 114.153 19.2646 108.627 19.2646Z" fill="#FF4E17"/>
<path d="M130.677 19.1744C124.017 19.1744 118.989 24.1234 118.989 31.0235C118.989 37.9236 124.017 42.8739 130.677 42.8739C137.337 42.8739 142.366 37.8797 142.366 31.0235C142.366 24.1674 137.337 19.1744 130.677 19.1744ZM130.677 37.3806C127.732 37.3806 125.014 35.2014 125.014 31.0247C125.014 26.8481 127.732 24.6688 130.677 24.6688C133.623 24.6688 136.34 26.8029 136.34 31.0247C136.34 35.2465 133.623 37.3806 130.677 37.3806Z" fill="#FF4E17"/>
<path d="M170.279 19.2196C167.334 19.2196 164.979 20.2189 163.211 22.9424C162.079 20.5362 159.631 19.2196 156.597 19.2196C154.151 19.2196 151.297 20.3995 150.073 22.5788V19.8553H144.319V42.1929H150.345V29.1176C150.345 26.6663 151.885 24.714 154.512 24.714C157.14 24.714 158.454 26.5297 158.454 28.937V42.1942H164.435V29.1188C164.435 26.7126 165.975 24.7152 168.557 24.7152C171.321 24.7152 172.499 26.5308 172.499 28.9382V42.1953H178.343V27.7132C178.343 21.7197 174.402 19.2232 170.279 19.2232V19.2196Z" fill="#FF4E17"/>
<path d="M196.517 19.8552L191.035 32.9306L185.101 19.8552H178.35L187.818 39.3768L182.563 51H188.952L202.95 19.8552H196.517Z" fill="#FF4E17"/>
<path d="M58.721 37.3794C55.7756 37.3794 53.058 35.2002 53.058 31.0235C53.058 26.8469 55.777 24.6677 58.721 24.6677C60.5481 24.6677 62.1608 25.4911 63.1224 27.1249L68.8054 25.257C66.9772 21.5307 63.3158 19.1744 58.721 19.1744C52.061 19.1744 47.0324 24.1234 47.0324 31.0235C47.0324 37.9236 52.061 42.8739 58.721 42.8739C64.2559 42.8739 68.4343 39.422 69.6877 34.3209H63.4295C62.5329 36.354 60.7616 37.3806 58.721 37.3806V37.3794Z" fill="#FF4E17"/>
<path d="M82.3759 19.1744C75.716 19.1744 70.6874 24.1234 70.6874 31.0235C70.6874 37.9236 75.716 42.8739 82.3759 42.8739C89.0362 42.8739 94.0648 37.8797 94.0648 31.0235C94.0648 24.1674 89.0362 19.1744 82.3759 19.1744ZM82.3759 37.3806C79.4309 37.3806 76.713 35.2014 76.713 31.0247C76.713 26.8481 79.4319 24.6688 82.3759 24.6688C85.3203 24.6688 88.0389 26.8029 88.0389 31.0247C88.0389 35.2465 85.3203 37.3806 82.3759 37.3806Z" fill="#FF4E17"/>
<path d="M30.7737 22.6298C32.0092 20.9888 32.2665 19.4132 32.2665 17.5287C32.2665 15.6441 30.5544 10 24.3151 10H10V42.1717H25.4629C33.1653 42.1717 36.4165 36.8257 36.4165 31.1839C36.4165 28.5971 35.3411 25.2391 30.7725 22.6286L30.7737 22.6298ZM16.046 14.9371H23.3369C25.0147 14.9371 26.3735 16.3 26.3735 17.9802C26.3735 19.6616 25.0135 21.0233 23.3369 21.0233H16.046V14.9359V14.9371ZM24.7491 37.2344H16.046V25.9616H24.7491C27.8557 25.9616 30.373 28.4854 30.373 31.5974C30.373 35.048 28.1343 37.2332 24.7491 37.2332V37.2344Z" fill="#FF4E17"/>
</svg>
