<svg width="162" height="61" viewBox="0 0 162 61" fill="none" xmlns="http://www.w3.org/2000/svg">
<path d="M72.7251 24.1057C73.1924 24.573 73.7589 24.7996 74.4387 24.7996C75.1185 24.7996 75.6991 24.573 76.1523 24.1057C76.6197 23.6242 76.8463 23.0577 76.8463 22.392C76.8463 21.7122 76.6197 21.1316 76.1523 20.6784C75.685 20.1969 75.1185 19.9561 74.4387 19.9561C73.7589 19.9561 73.1782 20.1969 72.7251 20.6784C72.2577 21.1458 72.0311 21.7122 72.0311 22.392C72.0311 23.0577 72.2577 23.6242 72.7251 24.1057Z" fill="white"/>
<path d="M72.3002 26.4567C72.2152 26.5416 72.1869 26.6408 72.1869 26.7824V40.6332C72.1869 40.7748 72.2294 40.8881 72.3002 40.9589C72.3852 41.0439 72.4843 41.0722 72.6259 41.0722H76.2373C76.3789 41.0722 76.4922 41.0297 76.5631 40.9589C76.648 40.8739 76.6905 40.7748 76.6905 40.6332V26.7824C76.6905 26.6408 76.648 26.5275 76.5631 26.4567C76.4781 26.3717 76.3789 26.3434 76.2373 26.3434H72.6259C72.4985 26.3292 72.3852 26.3717 72.3002 26.4567Z" fill="white"/>
<path fill-rule="evenodd" clip-rule="evenodd" d="M110.609 30.5354C111.176 30.0964 111.841 29.8698 112.62 29.8698C113.385 29.8698 114.037 30.0964 114.575 30.5354C115.113 30.9603 115.453 31.5834 115.594 32.4048H109.519C109.689 31.5834 110.057 30.9603 110.609 30.5354ZM119.404 34.8407C119.546 34.5433 119.617 34.0618 119.617 33.3962C119.617 32.0649 119.319 30.847 118.738 29.7281C118.158 28.6093 117.336 27.7171 116.274 27.0515C115.212 26.3858 113.98 26.0601 112.606 26.0601C111.204 26.0601 109.93 26.4 108.782 27.0798C107.635 27.7454 106.729 28.6518 106.077 29.8131C105.44 30.9744 105.114 32.2632 105.114 33.6653C105.114 35.0673 105.44 36.3561 106.106 37.5174C106.771 38.6787 107.692 39.5993 108.882 40.2933C110.085 40.973 111.445 41.3129 112.946 41.3129C114.008 41.3129 115 41.1288 115.92 40.7464C116.869 40.3499 117.69 39.7834 118.413 39.0611C118.526 38.9478 118.597 38.8204 118.597 38.7071C118.597 38.5938 118.554 38.4805 118.469 38.4097L116.897 36.9084C116.77 36.781 116.671 36.7243 116.572 36.7243C116.444 36.7243 116.345 36.7668 116.246 36.8518C115.75 37.1775 115.269 37.4041 114.801 37.5458C114.362 37.6591 113.895 37.7299 113.385 37.7299C112.38 37.7299 111.544 37.5316 110.893 37.135C110.255 36.7102 109.816 36.1012 109.604 35.2939H118.54C118.979 35.2656 119.263 35.124 119.404 34.8407Z" fill="white"/>
<path fill-rule="evenodd" clip-rule="evenodd" d="M128.284 29.8697C127.505 29.8697 126.825 30.0963 126.273 30.5354C125.706 30.9602 125.352 31.5834 125.197 32.4048H131.272C131.131 31.5834 130.791 30.9602 130.253 30.5354C129.686 30.0963 129.035 29.8697 128.284 29.8697ZM135.266 33.3962C135.266 34.0618 135.195 34.5433 135.054 34.8407C134.912 35.124 134.629 35.2656 134.175 35.2656H125.239C125.466 36.0728 125.891 36.6818 126.528 37.1067C127.193 37.5032 128.029 37.7015 129.02 37.7015C129.53 37.7015 129.998 37.6449 130.437 37.5174C130.904 37.3758 131.385 37.1492 131.881 36.8234C131.98 36.7385 132.094 36.696 132.207 36.696C132.306 36.696 132.419 36.7526 132.533 36.8801L134.105 38.3813C134.19 38.4663 134.232 38.5654 134.232 38.6787C134.232 38.792 134.175 38.9195 134.048 39.0328C133.326 39.7551 132.49 40.3215 131.555 40.7181C130.635 41.1005 129.644 41.2846 128.581 41.2846C127.08 41.2846 125.721 40.9447 124.517 40.2649C123.327 39.5851 122.407 38.6646 121.741 37.4891C121.075 36.3278 120.75 35.039 120.75 33.6369C120.75 32.2348 121.075 30.9461 121.713 29.7848C122.378 28.6234 123.285 27.7029 124.418 27.0514C125.565 26.3716 126.839 26.0317 128.241 26.0317C129.629 26.0317 130.847 26.3575 131.91 27.0231C132.972 27.6887 133.793 28.581 134.374 29.6998C134.969 30.8469 135.266 32.0649 135.266 33.3962Z" fill="white"/>
<path fill-rule="evenodd" clip-rule="evenodd" d="M146.596 36.2287C145.973 36.866 145.18 37.1917 144.217 37.1917C143.239 37.1917 142.432 36.866 141.809 36.2287C141.2 35.5914 140.903 34.7558 140.903 33.7361C140.903 32.7306 141.2 31.895 141.809 31.201C142.432 30.5212 143.239 30.1813 144.217 30.1813C145.18 30.1813 145.973 30.5071 146.596 31.1727C147.233 31.8383 147.559 32.6881 147.559 33.7361C147.559 34.7558 147.247 35.5914 146.596 36.2287ZM148.409 27.0798C147.318 26.4 146.114 26.0601 144.769 26.0601C143.041 26.0601 141.625 26.7682 140.52 28.1703L140.364 26.8107C140.322 26.5133 140.18 26.3575 139.911 26.3575H136.838C136.696 26.3575 136.583 26.4 136.512 26.4708C136.427 26.5558 136.399 26.6549 136.399 26.7965V46.3689C136.399 46.5105 136.441 46.6238 136.512 46.6946C136.597 46.7796 136.696 46.8221 136.838 46.8221H140.449C140.591 46.8221 140.704 46.7796 140.775 46.6946C140.86 46.6097 140.888 46.4964 140.888 46.3689V39.7692C141.88 40.7889 143.154 41.2988 144.741 41.2988C146.086 41.2988 147.304 40.973 148.38 40.3074C149.485 39.6276 150.335 38.7071 150.944 37.5599C151.567 36.3986 151.878 35.124 151.878 33.7361C151.878 32.3057 151.567 31.0169 150.944 29.8556C150.363 28.6943 149.513 27.7596 148.409 27.0798Z" fill="white"/>
<path d="M87.6238 26.3292C87.7655 26.3292 87.8788 26.3716 87.9496 26.4425C88.0345 26.5274 88.0629 26.6266 88.0629 26.7682V29.5015C88.0629 29.6431 88.0204 29.7564 87.9496 29.8273C87.8646 29.9122 87.7655 29.9547 87.6238 29.9547H85.2162V40.619C85.2162 40.7606 85.1737 40.8739 85.0888 40.9447C85.0038 41.0297 84.9047 41.0722 84.763 41.0722H81.1516C81.01 41.0722 80.8967 41.0297 80.8259 40.9447C80.7409 40.8597 80.6984 40.7606 80.6984 40.619V29.9547H78.2908C78.1492 29.9547 78.0359 29.9122 77.9651 29.8273C77.8801 29.7423 77.8376 29.6431 77.8376 29.5015V26.7682C77.8376 26.6266 77.8801 26.5133 77.9651 26.4425C78.0501 26.3575 78.1634 26.3292 78.2908 26.3292H80.6984V22.2646C80.6984 22.1229 80.7409 22.0096 80.8259 21.9388C80.9109 21.8539 81.01 21.8255 81.1516 21.8255H84.763C84.9047 21.8255 85.018 21.868 85.0888 21.9388C85.1737 22.0238 85.2162 22.1229 85.2162 22.2646V26.3292H87.6238Z" fill="white"/>
<path fill-rule="evenodd" clip-rule="evenodd" d="M63.3496 36.9651C64.2701 36.9651 65.0066 36.7527 65.5447 36.3278C66.0829 35.9029 66.352 35.2798 66.352 34.43C66.352 33.6086 66.0829 32.9996 65.5447 32.6172C65.0066 32.2207 64.2701 32.0083 63.3496 32.0083H59.9789V36.9509L63.3496 36.9651ZM65.1057 26.0601C65.1057 24.7713 64.3126 24.134 62.7264 24.134H59.9931V28.1703H62.7264C63.4629 28.1703 64.0577 28.0003 64.4684 27.6604C64.8933 27.2922 65.1057 26.7682 65.1057 26.0601ZM66.9043 29.8273C68.0231 30.1247 68.9862 30.7337 69.7934 31.6684C70.6149 32.5889 71.0256 33.7077 71.0256 35.0107C71.0256 37.0359 70.3741 38.5654 69.0712 39.5851C67.7824 40.5907 65.8138 41.0863 63.1655 41.0863H55.7586C55.6169 41.0863 55.5036 41.0438 55.4328 40.973C55.3478 40.8881 55.3195 40.7889 55.3195 40.6473V20.466C55.3195 20.3243 55.362 20.211 55.4328 20.1402C55.5178 20.0552 55.6169 20.0128 55.7586 20.0128H63.1371C64.4684 20.0128 65.6014 20.2535 66.5361 20.735C67.4991 21.2166 68.2214 21.868 68.7029 22.6894C69.1986 23.5109 69.4535 24.4314 69.4535 25.4653C69.4535 26.5133 69.1986 27.4197 68.7029 28.1986C68.2356 28.9775 67.6266 29.5157 66.9043 29.8273Z" fill="white"/>
<path d="M106.757 40.9306C106.757 40.8314 106.729 40.7465 106.672 40.6615L98.2881 29.3599L106.375 20.6501C106.474 20.5509 106.531 20.4518 106.531 20.381C106.531 20.296 106.488 20.2394 106.403 20.1969C106.346 20.1402 106.247 20.1119 106.134 20.1119H102.041C101.843 20.1119 101.673 20.1969 101.531 20.3527L93.7703 28.7651V20.5651C93.7703 20.4235 93.7278 20.3102 93.6428 20.2394C93.5579 20.1544 93.4587 20.1119 93.3171 20.1119H89.7057C89.5641 20.1119 89.4508 20.1544 89.38 20.2394C89.295 20.3243 89.2667 20.4235 89.2667 20.5651V40.7606C89.2667 40.9022 89.3092 41.0155 89.38 41.0863C89.4649 41.1713 89.5641 41.1996 89.7057 41.1996H93.3171C93.4587 41.1996 93.572 41.1572 93.6428 41.0863C93.7278 41.0014 93.7703 40.9022 93.7703 40.7606V34.2459L95.5406 32.3199L101.97 40.9447C102.084 41.1288 102.268 41.2138 102.508 41.2138H106.389C106.63 41.1996 106.757 41.1147 106.757 40.9306Z" fill="white"/>
<path fill-rule="evenodd" clip-rule="evenodd" d="M46.2839 21.514V23.5675C46.2839 23.9782 46.0715 24.3465 45.7174 24.5447L39.0753 28.3827L45.0093 31.7959C45.8024 32.249 46.2839 33.0988 46.2839 34.0052V39.5002C46.2839 40.4066 45.8024 41.2563 45.0093 41.7095L29.4166 50.6601C28.6235 51.1133 27.6604 51.1133 26.8674 50.6601L21.7547 47.7143C21.3724 47.5019 21.3724 46.9496 21.7547 46.7371L38.6079 37.0359C38.7921 36.9226 38.7921 36.6535 38.6079 36.5402L32.3482 32.9288C31.9941 32.7306 31.5693 32.7306 31.2152 32.9288L14.0929 42.8C13.838 42.9558 13.5123 42.9558 13.2432 42.8L11.3029 41.6953C10.5098 41.2421 10.0142 40.3924 10.0142 39.486V37.2342C10.0142 36.9368 10.1699 36.6535 10.439 36.4978L34.9824 22.3921C35.1665 22.2788 35.1665 22.0097 34.9824 21.8964L28.7085 18.2708C28.3544 18.0725 27.9295 18.0725 27.5755 18.2708L10.8497 27.887C10.4674 28.0995 10 27.8304 10 27.3914V21.4998C10 20.5934 10.4815 19.7437 11.2746 19.2905L26.8674 10.3399C27.6604 9.8867 28.6235 9.8867 29.4166 10.3399L44.981 19.3188C45.8024 19.7579 46.2839 20.6076 46.2839 21.514Z" fill="white"/>
</svg>
