<svg width="232" height="81" viewBox="0 0 232 81" fill="none" xmlns="http://www.w3.org/2000/svg">
<path d="M103.323 30.9866C104.018 31.6819 104.861 32.019 105.872 32.019C106.884 32.019 107.747 31.6819 108.422 30.9866C109.117 30.2701 109.454 29.4273 109.454 28.437C109.454 27.4256 109.117 26.5617 108.422 25.8874C107.726 25.171 106.884 24.8128 105.872 24.8128C104.861 24.8128 103.997 25.171 103.323 25.8874C102.627 26.5828 102.29 27.4256 102.29 28.437C102.29 29.4273 102.627 30.2701 103.323 30.9866Z" fill="white"/>
<path d="M102.691 34.4843C102.564 34.6108 102.522 34.7582 102.522 34.969V55.5762C102.522 55.7869 102.585 55.9555 102.691 56.0608C102.817 56.1873 102.964 56.2294 103.175 56.2294H108.548C108.759 56.2294 108.927 56.1662 109.033 56.0608C109.159 55.9344 109.222 55.7869 109.222 55.5762V34.969C109.222 34.7582 109.159 34.5897 109.033 34.4843C108.906 34.3579 108.759 34.3158 108.548 34.3158H103.175C102.985 34.2947 102.817 34.3579 102.691 34.4843Z" fill="white"/>
<path fill-rule="evenodd" clip-rule="evenodd" d="M159.687 40.5527C160.53 39.8995 161.52 39.5624 162.679 39.5624C163.817 39.5624 164.786 39.8995 165.587 40.5527C166.388 41.1848 166.893 42.112 167.104 43.3341H158.065C158.317 42.112 158.865 41.1848 159.687 40.5527ZM172.772 46.9583C172.983 46.5158 173.088 45.7994 173.088 44.809C173.088 42.8284 172.646 41.0163 171.782 39.3517C170.918 37.6871 169.696 36.3596 168.115 35.3693C166.535 34.379 164.702 33.8943 162.658 33.8943C160.572 33.8943 158.676 34.4 156.969 35.4114C155.262 36.4018 153.914 37.7503 152.944 39.4781C151.996 41.2059 151.512 43.1234 151.512 45.2094C151.512 47.2954 151.996 49.2128 152.987 50.9406C153.977 52.6684 155.346 54.038 157.116 55.0705C158.907 56.0819 160.93 56.5876 163.164 56.5876C164.744 56.5876 166.219 56.3137 167.589 55.7448C169 55.1548 170.222 54.312 171.297 53.2374C171.466 53.0688 171.571 52.8791 171.571 52.7106C171.571 52.542 171.508 52.3735 171.381 52.2681L169.042 50.0346C168.853 49.845 168.705 49.7607 168.558 49.7607C168.368 49.7607 168.221 49.8239 168.073 49.9503C167.336 50.4349 166.619 50.7721 165.924 50.9828C165.271 51.1513 164.575 51.2567 163.817 51.2567C162.321 51.2567 161.078 50.9617 160.108 50.3717C159.16 49.7396 158.507 48.8336 158.191 47.6325H171.487C172.14 47.5904 172.561 47.3797 172.772 46.9583Z" fill="white"/>
<path fill-rule="evenodd" clip-rule="evenodd" d="M185.983 39.5624C184.825 39.5624 183.813 39.8995 182.991 40.5527C182.149 41.1848 181.622 42.1119 181.39 43.334H190.429C190.219 42.1119 189.713 41.1848 188.912 40.5527C188.069 39.8995 187.1 39.5624 185.983 39.5624ZM196.371 44.809C196.371 45.7993 196.266 46.5157 196.055 46.9582C195.845 47.3796 195.423 47.5903 194.749 47.5903H181.453C181.79 48.7914 182.422 49.6974 183.371 50.3295C184.361 50.9195 185.604 51.2145 187.079 51.2145C187.838 51.2145 188.533 51.1302 189.186 50.9406C189.882 50.7299 190.598 50.3928 191.335 49.9081C191.483 49.7817 191.651 49.7185 191.82 49.7185C191.968 49.7185 192.136 49.8028 192.305 49.9924L194.644 52.2259C194.77 52.3523 194.833 52.4998 194.833 52.6684C194.833 52.837 194.749 53.0266 194.559 53.1952C193.485 54.2698 192.241 55.1126 190.851 55.7026C189.481 56.2715 188.006 56.5454 186.426 56.5454C184.192 56.5454 182.17 56.0397 180.379 55.0283C178.609 54.0169 177.239 52.6473 176.249 50.8985C175.258 49.1707 174.774 47.2532 174.774 45.1672C174.774 43.0812 175.258 41.1637 176.207 39.4359C177.197 37.7081 178.545 36.3385 180.231 35.3693C181.938 34.3579 183.834 33.8522 185.92 33.8522C187.985 33.8522 189.797 34.3368 191.378 35.3271C192.958 36.3175 194.18 37.6449 195.044 39.3095C195.929 41.0162 196.371 42.8283 196.371 44.809Z" fill="white"/>
<path fill-rule="evenodd" clip-rule="evenodd" d="M213.228 49.0232C212.301 49.9714 211.121 50.456 209.688 50.456C208.234 50.456 207.033 49.9714 206.106 49.0232C205.2 48.075 204.758 46.8318 204.758 45.3147C204.758 43.8187 205.2 42.5755 206.106 41.5431C207.033 40.5317 208.234 40.026 209.688 40.026C211.121 40.026 212.301 40.5106 213.228 41.5009C214.176 42.4912 214.661 43.7555 214.661 45.3147C214.661 46.8318 214.197 48.075 213.228 49.0232ZM215.925 35.4114C214.303 34.4 212.512 33.8943 210.51 33.8943C207.939 33.8943 205.832 34.9479 204.189 37.0339L203.957 35.0111C203.894 34.5686 203.683 34.3368 203.283 34.3368H198.71C198.499 34.3368 198.331 34.4 198.226 34.5054C198.099 34.6318 198.057 34.7793 198.057 34.99V64.1099C198.057 64.3206 198.12 64.4892 198.226 64.5945C198.352 64.7209 198.499 64.7842 198.71 64.7842H204.083C204.294 64.7842 204.463 64.7209 204.568 64.5945C204.694 64.4681 204.736 64.2995 204.736 64.1099V54.2909C206.211 55.808 208.108 56.5665 210.468 56.5665C212.469 56.5665 214.282 56.0819 215.883 55.0916C217.526 54.0802 218.791 52.7106 219.697 51.0038C220.624 49.276 221.087 47.3797 221.087 45.3147C221.087 43.1866 220.624 41.2691 219.697 39.5413C218.833 37.8135 217.569 36.4228 215.925 35.4114Z" fill="white"/>
<path d="M125.489 34.2946C125.7 34.2946 125.868 34.3578 125.974 34.4632C126.1 34.5896 126.142 34.7371 126.142 34.9478V39.0145C126.142 39.2252 126.079 39.3938 125.974 39.4991C125.847 39.6255 125.7 39.6888 125.489 39.6888H121.907V55.5551C121.907 55.7658 121.844 55.9344 121.717 56.0397C121.591 56.1661 121.444 56.2294 121.233 56.2294H115.86C115.649 56.2294 115.48 56.1661 115.375 56.0397C115.249 55.9133 115.185 55.7658 115.185 55.5551V39.6888H111.603C111.393 39.6888 111.224 39.6255 111.119 39.4991C110.992 39.3727 110.929 39.2252 110.929 39.0145V34.9478C110.929 34.7371 110.992 34.5686 111.119 34.4632C111.245 34.3368 111.414 34.2946 111.603 34.2946H115.185V28.2473C115.185 28.0366 115.249 27.868 115.375 27.7627C115.502 27.6363 115.649 27.5941 115.86 27.5941H121.233C121.444 27.5941 121.612 27.6573 121.717 27.7627C121.844 27.8891 121.907 28.0366 121.907 28.2473V34.2946H125.489Z" fill="white"/>
<path fill-rule="evenodd" clip-rule="evenodd" d="M89.3737 50.1189C90.7434 50.1189 91.839 49.8028 92.6397 49.1707C93.4404 48.5385 93.8408 47.6114 93.8408 46.3472C93.8408 45.1251 93.4404 44.219 92.6397 43.6501C91.839 43.0601 90.7434 42.7441 89.3737 42.7441H84.3589V50.0978L89.3737 50.1189ZM91.9865 33.8943C91.9865 31.9769 90.8066 31.0287 88.4466 31.0287H84.38V37.0339H88.4466C89.5423 37.0339 90.4273 36.781 91.0383 36.2753C91.6705 35.7275 91.9865 34.9479 91.9865 33.8943ZM94.6625 39.4992C96.3271 39.9417 97.7599 40.8477 98.961 42.2384C100.183 43.608 100.794 45.2726 100.794 47.2111C100.794 50.2242 99.8249 52.4999 97.8864 54.017C95.9689 55.513 93.0401 56.2505 89.0998 56.2505H78.0798C77.8691 56.2505 77.7005 56.1872 77.5952 56.0819C77.4687 55.9555 77.4266 55.808 77.4266 55.5973V25.5714C77.4266 25.3607 77.4898 25.1921 77.5952 25.0867C77.7216 24.9603 77.8691 24.8971 78.0798 24.8971H89.0577C91.0383 24.8971 92.724 25.2553 94.1147 25.9717C95.5475 26.6881 96.6221 27.6574 97.3385 28.8795C98.076 30.1016 98.4553 31.4712 98.4553 33.0094C98.4553 34.5686 98.076 35.9171 97.3385 37.076C96.6432 38.2349 95.7371 39.0356 94.6625 39.4992Z" fill="white"/>
<path d="M153.956 56.0186C153.956 55.8712 153.914 55.7447 153.829 55.6183L141.355 38.8038L153.387 25.8452C153.534 25.6978 153.619 25.5503 153.619 25.4449C153.619 25.3185 153.555 25.2342 153.429 25.171C153.345 25.0867 153.197 25.0446 153.029 25.0446H146.939C146.644 25.0446 146.391 25.171 146.181 25.4028L134.634 37.9188V25.7188C134.634 25.5081 134.571 25.3395 134.444 25.2342C134.318 25.1078 134.17 25.0446 133.96 25.0446H128.587C128.376 25.0446 128.207 25.1078 128.102 25.2342C127.975 25.3606 127.933 25.5081 127.933 25.7188V55.7658C127.933 55.9765 127.997 56.1451 128.102 56.2504C128.228 56.3768 128.376 56.419 128.587 56.419H133.96C134.17 56.419 134.339 56.3558 134.444 56.2504C134.571 56.124 134.634 55.9765 134.634 55.7658V46.0732L137.268 43.2076L146.834 56.0397C147.002 56.3136 147.276 56.4401 147.635 56.4401H153.408C153.766 56.419 153.956 56.2926 153.956 56.0186Z" fill="white"/>
<path fill-rule="evenodd" clip-rule="evenodd" d="M63.9834 27.1306V30.1858C63.9834 30.7969 63.6674 31.3447 63.1406 31.6397L53.2584 37.3499L62.087 42.428C63.267 43.1022 63.9834 44.3665 63.9834 45.715V53.8905C63.9834 55.239 63.267 56.5033 62.087 57.1775L38.8881 70.4943C37.7081 71.1686 36.2753 71.1686 35.0953 70.4943L27.4888 66.1116C26.9199 65.7955 26.9199 64.9737 27.4888 64.6577L52.563 50.2242C52.837 50.0556 52.837 49.6553 52.563 49.4867L43.2497 44.1136C42.723 43.8187 42.0908 43.8187 41.5641 44.1136L16.0895 58.8C15.7102 59.0318 15.2256 59.0318 14.8252 58.8L11.9385 57.1565C10.7585 56.4822 10.0211 55.218 10.0211 53.8694V50.5192C10.0211 50.0767 10.2528 49.6553 10.6532 49.4235L47.1689 28.437C47.4428 28.2684 47.4428 27.868 47.1689 27.6995L37.8345 22.3054C37.3078 22.0104 36.6756 22.0104 36.1489 22.3054L11.2642 36.6124C10.6953 36.9285 10 36.5282 10 35.875V27.1095C10 25.761 10.7164 24.4967 11.8964 23.8225L35.0953 10.5057C36.2753 9.83143 37.7081 9.83143 38.8881 10.5057L62.0449 23.8646C63.267 24.5178 63.9834 25.782 63.9834 27.1306Z" fill="white"/>
</svg>
