<svg width="391" height="146" viewBox="0 0 391 146" fill="none" xmlns="http://www.w3.org/2000/svg">
<path d="M64.2474 42.1178C52.4319 42.1178 40.8866 46.6627 32.2658 54.7163C22.8065 63.5574 16.819 76.6117 13.3818 88.8925C11.1365 96.9323 10.0069 105.269 10.0069 113.606C10.0069 116.127 10.1109 118.627 10.3118 121.1C10.5544 124.112 13.4927 126.191 16.4171 125.403C18.9673 124.719 21.6492 124.353 24.4211 124.353C30.1037 124.353 35.4328 125.894 39.9927 128.587C40.1035 128.65 40.2144 128.719 40.3253 128.781C47.7472 133.194 56.4997 135.612 65.8343 135.301C90.186 134.493 110.082 114.746 110.976 90.4811C111.96 63.9303 90.6573 42.104 64.2404 42.104L64.2474 42.1178ZM64.2474 110.028C52.4457 110.028 42.8755 100.489 42.8755 88.7267C42.8755 76.964 52.4457 67.4253 64.2474 67.4253C76.049 67.4253 85.6192 76.964 85.6192 88.7267C85.6192 100.489 76.049 110.028 64.2474 110.028Z" fill="white"/>
<path d="M45.0169 27.4403C45.0169 33.5807 41.7875 39.2791 36.4861 42.4149C33.1598 44.3834 30.0344 46.7041 27.2139 49.3495C20.9423 55.2067 16.2646 62.3901 12.7997 69.5113C12.1206 70.9134 10 70.4161 10 68.862V27.4472C10 17.8119 17.8377 10 27.505 10C37.1722 10 45.0099 17.8119 45.0099 27.4472L45.0169 27.4403Z" fill="white"/>
<path d="M196.297 48.493H190.171C188.678 48.493 187.468 49.6991 187.468 51.1868V107.542C187.468 109.029 188.678 110.235 190.171 110.235H196.297C197.79 110.235 199 109.029 199 107.542V51.1868C199 49.6991 197.79 48.493 196.297 48.493Z" fill="white"/>
<path d="M331.534 67.1145V72.2603C331.534 73.7453 330.321 74.954 328.831 74.954H322.969C319.13 74.954 316.025 78.0553 316.025 81.8749V107.542C316.025 109.027 314.812 110.235 313.322 110.235H307.571C306.081 110.235 304.868 109.027 304.868 107.542V51.1868C304.868 49.7018 306.081 48.493 307.571 48.493H313.322C314.812 48.493 316.025 49.7018 316.025 51.1868V57.4999C316.025 61.3264 319.137 64.4207 322.969 64.4207H328.831C330.321 64.4207 331.534 65.6295 331.534 67.1145Z" fill="white"/>
<path d="M158.39 64.4207H146.914V51.1868C146.914 49.7018 145.702 48.493 144.212 48.493H138.453C136.963 48.493 135.75 49.7018 135.75 51.1868V107.542C135.75 109.027 136.963 110.235 138.453 110.235H158.73C165.078 110.235 170.823 107.673 174.98 103.529C179.152 99.3705 181.723 93.6238 181.709 87.2693C181.675 74.5879 171.114 64.4207 158.383 64.4207H158.39ZM157.815 100.089C153.207 100.089 149.167 97.6575 146.914 94.0175C145.715 92.0766 145.022 89.7835 145.022 87.3315C145.022 84.8795 145.715 82.5863 146.914 80.6454C149.167 77.0054 153.207 74.5741 157.815 74.5741C164.884 74.5741 170.615 80.2794 170.615 87.3315C170.615 94.3836 164.884 100.089 157.815 100.089Z" fill="white"/>
<path d="M228.985 63.1637C215.597 63.1637 204.744 73.9871 204.744 87.3246C204.744 100.662 215.597 111.486 228.985 111.486C242.374 111.486 253.226 100.669 253.226 87.3246C253.226 73.9802 242.367 63.1637 228.985 63.1637ZM228.985 100.089C221.917 100.089 216.186 94.3767 216.186 87.3315C216.186 80.2863 221.917 74.5742 228.985 74.5742C236.054 74.5742 241.785 80.2794 241.785 87.3315C241.785 94.3836 236.054 100.089 228.985 100.089Z" fill="white"/>
<path d="M355.782 63.1637C342.393 63.1637 331.541 73.9871 331.541 87.3246C331.541 100.662 342.393 111.486 355.782 111.486C369.17 111.486 380.023 100.669 380.023 87.3246C380.023 73.9802 369.164 63.1637 355.782 63.1637ZM355.782 100.089C348.713 100.089 342.982 94.3767 342.982 87.3315C342.982 80.2863 348.713 74.5742 355.782 74.5742C362.85 74.5742 368.581 80.2794 368.581 87.3315C368.581 94.3836 362.85 100.089 355.782 100.089Z" fill="white"/>
<path d="M298.104 106.402C288.298 114.02 273.974 113.088 265.284 103.591C256.906 94.4319 256.906 80.2241 265.284 71.0653C273.974 61.5681 288.305 60.6288 298.104 68.2542C299.372 69.2419 299.469 71.1275 298.326 72.2672L294.009 76.5703C293.087 77.4889 291.639 77.6339 290.571 76.888C285.339 73.2134 277.966 73.911 273.545 78.9739C269.387 83.726 269.387 90.937 273.545 95.6959C277.966 100.759 285.339 101.45 290.571 97.7819C291.632 97.0359 293.087 97.1809 294.009 98.0996L298.326 102.403C299.463 103.535 299.372 105.428 298.104 106.416V106.402Z" fill="white"/>
</svg>
