<svg width="587" height="141" viewBox="0 0 587 141" fill="none" xmlns="http://www.w3.org/2000/svg">
<path d="M103.132 10.2931C97.1424 10.2931 92.222 15.2274 92.222 21.3622C92.222 27.4969 97.1459 32.1626 103.132 32.1626C109.118 32.1626 114.042 27.2282 114.042 21.3622C114.042 15.4961 109.25 10.2931 103.132 10.2931Z" fill="black"/>
<path d="M112.046 38.943H94.3496V104.544H112.046V38.943Z" fill="black"/>
<path d="M299.647 37.2086C292.596 37.2086 284.747 40.276 280.753 47.0773V38.943H263.589V104.544H281.285V66.8111C281.285 59.2107 285.809 53.212 293.525 53.212C302.039 53.212 305.633 58.9455 305.633 66.2772V104.544H323.33V63.2098C323.33 48.8116 315.878 37.2086 299.647 37.2086Z" fill="black"/>
<path d="M364.406 36.9434C344.846 36.9434 330.078 51.4776 330.078 71.7419C330.078 92.0061 344.846 106.544 364.406 106.544C383.965 106.544 398.734 91.877 398.734 71.7419C398.734 51.6068 383.965 36.9434 364.406 36.9434ZM364.406 90.4114C355.756 90.4114 347.775 84.0114 347.775 71.7454C347.775 59.4793 355.756 53.0794 364.406 53.0794C373.056 53.0794 381.037 59.3467 381.037 71.7454C381.037 84.144 373.056 90.4114 364.406 90.4114Z" fill="black"/>
<path d="M480.708 37.076C472.059 37.076 465.143 40.0108 459.951 48.009C456.625 40.9425 449.438 37.076 440.527 37.076C433.343 37.076 424.962 40.5412 421.368 46.9412V38.943H404.469V104.544H422.165V66.1446C422.165 58.9455 426.689 53.2121 434.405 53.2121C442.122 53.2121 445.98 58.5442 445.98 65.6142V104.548H463.544V66.1481C463.544 59.0816 468.068 53.2156 475.652 53.2156C483.769 53.2156 487.227 58.5477 487.227 65.6177V104.551H504.391V62.0199C504.391 44.4182 492.816 37.0865 480.708 37.0865V37.076Z" fill="black"/>
<path d="M557.763 38.943L541.664 77.3428L524.236 38.943H504.412L532.217 96.274L516.784 130.409H535.546L576.657 38.943H557.763Z" fill="black"/>
<path d="M153.084 90.4079C144.434 90.4079 136.453 84.0079 136.453 71.7419C136.453 59.4759 144.438 53.0759 153.084 53.0759C158.45 53.0759 163.186 55.4942 166.01 60.2924L182.7 54.8067C177.331 43.8633 166.578 36.9434 153.084 36.9434C133.525 36.9434 118.757 51.4776 118.757 71.7419C118.757 92.0061 133.525 106.544 153.084 106.544C169.339 106.544 181.61 96.4065 185.291 81.4256H166.912C164.279 87.3963 159.077 90.4114 153.084 90.4114V90.4079Z" fill="black"/>
<path d="M222.554 36.9434C202.995 36.9434 188.227 51.4776 188.227 71.7419C188.227 92.0061 202.995 106.544 222.554 106.544C242.114 106.544 256.882 91.877 256.882 71.7419C256.882 51.6068 242.114 36.9434 222.554 36.9434ZM222.554 90.4114C213.905 90.4114 205.923 84.0114 205.923 71.7454C205.923 59.4793 213.908 53.0794 222.554 53.0794C231.201 53.0794 239.185 59.3467 239.185 71.7454C239.185 84.144 231.201 90.4114 222.554 90.4114Z" fill="black"/>
<path d="M71.0084 47.0912C74.6368 42.272 75.3925 37.6448 75.3925 32.1102C75.3925 26.5757 70.3642 10 52.0408 10H10V104.482H55.4115C78.032 104.482 87.5802 88.7817 87.5802 72.213C87.5802 64.6161 84.4219 54.7544 71.0049 47.0877L71.0084 47.0912ZM27.7558 24.4994H49.1679C54.0953 24.4994 58.0859 28.502 58.0859 33.4363C58.0859 38.3741 54.0918 42.3732 49.1679 42.3732H27.7558V24.4959V24.4994ZM53.3152 89.9821H27.7558V56.8761H53.3152C62.4386 56.8761 69.8314 64.2881 69.8314 73.4274C69.8314 83.5612 63.257 89.9787 53.3152 89.9787V89.9821Z" fill="black"/>
</svg>
