<svg width="153" height="61" viewBox="0 0 153 61" fill="none" xmlns="http://www.w3.org/2000/svg">
<mask id="mask0_588_2" style="mask-type:luminance" maskUnits="userSpaceOnUse" x="10" y="10" width="133" height="41">
<path d="M10 10H142.19V51H10V10Z" fill="white"/>
</mask>
<g mask="url(#mask0_588_2)">
<path d="M67.6081 29.475C67.1583 28.6764 66.5686 28.0686 65.8357 27.6514C65.103 27.2344 64.3075 27.0287 63.4555 27.0287C62.6036 27.0287 61.841 27.2432 61.1083 27.6694C60.3754 28.0954 59.7826 28.7153 59.3359 29.5257C58.8861 30.3362 58.6625 31.2896 58.6625 32.3831C58.6625 33.4767 58.8861 34.4303 59.3359 35.2406C59.7857 36.051 60.3754 36.6678 61.1083 37.0969C61.841 37.5231 62.6244 37.7376 63.4555 37.7376C64.2866 37.7376 65.103 37.52 65.8357 37.0821C66.5686 36.6441 67.1613 36.0214 67.6081 35.2109C68.0579 34.4004 68.2813 33.438 68.2813 32.3206C68.2813 31.2031 68.0579 30.2796 67.6081 29.481V29.475ZM61.1053 23.8077C62.1448 23.2596 63.3334 22.9853 64.6679 22.9853C66.2229 22.9853 67.6289 23.3698 68.8861 24.1355C70.1431 24.9012 71.1411 25.9918 71.8738 27.4042C72.6067 28.8165 72.973 30.4524 72.973 32.3146C72.973 34.1769 72.6067 35.8246 71.8738 37.2578C71.1411 38.691 70.1431 39.8025 68.8861 40.5921C67.6259 41.3817 66.22 41.775 64.6679 41.775C63.3097 41.775 62.1239 41.5069 61.1053 40.9705C60.0864 40.4343 59.2702 39.7399 58.6597 38.8847V41.4801H54.0632V17.175H58.6597V25.9442C59.2494 25.0681 60.0655 24.356 61.1053 23.8107V23.8077Z" fill="white"/>
<path d="M81.2661 23.8405C82.2195 23.2922 83.3067 23.0182 84.5339 23.0182V27.8452H83.3185C81.8738 27.8452 80.7835 28.1849 80.0508 28.8643C79.3179 29.5437 78.9516 30.7265 78.9516 32.4101V41.4741H74.3552V23.2804H78.9516V26.1051C79.5413 25.1426 80.3129 24.3858 81.2661 23.8376V23.8405Z" fill="white"/>
<path d="M98.7818 29.5078C98.3439 28.7093 97.7542 28.0954 97.0094 27.6694C96.2646 27.2432 95.4663 27.0287 94.6115 27.0287C93.7565 27.0287 92.97 27.2373 92.2463 27.6514C91.5252 28.0686 90.9386 28.6764 90.4888 29.475C90.0388 30.2736 89.8154 31.2211 89.8154 32.3146C89.8154 33.4082 90.0388 34.3677 90.4888 35.187C90.9386 36.0095 91.5283 36.6382 92.261 37.076C92.9939 37.5141 93.7773 37.7317 94.6084 37.7317C95.4395 37.7317 96.2618 37.5171 97.0063 37.091C97.7511 36.665 98.341 36.051 98.7788 35.2526C99.2167 34.454 99.4341 33.4946 99.4341 32.3803C99.4341 31.2657 99.2138 30.3064 98.7788 29.5078H98.7818ZM86.2229 27.422C86.9558 25.9978 87.9507 24.9042 89.2107 24.1386C90.4679 23.3727 91.8768 22.9884 93.4288 22.9884C94.7872 22.9884 95.9727 23.2625 96.9916 23.8107C98.0103 24.359 98.8235 25.0472 99.4372 25.8785V23.2833H104.066V41.4771H99.4372V38.8162C98.8473 39.6714 98.0311 40.3776 96.9916 40.9347C95.9519 41.492 94.7544 41.772 93.396 41.772C91.865 41.772 90.4679 41.3787 89.2107 40.5891C87.9507 39.7995 86.9558 38.691 86.2229 37.255C85.4902 35.8218 85.1238 34.174 85.1238 32.3116C85.1238 30.4493 85.4902 28.8404 86.2229 27.4191V27.422Z" fill="white"/>
<path d="M114.838 37.2429L119.434 23.2833H124.326L117.593 41.4771H112.011L105.311 23.2833H110.236L114.832 37.2429H114.838Z" fill="white"/>
<path d="M137.102 30.6728C137.081 29.49 136.652 28.5425 135.821 27.8332C134.99 27.1211 133.971 26.7665 132.768 26.7665C131.63 26.7665 130.67 27.1121 129.896 27.8005C129.119 28.4887 128.642 29.4482 128.469 30.6728H137.105H137.102ZM141.731 33.7597H128.433C128.544 35.0739 129.002 36.1017 129.813 36.8468C130.623 37.5916 131.618 37.964 132.8 37.964C134.507 37.964 135.723 37.231 136.447 35.7621H141.403C140.879 37.5141 139.872 38.9532 138.383 40.0796C136.893 41.2089 135.067 41.772 132.899 41.772C131.147 41.772 129.577 41.3846 128.186 40.6071C126.795 39.8293 125.714 38.7299 124.936 37.3055C124.159 35.8813 123.771 34.2395 123.771 32.3803C123.771 30.5209 124.153 28.8433 124.921 27.422C125.687 25.9978 126.759 24.9042 128.138 24.1386C129.518 23.3727 131.105 22.9884 132.899 22.9884C134.692 22.9884 136.175 23.3608 137.546 24.1056C138.913 24.8507 139.976 25.9084 140.73 27.2761C141.484 28.6437 141.862 30.217 141.862 31.9899C141.862 32.6453 141.817 33.2384 141.731 33.7628V33.7597Z" fill="white"/>
<path d="M27.9462 16.902C28.0059 16.9029 28.6557 16.9202 29.6078 17.2379C30.6076 17.5715 31.6905 17.9883 32.1903 17.9883C32.6902 17.9883 36.3973 17.2796 36.3973 17.2796C36.3973 17.2796 40.7907 22.5956 40.7907 23.7317C40.7907 24.8679 40.238 25.1678 39.6823 25.7584C39.1267 26.3491 36.6998 28.9285 36.3881 29.2597C36.0765 29.591 35.4277 30.0932 35.8094 30.9972C36.191 31.9014 36.754 33.0517 36.1279 34.2184C35.5018 35.3851 34.4292 36.1639 33.742 36.0352C33.0546 35.9062 31.4407 35.062 30.847 34.6764C30.2535 34.2907 28.3722 32.7377 28.3722 32.1434C28.3722 31.5493 30.3168 30.4824 30.6761 30.24C31.0355 29.9977 32.6741 29.0596 32.7077 28.6913C32.7411 28.323 32.7284 28.215 32.2448 27.305C31.7611 26.3951 30.8903 25.1808 31.0353 24.3728C31.1802 23.5649 32.5849 23.1448 33.5872 22.7659C34.5893 22.387 36.5191 21.6715 36.7603 21.5604C37.0012 21.4491 36.939 21.343 36.2087 21.2737C35.4785 21.2045 33.4061 20.929 32.4719 21.1897C31.5376 21.4505 29.9414 21.847 29.8121 22.0572C29.6828 22.2676 29.5688 22.2746 29.7015 23.0002C29.8342 23.7256 30.5178 27.2067 30.5842 27.8251C30.6506 28.4433 30.7804 28.8521 30.1143 29.0046C29.4483 29.1571 28.3269 29.4218 27.9417 29.4218C27.5564 29.4218 26.4351 29.1571 25.7691 29.0046C25.1029 28.8521 25.2328 28.4433 25.2991 27.8251C25.3655 27.2067 26.0489 23.7256 26.1818 23.0002C26.3146 22.2746 26.2005 22.2676 26.0712 22.0572C25.9419 21.847 24.3458 21.4505 23.4114 21.1897C22.4771 20.929 20.4049 21.2045 19.6745 21.2737C18.9443 21.343 18.8819 21.4491 19.1231 21.5604C19.3643 21.6715 21.2941 22.387 22.2962 22.7659C23.2985 23.1448 24.7031 23.5649 24.8481 24.3728C24.993 25.1808 24.122 26.3951 23.6386 27.305C23.155 28.215 23.142 28.323 23.1757 28.6913C23.2091 29.0596 24.8479 29.9977 25.2072 30.24C25.5666 30.4824 27.5111 31.5493 27.5111 32.1434C27.5111 32.7377 25.6299 34.2907 25.0364 34.6764C24.4427 35.062 22.8287 35.9062 22.1413 36.0352C21.4541 36.1639 20.3815 35.3851 19.7554 34.2184C19.1294 33.0517 19.6923 31.9014 20.074 30.9972C20.4554 30.0932 19.8069 29.591 19.495 29.2597C19.1835 28.9285 16.7566 26.3491 16.2009 25.7584C15.6453 25.1678 15.0927 24.8679 15.0927 23.7317C15.0927 22.5956 19.486 17.2796 19.486 17.2796C19.486 17.2796 23.1931 17.9883 23.6931 17.9883C24.1929 17.9883 25.2758 17.5715 26.2755 17.2379C27.2751 16.9043 27.9417 16.902 27.9417 16.902H27.9462ZM27.9417 35.2806C28.1701 35.2806 29.633 35.7976 30.807 36.4056C31.9811 37.0138 32.8318 37.4439 33.1039 37.6142C33.3758 37.7847 33.2098 38.1058 32.9622 38.2812C32.7145 38.4565 29.3855 41.0368 29.0623 41.322C28.7393 41.6072 28.2645 42.0783 27.9417 42.0783C27.6188 42.0783 27.144 41.6072 26.8208 41.322C26.4978 41.0368 23.1688 38.4565 22.921 38.2812C22.6733 38.1058 22.5075 37.7847 22.7794 37.6142C23.0514 37.4439 23.9022 37.0138 25.0763 36.4056C26.2502 35.7976 27.7133 35.2806 27.9417 35.2806ZM33.5602 11.7808H22.3232L19.1585 15.3746C18.9456 15.6164 18.6132 15.7152 18.3028 15.6289C18.2866 15.6244 18.2463 15.6139 18.1846 15.5995C18.0764 15.5744 17.9526 15.549 17.8161 15.5251C17.2197 15.4206 16.6075 15.3825 16.0561 15.4472C15.461 15.517 15.0033 15.7004 14.7071 15.997C14.0922 16.6125 13.4792 17.2413 12.8974 17.8497C12.76 17.9934 12.6311 18.1288 12.5116 18.2548L13.2246 20.0067C13.3017 20.1962 13.3071 20.4073 13.2395 20.6005L12.158 23.6933C12.1874 23.8046 12.1982 23.845 12.2588 24.0754C12.3911 24.5771 12.5386 25.1364 12.6972 25.7388C13.151 27.46 13.6046 29.1824 14.0279 30.7917C15.0754 34.7737 15.7597 37.386 15.9268 38.0456C16.7345 41.2373 17.2487 42.1264 19.1785 43.4855C21.1728 44.8903 25.3599 47.7265 26.138 48.2132C26.236 48.2746 26.3371 48.3411 26.466 48.4285C26.5137 48.4609 26.727 48.6067 26.7842 48.6454C27.109 48.8653 27.3268 48.9976 27.528 49.0915C27.7073 49.1749 27.846 49.2125 27.9417 49.2125C28.0374 49.2125 28.176 49.1749 28.3553 49.0915C28.5566 48.9976 28.7744 48.8653 29.0992 48.6454C29.1564 48.6067 29.3697 48.4609 29.4173 48.4285C29.5463 48.3411 29.6474 48.2746 29.7454 48.2132C30.5234 47.7265 34.7105 44.8903 36.7049 43.4855C38.6346 42.1264 39.1488 41.2373 39.9565 38.0456C40.1234 37.386 40.8078 34.7737 41.8478 30.8206C42.2788 29.1822 42.7323 27.4599 43.1861 25.7388C43.3447 25.1364 43.4922 24.5771 43.6244 24.0754C43.6852 23.845 43.696 23.8046 43.7253 23.6933L42.6439 20.6005C42.5762 20.4073 42.5816 20.1962 42.6588 20.0067L43.3717 18.2548C43.2523 18.1288 43.1233 17.9934 42.9859 17.8497C42.4041 17.2413 41.7912 16.6125 41.1763 15.997C40.8801 15.7004 40.4224 15.517 39.8272 15.4472C39.2758 15.3825 38.6636 15.4206 38.0672 15.5251C37.9307 15.549 37.807 15.5744 37.6987 15.5995C37.637 15.6139 37.5967 15.6244 37.5805 15.6289C37.2701 15.7152 36.9378 15.6164 36.7248 15.3746L33.5602 11.7808ZM33.9398 10.101C34.1812 10.101 34.4109 10.2048 34.5704 10.3861L37.6579 13.8923C37.6962 13.8851 37.7361 13.8779 37.7771 13.8707C38.5208 13.7403 39.2873 13.6927 40.0231 13.779C40.9632 13.8892 41.7673 14.2115 42.3651 14.8099C42.9894 15.4348 43.6106 16.0723 44.2001 16.6887C44.4066 16.9045 44.5945 17.1025 44.7602 17.2782C44.8182 17.3397 44.8693 17.3942 44.9132 17.4409C45.1907 17.7384 45.2546 18.0854 45.1314 18.3883L44.3346 20.3458L45.3961 23.3816C45.4515 23.5399 45.4582 23.7109 45.4153 23.8729C45.4078 23.9015 45.4078 23.9015 45.372 24.0376C45.3229 24.2239 45.3229 24.2239 45.2492 24.5036C45.1168 25.0051 44.9695 25.5643 44.8107 26.1666C44.3571 27.8877 43.9037 29.6097 43.4803 31.2187C42.4354 35.1907 41.7504 37.8059 41.5854 38.4576C40.6875 42.0052 39.9752 43.2368 37.6726 44.8586C35.6554 46.2796 31.4459 49.1307 30.6365 49.6371C30.5592 49.6855 30.4738 49.7419 30.3605 49.8187C30.3164 49.8486 30.1026 49.9948 30.0412 50.0363C29.6477 50.3026 29.3672 50.4733 29.0647 50.6141C28.681 50.7926 28.314 50.8921 27.9417 50.8921C27.5694 50.8921 27.2023 50.7926 26.8187 50.6141C26.5162 50.4733 26.2356 50.3026 25.8421 50.0363C25.7808 49.9948 25.5669 49.8486 25.5229 49.8187C25.4096 49.7419 25.3241 49.6855 25.2468 49.6371C24.4375 49.1307 20.2279 46.2796 18.2107 44.8586C15.9081 43.2368 15.1957 42.0052 14.2979 38.4576C14.133 37.8059 13.4479 35.1907 12.4106 31.2479C11.9796 29.6099 11.5262 27.8877 11.0727 26.1668C10.9138 25.5643 10.7665 25.0053 10.6342 24.5036C10.5604 24.2239 10.5604 24.2239 10.5113 24.0376C10.4754 23.9015 10.4754 23.9015 10.4678 23.8729C10.4252 23.7109 10.4318 23.5399 10.4872 23.3816L11.5487 20.3458L10.752 18.3883C10.6288 18.0854 10.6926 17.7384 10.9156 17.4992C11.0138 17.3942 11.0651 17.3397 11.1232 17.2782C11.2888 17.1025 11.4768 16.9045 11.6832 16.6887C12.2728 16.0723 12.894 15.4348 13.5183 14.8099C14.1161 14.2115 14.9202 13.8892 15.8603 13.779C16.596 13.6927 17.3625 13.7403 18.1062 13.8707C18.1472 13.8779 18.187 13.8851 18.2255 13.8923L21.3129 10.3861C21.4725 10.2048 21.7021 10.101 21.9435 10.101H33.9398Z" fill="white"/>
</g>
</svg>
