<svg width="153" height="61" viewBox="0 0 153 61" fill="none" xmlns="http://www.w3.org/2000/svg">
<path d="M21.6035 10L18.0245 14.0578C18.0245 14.0578 14.8819 13.1855 13.3978 14.6685C11.9137 16.1513 10.6916 17.4599 10.6916 17.4599L11.6517 19.8152L10.4296 23.3045C10.4296 23.3045 14.0241 36.9092 14.4453 38.5706C15.2746 41.8418 15.842 43.1066 18.1991 44.7641C20.5561 46.4215 24.8337 49.3003 25.532 49.7364C26.2304 50.1727 27.1033 50.9155 27.8891 50.9155C28.6746 50.9155 29.5476 50.1727 30.2461 49.7364C30.9443 49.3003 35.222 46.4215 37.579 44.7641C39.9359 43.1066 40.5035 41.8418 41.3326 38.5706C41.7538 36.9092 45.3483 23.3045 45.3483 23.3045L44.1262 19.8152L45.0865 17.4599C45.0865 17.4599 43.8644 16.1513 42.3803 14.6685C40.8962 13.1855 37.7536 14.0578 37.7536 14.0578L34.1744 10H21.6035Z" fill="url(#paint0_linear_588_33)"/>
<mask id="mask0_588_33" style="mask-type:luminance" maskUnits="userSpaceOnUse" x="10" y="10" width="133" height="41">
<path d="M10 10H142.171V51H10V10Z" fill="white"/>
</mask>
<g mask="url(#mask0_588_33)">
<path d="M32.3411 17.3725C32.8649 17.3725 36.7496 16.6311 36.7496 16.6311C36.7496 16.6311 41.3533 22.1922 41.3533 23.3808C41.3533 24.3636 40.9573 24.748 40.4912 25.2012C40.3936 25.296 40.2927 25.394 40.1918 25.501L36.7401 29.1638C36.7058 29.2001 36.6678 29.2382 36.6273 29.2789C36.2828 29.625 35.7755 30.1348 36.1336 30.9815C36.1575 31.0379 36.1821 31.0955 36.2071 31.1539C36.5995 32.0712 37.0841 33.2036 36.4673 34.351C35.8111 35.5717 34.6872 36.3863 33.967 36.2516C33.2468 36.1169 31.5554 35.2336 30.9336 34.8302C30.3116 34.4267 28.3401 32.802 28.3401 32.1805C28.3401 31.6621 29.7579 30.7995 30.4468 30.3805C30.5838 30.2971 30.6919 30.2312 30.7543 30.1893C30.8255 30.1413 30.9444 30.0676 31.0907 29.9766C31.7196 29.5864 32.8546 28.8815 32.8832 28.5691C32.9183 28.1838 32.905 28.0708 32.3982 27.1188C32.2905 26.9165 32.1645 26.6997 32.0341 26.4756C31.5514 25.6459 31.0112 24.7169 31.1308 24.0514C31.2659 23.3003 32.4437 22.8694 33.4416 22.5047C33.5662 22.459 33.6881 22.4144 33.8048 22.3704C34.096 22.2605 34.4619 22.1235 34.8442 21.9805C35.8404 21.6076 36.9473 21.1933 37.1298 21.1093C37.3826 20.9927 37.3172 20.8818 36.5518 20.8093C36.4506 20.7998 36.3247 20.7865 36.1803 20.771C35.233 20.6705 33.4856 20.4849 32.6361 20.7216C32.4691 20.7681 32.2817 20.8187 32.0853 20.8719C31.131 21.1301 29.9614 21.4466 29.849 21.6291C29.8293 21.661 29.81 21.6885 29.7919 21.7144C29.6843 21.8671 29.6142 21.9667 29.7332 22.6155C29.7685 22.8086 29.8413 23.1888 29.9314 23.6586C30.195 25.0345 30.6063 27.1807 30.6581 27.663C30.6653 27.7304 30.6734 27.7955 30.6809 27.8581C30.7469 28.3959 30.7908 28.754 30.1657 28.8968C30.1137 28.9086 30.0589 28.9212 30.0021 28.9342C29.2968 29.096 28.2626 29.3332 27.889 29.3332C27.5151 29.3332 26.4802 29.0958 25.7749 28.934C25.7185 28.921 25.664 28.9086 25.6124 28.8968C24.9871 28.754 25.031 28.3959 25.097 27.8581C25.1046 27.7955 25.1126 27.7304 25.1198 27.663C25.1718 27.1802 25.584 25.0286 25.8476 23.6529C25.9371 23.1857 26.0096 22.8079 26.0449 22.6155C26.1637 21.9667 26.0936 21.8671 25.9862 21.7144C25.9679 21.6885 25.9486 21.661 25.929 21.6291C25.8167 21.4466 24.6471 21.1301 23.6927 20.8719C23.4962 20.8189 23.309 20.7681 23.1418 20.7216C22.2923 20.4849 20.5453 20.6705 19.5978 20.771C19.4532 20.7863 19.3273 20.7998 19.2261 20.8093C18.4608 20.8818 18.3955 20.9927 18.6481 21.1093C18.8307 21.1933 19.9369 21.6074 20.933 21.9802C21.3155 22.1233 21.6818 22.2605 21.9731 22.3704C22.09 22.4144 22.2119 22.459 22.3367 22.5047C23.3344 22.8696 24.5122 23.3003 24.6473 24.0514C24.7668 24.7169 24.2266 25.6457 23.7442 26.4752C23.6138 26.6995 23.4876 26.9163 23.3799 27.1188C22.8729 28.0708 22.8596 28.1838 22.8947 28.5691C22.9233 28.8815 24.058 29.586 24.6868 29.9764C24.8334 30.0674 24.9524 30.1413 25.0236 30.1893C25.086 30.2312 25.1941 30.2971 25.331 30.3803C26.0197 30.7993 27.4378 31.6619 27.4378 32.1805C27.4378 32.802 25.4665 34.4267 24.8445 34.8302C24.2225 35.2336 22.5311 36.1169 21.8109 36.2516C21.0907 36.3863 19.9668 35.5717 19.3106 34.351C18.694 33.2037 19.1784 32.0714 19.5708 31.1541C19.5958 31.0957 19.6204 31.0381 19.6444 30.9815C20.0024 30.1347 19.4949 29.6249 19.1504 29.2787C19.1101 29.2382 19.0722 29.1999 19.0378 29.1638L15.5861 25.501C15.4852 25.394 15.3845 25.2961 15.2869 25.2012C14.8206 24.7482 14.4246 24.3636 14.4246 23.3808C14.4246 22.1922 19.0283 16.6311 19.0283 16.6311C19.0283 16.6311 22.913 17.3725 23.4369 17.3725C23.8548 17.3725 24.6618 17.0949 25.5032 16.8054C25.7161 16.732 25.9314 16.6579 26.143 16.5874C27.1907 16.2385 27.889 16.236 27.889 16.236C27.889 16.236 28.5874 16.2385 29.6349 16.5874C29.8465 16.6579 30.0618 16.732 30.2749 16.8054C31.1161 17.0949 31.9231 17.3725 32.3411 17.3725Z" fill="white"/>
<path d="M31.6743 37.043C32.4955 37.4658 33.0782 37.7659 33.2984 37.9037C33.5833 38.0819 33.4096 38.418 33.1501 38.6014C32.8904 38.7848 29.402 41.4842 29.0634 41.7825C29.0201 41.8206 28.9742 41.862 28.9264 41.9051C28.6 42.199 28.1841 42.5737 27.889 42.5737C27.5939 42.5737 27.1776 42.1986 26.8514 41.9048C26.8035 41.8618 26.7579 41.8206 26.7145 41.7825C26.3759 41.4842 22.8877 38.7848 22.628 38.6014C22.3684 38.418 22.1946 38.0819 22.4795 37.9037C22.6999 37.7658 23.2831 37.4655 24.1053 37.0421C24.3461 36.9181 24.6075 36.7836 24.8864 36.6393C26.1166 36.0033 27.6498 35.4624 27.889 35.4624C28.1283 35.4624 29.6613 36.0033 30.8917 36.6393C31.1711 36.7837 31.4329 36.9188 31.6743 37.043Z" fill="white"/>
<path d="M67.6 29.475C67.1502 28.6764 66.5606 28.0686 65.8278 27.6514C65.0952 27.2344 64.2998 27.0287 63.448 27.0287C62.5962 27.0287 61.8337 27.2432 61.1011 27.6694C60.3683 28.0954 59.7756 28.7153 59.329 29.5257C58.8792 30.3362 58.6557 31.2896 58.6557 32.3831C58.6557 33.4767 58.8792 34.4303 59.329 35.2406C59.7787 36.051 60.3683 36.6678 61.1011 37.0969C61.8337 37.5231 62.617 37.7376 63.448 37.7376C64.279 37.7376 65.0952 37.52 65.8278 37.0821C66.5606 36.6441 67.1533 36.0214 67.6 35.2109C68.0497 34.4004 68.2731 33.438 68.2731 32.3206C68.2731 31.2031 68.0497 30.2796 67.6 29.481V29.475ZM61.0981 23.8077C62.1375 23.2596 63.3259 22.9853 64.6602 22.9853C66.215 22.9853 67.6208 23.3698 68.8778 24.1355C70.1346 24.9012 71.1325 25.9918 71.8651 27.4042C72.5978 28.8165 72.9642 30.4524 72.9642 32.3146C72.9642 34.1769 72.5978 35.8246 71.8651 37.2578C71.1325 38.691 70.1346 39.8025 68.8778 40.5921C67.6178 41.3817 66.2121 41.775 64.6602 41.775C63.3022 41.775 62.1166 41.5069 61.0981 40.9705C60.0794 40.4343 59.2633 39.7399 58.6528 38.8847V41.4801H54.057V17.175H58.6528V25.9442C59.2425 25.0681 60.0585 24.356 61.0981 23.8107V23.8077Z" fill="#0D1214"/>
<path d="M81.256 23.8405C82.2093 23.2922 83.2963 23.0182 84.5235 23.0182V27.8452H83.3082C81.8637 27.8452 80.7736 28.1849 80.041 28.8643C79.3082 29.5437 78.9419 30.7265 78.9419 32.4101V41.4741H74.3461V23.2804H78.9419V26.1051C79.5315 25.1426 80.303 24.3858 81.256 23.8376V23.8405Z" fill="#0D1214"/>
<path d="M98.7693 29.5078C98.3315 28.7093 97.7418 28.0954 96.9972 27.6694C96.2525 27.2432 95.4543 27.0287 94.5996 27.0287C93.7447 27.0287 92.9583 27.2373 92.2347 27.6514C91.5138 28.0686 90.9272 28.6764 90.4774 29.475C90.0275 30.2736 89.8042 31.2211 89.8042 32.3146C89.8042 33.4082 90.0275 34.3677 90.4774 35.187C90.9272 36.0095 91.5168 36.6382 92.2494 37.076C92.9822 37.5141 93.7655 37.7317 94.5965 37.7317C95.4275 37.7317 96.2496 37.5171 96.9941 37.091C97.7388 36.665 98.3286 36.051 98.7663 35.2526C99.2042 34.454 99.4216 33.4946 99.4216 32.3803C99.4216 31.2657 99.2013 30.3064 98.7663 29.5078H98.7693ZM86.2122 27.422C86.945 25.9978 87.9398 24.9042 89.1996 24.1386C90.4566 23.3727 91.8653 22.9884 93.417 22.9884C94.7753 22.9884 95.9607 23.2625 96.9794 23.8107C97.9979 24.359 98.8111 25.0472 99.4246 25.8785V23.2833H104.053V41.4771H99.4246V38.8162C98.8348 39.6714 98.0188 40.3776 96.9794 40.9347C95.9398 41.492 94.7425 41.772 93.3843 41.772C91.8535 41.772 90.4566 41.3787 89.1996 40.5891C87.9398 39.7995 86.945 38.691 86.2122 37.255C85.4796 35.8218 85.1133 34.174 85.1133 32.3116C85.1133 30.4493 85.4796 28.8404 86.2122 27.4191V27.422Z" fill="#0D1214"/>
<path d="M114.823 37.2429L119.419 23.2833H124.309L117.578 41.4771H111.996L105.298 23.2833H110.221L114.817 37.2429H114.823Z" fill="#0D1214"/>
<path d="M137.084 30.6728C137.063 29.49 136.634 28.5425 135.803 27.8332C134.972 27.1211 133.954 26.7665 132.75 26.7665C131.612 26.7665 130.653 27.1121 129.879 27.8005C129.102 28.4887 128.625 29.4482 128.452 30.6728H137.087H137.084ZM141.712 33.7597H128.417C128.527 35.0739 128.986 36.1017 129.796 36.8468C130.606 37.5916 131.601 37.964 132.783 37.964C134.49 37.964 135.705 37.231 136.429 35.7621H141.385C140.861 37.5141 139.854 38.9532 138.365 40.0796C136.875 41.2089 135.05 41.772 132.881 41.772C131.13 41.772 129.56 41.3846 128.169 40.6071C126.778 39.8293 125.697 38.7299 124.92 37.3055C124.143 35.8813 123.755 34.2395 123.755 32.3803C123.755 30.5209 124.137 28.8433 124.905 27.422C125.671 25.9978 126.743 24.9042 128.122 24.1386C129.501 23.3727 131.088 22.9884 132.881 22.9884C134.674 22.9884 136.158 23.3608 137.528 24.1056C138.895 24.8507 139.958 25.9084 140.712 27.2761C141.465 28.6437 141.843 30.217 141.843 31.9899C141.843 32.6453 141.799 33.2384 141.712 33.7628V33.7597Z" fill="#0D1214"/>
</g>
<defs>
<linearGradient id="paint0_linear_588_33" x1="10.4296" y1="30.4578" x2="45.3483" y2="30.4578" gradientUnits="userSpaceOnUse">
<stop stop-color="#FF5601"/>
<stop offset="0.5" stop-color="#FF4000"/>
<stop offset="1" stop-color="#FF1F01"/>
</linearGradient>
</defs>
</svg>
