<svg width="318" height="77" viewBox="0 0 318 77" fill="none" xmlns="http://www.w3.org/2000/svg">
<g clip-path="url(#clip0_1105_169)">
<path d="M274.167 59.4C287.836 59.4 298.795 50.0562 298.795 38.5C298.795 26.9439 287.836 17.6781 274.167 17.6781C260.499 17.6781 249.539 27.0219 249.539 38.5C249.57 49.9521 260.622 59.4 274.167 59.4ZM240.611 10.1041H307.846V66.948H240.611V10.1041Z" fill="white"/>
<path fill-rule="evenodd" clip-rule="evenodd" d="M142.468 47.1151C138.528 54.3507 129.97 59.4 119.964 59.4C106.696 59.4 95.8289 50.4466 95.3364 39.3069H153.613V10.1041H86.4087V66.948H153.643V47.1151H142.468ZM96.4138 32.3055H143.361C139.913 22.6233 130.678 17.6781 119.995 17.6781C109.313 17.6781 99.3692 22.9617 96.4138 32.3055Z" fill="white"/>
<path d="M77.3579 10.1041H10.1231V66.948H77.3579V47.1151H66.2136C62.3655 54.3507 53.7149 59.4 43.8021 59.4C30.1335 59.4 19.0816 49.9781 19.0816 38.5C19.0816 27.0219 30.1335 17.6781 43.8021 17.6781C53.8996 17.6781 62.5502 22.8836 66.3983 30.2754H77.3579V10.1041Z" fill="white"/>
<path d="M232.207 47.1151H221.063C217.707 54.5849 208.656 59.3219 198.374 59.3219C185.106 59.3219 173.931 51.2014 173.931 38.5V10.1041H162.571V66.948H232.207V47.1151Z" fill="white"/>
</g>
<defs>
<clipPath id="clip0_1105_169">
<rect width="298" height="57" fill="white" transform="translate(10 10)"/>
</clipPath>
</defs>
</svg>
