<svg width="215" height="61" viewBox="0 0 215 61" fill="none" xmlns="http://www.w3.org/2000/svg">
<g clip-path="url(#clip0_410_139)">
<path d="M10.1298 31.287C10.1298 43.2285 19.1292 50.9588 29.6285 50.9588C37.1857 50.9588 43.1276 46.4014 44.9736 41.2094C41.6854 44.9015 37.3587 47.1514 31.5322 47.1514C22.8789 47.1514 14.6872 40.7479 14.6872 29.1526C14.6872 19.2302 21.7829 12.4806 29.5131 12.4806C36.4357 12.4806 40.7047 16.6919 43.9929 22.3453V10L40.3009 13.2306C37.8779 11.4999 34.5897 10 29.9746 10C20.0522 10 10.1298 18.4225 10.1298 31.287ZM48.704 37.4597C48.704 45.4207 55.1074 50.9588 62.03 50.9588C69.0103 50.9588 75.4137 45.4207 75.4137 37.4597C75.4137 29.4987 69.0103 23.9606 62.03 23.9606C55.1074 23.9606 48.704 29.4987 48.704 37.4597ZM53.3768 37.4597C53.3768 30.9409 57.415 25.9797 62.03 25.9797C66.7028 25.9797 70.741 30.8255 70.741 37.4597C70.741 44.0362 66.7028 48.9397 62.03 48.9397C57.415 48.9397 53.3768 44.0362 53.3768 37.4597ZM83.3315 29.7871V48.3051H79.1202V50.3819H91.8694V48.3051H87.6004V30.8832C89.2734 29.2679 91.8117 27.4219 94.5807 27.4219C98.1574 27.4219 100.234 29.441 100.234 33.4215V48.3051H95.9653V50.3819H108.714V48.3051H104.503V32.2677C104.503 27.3642 102.369 23.9606 97.6959 23.9606C93.8885 23.9606 91.1771 26.3258 89.0426 28.2872H87.6004V23.3837L78.2549 27.0181L83.3315 29.7871ZM110.587 26.9604L115.375 28.3449L115.086 44.0939C115.086 48.6513 118.259 50.9588 121.894 50.9588C125.643 50.9588 128.701 48.9397 130.143 44.9592C128.297 46.8052 126.393 47.6129 124.143 47.6129C121.374 47.6129 119.182 45.9976 119.182 42.1325V27.768H127.605L129.278 25.2298H119.182V19.4032L110.587 26.9604ZM154.574 42.8247C152.381 45.8822 149.439 47.036 145.863 47.036C140.498 47.036 135.71 42.6517 135.71 36.1329C135.71 35.6137 135.71 35.0945 135.767 34.633H154.804C154.747 28.8064 150.997 23.9606 144.709 23.9606C137.959 23.9606 132.364 30.4794 132.364 37.7481C132.364 45.3053 137.556 50.9588 144.42 50.9588C149.209 50.9588 153.42 48.3051 154.574 42.8247ZM143.901 26.5566C147.593 26.5566 150.132 28.9218 150.305 32.6716H136.171C137.325 28.8064 140.44 26.5566 143.901 26.5566ZM159.671 48.3051H156.325V50.3819H167.459V48.3051H162.267L169.766 38.7865L176.862 48.3051H172.651V50.3819H184.708V48.3051H181.592L172.708 36.4213L180.727 26.6143H183.496V24.5375H173.631V26.6143H178.189L171.555 34.9214L165.382 26.6143H169.651V24.5375H157.536V26.6143H160.652L168.555 37.2289L159.671 48.3051ZM185.683 26.9604L190.471 28.3449L190.183 44.0939C190.183 48.6513 193.356 50.9588 196.99 50.9588C200.74 50.9588 203.797 48.9397 205.239 44.9592C203.393 46.8052 201.49 47.6129 199.24 47.6129C196.471 47.6129 194.279 45.9976 194.279 42.1325V27.768H202.701L204.374 25.2298H194.279V19.4032L185.683 26.9604Z" fill="white"/>
</g>
<defs>
<clipPath id="clip0_410_139">
<rect width="195.317" height="41" fill="white" transform="translate(10 10)"/>
</clipPath>
</defs>
</svg>
