<svg width="196" height="41" viewBox="0 0 196 41" fill="none" xmlns="http://www.w3.org/2000/svg">
<g clip-path="url(#clip0_406_145)">
<path d="M0.129799 21.287C0.129799 33.2285 9.1292 40.9588 19.6285 40.9588C27.1857 40.9588 33.1276 36.4014 34.9736 31.2094C31.6854 34.9015 27.3587 37.1514 21.5322 37.1514C12.8789 37.1514 4.68719 30.7479 4.68719 19.1526C4.68719 9.23015 11.7829 2.4806 19.5131 2.4806C26.4357 2.4806 30.7047 6.69186 33.9929 12.3453V-1.90735e-06L30.3009 3.23055C27.8779 1.4999 24.5897 -1.90735e-06 19.9746 -1.90735e-06C10.0522 -1.90735e-06 0.129799 8.42251 0.129799 21.287ZM38.704 27.4597C38.704 35.4207 45.1074 40.9588 52.03 40.9588C59.0103 40.9588 65.4137 35.4207 65.4137 27.4597C65.4137 19.4987 59.0103 13.9606 52.03 13.9606C45.1074 13.9606 38.704 19.4987 38.704 27.4597ZM43.3768 27.4597C43.3768 20.9409 47.415 15.9797 52.03 15.9797C56.7028 15.9797 60.741 20.8255 60.741 27.4597C60.741 34.0362 56.7028 38.9397 52.03 38.9397C47.415 38.9397 43.3768 34.0362 43.3768 27.4597ZM73.3315 19.7871V38.3051H69.1202V40.3819H81.8694V38.3051H77.6004V20.8832C79.2734 19.2679 81.8117 17.4219 84.5807 17.4219C88.1574 17.4219 90.2342 19.441 90.2342 23.4215V38.3051H85.9653V40.3819H98.7144V38.3051H94.5032V22.2677C94.5032 17.3642 92.3687 13.9606 87.6959 13.9606C83.8885 13.9606 81.1771 16.3258 79.0426 18.2872H77.6004V13.3837L68.2549 17.0181L73.3315 19.7871ZM100.587 16.9604L105.375 18.3449L105.086 34.0939C105.086 38.6513 108.259 40.9588 111.894 40.9588C115.643 40.9588 118.701 38.9397 120.143 34.9592C118.297 36.8052 116.393 37.6129 114.143 37.6129C111.374 37.6129 109.182 35.9976 109.182 32.1325V17.768H117.605L119.278 15.2297H109.182V9.40322L100.587 16.9604ZM144.574 32.8247C142.381 35.8822 139.439 37.036 135.863 37.036C130.498 37.036 125.71 32.6517 125.71 26.1329C125.71 25.6137 125.71 25.0945 125.767 24.633H144.804C144.747 18.8064 140.997 13.9606 134.709 13.9606C127.959 13.9606 122.364 20.4794 122.364 27.7481C122.364 35.3053 127.556 40.9588 134.42 40.9588C139.209 40.9588 143.42 38.3051 144.574 32.8247ZM133.901 16.5566C137.593 16.5566 140.132 18.9218 140.305 22.6716H126.171C127.325 18.8064 130.44 16.5566 133.901 16.5566ZM149.671 38.3051H146.325V40.3819H157.459V38.3051H152.267L159.766 28.7865L166.862 38.3051H162.651V40.3819H174.708V38.3051H171.592L162.708 26.4213L170.727 16.6143H173.496V14.5375H163.631V16.6143H168.189L161.555 24.9214L155.382 16.6143H159.651V14.5375H147.536V16.6143H150.652L158.555 27.2289L149.671 38.3051ZM175.683 16.9604L180.471 18.3449L180.183 34.0939C180.183 38.6513 183.356 40.9588 186.99 40.9588C190.74 40.9588 193.797 38.9397 195.239 34.9592C193.393 36.8052 191.49 37.6129 189.24 37.6129C186.471 37.6129 184.279 35.9976 184.279 32.1325V17.768H192.701L194.374 15.2297H184.279V9.40322L175.683 16.9604Z" fill="white"/>
</g>
<defs>
<clipPath id="clip0_406_145">
<rect width="195.317" height="41" fill="white"/>
</clipPath>
</defs>
</svg>
