<svg width="215" height="61" viewBox="0 0 215 61" fill="none" xmlns="http://www.w3.org/2000/svg">
<g clip-path="url(#clip0_410_143)">
<path d="M10.13 31.3085C10.13 43.262 19.1391 51 29.6497 51C37.2151 51 43.1634 46.438 45.0114 41.2408C41.7196 44.9366 37.3883 47.1887 31.5555 47.1887C22.8929 47.1887 14.6923 40.7789 14.6923 29.1718C14.6923 19.2394 21.7956 12.4831 29.5342 12.4831C36.4643 12.4831 40.7379 16.6986 44.0297 22.3577V10L40.3336 13.2338C37.9081 11.5014 34.6163 10 29.9962 10C20.0631 10 10.13 18.431 10.13 31.3085ZM48.7458 37.4873C48.7458 45.4563 55.1561 51 62.0862 51C69.0741 51 75.4844 45.4563 75.4844 37.4873C75.4844 29.5183 69.0741 23.9747 62.0862 23.9747C55.1561 23.9747 48.7458 29.5183 48.7458 37.4873ZM53.4236 37.4873C53.4236 30.962 57.4662 25.9958 62.0862 25.9958C66.764 25.9958 70.8066 30.8465 70.8066 37.4873C70.8066 44.0704 66.764 48.9789 62.0862 48.9789C57.4662 48.9789 53.4236 44.0704 53.4236 37.4873ZM83.4107 29.807V48.3437H79.1949V50.4225H91.9578V48.3437H87.6842V30.9042C89.359 29.2873 91.9 27.4394 94.672 27.4394C98.2526 27.4394 100.332 29.4606 100.332 33.4451V48.3437H96.0581V50.4225H108.821V48.3437H104.605V32.2901C104.605 27.3817 102.468 23.9747 97.7906 23.9747C93.979 23.9747 91.2648 26.3423 89.128 28.3056H87.6842V23.3972L78.3286 27.0352L83.4107 29.807ZM110.695 26.9775L115.488 28.3634L115.2 44.1282C115.2 48.6901 118.376 51 122.014 51C125.768 51 128.829 48.9789 130.273 44.9944C128.425 46.8423 126.519 47.6507 124.267 47.6507C121.495 47.6507 119.3 46.0338 119.3 42.1648V27.7859H127.732L129.406 25.2451H119.3V19.4127L110.695 26.9775ZM154.73 42.8577C152.535 45.9183 149.59 47.0732 146.009 47.0732C140.638 47.0732 135.845 42.6845 135.845 36.1592C135.845 35.6394 135.845 35.1197 135.903 34.6577H154.961C154.903 28.8254 151.149 23.9747 144.854 23.9747C138.097 23.9747 132.496 30.5 132.496 37.7761C132.496 45.3408 137.693 51 144.566 51C149.359 51 153.575 48.3437 154.73 42.8577ZM144.046 26.5732C147.742 26.5732 150.283 28.9408 150.456 32.6944H136.307C137.462 28.8254 140.581 26.5732 144.046 26.5732ZM159.832 48.3437H156.483V50.4225H167.629V48.3437H162.431L169.939 38.8155L177.042 48.3437H172.826V50.4225H184.896V48.3437H181.778L172.884 36.4479L180.911 26.631H183.683V24.5521H173.808V26.631H178.37L171.729 34.9465L165.55 26.631H169.823V24.5521H157.696V26.631H160.814L168.726 37.2563L159.832 48.3437ZM185.873 26.9775L190.666 28.3634L190.377 44.1282C190.377 48.6901 193.553 51 197.192 51C200.945 51 204.006 48.9789 205.45 44.9944C203.602 46.8423 201.696 47.6507 199.444 47.6507C196.672 47.6507 194.477 46.0338 194.477 42.1648V27.7859H202.909L204.584 25.2451H194.477V19.4127L185.873 26.9775Z" fill="black"/>
</g>
<defs>
<clipPath id="clip0_410_143">
<rect width="195.32" height="41" fill="white" transform="translate(10 10)"/>
</clipPath>
</defs>
</svg>
