<svg width="253" height="61" viewBox="0 0 253 61" fill="none" xmlns="http://www.w3.org/2000/svg">
<path d="M30.609 13.08C29.7292 13.8999 28.8646 14.7047 27.9999 15.5056C23.9839 19.2334 19.9679 22.9649 15.9481 26.685C15.0266 27.5391 14.0709 28.359 12.9143 28.8601C11.5377 29.4561 10.7489 29.0841 10.3052 27.5998C9.68709 25.5234 10.017 23.5874 11.2116 21.8033C12.2279 20.2848 13.5097 19.0208 14.8256 17.7909C16.9227 15.8321 19.035 13.8923 21.1739 11.9867C22.1106 11.1516 23.1345 10.3886 24.3859 10.1342C28.1327 9.37882 30.5218 12.9699 30.6128 13.0762L30.609 13.08Z" fill="white"/>
<path d="M12.5806 32.045C14.8598 31.3882 16.5701 29.942 18.2349 28.4197C23.5441 23.576 28.8457 18.7285 34.1776 13.9113C35.3532 12.8484 36.5894 11.831 37.8979 10.9428C39.5626 9.81155 41.3715 9.64832 43.1539 10.7264C43.7985 11.1136 44.432 11.5653 44.9552 12.1044C46.7717 13.9834 48.5654 15.8928 50.3136 17.8364C52.1719 19.9014 53.9997 21.9969 55.7784 24.1302C56.3888 24.8628 56.8895 25.717 57.3029 26.5825C58.0727 28.192 57.8755 29.7825 56.9388 31.282C56.1007 32.6258 54.9781 33.7266 53.8217 34.7705C49.2935 38.8627 44.7656 42.9548 40.1846 46.99C38.9559 48.0755 37.6019 49.0474 36.2064 49.9055C33.5784 51.5263 30.9428 51.3251 28.5461 49.4043C27.1505 48.2883 25.8384 47.0394 24.6401 45.7106C20.7795 41.4325 16.991 37.0937 13.176 32.7738C12.9826 32.5574 12.8082 32.3221 12.5806 32.0412V32.045Z" fill="white"/>
<path d="M91.1276 10.8503H96.8842V42.0613H91.1276V39.4308C89.4324 41.6021 87.0205 42.684 83.8996 42.684C80.7785 42.684 78.3287 41.5451 76.2012 39.2713C74.0737 36.9975 73.012 34.2111 73.012 30.9124C73.012 27.6136 74.0737 24.8273 76.2012 22.5535C78.3287 20.2797 80.8922 19.1409 83.8996 19.1409C86.9067 19.1409 89.4324 20.2265 91.1276 22.3941V10.8465V10.8503ZM80.5282 35.4411C81.7038 36.614 83.1828 37.2024 84.9689 37.2024C86.7552 37.2024 88.2266 36.614 89.387 35.4411C90.5474 34.2681 91.1276 32.7572 91.1276 30.9162C91.1276 29.0751 90.5474 27.5643 89.387 26.3913C88.2266 25.2183 86.7552 24.6299 84.9689 24.6299C83.1828 24.6299 81.7038 25.2183 80.5282 26.3913C79.3525 27.5643 78.7647 29.0751 78.7647 30.9162C78.7647 32.7572 79.3525 34.2681 80.5282 35.4411Z" fill="white"/>
<path d="M116.122 19.7672H122.281L114.147 42.0993C112.986 45.2843 111.45 47.5959 109.532 49.0384C107.616 50.4809 105.231 51.1302 102.379 50.9784V45.6297C103.927 45.6602 105.151 45.3337 106.062 44.6502C106.968 43.9671 107.692 42.866 108.227 41.3516L99.08 19.771H105.371L111.189 34.754L116.126 19.771L116.122 19.7672Z" fill="white"/>
<path d="M136.912 19.1409C139.35 19.1409 141.368 19.957 142.957 21.5931C144.549 23.2292 145.342 25.4879 145.342 28.369V42.0576H139.585V29.0827C139.585 27.5984 139.183 26.4596 138.379 25.6701C137.575 24.8843 136.506 24.4895 135.167 24.4895C133.681 24.4895 132.49 24.9488 131.599 25.8712C130.708 26.7937 130.26 28.1754 130.26 30.0165V42.0536H124.503V19.7596H130.26V22.2574C131.66 20.1772 133.874 19.1371 136.908 19.1371L136.912 19.1409Z" fill="white"/>
<path d="M166.298 19.7672H172.055V42.0613H166.298V39.4308C164.572 41.6021 162.149 42.684 159.024 42.684C155.899 42.684 153.499 41.5451 151.372 39.2713C149.244 36.9975 148.182 34.2112 148.182 30.9124C148.182 27.6136 149.244 24.8273 151.372 22.5535C153.499 20.2797 156.047 19.1409 159.024 19.1409C162.149 19.1409 164.572 20.2265 166.298 22.3941V19.7634V19.7672ZM155.676 35.4411C156.836 36.6141 158.308 37.2024 160.094 37.2024C161.88 37.2024 163.359 36.6141 164.534 35.4411C165.71 34.2681 166.298 32.7573 166.298 30.9162C166.298 29.0751 165.71 27.5643 164.534 26.3913C163.359 25.2183 161.88 24.6299 160.094 24.6299C158.308 24.6299 156.836 25.2183 155.676 26.3913C154.515 27.5643 153.935 29.0751 153.935 30.9162C153.935 32.7573 154.515 34.2681 155.676 35.4411Z" fill="white"/>
<path d="M200.371 19.1409C202.931 19.1409 204.975 19.9722 206.507 21.6387C208.039 23.3051 208.806 25.5334 208.806 28.3273V42.0613H203.049V28.7297C203.049 27.3935 202.723 26.3534 202.067 25.6093C201.41 24.8653 200.489 24.4933 199.298 24.4933C197.99 24.4933 196.97 24.926 196.242 25.7877C195.514 26.6494 195.15 27.8983 195.15 29.5344V42.0652H189.393V28.7335C189.393 27.3973 189.067 26.3571 188.411 25.6131C187.755 24.8691 186.833 24.4971 185.642 24.4971C184.364 24.4971 183.344 24.9298 182.586 25.7915C181.827 26.6532 181.448 27.9021 181.448 29.5382V42.0689H175.691V19.7748H181.448V22.1397C182.787 20.1468 184.853 19.1522 187.652 19.1522C190.451 19.1522 192.411 20.2227 193.72 22.3637C195.206 20.2227 197.425 19.1522 200.368 19.1522L200.371 19.1409Z" fill="white"/>
<path d="M215.313 17.091C214.361 17.091 213.534 16.7418 212.837 16.0433C212.139 15.3448 211.786 14.5211 211.786 13.5683C211.786 12.6155 212.135 11.7841 212.837 11.0705C213.534 10.3568 214.361 10 215.313 10C216.265 10 217.133 10.3568 217.835 11.0705C218.533 11.7841 218.882 12.6155 218.882 13.5683C218.882 14.5211 218.533 15.3448 217.835 16.0433C217.137 16.7418 216.295 17.091 215.313 17.091ZM212.458 42.0613V19.7672H218.214V42.0613H212.458Z" fill="white"/>
<path d="M232.818 42.684C229.454 42.684 226.652 41.5564 224.407 39.2939C222.162 37.0354 221.039 34.2415 221.039 30.9124C221.039 27.5833 222.162 24.7894 224.407 22.5307C226.652 20.2721 229.458 19.1409 232.818 19.1409C234.991 19.1409 236.967 19.6609 238.753 20.701C240.539 21.7412 241.893 23.1381 242.814 24.8919L237.862 27.7882C237.414 26.8658 236.739 26.137 235.833 25.6017C234.927 25.0665 233.906 24.8007 232.777 24.8007C231.051 24.8007 229.621 25.374 228.491 26.5166C227.361 27.663 226.796 29.1244 226.796 30.9086C226.796 32.6927 227.361 34.1125 228.491 35.2551C229.621 36.4016 231.051 36.9707 232.777 36.9707C233.937 36.9707 234.968 36.7128 235.878 36.1889C236.785 35.6688 237.464 34.9476 237.907 34.0251L242.906 36.8799C241.923 38.6336 240.539 40.038 238.757 41.0934C236.971 42.1487 234.995 42.6764 232.822 42.6764L232.818 42.684Z" fill="white"/>
</svg>
