<svg width="170" height="41" viewBox="0 0 170 41" fill="none" xmlns="http://www.w3.org/2000/svg">
<path d="M62.38 8.2H78.19V11.634H66.392V17.856H75.98V21.29H66.392V32H62.38V8.2ZM87.8657 32.272C86.0977 32.272 84.5223 31.8753 83.1397 31.082C81.757 30.2887 80.6803 29.1553 79.9097 27.682C79.1617 26.2087 78.7877 24.5087 78.7877 22.582C78.7877 20.6553 79.1617 18.9553 79.9097 17.482C80.6803 16.0087 81.7457 14.8753 83.1057 14.082C84.4883 13.2887 86.0637 12.892 87.8317 12.892C89.1463 12.892 90.3703 13.1753 91.5037 13.742C92.637 14.286 93.5097 15 94.1217 15.884V13.164H98.0317V32H94.1217V29.314C93.5097 30.198 92.637 30.912 91.5037 31.456C90.393 32 89.1803 32.272 87.8657 32.272ZM82.7317 22.582C82.7317 23.8287 82.9697 24.928 83.4457 25.88C83.9443 26.832 84.6243 27.58 85.4857 28.124C86.347 28.6453 87.333 28.906 88.4437 28.906C89.5543 28.906 90.5403 28.6453 91.4017 28.124C92.263 27.58 92.9317 26.832 93.4077 25.88C93.8837 24.928 94.1217 23.8287 94.1217 22.582C94.1217 21.3353 93.8723 20.236 93.3737 19.284C92.8977 18.3093 92.229 17.5613 91.3677 17.04C90.529 16.496 89.5543 16.224 88.4437 16.224C87.333 16.224 86.347 16.496 85.4857 17.04C84.6243 17.5613 83.9443 18.3093 83.4457 19.284C82.9697 20.236 82.7317 21.3353 82.7317 22.582ZM124.722 12.892C125.992 12.892 127.114 13.1753 128.088 13.742C129.086 14.286 129.868 15.068 130.434 16.088C131.001 17.0853 131.284 18.2413 131.284 19.556V32H127.374V20.474C127.374 19.2273 127.034 18.23 126.354 17.482C125.697 16.734 124.802 16.36 123.668 16.36C122.172 16.36 120.982 17.0287 120.098 18.366C119.237 19.6807 118.806 21.494 118.806 23.806V32H114.896V20.474C114.896 19.2273 114.568 18.23 113.91 17.482C113.253 16.734 112.358 16.36 111.224 16.36C109.728 16.36 108.538 17.0173 107.654 18.332C106.793 19.6467 106.362 21.4713 106.362 23.806V32H102.452V13.164H106.362V15.986C106.861 15.102 107.643 14.3653 108.708 13.776C109.774 13.1867 110.952 12.892 112.244 12.892C113.65 12.892 114.862 13.232 115.882 13.912C116.925 14.5693 117.673 15.51 118.126 16.734C118.852 15.4873 119.804 14.5353 120.982 13.878C122.161 13.2207 123.408 12.892 124.722 12.892ZM135.489 13.164H139.399V32H135.489V13.164ZM137.461 10.75C136.781 10.75 136.215 10.5347 135.761 10.104C135.308 9.67333 135.081 9.12933 135.081 8.472C135.081 7.81467 135.308 7.27067 135.761 6.84C136.215 6.38667 136.781 6.16 137.461 6.16C138.141 6.16 138.708 6.38667 139.161 6.84C139.615 7.27067 139.841 7.81467 139.841 8.472C139.841 9.12933 139.615 9.67333 139.161 10.104C138.708 10.5347 138.141 10.75 137.461 10.75ZM149.671 32.204C149.399 32.2493 148.991 32.272 148.447 32.272C146.974 32.272 145.807 31.8753 144.945 31.082C144.107 30.266 143.687 29.008 143.687 27.308V7.928H147.597V26.866C147.597 28.294 148.289 28.9513 149.671 28.838V32.204ZM154.329 38.018C153.355 38.018 152.301 37.7573 151.167 37.236V33.904C152.278 34.4933 153.275 34.788 154.159 34.788C155.565 34.788 156.539 34.1307 157.083 32.816L157.593 31.49L150.283 13.164H154.363L159.531 26.56L164.801 13.164H168.813L160.415 34.176C159.373 36.7373 157.344 38.018 154.329 38.018Z" fill="white"/>
<path d="M40.0108 20.0054C40.0108 16.7412 37.673 14.0156 34.5812 13.4231V13.2938C37.673 12.7013 40.0108 9.97576 40.0108 6.71155C40.0108 3.00566 37.0051 0.010773 33.31 0.010773C30.0673 0.010773 27.3741 2.30541 26.7385 5.35416H26.5769C25.9413 2.29464 23.2373 0 20.0054 0C16.7735 0 14.0695 2.29464 13.4339 5.34339H13.2723C12.6475 2.29464 9.94344 0 6.70078 0C3.00566 0 0 3.00566 0 6.70078C0 9.96499 2.33773 12.6905 5.42957 13.2831V13.4123C2.33773 14.0156 0 16.7304 0 20.0054C0 23.2804 2.33773 25.9952 5.42957 26.5877V26.7169C2.33773 27.3095 0 30.035 0 33.2992C0 37.0051 3.00566 40 6.70078 40C9.94344 40 12.6475 37.7054 13.2723 34.6458H13.4339C14.0587 37.6946 16.7627 40 20.0054 40C23.248 40 25.9521 37.7054 26.5769 34.6458H26.7385C27.3633 37.6946 30.0673 40 33.31 40C37.0159 40 40.0108 36.9943 40.0108 33.2992C40.0108 30.035 37.673 27.3095 34.5812 26.7169V26.5877C37.673 25.9952 40.0108 23.2696 40.0108 20.0054ZM30.7676 29.1947C30.7676 30.0673 30.0673 30.7676 29.1947 30.7676H10.8161C9.94344 30.7676 9.2432 30.0673 9.2432 29.1947V10.8161C9.2432 9.94344 9.94344 9.2432 10.8161 9.2432H29.1947C30.0673 9.2432 30.7676 9.94344 30.7676 10.8161V29.1947Z" fill="white"/>
</svg>
