<svg width="190" height="61" viewBox="0 0 190 61" fill="none" xmlns="http://www.w3.org/2000/svg">
<path d="M72.38 18.2H88.19V21.634H76.392V27.856H85.98V31.29H76.392V42H72.38V18.2ZM97.8657 42.272C96.0977 42.272 94.5223 41.8753 93.1397 41.082C91.757 40.2887 90.6803 39.1553 89.9097 37.682C89.1617 36.2087 88.7877 34.5087 88.7877 32.582C88.7877 30.6553 89.1617 28.9553 89.9097 27.482C90.6803 26.0087 91.7457 24.8753 93.1057 24.082C94.4883 23.2887 96.0637 22.892 97.8317 22.892C99.1463 22.892 100.37 23.1753 101.504 23.742C102.637 24.286 103.51 25 104.122 25.884V23.164H108.032V42H104.122V39.314C103.51 40.198 102.637 40.912 101.504 41.456C100.393 42 99.1803 42.272 97.8657 42.272ZM92.7317 32.582C92.7317 33.8287 92.9697 34.928 93.4457 35.88C93.9443 36.832 94.6243 37.58 95.4857 38.124C96.347 38.6453 97.333 38.906 98.4437 38.906C99.5543 38.906 100.54 38.6453 101.402 38.124C102.263 37.58 102.932 36.832 103.408 35.88C103.884 34.928 104.122 33.8287 104.122 32.582C104.122 31.3353 103.872 30.236 103.374 29.284C102.898 28.3093 102.229 27.5613 101.368 27.04C100.529 26.496 99.5543 26.224 98.4437 26.224C97.333 26.224 96.347 26.496 95.4857 27.04C94.6243 27.5613 93.9443 28.3093 93.4457 29.284C92.9697 30.236 92.7317 31.3353 92.7317 32.582ZM134.722 22.892C135.992 22.892 137.114 23.1753 138.088 23.742C139.086 24.286 139.868 25.068 140.434 26.088C141.001 27.0853 141.284 28.2413 141.284 29.556V42H137.374V30.474C137.374 29.2273 137.034 28.23 136.354 27.482C135.697 26.734 134.802 26.36 133.668 26.36C132.172 26.36 130.982 27.0287 130.098 28.366C129.237 29.6807 128.806 31.494 128.806 33.806V42H124.896V30.474C124.896 29.2273 124.568 28.23 123.91 27.482C123.253 26.734 122.358 26.36 121.224 26.36C119.728 26.36 118.538 27.0173 117.654 28.332C116.793 29.6467 116.362 31.4713 116.362 33.806V42H112.452V23.164H116.362V25.986C116.861 25.102 117.643 24.3653 118.708 23.776C119.774 23.1867 120.952 22.892 122.244 22.892C123.65 22.892 124.862 23.232 125.882 23.912C126.925 24.5693 127.673 25.51 128.126 26.734C128.852 25.4873 129.804 24.5353 130.982 23.878C132.161 23.2207 133.408 22.892 134.722 22.892ZM145.489 23.164H149.399V42H145.489V23.164ZM147.461 20.75C146.781 20.75 146.215 20.5347 145.761 20.104C145.308 19.6733 145.081 19.1293 145.081 18.472C145.081 17.8147 145.308 17.2707 145.761 16.84C146.215 16.3867 146.781 16.16 147.461 16.16C148.141 16.16 148.708 16.3867 149.161 16.84C149.615 17.2707 149.841 17.8147 149.841 18.472C149.841 19.1293 149.615 19.6733 149.161 20.104C148.708 20.5347 148.141 20.75 147.461 20.75ZM159.671 42.204C159.399 42.2493 158.991 42.272 158.447 42.272C156.974 42.272 155.807 41.8753 154.945 41.082C154.107 40.266 153.687 39.008 153.687 37.308V17.928H157.597V36.866C157.597 38.294 158.289 38.9513 159.671 38.838V42.204ZM164.329 48.018C163.355 48.018 162.301 47.7573 161.167 47.236V43.904C162.278 44.4933 163.275 44.788 164.159 44.788C165.565 44.788 166.539 44.1307 167.083 42.816L167.593 41.49L160.283 23.164H164.363L169.531 36.56L174.801 23.164H178.813L170.415 44.176C169.373 46.7373 167.344 48.018 164.329 48.018Z" fill="white"/>
<path d="M50.0108 30.0054C50.0108 26.7412 47.673 24.0156 44.5812 23.4231V23.2938C47.673 22.7013 50.0108 19.9758 50.0108 16.7116C50.0108 13.0057 47.0051 10.0108 43.31 10.0108C40.0673 10.0108 37.3741 12.3054 36.7385 15.3542H36.5769C35.9413 12.2946 33.2373 10 30.0054 10C26.7735 10 24.0695 12.2946 23.4339 15.3434H23.2723C22.6475 12.2946 19.9434 10 16.7008 10C13.0057 10 10 13.0057 10 16.7008C10 19.965 12.3377 22.6905 15.4296 23.2831V23.4123C12.3377 24.0156 10 26.7304 10 30.0054C10 33.2804 12.3377 35.9952 15.4296 36.5877V36.7169C12.3377 37.3095 10 40.035 10 43.2992C10 47.0051 13.0057 50 16.7008 50C19.9434 50 22.6475 47.7054 23.2723 44.6458H23.4339C24.0587 47.6946 26.7627 50 30.0054 50C33.248 50 35.9521 47.7054 36.5769 44.6458H36.7385C37.3633 47.6946 40.0673 50 43.31 50C47.0159 50 50.0108 46.9943 50.0108 43.2992C50.0108 40.035 47.673 37.3095 44.5812 36.7169V36.5877C47.673 35.9952 50.0108 33.2696 50.0108 30.0054ZM40.7676 39.1947C40.7676 40.0673 40.0673 40.7676 39.1947 40.7676H20.8161C19.9434 40.7676 19.2432 40.0673 19.2432 39.1947V20.8161C19.2432 19.9434 19.9434 19.2432 20.8161 19.2432H39.1947C40.0673 19.2432 40.7676 19.9434 40.7676 20.8161V39.1947Z" fill="white"/>
</svg>
