<svg width="188" height="61" viewBox="0 0 188 61" fill="none" xmlns="http://www.w3.org/2000/svg">
<g clip-path="url(#clip0_1_369)">
<mask id="mask0_1_369" style="mask-type:luminance" maskUnits="userSpaceOnUse" x="10" y="10" width="168" height="41">
<path d="M177.667 10H10V50.9486H177.667V10Z" fill="white"/>
</mask>
<g mask="url(#mask0_1_369)">
<path d="M47.1434 16.2223C47.143 14.5802 46.4884 13.0056 45.3236 11.8445C44.1588 10.6834 42.5791 10.0309 40.9319 10.0305C37.9191 10 35.4303 12.1458 34.8129 14.9653H34.6592C34.3728 13.5693 33.6124 12.3144 32.506 11.4121C31.3998 10.5098 30.0153 10.0151 28.5859 10.0116C27.1565 10.008 25.7695 10.4957 24.6587 11.3924C23.5479 12.2892 22.7812 13.5403 22.4877 14.9348H22.334C22.1054 13.8344 21.5815 12.8165 20.8183 11.9895C20.055 11.1625 19.0809 10.5575 17.9999 10.2389C16.9188 9.92028 15.7713 9.90005 14.6796 10.1803C13.588 10.4606 12.593 11.0309 11.8009 11.8305C11.0088 12.63 10.4491 13.6288 10.1816 14.7205C9.91412 15.8121 9.94877 16.9556 10.2819 18.0292C10.615 19.1027 11.2341 20.0661 12.0732 20.8165C12.9123 21.5669 13.9399 22.0764 15.0466 22.2904V22.4132C13.627 22.6891 12.3478 23.4485 11.4282 24.5613C10.5085 25.6741 10.0057 27.071 10.0057 28.5127C10.0057 29.9544 10.5085 31.3513 11.4282 32.4641C12.3478 33.5768 13.627 34.3362 15.0466 34.6122V34.734C13.9388 34.9438 12.9091 35.4499 12.0675 36.198C11.226 36.9462 10.6043 37.9083 10.2689 38.9814C9.93354 40.0546 9.89712 41.1985 10.1636 42.2907C10.43 43.3828 10.9892 44.3823 11.7815 45.1821C12.5738 45.9819 13.5693 46.5521 14.6615 46.8314C15.7537 47.1108 16.9015 47.0891 17.9823 46.7684C19.063 46.4477 20.036 45.8402 20.7971 45.0109C21.5583 44.1815 22.0789 43.1616 22.3034 42.0601H22.4571C23.0413 44.8796 25.5624 47.0219 28.5455 47.0219C29.9804 47.0285 31.3729 46.5368 32.4837 45.6313C33.5946 44.7259 34.3545 43.4632 34.633 42.0601H34.7867C35.3709 44.8796 37.8921 47.0219 40.8751 47.0219C42.4212 47.0182 43.9105 46.441 45.0528 45.4026C46.1952 44.3642 46.9089 42.939 47.0548 41.4048C47.2006 39.8705 46.7682 38.3371 45.8418 37.1033C44.9154 35.8694 43.5614 35.0236 42.0436 34.7306V34.6087C43.4631 34.3328 44.7423 33.5733 45.6619 32.4606C46.5816 31.3478 47.0845 29.951 47.0845 28.5092C47.0845 27.0675 46.5816 25.6706 45.6619 24.5578C44.7423 23.445 43.4631 22.6856 42.0436 22.4097V22.2869C43.4735 22.0356 44.7688 21.2898 45.7016 20.1805C46.6344 19.0713 47.1449 17.6697 47.1434 16.2223ZM38.5645 37.033C38.5648 37.2223 38.5276 37.4098 38.4551 37.5847C38.3827 37.7597 38.2762 37.9186 38.1419 38.0525C38.0077 38.1863 37.8482 38.2924 37.6727 38.3647C37.4972 38.437 37.3091 38.474 37.1192 38.4737H20.0548C19.8648 38.474 19.6768 38.437 19.5013 38.3647C19.3258 38.2924 19.1663 38.1863 19.032 38.0525C18.8978 37.9186 18.7913 37.7597 18.7188 37.5847C18.6463 37.4098 18.6092 37.2223 18.6095 37.033V20.0228C18.6092 19.8336 18.6463 19.646 18.7188 19.4711C18.7913 19.2961 18.8978 19.1372 19.032 19.0034C19.1663 18.8695 19.3258 18.7634 19.5013 18.6911C19.6768 18.6188 19.8648 18.5818 20.0548 18.5821H37.1192C37.3091 18.5818 37.4972 18.6188 37.6727 18.6911C37.8482 18.7634 38.0077 18.8695 38.1419 19.0034C38.2762 19.1372 38.3827 19.2961 38.4551 19.4711C38.5276 19.646 38.5648 19.8336 38.5645 20.0228V37.033Z" fill="white"/>
<path d="M66.453 21.1875H80.1659V16.4973H60.9489V43.2553H66.453V31.5472H78.0142V26.9188H66.453V21.1875Z" fill="white"/>
<path d="M95.8471 25.6618C94.6175 23.8234 92.127 22.6282 89.5744 22.6282C83.6712 22.6282 79.6743 26.7038 79.6743 33.1097C79.6743 39.5156 83.6712 43.5921 89.5744 43.6226C92.127 43.6226 94.6481 42.3665 95.8471 40.589V43.2875H100.982V22.9651H95.8471V25.6618ZM90.3455 39.2414C87.1145 39.2414 84.8719 36.7283 84.844 33.1115C84.844 29.4337 87.1197 26.9815 90.3455 26.9815C93.5714 26.9815 95.8471 29.4337 95.8471 33.1115C95.8471 36.6961 93.5714 39.2397 90.3403 39.2397L90.3455 39.2414Z" fill="white"/>
<path d="M128.778 22.6282C126.071 22.6282 123.8 23.8234 122.26 26.2746C121.125 24.0375 118.816 22.6282 115.957 22.6282C113.127 22.6282 111.251 24.007 110.083 25.7846V22.9651H104.948V43.2527H110.083V31.4245C110.083 28.7582 111.682 27.1025 114.142 27.1025C116.602 27.1025 118.197 29.0028 118.197 31.4245V43.2857H123.332V31.4245C123.332 29.1864 124.467 27.1025 127.391 27.1025C130.098 27.1025 131.481 29.0646 131.481 31.4245V43.2527H136.623V30.0761C136.623 25.4782 133.052 22.6282 128.778 22.6282Z" fill="white"/>
<path d="M142.86 20.2987C144.78 20.2987 146.335 18.748 146.335 16.8351C146.335 14.9221 144.78 13.3714 142.86 13.3714C140.941 13.3714 139.385 14.9221 139.385 16.8351C139.385 18.748 140.941 20.2987 142.86 20.2987Z" fill="white"/>
<path d="M145.443 22.965H140.308V43.2857H145.443V22.965Z" fill="white"/>
<path d="M154.33 36.8189V16.4982H149.198V37.3708C149.198 42.6729 152.704 44.0213 156.796 43.4999V39.0865C155.375 39.2092 154.33 38.7191 154.33 36.8189Z" fill="white"/>
<path d="M172.194 22.965L167.059 36.1146L162.047 22.9703H156.513L164.48 42.7643L163.869 44.2668C163.162 46.0443 161.747 46.5344 160.425 46.5344C159.503 46.5344 158.334 46.2584 156.828 45.5229V50.0285C158.058 50.5728 159.381 50.8848 160.725 50.9486C164.723 50.9486 167.152 49.3818 168.536 45.952L177.667 22.965H172.194Z" fill="white"/>
</g>
</g>
<defs>
<clipPath id="clip0_1_369">
<rect width="167.667" height="41" fill="white" transform="translate(10 10)"/>
</clipPath>
</defs>
</svg>
