<svg width="708" height="237" viewBox="0 0 708 237" fill="none" xmlns="http://www.w3.org/2000/svg">
<path d="M177.346 118.896C181.573 117.631 186.113 119.428 188.343 123.249L212.993 165.488C216.109 170.828 212.274 177.549 206.109 177.549H79.0922C72.6147 177.549 68.8369 170.208 72.5845 164.903L83.7947 149.035C85.0322 147.283 86.8183 145.998 88.8681 145.385L177.346 118.896Z" fill="black"/>
<path opacity="0.75" d="M131.712 59.3285C133.532 56.0723 138.408 56.8671 139.109 60.5342L149.517 115.017C150.055 117.829 148.394 120.597 145.666 121.435L96.4242 136.563C92.9833 137.621 90.017 133.924 91.7781 130.773L131.712 59.3285Z" fill="black"/>
<path opacity="0.5" d="M144.295 55.8685C143.784 53.2085 147.364 51.8639 148.717 54.2082L179.987 108.416C180.772 109.777 180.065 111.515 178.556 111.936L160.441 116.988C158.197 117.614 155.898 116.185 155.457 113.889L144.295 55.8685Z" fill="black"/>
<path d="M269.5 69.2742H279.518V79.1735H269.5V69.2742ZM269.5 94.9196H279.393V159.78H269.5V94.9196Z" fill="black"/>
<path d="M332.852 161.274C327.544 161.274 323.562 160.569 320.908 159.158C318.254 157.747 316.471 155.589 315.558 152.684C314.646 149.779 314.19 145.671 314.19 140.359V104.132H297.393V94.9196H314.687L315.558 76.1942H325.263L324.392 94.9196H347.16V104.132H324.392V139.861C324.392 142.766 324.682 145.049 325.263 146.709C325.926 148.368 327.129 149.655 328.871 150.568C330.695 151.398 333.391 151.813 336.958 151.813C340.11 151.813 349.897 151.813 349.897 151.813V161.274C349.897 161.274 336.916 161.274 332.852 161.274Z" fill="black"/>
<path d="M370.004 69.2742H380.455V104.506H381.326C383.233 100.19 385.514 97.285 388.169 95.7911C390.906 94.2142 395.094 93.4257 400.735 93.4257C406.292 93.4257 410.563 94.1727 413.549 95.6666C416.535 97.1605 418.65 99.6504 419.895 103.136C421.222 106.622 421.885 111.643 421.885 118.2V159.905H411.559V117.951C411.559 113.967 411.103 110.896 410.19 108.738C409.361 106.58 407.951 105.045 405.96 104.132C403.969 103.219 401.149 102.763 397.5 102.763C393.021 102.763 389.579 103.468 387.173 104.879C384.768 106.29 383.026 108.655 381.948 111.975C380.952 115.295 380.455 120.026 380.455 126.167V159.905H370.004V69.2742Z" fill="black"/>
<path d="M460.53 161.15C455.222 161.15 451.116 160.569 448.213 159.407C445.393 158.245 443.361 156.294 442.116 153.556C440.955 150.817 440.375 146.916 440.375 141.853C440.375 135.878 441.246 131.271 442.987 128.035C444.729 124.715 447.632 122.391 451.696 121.063C455.844 119.652 461.691 118.947 469.239 118.947H480.934V115.834C480.934 112.349 480.478 109.651 479.566 107.742C478.736 105.833 477.243 104.464 475.087 103.634C473.013 102.804 470.027 102.389 466.129 102.389C461.069 102.389 457.627 103.053 455.802 104.381C453.977 105.626 452.982 108.074 452.816 111.726H442.365C442.365 106.912 443.07 103.219 444.48 100.646C445.89 97.9905 448.296 96.1231 451.696 95.0441C455.097 93.8822 459.908 93.3012 466.129 93.3012C472.598 93.3012 477.575 93.9652 481.059 95.2931C484.625 96.621 487.114 98.9034 488.524 102.14C490.017 105.377 490.763 109.942 490.763 115.834V159.905H481.307V151.564H480.437C478.28 155.216 475.792 157.747 472.972 159.158C470.234 160.486 466.087 161.15 460.53 161.15ZM463.143 151.813C467.788 151.813 471.354 151.107 473.842 149.696C476.331 148.202 478.114 145.754 479.192 142.351C480.271 138.948 480.81 134.093 480.81 127.786L466.751 127.91C462.604 127.993 459.369 128.45 457.046 129.28C454.807 130.027 453.189 131.313 452.194 133.139C451.282 134.882 450.826 137.413 450.826 140.733C450.826 145.049 451.696 147.995 453.438 149.572C455.18 151.066 458.415 151.813 463.143 151.813Z" fill="black"/>
<path d="M539.734 161.15C532.352 161.15 526.629 160.154 522.565 158.162C518.584 156.087 515.722 152.684 513.98 147.953C512.321 143.14 511.492 136.293 511.492 127.412C511.492 118.449 512.321 111.56 513.98 106.746C515.722 101.85 518.584 98.4054 522.565 96.4135C526.546 94.3387 532.186 93.3012 539.485 93.3012C545.623 93.3012 550.393 93.9237 553.793 95.1686C557.194 96.4135 559.682 98.5299 561.258 101.518C562.834 104.423 563.788 108.572 564.12 113.967H553.793C552.964 109.651 551.595 106.705 549.688 105.128C547.78 103.551 544.628 102.763 540.232 102.763C535.421 102.763 531.73 103.51 529.159 105.004C526.588 106.497 524.721 109.029 523.56 112.598C522.482 116.083 521.943 121.105 521.943 127.661C521.943 133.969 522.482 138.824 523.56 142.227C524.721 145.63 526.588 148.078 529.159 149.572C531.813 150.983 535.546 151.688 540.356 151.688C544.669 151.688 547.738 151.024 549.563 149.696C551.471 148.285 552.881 145.671 553.793 141.853H564.12C563.788 146.916 562.834 150.817 561.258 153.556C559.682 156.294 557.194 158.245 553.793 159.407C550.476 160.569 545.789 161.15 539.734 161.15Z" fill="black"/>
<path d="M602.267 161.15C596.959 161.15 592.853 160.569 589.95 159.407C587.13 158.245 585.098 156.294 583.853 153.556C582.692 150.817 582.112 146.916 582.112 141.853C582.112 135.878 582.982 131.271 584.724 128.035C586.466 124.715 589.369 122.391 593.433 121.063C597.581 119.652 603.428 118.947 610.976 118.947H622.671V115.834C622.671 112.349 622.215 109.651 621.303 107.742C620.473 105.833 618.98 104.464 616.824 103.634C614.75 102.804 611.764 102.389 607.866 102.389C602.806 102.389 599.364 103.053 597.539 104.381C595.714 105.626 594.719 108.074 594.553 111.726H584.102C584.102 106.912 584.807 103.219 586.217 100.646C587.627 97.9905 590.033 96.1231 593.433 95.0441C596.834 93.8822 601.645 93.3012 607.866 93.3012C614.335 93.3012 619.312 93.9652 622.796 95.2931C626.362 96.621 628.85 98.9034 630.261 102.14C631.754 105.377 632.5 109.942 632.5 115.834V159.905H623.044V151.564H622.173C620.017 155.216 617.529 157.747 614.709 159.158C611.971 160.486 607.824 161.15 602.267 161.15ZM604.88 151.813C609.525 151.813 613.091 151.107 615.579 149.696C618.068 148.202 619.851 145.754 620.929 142.351C622.008 138.948 622.547 134.093 622.547 127.786L608.488 127.91C604.341 127.993 601.106 128.45 598.783 129.28C596.544 130.027 594.926 131.313 593.931 133.139C593.019 134.882 592.562 137.413 592.562 140.733C592.562 145.049 593.433 147.995 595.175 149.572C596.917 151.066 600.152 151.813 604.88 151.813Z" fill="black"/>
<path d="M511.092 127.412C511.092 118.433 511.922 111.492 513.603 106.616L513.604 106.612L513.772 106.15C515.557 101.416 518.424 98.0373 522.386 96.0554C526.449 93.9398 532.161 92.9011 539.485 92.9011C545.642 92.9011 550.466 93.5243 553.931 94.7927L554.574 95.0427C557.735 96.3451 560.088 98.4415 561.612 101.331C563.227 104.309 564.186 108.524 564.52 113.942L564.545 114.367H553.463L553.4 114.043C552.576 109.755 551.231 106.923 549.433 105.436C547.634 103.95 544.6 103.163 540.232 103.163C535.752 103.163 532.299 103.816 529.839 105.087L529.36 105.349C526.895 106.782 525.079 109.221 523.94 112.721C522.881 116.15 522.343 121.122 522.343 127.661C522.343 133.948 522.88 138.753 523.938 142.097L524.16 142.711C525.304 145.717 527.039 147.874 529.352 149.22C531.923 150.586 535.579 151.288 540.356 151.288L540.356 151.688L539.467 151.68C535.375 151.603 532.109 150.985 529.669 149.828L529.159 149.572C526.588 148.078 524.721 145.63 523.56 142.227C522.549 139.037 522.012 134.57 521.949 128.827L521.943 127.661C521.943 121.105 522.482 116.083 523.56 112.598C524.649 109.252 526.357 106.818 528.686 105.296L529.159 105.004C531.73 103.51 535.421 102.763 540.232 102.763L541.042 102.772C545.017 102.865 547.899 103.65 549.688 105.128C551.476 106.606 552.791 109.288 553.632 113.174L553.793 113.967H564.12C563.788 108.572 562.834 104.423 561.258 101.518C559.781 98.7168 557.501 96.681 554.42 95.4119L553.793 95.1686C550.605 94.0016 546.214 93.3813 540.62 93.3083L539.485 93.3012C532.186 93.3012 526.546 94.3387 522.565 96.4135C518.584 98.4054 515.722 101.85 513.98 106.746L513.827 107.204C512.27 111.993 511.492 118.729 511.492 127.412L511.502 129.053C511.599 137.141 512.425 143.441 513.98 147.953C515.722 152.684 518.584 156.087 522.565 158.162C526.375 160.029 531.643 161.022 538.369 161.138L539.734 161.15C545.789 161.15 550.476 160.569 553.793 159.407C556.981 158.318 559.368 156.535 560.952 154.06L561.258 153.556C562.834 150.817 563.788 146.916 564.12 141.853H553.793C552.881 145.671 551.471 148.285 549.563 149.696L549.206 149.937C547.35 151.104 544.4 151.688 540.356 151.688L540.356 151.288C544.651 151.288 547.611 150.623 549.328 149.373C551.123 148.044 552.501 145.54 553.404 141.76L553.478 141.453H564.547L564.519 141.88C564.206 146.652 563.342 150.44 561.901 153.214L561.604 153.756C559.974 156.589 557.402 158.594 553.925 159.783L553.926 159.784C550.546 160.968 545.807 161.55 539.734 161.55C532.325 161.55 526.532 160.552 522.389 158.521L522.38 158.516C518.299 156.39 515.376 152.903 513.604 148.092L513.602 148.084C511.922 143.208 511.092 136.308 511.092 127.412ZM421.885 118.2C421.885 112.053 421.302 107.255 420.136 103.807L419.895 103.136C418.689 99.7594 416.667 97.3169 413.827 95.8093L413.549 95.6666C410.75 94.2661 406.821 93.5219 401.762 93.4343L400.735 93.4257C395.094 93.4257 390.906 94.2142 388.169 95.7911L387.921 95.9353C385.372 97.4679 383.174 100.325 381.326 104.506H380.455V69.2742H370.004V159.905H380.455V126.167C380.455 120.026 380.952 115.295 381.948 111.975C382.959 108.863 384.552 106.59 386.729 105.155L387.173 104.879C389.579 103.468 393.021 102.763 397.5 102.763L398.174 102.768C401.498 102.822 404.094 103.276 405.96 104.132C407.951 105.045 409.361 106.58 410.19 108.738C411.103 110.896 411.559 113.967 411.559 117.951V159.905H421.885V118.2ZM490.763 115.834C490.763 109.942 490.017 105.377 488.524 102.14C487.158 99.0045 484.78 96.7649 481.39 95.4207L481.059 95.2931C477.793 94.0482 473.214 93.3871 467.324 93.3093L466.129 93.3012C459.908 93.3012 455.097 93.8822 451.696 95.0441L451.07 95.2556C447.999 96.3595 445.802 98.1565 444.48 100.646C443.07 103.219 442.365 106.912 442.365 111.726H452.816L452.857 111.055C453.102 107.882 454.027 105.698 455.634 104.502L455.802 104.381C457.627 103.053 461.069 102.389 466.129 102.389L466.849 102.394C470.397 102.443 473.143 102.856 475.087 103.634C477.243 104.464 478.736 105.833 479.566 107.742C480.478 109.651 480.934 112.349 480.934 115.834V118.947H469.239L469.239 118.547H480.534V115.835C480.534 112.375 480.08 109.746 479.205 107.915L479.201 107.908L479.199 107.902C478.417 106.103 477.012 104.804 474.943 104.008L474.938 104.006C472.935 103.204 470.008 102.789 466.129 102.789C463.614 102.789 461.516 102.954 459.828 103.28C458.136 103.606 456.883 104.089 456.037 104.705L456.027 104.712C454.36 105.85 453.38 108.136 453.216 111.744L453.198 112.126H441.965V111.726C441.965 106.884 442.673 103.112 444.13 100.454C445.507 97.864 447.789 96.0106 450.935 94.8796L451.575 94.6628C455.037 93.4818 459.896 92.9011 466.129 92.9011C472.615 92.9011 477.648 93.5659 481.198 94.9187L481.538 95.0486C485.018 96.4286 487.479 98.7401 488.891 101.98C490.416 105.293 491.163 109.922 491.163 115.835V160.304H480.907V151.964H480.662C478.506 155.555 476.007 158.086 473.15 159.515L473.146 159.517C470.327 160.885 466.106 161.55 460.53 161.55C455.202 161.55 451.037 160.968 448.064 159.778L448.061 159.777C445.148 158.577 443.039 156.554 441.752 153.721L441.748 153.712C440.556 150.9 439.975 146.937 439.975 141.853C439.975 135.849 440.848 131.166 442.635 127.845C444.376 124.529 447.239 122.188 451.187 120.813L451.572 120.682C455.78 119.252 461.677 118.547 469.239 118.547L469.239 118.947L467.844 118.955C460.967 119.038 455.584 119.74 451.696 121.063L451.318 121.19C447.452 122.537 444.675 124.819 442.987 128.035C441.246 131.271 440.375 135.878 440.375 141.853L440.382 142.789C440.45 147.399 441.028 150.988 442.116 153.556C443.361 156.294 445.393 158.245 448.213 159.407C450.934 160.496 454.713 161.075 459.549 161.143L460.53 161.15C465.739 161.15 469.71 160.566 472.441 159.399L472.972 159.158C475.792 157.747 478.28 155.216 480.437 151.564H481.307V159.905H490.763V115.834ZM632.5 115.834C632.5 109.942 631.754 105.377 630.261 102.14C628.895 99.0046 626.517 96.7649 623.127 95.4207L622.796 95.2931C619.53 94.0482 614.952 93.3872 609.062 93.3093L607.866 93.3012C601.645 93.3012 596.834 93.8822 593.433 95.0441L592.808 95.2556C589.736 96.3595 587.539 98.1565 586.217 100.646C584.807 103.219 584.102 106.912 584.102 111.726H594.553L594.594 111.055C594.838 107.883 595.764 105.698 597.37 104.502L597.539 104.381C599.364 103.053 602.806 102.389 607.866 102.389L608.586 102.394C612.134 102.443 614.88 102.856 616.824 103.634C618.98 104.464 620.473 105.833 621.303 107.742C622.215 109.651 622.671 112.349 622.671 115.834V118.947H610.976L610.976 118.547H622.271V115.835C622.271 112.375 621.817 109.746 620.941 107.915L620.938 107.908L620.936 107.902C620.154 106.103 618.748 104.804 616.68 104.008L616.675 104.006C614.671 103.204 611.745 102.789 607.865 102.789C605.351 102.789 603.253 102.955 601.565 103.28C599.979 103.586 598.778 104.029 597.938 104.591L597.765 104.712C596.097 105.85 595.117 108.136 594.953 111.744L594.936 112.126H583.702V111.726C583.702 107.186 584.324 103.588 585.603 100.966L585.866 100.454C587.335 97.6911 589.834 95.7665 593.312 94.6628C596.774 93.4819 601.633 92.9011 607.865 92.9011C614.352 92.9011 619.385 93.5658 622.936 94.9187L623.275 95.0486C626.752 96.4275 629.211 98.7367 630.623 101.972C632.151 105.285 632.9 109.917 632.9 115.835V160.304H622.645V151.964H622.398C620.243 155.554 617.744 158.086 614.888 159.515L614.883 159.517C612.063 160.885 607.842 161.55 602.267 161.55C596.938 161.55 592.773 160.968 589.801 159.778L589.798 159.777C586.885 158.577 584.776 156.554 583.489 153.721L583.485 153.712C582.293 150.9 581.712 146.937 581.712 141.853C581.712 135.849 582.585 131.166 584.372 127.845C586.113 124.529 588.977 122.188 592.924 120.813L593.31 120.682C597.517 119.252 603.414 118.547 610.976 118.547L610.976 118.947L609.581 118.955C602.704 119.037 597.321 119.74 593.433 121.063L593.056 121.19C589.189 122.537 586.412 124.819 584.724 128.035C582.982 131.271 582.112 135.878 582.112 141.853L582.118 142.789C582.186 147.399 582.765 150.988 583.853 153.556C585.098 156.294 587.13 158.245 589.95 159.407C592.671 160.496 596.45 161.075 601.286 161.143L602.267 161.15C607.477 161.15 611.447 160.566 614.179 159.399L614.709 159.158C617.529 157.747 620.017 155.216 622.173 151.564H623.044V159.905H632.5V115.834ZM279.393 94.9196H269.5V159.78H279.393V94.9196ZM349.896 151.413C349.896 151.413 349.897 151.413 349.897 151.813C349.897 151.813 340.11 151.813 336.958 151.813L336.958 151.413H349.896ZM324.392 139.861V104.132H347.16V94.9196H324.392L325.263 76.1942H315.558L314.687 94.9196H297.393V104.132H314.19V140.359L314.195 141.342C314.249 146.18 314.703 149.961 315.558 152.684C316.471 155.589 318.254 157.747 320.908 159.158C323.396 160.48 327.051 161.184 331.872 161.266L332.852 161.274H349.897L349.896 151.413H350.297V161.675H349.897H332.852C327.854 161.675 323.974 161.053 321.25 159.775L320.721 159.511C318.144 158.142 316.355 156.085 315.364 153.358L315.177 152.804C314.246 149.842 313.79 145.686 313.79 140.359V104.532H296.993V94.5193H314.306L315.158 76.1755L315.177 75.7947H325.682L324.811 94.5193H347.56V104.532H324.792V139.861C324.792 142.745 325.081 144.975 325.64 146.574C326.264 148.127 327.391 149.338 329.048 150.209C330.795 151 333.419 151.413 336.958 151.413L336.958 151.813L336.299 151.808C333.058 151.76 330.581 151.346 328.871 150.568C327.129 149.655 325.926 148.368 325.263 146.709C324.755 145.256 324.469 143.327 324.405 140.922L324.392 139.861ZM450.826 140.733C450.826 137.413 451.282 134.882 452.194 133.139C453.127 131.427 454.607 130.189 456.634 129.426L457.046 129.28C459.369 128.45 462.604 127.993 466.751 127.91L480.81 127.786C480.81 134.093 480.271 138.948 479.192 142.351L478.981 142.978C477.888 146.056 476.175 148.296 473.842 149.696L473.363 149.953C470.904 151.193 467.497 151.813 463.143 151.813L463.143 151.413C467.752 151.413 471.236 150.711 473.638 149.351C476.023 147.918 477.756 145.562 478.812 142.23L479.004 141.587C479.915 138.355 480.386 133.895 480.407 128.188L466.758 128.309L466.759 128.31C462.63 128.393 459.444 128.847 457.181 129.656L457.173 129.659C455.018 130.378 453.488 131.602 452.548 133.323L452.549 133.324C451.68 134.983 451.226 137.439 451.226 140.733C451.226 145.023 452.097 147.817 453.707 149.275C455.333 150.663 458.434 151.413 463.143 151.413L463.143 151.813L462.273 151.804C458.158 151.72 455.268 151.021 453.605 149.71L453.438 149.572C451.805 148.094 450.938 145.412 450.836 141.526L450.826 140.733ZM592.562 140.733C592.562 137.413 593.019 134.882 593.931 133.139C594.864 131.427 596.344 130.189 598.371 129.426L598.783 129.28C601.106 128.45 604.341 127.993 608.488 127.91L622.547 127.786C622.547 134.093 622.008 138.948 620.929 142.351L620.719 142.978C619.625 146.056 617.912 148.296 615.579 149.696L615.101 149.953C612.641 151.193 609.234 151.813 604.88 151.813L604.88 151.413C609.494 151.413 612.98 150.71 615.382 149.348C617.764 147.915 619.493 145.558 620.548 142.23L620.74 141.587C621.652 138.355 622.122 133.895 622.144 128.188L608.495 128.309L608.496 128.31C604.367 128.393 601.181 128.847 598.918 129.656L598.91 129.659C596.753 130.378 595.223 131.605 594.282 133.33C593.416 134.989 592.963 137.443 592.963 140.733C592.963 145.019 593.832 147.812 595.439 149.271C597.064 150.662 600.166 151.413 604.88 151.413L604.88 151.813L604.011 151.804C599.895 151.72 597.006 151.021 595.343 149.71L595.175 149.572C593.542 148.093 592.674 145.411 592.572 141.526L592.562 140.733ZM279.518 69.2742H269.5V79.1735H279.518V69.2742ZM279.793 160.18H269.1V94.5193H279.793V160.18ZM279.918 79.573H269.1V68.8738H279.918V79.573ZM380.854 104.105H381.068C382.971 99.8825 385.26 96.9698 387.969 95.4441L388.238 95.2937C391.066 93.7659 395.249 93.0261 400.734 93.0261C406.318 93.0261 410.662 93.775 413.729 95.3093L414.016 95.4568C416.95 97.015 419.033 99.5382 420.269 102.994L420.514 103.677C421.701 107.187 422.285 112.036 422.285 118.2V160.304H411.159V117.951C411.159 113.988 410.703 110.98 409.821 108.894L409.816 108.882C409.072 106.945 407.849 105.546 406.142 104.665L405.793 104.496C403.878 103.618 401.125 103.163 397.5 103.163C393.331 103.163 390.117 103.78 387.822 104.977L387.376 105.224C385.076 106.574 383.386 108.846 382.33 112.094C381.352 115.359 380.854 120.043 380.854 126.168V160.304H369.604V68.8738H380.854V104.105Z" fill="black"/>
</svg>
