<svg width="205" height="61" viewBox="0 0 205 61" fill="none" xmlns="http://www.w3.org/2000/svg">
<path d="M44.9752 31.6921C46.3664 31.2757 47.8609 31.8673 48.595 33.1251L56.7095 47.0297C57.7355 48.7875 56.4728 51 54.4433 51H12.6312C10.4987 51 9.25508 48.5834 10.4889 46.8371L14.1791 41.6135C14.5866 41.0371 15.1745 40.6138 15.8494 40.412L44.9752 31.6921Z" fill="black"/>
<path opacity="0.75" d="M29.9528 12.0831C30.5519 11.0113 32.1573 11.273 32.3878 12.4801L35.8143 30.4149C35.9911 31.3409 35.4446 32.2521 34.5466 32.528L18.3367 37.5079C17.204 37.8562 16.2273 36.6392 16.807 35.6019L29.9528 12.0831Z" fill="black"/>
<path opacity="0.5" d="M34.0953 10.9444C33.9267 10.0688 35.1055 9.62604 35.5506 10.3977L45.8443 28.2423C46.1027 28.6903 45.8703 29.2624 45.3736 29.401L39.4103 31.0641C38.6716 31.2701 37.9148 30.7997 37.7693 30.0439L34.0953 10.9444Z" fill="black"/>
<path d="M75.1792 15.3572H78.477V18.6161H75.1792V15.3572ZM75.1792 42.1593V26.7912V23.7995H78.4358V42.1593V45.151H75.1792V42.1593Z" fill="black"/>
<path d="M96.0339 45.6424C94.2866 45.6424 92.9757 45.4103 92.1021 44.9459C91.2284 44.4814 90.6415 43.771 90.3409 42.8147C90.0407 41.8587 89.8906 40.5061 89.8906 38.7578V26.832H84.3612V23.7995H90.0542L90.3409 17.6351H93.5357L93.249 23.7995H100.744V26.832H93.249V38.5938C93.249 39.5501 93.3444 40.3013 93.5357 40.8478C93.7539 41.3942 94.15 41.8176 94.7234 42.1181C95.3238 42.3914 96.2113 42.528 97.3855 42.528C98.4231 42.528 101.645 42.528 101.645 42.528V45.6424C101.645 45.6424 97.3717 45.6424 96.0339 45.6424Z" fill="black"/>
<path d="M108.264 15.3572H111.704V26.9551H111.991C112.619 25.5343 113.37 24.5781 114.244 24.0862C115.145 23.5671 116.523 23.3077 118.38 23.3077C120.209 23.3077 121.615 23.5536 122.598 24.0454C123.581 24.5372 124.278 25.3569 124.687 26.5041C125.124 27.6517 125.342 29.3045 125.342 31.463V45.1918H121.943V31.381C121.943 30.0696 121.793 29.0586 121.493 28.3486C121.22 27.6382 120.756 27.1325 120.1 26.832C119.445 26.5315 118.516 26.3813 117.315 26.3813C115.841 26.3813 114.708 26.6134 113.916 27.0779C113.124 27.5424 112.551 28.3212 112.196 29.4138C111.868 30.5067 111.704 32.0641 111.704 34.086V45.1918H108.264V15.3572Z" fill="black"/>
<path d="M138.064 45.6017C136.317 45.6017 134.965 45.4104 134.009 45.0279C133.081 44.6454 132.412 44.0035 132.002 43.1018C131.62 42.2002 131.429 40.916 131.429 39.2497C131.429 37.2824 131.716 35.7662 132.289 34.7006C132.862 33.6077 133.818 32.8427 135.156 32.4055C136.521 31.941 138.446 31.709 140.931 31.709H144.781V30.6845C144.781 29.537 144.631 28.6491 144.33 28.0207C144.057 27.3923 143.566 26.9413 142.856 26.6681C142.173 26.3949 141.19 26.2583 139.907 26.2583C138.241 26.2583 137.108 26.4768 136.508 26.914C135.907 27.3238 135.579 28.13 135.525 29.3319H132.084C132.084 27.7475 132.316 26.5315 132.78 25.6848C133.245 24.8105 134.037 24.1956 135.156 23.8404C136.275 23.4579 137.859 23.2666 139.907 23.2666C142.037 23.2666 143.675 23.4852 144.822 23.9223C145.996 24.3595 146.815 25.111 147.279 26.1763C147.771 27.2419 148.016 28.7446 148.016 30.6845V45.1918H144.903V42.4461H144.617C143.907 43.6483 143.088 44.4814 142.16 44.9459C141.258 45.3831 139.893 45.6017 138.064 45.6017ZM138.924 42.528C140.453 42.528 141.627 42.296 142.446 41.8315C143.265 41.3397 143.852 40.5335 144.207 39.4136C144.562 38.2934 144.74 36.6952 144.74 34.6186L140.112 34.6595C138.747 34.6868 137.682 34.8372 136.917 35.1104C136.18 35.3563 135.647 35.7797 135.32 36.3808C135.02 36.9546 134.869 37.7877 134.869 38.8806C134.869 40.3014 135.156 41.2712 135.729 41.7903C136.303 42.2821 137.368 42.528 138.924 42.528Z" fill="black"/>
<path d="M164.137 45.6017C161.707 45.6017 159.823 45.2738 158.485 44.618C157.175 43.935 156.232 42.8148 155.659 41.2577C155.113 39.673 154.84 37.419 154.84 34.4955C154.84 31.545 155.113 29.2772 155.659 27.6929C156.232 26.0808 157.175 24.9471 158.485 24.2914C159.796 23.6083 161.652 23.2666 164.055 23.2666C166.075 23.2666 167.646 23.4717 168.765 23.8815C169.885 24.2914 170.704 24.9879 171.222 25.9715C171.741 26.9278 172.055 28.294 172.164 30.0696H168.765C168.492 28.6491 168.041 27.679 167.414 27.1599C166.786 26.6408 165.748 26.3814 164.301 26.3814C162.717 26.3814 161.502 26.6273 160.656 27.1191C159.809 27.6109 159.195 28.4441 158.813 29.6189C158.458 30.7665 158.28 32.4193 158.28 34.5775C158.28 36.654 158.458 38.2522 158.813 39.3724C159.195 40.4927 159.809 41.2985 160.656 41.7903C161.529 42.2548 162.758 42.4869 164.342 42.4869C165.761 42.4869 166.772 42.2686 167.372 41.8315C168.001 41.367 168.465 40.5062 168.765 39.2497H172.164C172.055 40.916 171.741 42.2002 171.222 43.1018C170.704 44.0035 169.885 44.6454 168.765 45.0279C167.673 45.4104 166.13 45.6017 164.137 45.6017Z" fill="black"/>
<path d="M184.722 45.6017C182.975 45.6017 181.623 45.4104 180.667 45.0279C179.739 44.6454 179.07 44.0035 178.66 43.1018C178.278 42.2002 178.087 40.916 178.087 39.2497C178.087 37.2824 178.374 35.7662 178.947 34.7006C179.52 33.6077 180.476 32.8427 181.814 32.4055C183.179 31.941 185.104 31.709 187.589 31.709H191.439V30.6845C191.439 29.537 191.289 28.6491 190.988 28.0207C190.715 27.3923 190.224 26.9413 189.514 26.6681C188.831 26.3949 187.848 26.2583 186.565 26.2583C184.899 26.2583 183.766 26.4768 183.166 26.914C182.565 27.3238 182.237 28.13 182.183 29.3319H178.742C178.742 27.7475 178.974 26.5315 179.439 25.6848C179.903 24.8105 180.695 24.1956 181.814 23.8404C182.933 23.4579 184.517 23.2666 186.565 23.2666C188.695 23.2666 190.333 23.4852 191.48 23.9223C192.654 24.3595 193.473 25.111 193.937 26.1763C194.429 27.2419 194.674 28.7446 194.674 30.6845V45.1918H191.562V42.4461H191.275C190.565 43.6483 189.746 44.4814 188.818 44.9459C187.916 45.3831 186.551 45.6017 184.722 45.6017ZM185.582 42.528C187.111 42.528 188.285 42.296 189.104 41.8315C189.923 41.3397 190.51 40.5335 190.865 39.4136C191.22 38.2934 191.398 36.6952 191.398 34.6186L186.77 34.6595C185.405 34.6868 184.34 34.8372 183.575 35.1104C182.838 35.3563 182.305 35.7797 181.978 36.3808C181.678 36.9546 181.527 37.7877 181.527 38.8806C181.527 40.3014 181.814 41.2712 182.387 41.7903C182.961 42.2821 184.026 42.528 185.582 42.528Z" fill="black"/>
<mask id="mask0_626_2" style="mask-type:luminance" maskUnits="userSpaceOnUse" x="74" y="15" width="122" height="31">
<path d="M195.003 15.0281H74.85V45.9717H195.003V15.0281Z" fill="white"/>
<path d="M75.1792 15.3572H78.477V18.6161H75.1792V15.3572ZM75.1792 42.1593V26.7912V23.7995H78.4359V42.1593V45.151H75.1792V42.1593Z" fill="black"/>
<path d="M96.0339 45.6425C94.2866 45.6425 92.9758 45.4105 92.1021 44.946C91.2284 44.4815 90.6415 43.7711 90.341 42.8148C90.0407 41.8589 89.8906 40.5062 89.8906 38.7579V26.8321H84.3613V23.7996H90.0542L90.341 17.6353H93.5357L93.249 23.7996H100.744V26.8321H93.249V38.594C93.249 39.5503 93.3445 40.3015 93.5357 40.8479C93.754 41.3944 94.15 41.8177 94.7234 42.1183C95.3239 42.3915 96.2114 42.5281 97.3856 42.5281C98.4232 42.5281 101.645 42.5281 101.645 42.5281V45.6425C101.645 45.6425 97.3717 45.6425 96.0339 45.6425Z" fill="black"/>
<path d="M108.264 15.3572H111.704V26.9551H111.991C112.619 25.5343 113.37 24.5781 114.244 24.0862C115.145 23.5671 116.523 23.3077 118.38 23.3077C120.209 23.3077 121.615 23.5536 122.598 24.0454C123.581 24.5372 124.278 25.3569 124.687 26.5041C125.124 27.6517 125.342 29.3045 125.342 31.463V45.1918H121.943V31.381C121.943 30.0696 121.793 29.0586 121.493 28.3486C121.22 27.6382 120.756 27.1325 120.1 26.832C119.445 26.5315 118.516 26.3813 117.315 26.3813C115.841 26.3813 114.708 26.6134 113.916 27.0779C113.124 27.5424 112.551 28.3212 112.196 29.4138C111.868 30.5067 111.704 32.0641 111.704 34.086V45.1918H108.264V15.3572Z" fill="black"/>
<path d="M138.064 45.6017C136.317 45.6017 134.965 45.4104 134.009 45.0279C133.081 44.6454 132.412 44.0035 132.002 43.1018C131.62 42.2002 131.429 40.916 131.429 39.2497C131.429 37.2824 131.716 35.7662 132.289 34.7006C132.862 33.6077 133.818 32.8427 135.156 32.4055C136.521 31.941 138.446 31.709 140.931 31.709H144.781V30.6845C144.781 29.537 144.631 28.6491 144.33 28.0207C144.057 27.3923 143.566 26.9413 142.856 26.6681C142.173 26.3949 141.19 26.2583 139.907 26.2583C138.241 26.2583 137.108 26.4768 136.508 26.914C135.907 27.3238 135.579 28.13 135.525 29.3319H132.084C132.084 27.7475 132.316 26.5315 132.78 25.6848C133.245 24.8105 134.037 24.1956 135.156 23.8404C136.275 23.4579 137.859 23.2666 139.907 23.2666C142.037 23.2666 143.675 23.4852 144.822 23.9223C145.996 24.3595 146.815 25.111 147.279 26.1763C147.771 27.2419 148.016 28.7446 148.016 30.6845V45.1918H144.903V42.4461H144.617C143.907 43.6483 143.088 44.4814 142.16 44.9459C141.258 45.3831 139.893 45.6017 138.064 45.6017ZM138.924 42.528C140.453 42.528 141.627 42.296 142.446 41.8315C143.265 41.3397 143.852 40.5335 144.207 39.4136C144.562 38.2934 144.74 36.6952 144.74 34.6186L140.112 34.6595C138.747 34.6868 137.682 34.8372 136.917 35.1104C136.18 35.3563 135.647 35.7797 135.32 36.3808C135.02 36.9546 134.869 37.7877 134.869 38.8806C134.869 40.3014 135.156 41.2712 135.729 41.7903C136.303 42.2821 137.368 42.528 138.924 42.528Z" fill="black"/>
<path d="M164.137 45.6017C161.707 45.6017 159.823 45.2738 158.485 44.618C157.175 43.935 156.232 42.8148 155.659 41.2577C155.113 39.673 154.84 37.419 154.84 34.4955C154.84 31.545 155.113 29.2772 155.659 27.6929C156.232 26.0808 157.175 24.9471 158.485 24.2914C159.796 23.6083 161.652 23.2666 164.055 23.2666C166.076 23.2666 167.646 23.4717 168.765 23.8815C169.885 24.2914 170.704 24.9879 171.222 25.9715C171.741 26.9278 172.055 28.294 172.164 30.0696H168.765C168.492 28.6491 168.041 27.679 167.414 27.1599C166.786 26.6408 165.748 26.3814 164.301 26.3814C162.717 26.3814 161.502 26.6273 160.656 27.1191C159.809 27.6109 159.195 28.4441 158.813 29.6189C158.458 30.7665 158.28 32.4193 158.28 34.5775C158.28 36.654 158.458 38.2522 158.813 39.3724C159.195 40.4927 159.809 41.2985 160.656 41.7903C161.529 42.2548 162.758 42.4869 164.342 42.4869C165.761 42.4869 166.772 42.2686 167.373 41.8315C168.001 41.367 168.465 40.5062 168.765 39.2497H172.164C172.055 40.916 171.741 42.2002 171.222 43.1018C170.704 44.0035 169.885 44.6454 168.765 45.0279C167.673 45.4104 166.13 45.6017 164.137 45.6017Z" fill="black"/>
<path d="M184.722 45.6017C182.975 45.6017 181.623 45.4104 180.667 45.0279C179.739 44.6454 179.07 44.0035 178.66 43.1018C178.278 42.2002 178.087 40.916 178.087 39.2497C178.087 37.2824 178.374 35.7662 178.947 34.7006C179.521 33.6077 180.476 32.8427 181.814 32.4055C183.179 31.941 185.104 31.709 187.589 31.709H191.439V30.6845C191.439 29.537 191.289 28.6491 190.988 28.0207C190.715 27.3923 190.224 26.9413 189.514 26.6681C188.831 26.3949 187.848 26.2583 186.565 26.2583C184.899 26.2583 183.766 26.4768 183.166 26.914C182.565 27.3238 182.237 28.13 182.183 29.3319H178.742C178.742 27.7475 178.974 26.5315 179.439 25.6848C179.903 24.8105 180.695 24.1956 181.814 23.8404C182.934 23.4579 184.517 23.2666 186.565 23.2666C188.695 23.2666 190.333 23.4852 191.48 23.9223C192.654 24.3595 193.473 25.111 193.937 26.1763C194.429 27.2419 194.674 28.7446 194.674 30.6845V45.1918H191.562V42.4461H191.275C190.565 43.6483 189.746 44.4814 188.818 44.9459C187.916 45.3831 186.551 45.6017 184.722 45.6017ZM185.582 42.528C187.111 42.528 188.285 42.296 189.104 41.8315C189.923 41.3397 190.51 40.5335 190.865 39.4136C191.221 38.2934 191.398 36.6952 191.398 34.6186L186.77 34.6595C185.405 34.6868 184.34 34.8372 183.575 35.1104C182.838 35.3563 182.305 35.7797 181.978 36.3808C181.678 36.9546 181.527 37.7877 181.527 38.8806C181.527 40.3014 181.814 41.2712 182.387 41.7903C182.961 42.2821 184.026 42.528 185.582 42.528Z" fill="black"/>
</mask>
<g mask="url(#mask0_626_2)">
<path d="M75.1792 15.3572H78.477V18.6161H75.1792V15.3572ZM75.1792 42.1593V26.7912V23.7995H78.4359V42.1593V45.151H75.1792V42.1593Z" stroke="black" stroke-width="0.8"/>
</g>
<mask id="mask1_626_2" style="mask-type:luminance" maskUnits="userSpaceOnUse" x="74" y="15" width="122" height="31">
<path d="M195.003 15.0281H74.85V45.9717H195.003V15.0281Z" fill="white"/>
<path d="M75.1792 15.3572H78.477V18.6161H75.1792V15.3572ZM75.1792 42.1593V26.7912V23.7995H78.4359V42.1593V45.151H75.1792V42.1593Z" fill="black"/>
<path d="M96.0339 45.6425C94.2866 45.6425 92.9758 45.4105 92.1021 44.946C91.2284 44.4815 90.6415 43.7711 90.341 42.8148C90.0407 41.8589 89.8906 40.5062 89.8906 38.7579V26.8321H84.3613V23.7996H90.0542L90.341 17.6353H93.5357L93.249 23.7996H100.744V26.8321H93.249V38.594C93.249 39.5503 93.3445 40.3015 93.5357 40.8479C93.754 41.3944 94.15 41.8177 94.7234 42.1183C95.3239 42.3915 96.2114 42.5281 97.3856 42.5281C98.4232 42.5281 101.645 42.5281 101.645 42.5281V45.6425C101.645 45.6425 97.3717 45.6425 96.0339 45.6425Z" fill="black"/>
<path d="M108.264 15.3572H111.704V26.9551H111.991C112.619 25.5343 113.37 24.5781 114.244 24.0862C115.145 23.5671 116.523 23.3077 118.38 23.3077C120.209 23.3077 121.615 23.5536 122.598 24.0454C123.581 24.5372 124.278 25.3569 124.687 26.5041C125.124 27.6517 125.342 29.3045 125.342 31.463V45.1918H121.943V31.381C121.943 30.0696 121.793 29.0586 121.493 28.3486C121.22 27.6382 120.756 27.1325 120.1 26.832C119.445 26.5315 118.516 26.3813 117.315 26.3813C115.841 26.3813 114.708 26.6134 113.916 27.0779C113.124 27.5424 112.551 28.3212 112.196 29.4138C111.868 30.5067 111.704 32.0641 111.704 34.086V45.1918H108.264V15.3572Z" fill="black"/>
<path d="M138.064 45.6017C136.317 45.6017 134.965 45.4104 134.009 45.0279C133.081 44.6454 132.412 44.0035 132.002 43.1018C131.62 42.2002 131.429 40.916 131.429 39.2497C131.429 37.2824 131.716 35.7662 132.289 34.7006C132.862 33.6077 133.818 32.8427 135.156 32.4055C136.521 31.941 138.446 31.709 140.931 31.709H144.781V30.6845C144.781 29.537 144.631 28.6491 144.33 28.0207C144.057 27.3923 143.566 26.9413 142.856 26.6681C142.173 26.3949 141.19 26.2583 139.907 26.2583C138.241 26.2583 137.108 26.4768 136.508 26.914C135.907 27.3238 135.579 28.13 135.525 29.3319H132.084C132.084 27.7475 132.316 26.5315 132.78 25.6848C133.245 24.8105 134.037 24.1956 135.156 23.8404C136.275 23.4579 137.859 23.2666 139.907 23.2666C142.037 23.2666 143.675 23.4852 144.822 23.9223C145.996 24.3595 146.815 25.111 147.279 26.1763C147.771 27.2419 148.016 28.7446 148.016 30.6845V45.1918H144.903V42.4461H144.617C143.907 43.6483 143.088 44.4814 142.16 44.9459C141.258 45.3831 139.893 45.6017 138.064 45.6017ZM138.924 42.528C140.453 42.528 141.627 42.296 142.446 41.8315C143.265 41.3397 143.852 40.5335 144.207 39.4136C144.562 38.2934 144.74 36.6952 144.74 34.6186L140.112 34.6595C138.747 34.6868 137.682 34.8372 136.917 35.1104C136.18 35.3563 135.647 35.7797 135.32 36.3808C135.02 36.9546 134.869 37.7877 134.869 38.8806C134.869 40.3014 135.156 41.2712 135.729 41.7903C136.303 42.2821 137.368 42.528 138.924 42.528Z" fill="black"/>
<path d="M164.137 45.6017C161.707 45.6017 159.823 45.2738 158.485 44.618C157.175 43.935 156.232 42.8148 155.659 41.2577C155.113 39.673 154.84 37.419 154.84 34.4955C154.84 31.545 155.113 29.2772 155.659 27.6929C156.232 26.0808 157.175 24.9471 158.485 24.2914C159.796 23.6083 161.652 23.2666 164.055 23.2666C166.076 23.2666 167.646 23.4717 168.765 23.8815C169.885 24.2914 170.704 24.9879 171.222 25.9715C171.741 26.9278 172.055 28.294 172.164 30.0696H168.765C168.492 28.6491 168.041 27.679 167.414 27.1599C166.786 26.6408 165.748 26.3814 164.301 26.3814C162.717 26.3814 161.502 26.6273 160.656 27.1191C159.809 27.6109 159.195 28.4441 158.813 29.6189C158.458 30.7665 158.28 32.4193 158.28 34.5775C158.28 36.654 158.458 38.2522 158.813 39.3724C159.195 40.4927 159.809 41.2985 160.656 41.7903C161.529 42.2548 162.758 42.4869 164.342 42.4869C165.761 42.4869 166.772 42.2686 167.373 41.8315C168.001 41.367 168.465 40.5062 168.765 39.2497H172.164C172.055 40.916 171.741 42.2002 171.222 43.1018C170.704 44.0035 169.885 44.6454 168.765 45.0279C167.673 45.4104 166.13 45.6017 164.137 45.6017Z" fill="black"/>
<path d="M184.722 45.6017C182.975 45.6017 181.623 45.4104 180.667 45.0279C179.739 44.6454 179.07 44.0035 178.66 43.1018C178.278 42.2002 178.087 40.916 178.087 39.2497C178.087 37.2824 178.374 35.7662 178.947 34.7006C179.521 33.6077 180.476 32.8427 181.814 32.4055C183.179 31.941 185.104 31.709 187.589 31.709H191.439V30.6845C191.439 29.537 191.289 28.6491 190.988 28.0207C190.715 27.3923 190.224 26.9413 189.514 26.6681C188.831 26.3949 187.848 26.2583 186.565 26.2583C184.899 26.2583 183.766 26.4768 183.166 26.914C182.565 27.3238 182.237 28.13 182.183 29.3319H178.742C178.742 27.7475 178.974 26.5315 179.439 25.6848C179.903 24.8105 180.695 24.1956 181.814 23.8404C182.934 23.4579 184.517 23.2666 186.565 23.2666C188.695 23.2666 190.333 23.4852 191.48 23.9223C192.654 24.3595 193.473 25.111 193.937 26.1763C194.429 27.2419 194.674 28.7446 194.674 30.6845V45.1918H191.562V42.4461H191.275C190.565 43.6483 189.746 44.4814 188.818 44.9459C187.916 45.3831 186.551 45.6017 184.722 45.6017ZM185.582 42.528C187.111 42.528 188.285 42.296 189.104 41.8315C189.923 41.3397 190.51 40.5335 190.865 39.4136C191.221 38.2934 191.398 36.6952 191.398 34.6186L186.77 34.6595C185.405 34.6868 184.34 34.8372 183.575 35.1104C182.838 35.3563 182.305 35.7797 181.978 36.3808C181.678 36.9546 181.527 37.7877 181.527 38.8806C181.527 40.3014 181.814 41.2712 182.387 41.7903C182.961 42.2821 184.026 42.528 185.582 42.528Z" fill="black"/>
</mask>
<g mask="url(#mask1_626_2)">
<path d="M96.0339 45.6425C94.2866 45.6425 92.9758 45.4105 92.1021 44.946C91.2284 44.4815 90.6415 43.7711 90.341 42.8148C90.0407 41.8589 89.8906 40.5062 89.8906 38.7579V26.8321H84.3613V23.7996H90.0542L90.341 17.6353H93.5357L93.249 23.7996H100.744V26.8321H93.249V38.594C93.249 39.5503 93.3445 40.3015 93.5357 40.8479C93.754 41.3944 94.15 41.8177 94.7234 42.1183C95.3239 42.3915 96.2114 42.5281 97.3856 42.5281C98.4232 42.5281 101.645 42.5281 101.645 42.5281V45.6425C101.645 45.6425 97.3717 45.6425 96.0339 45.6425Z" stroke="black" stroke-width="0.8"/>
</g>
<mask id="mask2_626_2" style="mask-type:luminance" maskUnits="userSpaceOnUse" x="74" y="15" width="122" height="31">
<path d="M195.003 15.0281H74.85V45.9717H195.003V15.0281Z" fill="white"/>
<path d="M75.1792 15.3572H78.477V18.6161H75.1792V15.3572ZM75.1792 42.1593V26.7912V23.7995H78.4359V42.1593V45.151H75.1792V42.1593Z" fill="black"/>
<path d="M96.0339 45.6425C94.2866 45.6425 92.9758 45.4105 92.1021 44.946C91.2284 44.4815 90.6415 43.7711 90.341 42.8148C90.0407 41.8589 89.8906 40.5062 89.8906 38.7579V26.8321H84.3613V23.7996H90.0542L90.341 17.6353H93.5357L93.249 23.7996H100.744V26.8321H93.249V38.594C93.249 39.5503 93.3445 40.3015 93.5357 40.8479C93.754 41.3944 94.15 41.8177 94.7234 42.1183C95.3239 42.3915 96.2114 42.5281 97.3856 42.5281C98.4232 42.5281 101.645 42.5281 101.645 42.5281V45.6425C101.645 45.6425 97.3717 45.6425 96.0339 45.6425Z" fill="black"/>
<path d="M108.264 15.3572H111.704V26.9551H111.991C112.619 25.5343 113.37 24.5781 114.244 24.0862C115.145 23.5671 116.523 23.3077 118.38 23.3077C120.209 23.3077 121.615 23.5536 122.598 24.0454C123.581 24.5372 124.278 25.3569 124.687 26.5041C125.124 27.6517 125.342 29.3045 125.342 31.463V45.1918H121.943V31.381C121.943 30.0696 121.793 29.0586 121.493 28.3486C121.22 27.6382 120.756 27.1325 120.1 26.832C119.445 26.5315 118.516 26.3813 117.315 26.3813C115.841 26.3813 114.708 26.6134 113.916 27.0779C113.124 27.5424 112.551 28.3212 112.196 29.4138C111.868 30.5067 111.704 32.0641 111.704 34.086V45.1918H108.264V15.3572Z" fill="black"/>
<path d="M138.064 45.6017C136.317 45.6017 134.965 45.4104 134.009 45.0279C133.081 44.6454 132.412 44.0035 132.002 43.1018C131.62 42.2002 131.429 40.916 131.429 39.2497C131.429 37.2824 131.716 35.7662 132.289 34.7006C132.862 33.6077 133.818 32.8427 135.156 32.4055C136.521 31.941 138.446 31.709 140.931 31.709H144.781V30.6845C144.781 29.537 144.631 28.6491 144.33 28.0207C144.057 27.3923 143.566 26.9413 142.856 26.6681C142.173 26.3949 141.19 26.2583 139.907 26.2583C138.241 26.2583 137.108 26.4768 136.508 26.914C135.907 27.3238 135.579 28.13 135.525 29.3319H132.084C132.084 27.7475 132.316 26.5315 132.78 25.6848C133.245 24.8105 134.037 24.1956 135.156 23.8404C136.275 23.4579 137.859 23.2666 139.907 23.2666C142.037 23.2666 143.675 23.4852 144.822 23.9223C145.996 24.3595 146.815 25.111 147.279 26.1763C147.771 27.2419 148.016 28.7446 148.016 30.6845V45.1918H144.903V42.4461H144.617C143.907 43.6483 143.088 44.4814 142.16 44.9459C141.258 45.3831 139.893 45.6017 138.064 45.6017ZM138.924 42.528C140.453 42.528 141.627 42.296 142.446 41.8315C143.265 41.3397 143.852 40.5335 144.207 39.4136C144.562 38.2934 144.74 36.6952 144.74 34.6186L140.112 34.6595C138.747 34.6868 137.682 34.8372 136.917 35.1104C136.18 35.3563 135.647 35.7797 135.32 36.3808C135.02 36.9546 134.869 37.7877 134.869 38.8806C134.869 40.3014 135.156 41.2712 135.729 41.7903C136.303 42.2821 137.368 42.528 138.924 42.528Z" fill="black"/>
<path d="M164.137 45.6017C161.707 45.6017 159.823 45.2738 158.485 44.618C157.175 43.935 156.232 42.8148 155.659 41.2577C155.113 39.673 154.84 37.419 154.84 34.4955C154.84 31.545 155.113 29.2772 155.659 27.6929C156.232 26.0808 157.175 24.9471 158.485 24.2914C159.796 23.6083 161.652 23.2666 164.055 23.2666C166.076 23.2666 167.646 23.4717 168.765 23.8815C169.885 24.2914 170.704 24.9879 171.222 25.9715C171.741 26.9278 172.055 28.294 172.164 30.0696H168.765C168.492 28.6491 168.041 27.679 167.414 27.1599C166.786 26.6408 165.748 26.3814 164.301 26.3814C162.717 26.3814 161.502 26.6273 160.656 27.1191C159.809 27.6109 159.195 28.4441 158.813 29.6189C158.458 30.7665 158.28 32.4193 158.28 34.5775C158.28 36.654 158.458 38.2522 158.813 39.3724C159.195 40.4927 159.809 41.2985 160.656 41.7903C161.529 42.2548 162.758 42.4869 164.342 42.4869C165.761 42.4869 166.772 42.2686 167.373 41.8315C168.001 41.367 168.465 40.5062 168.765 39.2497H172.164C172.055 40.916 171.741 42.2002 171.222 43.1018C170.704 44.0035 169.885 44.6454 168.765 45.0279C167.673 45.4104 166.13 45.6017 164.137 45.6017Z" fill="black"/>
<path d="M184.722 45.6017C182.975 45.6017 181.623 45.4104 180.667 45.0279C179.739 44.6454 179.07 44.0035 178.66 43.1018C178.278 42.2002 178.087 40.916 178.087 39.2497C178.087 37.2824 178.374 35.7662 178.947 34.7006C179.521 33.6077 180.476 32.8427 181.814 32.4055C183.179 31.941 185.104 31.709 187.589 31.709H191.439V30.6845C191.439 29.537 191.289 28.6491 190.988 28.0207C190.715 27.3923 190.224 26.9413 189.514 26.6681C188.831 26.3949 187.848 26.2583 186.565 26.2583C184.899 26.2583 183.766 26.4768 183.166 26.914C182.565 27.3238 182.237 28.13 182.183 29.3319H178.742C178.742 27.7475 178.974 26.5315 179.439 25.6848C179.903 24.8105 180.695 24.1956 181.814 23.8404C182.934 23.4579 184.517 23.2666 186.565 23.2666C188.695 23.2666 190.333 23.4852 191.48 23.9223C192.654 24.3595 193.473 25.111 193.937 26.1763C194.429 27.2419 194.674 28.7446 194.674 30.6845V45.1918H191.562V42.4461H191.275C190.565 43.6483 189.746 44.4814 188.818 44.9459C187.916 45.3831 186.551 45.6017 184.722 45.6017ZM185.582 42.528C187.111 42.528 188.285 42.296 189.104 41.8315C189.923 41.3397 190.51 40.5335 190.865 39.4136C191.221 38.2934 191.398 36.6952 191.398 34.6186L186.77 34.6595C185.405 34.6868 184.34 34.8372 183.575 35.1104C182.838 35.3563 182.305 35.7797 181.978 36.3808C181.678 36.9546 181.527 37.7877 181.527 38.8806C181.527 40.3014 181.814 41.2712 182.387 41.7903C182.961 42.2821 184.026 42.528 185.582 42.528Z" fill="black"/>
</mask>
<g mask="url(#mask2_626_2)">
<path d="M108.264 15.3572H111.704V26.9551H111.991C112.619 25.5343 113.37 24.5781 114.244 24.0862C115.145 23.5671 116.523 23.3077 118.38 23.3077C120.209 23.3077 121.615 23.5536 122.598 24.0454C123.581 24.5372 124.278 25.3569 124.687 26.5041C125.124 27.6517 125.342 29.3045 125.342 31.463V45.1918H121.943V31.381C121.943 30.0696 121.793 29.0586 121.493 28.3486C121.22 27.6382 120.756 27.1325 120.1 26.832C119.445 26.5315 118.516 26.3813 117.315 26.3813C115.841 26.3813 114.708 26.6134 113.916 27.0779C113.124 27.5424 112.551 28.3212 112.196 29.4138C111.868 30.5067 111.704 32.0641 111.704 34.086V45.1918H108.264V15.3572Z" stroke="black" stroke-width="0.8"/>
</g>
<mask id="mask3_626_2" style="mask-type:luminance" maskUnits="userSpaceOnUse" x="74" y="15" width="122" height="31">
<path d="M195.003 15.0281H74.85V45.9717H195.003V15.0281Z" fill="white"/>
<path d="M75.1792 15.3572H78.477V18.6161H75.1792V15.3572ZM75.1792 42.1593V26.7912V23.7995H78.4359V42.1593V45.151H75.1792V42.1593Z" fill="black"/>
<path d="M96.0339 45.6425C94.2866 45.6425 92.9758 45.4105 92.1021 44.946C91.2284 44.4815 90.6415 43.7711 90.341 42.8148C90.0407 41.8589 89.8906 40.5062 89.8906 38.7579V26.8321H84.3613V23.7996H90.0542L90.341 17.6353H93.5357L93.249 23.7996H100.744V26.8321H93.249V38.594C93.249 39.5503 93.3445 40.3015 93.5357 40.8479C93.754 41.3944 94.15 41.8177 94.7234 42.1183C95.3239 42.3915 96.2114 42.5281 97.3856 42.5281C98.4232 42.5281 101.645 42.5281 101.645 42.5281V45.6425C101.645 45.6425 97.3717 45.6425 96.0339 45.6425Z" fill="black"/>
<path d="M108.264 15.3572H111.704V26.9551H111.991C112.619 25.5343 113.37 24.5781 114.244 24.0862C115.145 23.5671 116.523 23.3077 118.38 23.3077C120.209 23.3077 121.615 23.5536 122.598 24.0454C123.581 24.5372 124.278 25.3569 124.687 26.5041C125.124 27.6517 125.342 29.3045 125.342 31.463V45.1918H121.943V31.381C121.943 30.0696 121.793 29.0586 121.493 28.3486C121.22 27.6382 120.756 27.1325 120.1 26.832C119.445 26.5315 118.516 26.3813 117.315 26.3813C115.841 26.3813 114.708 26.6134 113.916 27.0779C113.124 27.5424 112.551 28.3212 112.196 29.4138C111.868 30.5067 111.704 32.0641 111.704 34.086V45.1918H108.264V15.3572Z" fill="black"/>
<path d="M138.064 45.6017C136.317 45.6017 134.965 45.4104 134.009 45.0279C133.081 44.6454 132.412 44.0035 132.002 43.1018C131.62 42.2002 131.429 40.916 131.429 39.2497C131.429 37.2824 131.716 35.7662 132.289 34.7006C132.862 33.6077 133.818 32.8427 135.156 32.4055C136.521 31.941 138.446 31.709 140.931 31.709H144.781V30.6845C144.781 29.537 144.631 28.6491 144.33 28.0207C144.057 27.3923 143.566 26.9413 142.856 26.6681C142.173 26.3949 141.19 26.2583 139.907 26.2583C138.241 26.2583 137.108 26.4768 136.508 26.914C135.907 27.3238 135.579 28.13 135.525 29.3319H132.084C132.084 27.7475 132.316 26.5315 132.78 25.6848C133.245 24.8105 134.037 24.1956 135.156 23.8404C136.275 23.4579 137.859 23.2666 139.907 23.2666C142.037 23.2666 143.675 23.4852 144.822 23.9223C145.996 24.3595 146.815 25.111 147.279 26.1763C147.771 27.2419 148.016 28.7446 148.016 30.6845V45.1918H144.903V42.4461H144.617C143.907 43.6483 143.088 44.4814 142.16 44.9459C141.258 45.3831 139.893 45.6017 138.064 45.6017ZM138.924 42.528C140.453 42.528 141.627 42.296 142.446 41.8315C143.265 41.3397 143.852 40.5335 144.207 39.4136C144.562 38.2934 144.74 36.6952 144.74 34.6186L140.112 34.6595C138.747 34.6868 137.682 34.8372 136.917 35.1104C136.18 35.3563 135.647 35.7797 135.32 36.3808C135.02 36.9546 134.869 37.7877 134.869 38.8806C134.869 40.3014 135.156 41.2712 135.729 41.7903C136.303 42.2821 137.368 42.528 138.924 42.528Z" fill="black"/>
<path d="M164.137 45.6017C161.707 45.6017 159.823 45.2738 158.485 44.618C157.175 43.935 156.232 42.8148 155.659 41.2577C155.113 39.673 154.84 37.419 154.84 34.4955C154.84 31.545 155.113 29.2772 155.659 27.6929C156.232 26.0808 157.175 24.9471 158.485 24.2914C159.796 23.6083 161.652 23.2666 164.055 23.2666C166.076 23.2666 167.646 23.4717 168.765 23.8815C169.885 24.2914 170.704 24.9879 171.222 25.9715C171.741 26.9278 172.055 28.294 172.164 30.0696H168.765C168.492 28.6491 168.041 27.679 167.414 27.1599C166.786 26.6408 165.748 26.3814 164.301 26.3814C162.717 26.3814 161.502 26.6273 160.656 27.1191C159.809 27.6109 159.195 28.4441 158.813 29.6189C158.458 30.7665 158.28 32.4193 158.28 34.5775C158.28 36.654 158.458 38.2522 158.813 39.3724C159.195 40.4927 159.809 41.2985 160.656 41.7903C161.529 42.2548 162.758 42.4869 164.342 42.4869C165.761 42.4869 166.772 42.2686 167.373 41.8315C168.001 41.367 168.465 40.5062 168.765 39.2497H172.164C172.055 40.916 171.741 42.2002 171.222 43.1018C170.704 44.0035 169.885 44.6454 168.765 45.0279C167.673 45.4104 166.13 45.6017 164.137 45.6017Z" fill="black"/>
<path d="M184.722 45.6017C182.975 45.6017 181.623 45.4104 180.667 45.0279C179.739 44.6454 179.07 44.0035 178.66 43.1018C178.278 42.2002 178.087 40.916 178.087 39.2497C178.087 37.2824 178.374 35.7662 178.947 34.7006C179.521 33.6077 180.476 32.8427 181.814 32.4055C183.179 31.941 185.104 31.709 187.589 31.709H191.439V30.6845C191.439 29.537 191.289 28.6491 190.988 28.0207C190.715 27.3923 190.224 26.9413 189.514 26.6681C188.831 26.3949 187.848 26.2583 186.565 26.2583C184.899 26.2583 183.766 26.4768 183.166 26.914C182.565 27.3238 182.237 28.13 182.183 29.3319H178.742C178.742 27.7475 178.974 26.5315 179.439 25.6848C179.903 24.8105 180.695 24.1956 181.814 23.8404C182.934 23.4579 184.517 23.2666 186.565 23.2666C188.695 23.2666 190.333 23.4852 191.48 23.9223C192.654 24.3595 193.473 25.111 193.937 26.1763C194.429 27.2419 194.674 28.7446 194.674 30.6845V45.1918H191.562V42.4461H191.275C190.565 43.6483 189.746 44.4814 188.818 44.9459C187.916 45.3831 186.551 45.6017 184.722 45.6017ZM185.582 42.528C187.111 42.528 188.285 42.296 189.104 41.8315C189.923 41.3397 190.51 40.5335 190.865 39.4136C191.221 38.2934 191.398 36.6952 191.398 34.6186L186.77 34.6595C185.405 34.6868 184.34 34.8372 183.575 35.1104C182.838 35.3563 182.305 35.7797 181.978 36.3808C181.678 36.9546 181.527 37.7877 181.527 38.8806C181.527 40.3014 181.814 41.2712 182.387 41.7903C182.961 42.2821 184.026 42.528 185.582 42.528Z" fill="black"/>
</mask>
<g mask="url(#mask3_626_2)">
<path d="M138.064 45.6017C136.317 45.6017 134.965 45.4104 134.009 45.0279C133.081 44.6454 132.412 44.0035 132.002 43.1018C131.62 42.2002 131.429 40.916 131.429 39.2497C131.429 37.2824 131.716 35.7662 132.289 34.7006C132.862 33.6077 133.818 32.8427 135.156 32.4055C136.521 31.941 138.446 31.709 140.931 31.709H144.781V30.6845C144.781 29.537 144.631 28.6491 144.33 28.0207C144.057 27.3923 143.566 26.9413 142.856 26.6681C142.173 26.3949 141.19 26.2583 139.907 26.2583C138.241 26.2583 137.108 26.4768 136.508 26.914C135.907 27.3238 135.579 28.13 135.525 29.3319H132.084C132.084 27.7475 132.316 26.5315 132.78 25.6848C133.245 24.8105 134.037 24.1956 135.156 23.8404C136.275 23.4579 137.859 23.2666 139.907 23.2666C142.037 23.2666 143.675 23.4852 144.822 23.9223C145.996 24.3595 146.815 25.111 147.279 26.1763C147.771 27.2419 148.016 28.7446 148.016 30.6845V45.1918H144.903V42.4461H144.617C143.907 43.6483 143.088 44.4814 142.16 44.9459C141.258 45.3831 139.893 45.6017 138.064 45.6017ZM138.924 42.528C140.453 42.528 141.627 42.296 142.446 41.8315C143.265 41.3397 143.852 40.5335 144.207 39.4136C144.562 38.2934 144.74 36.6952 144.74 34.6186L140.112 34.6595C138.747 34.6868 137.682 34.8372 136.917 35.1104C136.18 35.3563 135.647 35.7797 135.32 36.3808C135.02 36.9546 134.869 37.7877 134.869 38.8806C134.869 40.3014 135.156 41.2712 135.729 41.7903C136.303 42.2821 137.368 42.528 138.924 42.528Z" stroke="black" stroke-width="0.8"/>
</g>
<mask id="mask4_626_2" style="mask-type:luminance" maskUnits="userSpaceOnUse" x="74" y="15" width="122" height="31">
<path d="M195.003 15.0281H74.85V45.9717H195.003V15.0281Z" fill="white"/>
<path d="M75.1792 15.3572H78.477V18.6161H75.1792V15.3572ZM75.1792 42.1593V26.7912V23.7995H78.4359V42.1593V45.151H75.1792V42.1593Z" fill="black"/>
<path d="M96.0339 45.6425C94.2866 45.6425 92.9758 45.4105 92.1021 44.946C91.2284 44.4815 90.6415 43.7711 90.341 42.8148C90.0407 41.8589 89.8906 40.5062 89.8906 38.7579V26.8321H84.3613V23.7996H90.0542L90.341 17.6353H93.5357L93.249 23.7996H100.744V26.8321H93.249V38.594C93.249 39.5503 93.3445 40.3015 93.5357 40.8479C93.754 41.3944 94.15 41.8177 94.7234 42.1183C95.3239 42.3915 96.2114 42.5281 97.3856 42.5281C98.4232 42.5281 101.645 42.5281 101.645 42.5281V45.6425C101.645 45.6425 97.3717 45.6425 96.0339 45.6425Z" fill="black"/>
<path d="M108.264 15.3572H111.704V26.9551H111.991C112.619 25.5343 113.37 24.5781 114.244 24.0862C115.145 23.5671 116.523 23.3077 118.38 23.3077C120.209 23.3077 121.615 23.5536 122.598 24.0454C123.581 24.5372 124.278 25.3569 124.687 26.5041C125.124 27.6517 125.342 29.3045 125.342 31.463V45.1918H121.943V31.381C121.943 30.0696 121.793 29.0586 121.493 28.3486C121.22 27.6382 120.756 27.1325 120.1 26.832C119.445 26.5315 118.516 26.3813 117.315 26.3813C115.841 26.3813 114.708 26.6134 113.916 27.0779C113.124 27.5424 112.551 28.3212 112.196 29.4138C111.868 30.5067 111.704 32.0641 111.704 34.086V45.1918H108.264V15.3572Z" fill="black"/>
<path d="M138.064 45.6017C136.317 45.6017 134.965 45.4104 134.009 45.0279C133.081 44.6454 132.412 44.0035 132.002 43.1018C131.62 42.2002 131.429 40.916 131.429 39.2497C131.429 37.2824 131.716 35.7662 132.289 34.7006C132.862 33.6077 133.818 32.8427 135.156 32.4055C136.521 31.941 138.446 31.709 140.931 31.709H144.781V30.6845C144.781 29.537 144.631 28.6491 144.33 28.0207C144.057 27.3923 143.566 26.9413 142.856 26.6681C142.173 26.3949 141.19 26.2583 139.907 26.2583C138.241 26.2583 137.108 26.4768 136.508 26.914C135.907 27.3238 135.579 28.13 135.525 29.3319H132.084C132.084 27.7475 132.316 26.5315 132.78 25.6848C133.245 24.8105 134.037 24.1956 135.156 23.8404C136.275 23.4579 137.859 23.2666 139.907 23.2666C142.037 23.2666 143.675 23.4852 144.822 23.9223C145.996 24.3595 146.815 25.111 147.279 26.1763C147.771 27.2419 148.016 28.7446 148.016 30.6845V45.1918H144.903V42.4461H144.617C143.907 43.6483 143.088 44.4814 142.16 44.9459C141.258 45.3831 139.893 45.6017 138.064 45.6017ZM138.924 42.528C140.453 42.528 141.627 42.296 142.446 41.8315C143.265 41.3397 143.852 40.5335 144.207 39.4136C144.562 38.2934 144.74 36.6952 144.74 34.6186L140.112 34.6595C138.747 34.6868 137.682 34.8372 136.917 35.1104C136.18 35.3563 135.647 35.7797 135.32 36.3808C135.02 36.9546 134.869 37.7877 134.869 38.8806C134.869 40.3014 135.156 41.2712 135.729 41.7903C136.303 42.2821 137.368 42.528 138.924 42.528Z" fill="black"/>
<path d="M164.137 45.6017C161.707 45.6017 159.823 45.2738 158.485 44.618C157.175 43.935 156.232 42.8148 155.659 41.2577C155.113 39.673 154.84 37.419 154.84 34.4955C154.84 31.545 155.113 29.2772 155.659 27.6929C156.232 26.0808 157.175 24.9471 158.485 24.2914C159.796 23.6083 161.652 23.2666 164.055 23.2666C166.076 23.2666 167.646 23.4717 168.765 23.8815C169.885 24.2914 170.704 24.9879 171.222 25.9715C171.741 26.9278 172.055 28.294 172.164 30.0696H168.765C168.492 28.6491 168.041 27.679 167.414 27.1599C166.786 26.6408 165.748 26.3814 164.301 26.3814C162.717 26.3814 161.502 26.6273 160.656 27.1191C159.809 27.6109 159.195 28.4441 158.813 29.6189C158.458 30.7665 158.28 32.4193 158.28 34.5775C158.28 36.654 158.458 38.2522 158.813 39.3724C159.195 40.4927 159.809 41.2985 160.656 41.7903C161.529 42.2548 162.758 42.4869 164.342 42.4869C165.761 42.4869 166.772 42.2686 167.373 41.8315C168.001 41.367 168.465 40.5062 168.765 39.2497H172.164C172.055 40.916 171.741 42.2002 171.222 43.1018C170.704 44.0035 169.885 44.6454 168.765 45.0279C167.673 45.4104 166.13 45.6017 164.137 45.6017Z" fill="black"/>
<path d="M184.722 45.6017C182.975 45.6017 181.623 45.4104 180.667 45.0279C179.739 44.6454 179.07 44.0035 178.66 43.1018C178.278 42.2002 178.087 40.916 178.087 39.2497C178.087 37.2824 178.374 35.7662 178.947 34.7006C179.521 33.6077 180.476 32.8427 181.814 32.4055C183.179 31.941 185.104 31.709 187.589 31.709H191.439V30.6845C191.439 29.537 191.289 28.6491 190.988 28.0207C190.715 27.3923 190.224 26.9413 189.514 26.6681C188.831 26.3949 187.848 26.2583 186.565 26.2583C184.899 26.2583 183.766 26.4768 183.166 26.914C182.565 27.3238 182.237 28.13 182.183 29.3319H178.742C178.742 27.7475 178.974 26.5315 179.439 25.6848C179.903 24.8105 180.695 24.1956 181.814 23.8404C182.934 23.4579 184.517 23.2666 186.565 23.2666C188.695 23.2666 190.333 23.4852 191.48 23.9223C192.654 24.3595 193.473 25.111 193.937 26.1763C194.429 27.2419 194.674 28.7446 194.674 30.6845V45.1918H191.562V42.4461H191.275C190.565 43.6483 189.746 44.4814 188.818 44.9459C187.916 45.3831 186.551 45.6017 184.722 45.6017ZM185.582 42.528C187.111 42.528 188.285 42.296 189.104 41.8315C189.923 41.3397 190.51 40.5335 190.865 39.4136C191.221 38.2934 191.398 36.6952 191.398 34.6186L186.77 34.6595C185.405 34.6868 184.34 34.8372 183.575 35.1104C182.838 35.3563 182.305 35.7797 181.978 36.3808C181.678 36.9546 181.527 37.7877 181.527 38.8806C181.527 40.3014 181.814 41.2712 182.387 41.7903C182.961 42.2821 184.026 42.528 185.582 42.528Z" fill="black"/>
</mask>
<g mask="url(#mask4_626_2)">
<path d="M164.137 45.6017C161.707 45.6017 159.823 45.2738 158.485 44.618C157.175 43.935 156.232 42.8148 155.659 41.2577C155.113 39.673 154.84 37.419 154.84 34.4955C154.84 31.545 155.113 29.2772 155.659 27.6929C156.232 26.0808 157.175 24.9471 158.485 24.2914C159.796 23.6083 161.652 23.2666 164.055 23.2666C166.076 23.2666 167.646 23.4717 168.765 23.8815C169.885 24.2914 170.704 24.9879 171.222 25.9715C171.741 26.9278 172.055 28.294 172.164 30.0696H168.765C168.492 28.6491 168.041 27.679 167.414 27.1599C166.786 26.6408 165.748 26.3814 164.301 26.3814C162.717 26.3814 161.502 26.6273 160.656 27.1191C159.809 27.6109 159.195 28.4441 158.813 29.6189C158.458 30.7665 158.28 32.4193 158.28 34.5775C158.28 36.654 158.458 38.2522 158.813 39.3724C159.195 40.4927 159.809 41.2985 160.656 41.7903C161.529 42.2548 162.758 42.4869 164.342 42.4869C165.761 42.4869 166.772 42.2686 167.373 41.8315C168.001 41.367 168.465 40.5062 168.765 39.2497H172.164C172.055 40.916 171.741 42.2002 171.222 43.1018C170.704 44.0035 169.885 44.6454 168.765 45.0279C167.673 45.4104 166.13 45.6017 164.137 45.6017Z" stroke="black" stroke-width="0.8"/>
</g>
<mask id="mask5_626_2" style="mask-type:luminance" maskUnits="userSpaceOnUse" x="74" y="15" width="122" height="31">
<path d="M195.003 15.0281H74.85V45.9717H195.003V15.0281Z" fill="white"/>
<path d="M75.1792 15.3572H78.477V18.6161H75.1792V15.3572ZM75.1792 42.1593V26.7912V23.7995H78.4359V42.1593V45.151H75.1792V42.1593Z" fill="black"/>
<path d="M96.0339 45.6425C94.2866 45.6425 92.9758 45.4105 92.1021 44.946C91.2284 44.4815 90.6415 43.7711 90.341 42.8148C90.0407 41.8589 89.8906 40.5062 89.8906 38.7579V26.8321H84.3613V23.7996H90.0542L90.341 17.6353H93.5357L93.249 23.7996H100.744V26.8321H93.249V38.594C93.249 39.5503 93.3445 40.3015 93.5357 40.8479C93.754 41.3944 94.15 41.8177 94.7234 42.1183C95.3239 42.3915 96.2114 42.5281 97.3856 42.5281C98.4232 42.5281 101.645 42.5281 101.645 42.5281V45.6425C101.645 45.6425 97.3717 45.6425 96.0339 45.6425Z" fill="black"/>
<path d="M108.264 15.3572H111.704V26.9551H111.991C112.619 25.5343 113.37 24.5781 114.244 24.0862C115.145 23.5671 116.523 23.3077 118.38 23.3077C120.209 23.3077 121.615 23.5536 122.598 24.0454C123.581 24.5372 124.278 25.3569 124.687 26.5041C125.124 27.6517 125.342 29.3045 125.342 31.463V45.1918H121.943V31.381C121.943 30.0696 121.793 29.0586 121.493 28.3486C121.22 27.6382 120.756 27.1325 120.1 26.832C119.445 26.5315 118.516 26.3813 117.315 26.3813C115.841 26.3813 114.708 26.6134 113.916 27.0779C113.124 27.5424 112.551 28.3212 112.196 29.4138C111.868 30.5067 111.704 32.0641 111.704 34.086V45.1918H108.264V15.3572Z" fill="black"/>
<path d="M138.064 45.6017C136.317 45.6017 134.965 45.4104 134.009 45.0279C133.081 44.6454 132.412 44.0035 132.002 43.1018C131.62 42.2002 131.429 40.916 131.429 39.2497C131.429 37.2824 131.716 35.7662 132.289 34.7006C132.862 33.6077 133.818 32.8427 135.156 32.4055C136.521 31.941 138.446 31.709 140.931 31.709H144.781V30.6845C144.781 29.537 144.631 28.6491 144.33 28.0207C144.057 27.3923 143.566 26.9413 142.856 26.6681C142.173 26.3949 141.19 26.2583 139.907 26.2583C138.241 26.2583 137.108 26.4768 136.508 26.914C135.907 27.3238 135.579 28.13 135.525 29.3319H132.084C132.084 27.7475 132.316 26.5315 132.78 25.6848C133.245 24.8105 134.037 24.1956 135.156 23.8404C136.275 23.4579 137.859 23.2666 139.907 23.2666C142.037 23.2666 143.675 23.4852 144.822 23.9223C145.996 24.3595 146.815 25.111 147.279 26.1763C147.771 27.2419 148.016 28.7446 148.016 30.6845V45.1918H144.903V42.4461H144.617C143.907 43.6483 143.088 44.4814 142.16 44.9459C141.258 45.3831 139.893 45.6017 138.064 45.6017ZM138.924 42.528C140.453 42.528 141.627 42.296 142.446 41.8315C143.265 41.3397 143.852 40.5335 144.207 39.4136C144.562 38.2934 144.74 36.6952 144.74 34.6186L140.112 34.6595C138.747 34.6868 137.682 34.8372 136.917 35.1104C136.18 35.3563 135.647 35.7797 135.32 36.3808C135.02 36.9546 134.869 37.7877 134.869 38.8806C134.869 40.3014 135.156 41.2712 135.729 41.7903C136.303 42.2821 137.368 42.528 138.924 42.528Z" fill="black"/>
<path d="M164.137 45.6017C161.707 45.6017 159.823 45.2738 158.485 44.618C157.175 43.935 156.232 42.8148 155.659 41.2577C155.113 39.673 154.84 37.419 154.84 34.4955C154.84 31.545 155.113 29.2772 155.659 27.6929C156.232 26.0808 157.175 24.9471 158.485 24.2914C159.796 23.6083 161.652 23.2666 164.055 23.2666C166.076 23.2666 167.646 23.4717 168.765 23.8815C169.885 24.2914 170.704 24.9879 171.222 25.9715C171.741 26.9278 172.055 28.294 172.164 30.0696H168.765C168.492 28.6491 168.041 27.679 167.414 27.1599C166.786 26.6408 165.748 26.3814 164.301 26.3814C162.717 26.3814 161.502 26.6273 160.656 27.1191C159.809 27.6109 159.195 28.4441 158.813 29.6189C158.458 30.7665 158.28 32.4193 158.28 34.5775C158.28 36.654 158.458 38.2522 158.813 39.3724C159.195 40.4927 159.809 41.2985 160.656 41.7903C161.529 42.2548 162.758 42.4869 164.342 42.4869C165.761 42.4869 166.772 42.2686 167.373 41.8315C168.001 41.367 168.465 40.5062 168.765 39.2497H172.164C172.055 40.916 171.741 42.2002 171.222 43.1018C170.704 44.0035 169.885 44.6454 168.765 45.0279C167.673 45.4104 166.13 45.6017 164.137 45.6017Z" fill="black"/>
<path d="M184.722 45.6017C182.975 45.6017 181.623 45.4104 180.667 45.0279C179.739 44.6454 179.07 44.0035 178.66 43.1018C178.278 42.2002 178.087 40.916 178.087 39.2497C178.087 37.2824 178.374 35.7662 178.947 34.7006C179.521 33.6077 180.476 32.8427 181.814 32.4055C183.179 31.941 185.104 31.709 187.589 31.709H191.439V30.6845C191.439 29.537 191.289 28.6491 190.988 28.0207C190.715 27.3923 190.224 26.9413 189.514 26.6681C188.831 26.3949 187.848 26.2583 186.565 26.2583C184.899 26.2583 183.766 26.4768 183.166 26.914C182.565 27.3238 182.237 28.13 182.183 29.3319H178.742C178.742 27.7475 178.974 26.5315 179.439 25.6848C179.903 24.8105 180.695 24.1956 181.814 23.8404C182.934 23.4579 184.517 23.2666 186.565 23.2666C188.695 23.2666 190.333 23.4852 191.48 23.9223C192.654 24.3595 193.473 25.111 193.937 26.1763C194.429 27.2419 194.674 28.7446 194.674 30.6845V45.1918H191.562V42.4461H191.275C190.565 43.6483 189.746 44.4814 188.818 44.9459C187.916 45.3831 186.551 45.6017 184.722 45.6017ZM185.582 42.528C187.111 42.528 188.285 42.296 189.104 41.8315C189.923 41.3397 190.51 40.5335 190.865 39.4136C191.221 38.2934 191.398 36.6952 191.398 34.6186L186.77 34.6595C185.405 34.6868 184.34 34.8372 183.575 35.1104C182.838 35.3563 182.305 35.7797 181.978 36.3808C181.678 36.9546 181.527 37.7877 181.527 38.8806C181.527 40.3014 181.814 41.2712 182.387 41.7903C182.961 42.2821 184.026 42.528 185.582 42.528Z" fill="black"/>
</mask>
<g mask="url(#mask5_626_2)">
<path d="M184.722 45.6017C182.975 45.6017 181.623 45.4104 180.667 45.0279C179.739 44.6454 179.07 44.0035 178.66 43.1018C178.278 42.2002 178.087 40.916 178.087 39.2497C178.087 37.2824 178.374 35.7662 178.947 34.7006C179.521 33.6077 180.476 32.8427 181.814 32.4055C183.179 31.941 185.104 31.709 187.589 31.709H191.439V30.6845C191.439 29.537 191.289 28.6491 190.988 28.0207C190.715 27.3923 190.224 26.9413 189.514 26.6681C188.831 26.3949 187.848 26.2583 186.565 26.2583C184.899 26.2583 183.766 26.4768 183.166 26.914C182.565 27.3238 182.237 28.13 182.183 29.3319H178.742C178.742 27.7475 178.974 26.5315 179.439 25.6848C179.903 24.8105 180.695 24.1956 181.814 23.8404C182.934 23.4579 184.517 23.2666 186.565 23.2666C188.695 23.2666 190.333 23.4852 191.48 23.9223C192.654 24.3595 193.473 25.111 193.937 26.1763C194.429 27.2419 194.674 28.7446 194.674 30.6845V45.1918H191.562V42.4461H191.275C190.565 43.6483 189.746 44.4814 188.818 44.9459C187.916 45.3831 186.551 45.6017 184.722 45.6017ZM185.582 42.528C187.111 42.528 188.285 42.296 189.104 41.8315C189.923 41.3397 190.51 40.5335 190.865 39.4136C191.221 38.2934 191.398 36.6952 191.398 34.6186L186.77 34.6595C185.405 34.6868 184.34 34.8372 183.575 35.1104C182.838 35.3563 182.305 35.7797 181.978 36.3808C181.678 36.9546 181.527 37.7877 181.527 38.8806C181.527 40.3014 181.814 41.2712 182.387 41.7903C182.961 42.2821 184.026 42.528 185.582 42.528Z" stroke="black" stroke-width="0.8"/>
</g>
</svg>
