<svg width="274" height="72" viewBox="0 0 274 72" fill="none" xmlns="http://www.w3.org/2000/svg">
<g clip-path="url(#clip0_1210_50)">
<path opacity="0.5" d="M10 62V55.5H16.485V62H10Z" fill="white"/>
<path d="M42.4251 62V55.5H48.9102V62H42.4251Z" fill="white"/>
<path d="M22.9701 62V55.5H29.4551V62H22.9701Z" fill="white"/>
<path d="M22.9701 36V29.5H29.4551V36H22.9701Z" fill="white"/>
<path d="M22.9701 42.5V36H29.4551V42.5H22.9701Z" fill="white"/>
<path opacity="0.5" d="M55.3952 62V55.5H61.8802V62H55.3952Z" fill="white"/>
<path opacity="0.75" d="M16.485 62V55.5H22.9701V62H16.485Z" fill="white"/>
<path opacity="0.75" d="M48.9102 62V55.5H55.3952V62H48.9102Z" fill="white"/>
<path opacity="0.75" d="M10 55.5V49H16.485V55.5H10Z" fill="white"/>
<path opacity="0.75" d="M10 23V16.5H16.485V23H10Z" fill="white"/>
<path d="M42.4251 55.5V49H48.9102V55.5H42.4251Z" fill="white"/>
<path d="M42.4251 23V16.5H48.9102V23H42.4251Z" fill="white"/>
<path d="M22.9701 55.5V49H29.4551V55.5H22.9701Z" fill="white"/>
<path d="M22.9701 23V16.5H29.4551V23H22.9701Z" fill="white"/>
<path opacity="0.75" d="M55.3952 55.5V49H61.8802V55.5H55.3952Z" fill="white"/>
<path opacity="0.75" d="M55.3952 23V16.5H61.8802V23H55.3952Z" fill="white"/>
<path d="M10 49V42.5H16.485V49H10Z" fill="white"/>
<path d="M10 29.5V23H16.485V29.5H10Z" fill="white"/>
<path opacity="0.5" d="M10 16.5V10H16.485V16.5H10Z" fill="white"/>
<path d="M42.4251 49V42.5H48.9102V49H42.4251Z" fill="white"/>
<path d="M42.4251 29.5V23H48.9102V29.5H42.4251Z" fill="white"/>
<path d="M42.4251 42.5V36H48.9102V42.5H42.4251Z" fill="white"/>
<path d="M42.4251 36V29.5H48.9102V36H42.4251Z" fill="white"/>
<path d="M42.4251 16.5V10H48.9102V16.5H42.4251Z" fill="white"/>
<path d="M16.485 49V42.5H22.9701V49H16.485Z" fill="white"/>
<path d="M16.485 29.5V23H22.9701V29.5H16.485Z" fill="white"/>
<path opacity="0.75" d="M16.485 16.5V10H22.9701V16.5H16.485Z" fill="white"/>
<path d="M48.9102 49V42.5H55.3952V49H48.9102Z" fill="white"/>
<path d="M48.9102 29.5V23H55.3952V29.5H48.9102Z" fill="white"/>
<path opacity="0.75" d="M48.9102 16.5V10H55.3952V16.5H48.9102Z" fill="white"/>
<path d="M22.9701 49V42.5H29.4551V49H22.9701Z" fill="white"/>
<path d="M22.9701 29.5V23H29.4551V29.5H22.9701Z" fill="white"/>
<path d="M29.4551 49V42.5H35.9401V49H29.4551Z" fill="white"/>
<path d="M29.4551 29.5V23H35.9401V29.5H29.4551Z" fill="white"/>
<path d="M35.9401 49V42.5H42.4251V49H35.9401Z" fill="white"/>
<path d="M35.9401 29.5V23H42.4251V29.5H35.9401Z" fill="white"/>
<path d="M22.9701 16.5V10H29.4551V16.5H22.9701Z" fill="white"/>
<path d="M55.3952 49V42.5H61.8802V49H55.3952Z" fill="white"/>
<path d="M55.3952 29.5V23H61.8802V29.5H55.3952Z" fill="white"/>
<path opacity="0.5" d="M55.3952 16.5V10H61.8802V16.5H55.3952Z" fill="white"/>
<path d="M88.3138 20.3484V47.1796H103.484V51.6515H83.8522V20.3484H88.3138Z" fill="white"/>
<path d="M115.067 51.6515H110.605V41.3662L118.19 20.3484H122.651L130.236 41.3662V51.6515H125.774V44.4071H115.067V51.6515ZM115.87 39.9352H124.972L120.465 27.4139H120.376L115.87 39.9352Z" fill="white"/>
<path d="M137.357 20.3484H156.989V24.8203H149.404V51.6515H144.943V24.8203H137.357V20.3484Z" fill="white"/>
<path d="M164.11 20.3484H183.742V24.8203H176.157V51.6515H171.695V24.8203H164.11V20.3484Z" fill="white"/>
<path d="M190.863 20.3484H210.495V24.8203H202.91V47.1796H210.495V51.6515H190.863V47.1796H198.448V24.8203H190.863V20.3484Z" fill="white"/>
<path d="M232.786 28.3977C232.786 26.3854 231.224 24.8203 229.216 24.8203H225.647C223.639 24.8203 222.077 26.4301 222.077 28.3977V43.5574C222.077 45.525 223.684 47.135 225.647 47.135H229.216C231.18 47.135 232.786 45.525 232.786 43.5574V41.0979H237.247V43.5574C237.247 47.9846 233.678 51.6515 229.216 51.6515H225.647C221.23 51.6515 217.616 47.9846 217.616 43.5574V28.3977C217.616 23.9259 221.23 20.3484 225.647 20.3484H229.216C233.678 20.3484 237.247 23.9259 237.247 28.3977V30.8573H232.786V28.3977Z" fill="white"/>
<path d="M264 20.3484V24.8203H248.83V33.0038H262.215V37.4756H248.83V47.1796H264V51.6515H244.369V20.3484H264Z" fill="white"/>
</g>
<defs>
<clipPath id="clip0_1210_50">
<rect width="254" height="52" fill="white" transform="translate(10 10)"/>
</clipPath>
</defs>
</svg>
