<svg width="395" height="61" viewBox="0 0 395 61" fill="none" xmlns="http://www.w3.org/2000/svg">
<path d="M177.426 20.397H182.046C181.835 14.4476 176.347 10 168.723 10C161.175 10 155.245 14.3898 155.245 21.0131C155.245 26.3271 159.096 29.4847 165.257 31.2561L170.109 32.6423C174.268 33.7975 177.965 35.2609 177.965 39.1886C177.965 43.5013 173.806 46.3511 168.338 46.3511C163.64 46.3511 159.481 44.2716 159.096 39.8046H154.167C154.629 46.2739 159.866 50.6637 168.338 50.6637C177.426 50.6637 182.585 45.6579 182.585 39.2655C182.585 31.8722 175.577 29.4847 171.495 28.4065L167.491 27.3283C164.564 26.5582 159.866 25.0179 159.866 20.7821C159.866 17.0083 163.332 14.2358 168.569 14.2358C173.344 14.2358 176.963 16.5078 177.426 20.397Z" fill="black"/>
<path d="M120.492 49.9706H125.267V37.1862L130.196 31.6411L143.905 49.9706H149.681L133.123 28.3295L149.681 10.5391H143.443L125.729 30.1009H125.267V10.5391H120.492V49.9706Z" fill="black"/>
<path fill-rule="evenodd" clip-rule="evenodd" d="M54.8275 10.3431C64.9163 10.3431 72.2328 18.1216 72.2328 30.598C72.2328 43.0744 64.9163 50.8528 54.8275 50.8528C44.7384 50.8528 37.422 43.0744 37.422 30.598C37.422 18.1216 44.7384 10.3431 54.8275 10.3431ZM54.8275 46.3861C61.9896 46.3861 67.6117 40.8409 67.6117 30.598C67.6117 20.355 61.9896 14.81 54.8275 14.81C47.665 14.81 42.0429 20.355 42.0429 30.598C42.0429 40.8409 47.665 46.3861 54.8275 46.3861Z" fill="black"/>
<path fill-rule="evenodd" clip-rule="evenodd" d="M96.1266 10.3431C106.215 10.3431 113.532 18.1216 113.532 30.598C113.532 43.0744 106.215 50.8528 96.1266 50.8528C86.0375 50.8528 78.7213 43.0744 78.7213 30.598C78.7213 18.1216 86.0375 10.3431 96.1266 10.3431ZM96.1266 46.3861C103.289 46.3861 108.911 40.8409 108.911 30.598C108.911 20.355 103.289 14.81 96.1266 14.81C88.9641 14.81 83.3421 20.355 83.3421 30.598C83.3421 40.8409 88.9641 46.3861 96.1266 46.3861Z" fill="black"/>
<path d="M33.1044 49.9706H10V10.539H14.7749V45.7348H33.1044V49.9706Z" fill="black"/>
<path fill-rule="evenodd" clip-rule="evenodd" d="M195.656 49.8769H190.881V10.4454H204.205C213.446 10.4454 217.605 15.5668 217.605 22.5367C217.605 27.7737 215.257 31.8747 210.231 33.5883L219.146 49.8769H213.601L205.283 34.4547C204.956 34.474 204.628 34.474 204.282 34.474H195.656V49.8769ZM195.656 14.6812V30.1611H204.128C210.443 30.1611 212.907 27.2731 212.907 22.5367C212.907 17.8003 210.443 14.6812 204.051 14.6812H195.656Z" fill="black"/>
<path fill-rule="evenodd" clip-rule="evenodd" d="M231.167 38.7096L227.201 49.8769H222.195L236.674 10.4454H241.602L256.081 49.8769H251.075L247.109 38.7096H231.167ZM238.984 16.6836L232.669 34.474H245.607L239.292 16.6836H238.984Z" fill="black"/>
<path fill-rule="evenodd" clip-rule="evenodd" d="M262.327 49.8769H267.102V34.474H275.728C276.075 34.474 276.402 34.474 276.729 34.4547L285.047 49.8769H290.592L281.677 33.5883C286.703 31.8747 289.051 27.7737 289.051 22.5367C289.051 15.5668 284.893 10.4454 275.651 10.4454H262.327V49.8769ZM267.102 30.1611V14.6812H275.497C281.889 14.6812 284.354 17.8003 284.354 22.5367C284.354 27.2731 281.889 30.1611 275.574 30.1611H267.102Z" fill="black"/>
<path d="M321.104 49.8769H296.998V10.4454H320.796V14.6812H301.773V28.0047H319.563V32.2405H301.773V45.6411H321.104V49.8769Z" fill="black"/>
<path fill-rule="evenodd" clip-rule="evenodd" d="M359.362 33.4997C355.004 33.4997 351.47 29.9679 351.47 25.6074C351.47 21.2468 355.004 17.7151 359.362 17.7151C363.72 17.7151 367.255 21.2468 367.255 25.6074C367.255 29.9679 363.72 33.4997 359.362 33.4997ZM355.931 25.6074C355.931 27.5033 357.468 29.0388 359.362 29.0388C361.256 29.0388 362.794 27.5033 362.794 25.6074C362.794 23.7115 361.256 22.1759 359.362 22.1759C357.468 22.1759 355.931 23.7115 355.931 25.6074Z" fill="#04CD58"/>
<path fill-rule="evenodd" clip-rule="evenodd" d="M333.97 25.6178L349.068 10.509H369.657L384.755 25.6178L359.362 51L333.97 25.6178ZM371.029 20.117C364.612 13.6736 354.112 13.6736 347.695 20.117L342.205 25.6074L347.695 31.0977C354.112 37.5411 364.612 37.541 371.029 31.0977L376.519 25.6074L371.029 20.117Z" fill="#04CD58"/>
</svg>
