<svg width="318" height="66" viewBox="0 0 318 66" fill="none" xmlns="http://www.w3.org/2000/svg">
<g clip-path="url(#clip0_1105_167)">
<path d="M67.4628 45.389C66.7698 45.389 66.2799 45.2464 65.9931 44.9616C65.7302 44.6766 65.5988 44.2254 65.5988 43.608V22.9841C65.5988 22.3667 65.7421 21.9155 66.0289 21.6306C66.3157 21.3218 66.7935 21.1675 67.4628 21.1675H76.2453C79.591 21.1675 82.0525 21.868 83.63 23.2691C85.2072 24.6701 85.9958 26.7598 85.9958 29.5382C85.9958 32.2928 85.2072 34.3705 83.63 35.7716C82.0765 37.149 79.615 37.8376 76.2453 37.8376H72.8399V43.608C72.8399 44.2254 72.6966 44.6766 72.4097 44.9616C72.1229 45.2464 71.633 45.389 70.94 45.389H67.4628ZM75.6719 32.6727C76.6517 32.6727 77.4045 32.4115 77.9303 31.8891C78.4798 31.3667 78.7547 30.583 78.7547 29.5382C78.7547 28.4696 78.4798 27.6741 77.9303 27.1516C77.4045 26.6292 76.6517 26.368 75.6719 26.368H72.8399V32.6727H75.6719Z" fill="#08060B"/>
<path d="M94.4615 45.9232C92.2152 45.9232 90.4109 45.2108 89.0486 43.7862C87.7103 42.3375 87.0413 40.3073 87.0413 37.695C87.0413 35.7004 87.4954 33.9549 88.4033 32.459C89.3355 30.9629 90.638 29.8112 92.3108 29.0039C94.0076 28.1727 95.9552 27.7571 98.1538 27.7571C99.9702 27.7571 101.571 27.959 102.957 28.3627C104.367 28.7426 105.658 29.3007 106.829 30.0368V44.2848C106.829 44.736 106.745 45.0328 106.578 45.1752C106.411 45.3178 106.076 45.389 105.574 45.389H101.918C101.655 45.389 101.452 45.3534 101.309 45.282C101.165 45.1872 101.046 45.0446 100.95 44.8546L100.484 43.7862C99.7908 44.5222 98.9545 45.0566 97.9747 45.389C97.0188 45.7452 95.8477 45.9232 94.4615 45.9232ZM97.1502 41.0789C98.0821 41.0789 98.811 40.8533 99.3367 40.4023C99.8625 39.9511 100.125 39.3099 100.125 38.4786V32.922C99.6715 32.7083 99.0978 32.6015 98.4048 32.6015C97.1381 32.6015 96.1225 33.0408 95.3578 33.9193C94.6169 34.7979 94.2465 36.0328 94.2465 37.6238C94.2465 39.9273 95.2143 41.0789 97.1502 41.0789Z" fill="#08060B"/>
<path d="M111.818 45.389C111.124 45.389 110.634 45.2464 110.348 44.9616C110.061 44.6766 109.918 44.2254 109.918 43.608V29.3957C109.918 28.9682 109.989 28.6833 110.133 28.5408C110.3 28.3746 110.634 28.2915 111.136 28.2915H114.829C115.115 28.2915 115.331 28.3389 115.474 28.4339C115.641 28.5052 115.737 28.6476 115.761 28.8614L115.94 29.93C116.609 29.2651 117.481 28.7426 118.557 28.3627C119.656 27.959 120.875 27.7571 122.213 27.7571C124.149 27.7571 125.714 28.3033 126.909 29.3957C128.104 30.4643 128.701 32.0553 128.701 34.1687V43.608C128.701 44.2254 128.558 44.6766 128.271 44.9616C128.008 45.2464 127.53 45.389 126.837 45.389H123.36C122.667 45.389 122.165 45.2464 121.855 44.9616C121.568 44.6766 121.425 44.2254 121.425 43.608V34.6317C121.425 33.9193 121.269 33.4089 120.959 33.1001C120.648 32.7914 120.158 32.6371 119.489 32.6371C118.772 32.6371 118.198 32.827 117.768 33.2069C117.362 33.5869 117.159 34.1093 117.159 34.7744V43.608C117.159 44.2254 117.015 44.6766 116.729 44.9616C116.466 45.2464 115.988 45.389 115.295 45.389H111.818Z" fill="#08060B"/>
<path d="M141.372 45.9232C138.027 45.9232 135.446 45.1514 133.629 43.608C131.813 42.0646 130.905 39.8205 130.905 36.8758C130.905 35.0712 131.323 33.4801 132.16 32.1028C132.996 30.7255 134.203 29.6569 135.78 28.897C137.381 28.1371 139.269 27.7571 141.444 27.7571C143.093 27.7571 144.479 27.9115 145.602 28.2202C146.749 28.5289 147.765 29.0038 148.649 29.645C148.912 29.8112 149.044 30.0249 149.044 30.2862C149.044 30.4761 148.948 30.7255 148.757 31.0342L147.287 33.5631C147.12 33.8957 146.917 34.0619 146.678 34.0619C146.534 34.0619 146.307 33.9669 145.997 33.7769C145.351 33.3733 144.742 33.0764 144.168 32.8864C143.619 32.6964 142.926 32.6015 142.089 32.6015C140.894 32.6015 139.927 32.9814 139.186 33.7413C138.469 34.5011 138.11 35.546 138.11 36.8758C138.11 38.2294 138.481 39.2743 139.222 40.0103C139.962 40.7227 140.978 41.0789 142.269 41.0789C143.033 41.0789 143.726 40.9721 144.348 40.7583C144.969 40.5447 145.602 40.2479 146.248 39.8679C146.582 39.6779 146.821 39.5829 146.965 39.5829C147.18 39.5829 147.371 39.7491 147.538 40.0817L149.151 42.8244C149.271 43.0618 149.33 43.2518 149.33 43.3942C149.33 43.608 149.187 43.8098 148.9 43.9998C147.897 44.641 146.797 45.1158 145.602 45.4246C144.431 45.757 143.021 45.9232 141.372 45.9232Z" fill="#08060B"/>
<path d="M158.419 45.9232C156.173 45.9232 154.369 45.2108 153.007 43.7862C151.668 42.3375 150.999 40.3073 150.999 37.695C150.999 35.7004 151.453 33.9549 152.361 32.459C153.293 30.9629 154.596 29.8112 156.268 29.0039C157.965 28.1727 159.913 27.7571 162.112 27.7571C163.928 27.7571 165.529 27.959 166.915 28.3627C168.325 28.7426 169.616 29.3007 170.787 30.0368V44.2848C170.787 44.736 170.703 45.0328 170.536 45.1752C170.368 45.3178 170.034 45.389 169.532 45.389H165.876C165.613 45.389 165.409 45.3534 165.266 45.282C165.123 45.1872 165.003 45.0446 164.908 44.8546L164.442 43.7862C163.749 44.5222 162.912 45.0566 161.932 45.389C160.976 45.7452 159.805 45.9232 158.419 45.9232ZM161.108 41.0789C162.04 41.0789 162.769 40.8533 163.295 40.4023C163.82 39.9511 164.083 39.3099 164.083 38.4786V32.922C163.629 32.7083 163.056 32.6015 162.362 32.6015C161.096 32.6015 160.08 33.0408 159.315 33.9193C158.575 34.7979 158.204 36.0328 158.204 37.6238C158.204 39.9273 159.172 41.0789 161.108 41.0789Z" fill="#08060B"/>
<path d="M193.304 44.0354C193.472 44.2254 193.555 44.4392 193.555 44.6766C193.555 44.8902 193.484 45.0684 193.34 45.2108C193.197 45.3296 193.006 45.389 192.767 45.389H187.21C186.876 45.389 186.625 45.3652 186.458 45.3178C186.314 45.2464 186.159 45.1158 185.992 44.926L181.116 38.3363V43.608C181.116 44.2254 180.973 44.6766 180.686 44.9616C180.399 45.2464 179.91 45.389 179.217 45.389H175.739C175.046 45.389 174.556 45.2464 174.27 44.9616C174.007 44.6766 173.875 44.2254 173.875 43.608V22.9841C173.875 22.3667 174.019 21.9155 174.305 21.6306C174.592 21.3218 175.07 21.1675 175.739 21.1675H179.217C179.91 21.1675 180.399 21.3218 180.686 21.6306C180.973 21.9155 181.116 22.3667 181.116 22.9841V34.9168L185.848 28.7901C185.992 28.6002 186.147 28.4696 186.314 28.3983C186.482 28.3271 186.733 28.2915 187.067 28.2915H192.624C192.862 28.2915 193.042 28.3627 193.161 28.5052C193.304 28.6239 193.376 28.7901 193.376 29.0039C193.376 29.2413 193.293 29.455 193.125 29.645L186.995 36.6266L193.304 44.0354Z" fill="#08060B"/>
<path d="M204.944 45.9232C202.937 45.9232 201.144 45.5908 199.567 44.926C198.014 44.261 196.783 43.2636 195.875 41.9339C194.967 40.6041 194.513 38.9775 194.513 37.054C194.513 34.0381 195.373 31.7347 197.094 30.1437C198.814 28.5527 201.288 27.7571 204.514 27.7571C207.669 27.7571 210.058 28.5408 211.683 30.1081C213.333 31.6516 214.157 33.8007 214.157 36.5552C214.157 37.7426 213.631 38.3362 212.58 38.3362H201.324C201.324 39.3573 201.706 40.1411 202.471 40.6871C203.259 41.2333 204.442 41.5063 206.02 41.5063C206.999 41.5063 207.812 41.4233 208.457 41.2571C209.126 41.0671 209.796 40.7941 210.465 40.4379C210.751 40.3191 210.943 40.2597 211.038 40.2597C211.253 40.2597 211.432 40.4023 211.576 40.6871L212.795 42.9668C212.914 43.2044 212.974 43.3824 212.974 43.5012C212.974 43.7148 212.831 43.9168 212.544 44.1066C211.564 44.7478 210.453 45.2108 209.21 45.4958C207.967 45.7808 206.545 45.9232 204.944 45.9232ZM207.704 34.81C207.704 33.9075 207.442 33.2069 206.916 32.7083C206.39 32.2096 205.601 31.9603 204.55 31.9603C203.498 31.9603 202.698 32.2215 202.148 32.7439C201.598 33.2427 201.324 33.9313 201.324 34.81H207.704Z" fill="#08060B"/>
<path d="M226.444 45.9232C224.436 45.9232 222.536 45.7214 220.744 45.3178C218.952 44.8902 217.506 44.2966 216.406 43.5368C216 43.2756 215.797 43.0024 215.797 42.7176C215.797 42.5276 215.869 42.3258 216.012 42.1119L217.769 39.3337C217.96 39.0487 218.151 38.9063 218.342 38.9063C218.462 38.9063 218.665 38.9893 218.951 39.1555C219.836 39.6543 220.839 40.0579 221.963 40.3665C223.086 40.6753 224.197 40.8297 225.297 40.8297C226.42 40.8297 227.244 40.6635 227.77 40.3309C228.32 39.9985 228.594 39.4643 228.594 38.7281C228.594 38.0156 228.296 37.4576 227.698 37.054C227.125 36.6502 226.037 36.1398 224.436 35.5224C222.022 34.62 220.134 33.6107 218.772 32.4946C217.434 31.3548 216.765 29.8112 216.765 27.864C216.765 25.5131 217.613 23.7202 219.31 22.4854C221.007 21.2506 223.265 20.6332 226.085 20.6332C228.045 20.6332 229.718 20.8113 231.104 21.1675C232.514 21.4999 233.708 22.0224 234.688 22.7348C235.095 23.0435 235.298 23.3284 235.298 23.5896C235.298 23.7559 235.226 23.9458 235.083 24.1596L233.326 26.9379C233.111 27.2229 232.92 27.3653 232.753 27.3653C232.633 27.3653 232.43 27.2822 232.143 27.116C230.757 26.2136 229.108 25.7624 227.196 25.7624C226.169 25.7624 225.38 25.9287 224.83 26.2611C224.281 26.5936 224.006 27.1398 224.006 27.8996C224.006 28.4221 224.149 28.8495 224.436 29.1819C224.723 29.5144 225.105 29.8112 225.583 30.0724C226.085 30.3099 226.85 30.6186 227.877 30.9986L228.558 31.2479C230.327 31.9366 231.713 32.6015 232.717 33.2427C233.744 33.8599 234.521 34.6317 235.047 35.558C235.572 36.4602 235.835 37.6 235.835 38.9775C235.835 41.0909 235.035 42.777 233.434 44.0354C231.856 45.294 229.526 45.9232 226.444 45.9232Z" fill="#08060B"/>
<path d="M243.452 45.389C243.094 45.389 242.819 45.3296 242.627 45.2108C242.436 45.0922 242.293 44.8546 242.197 44.4984L237.573 29.1107C237.525 28.9682 237.501 28.8614 237.501 28.7901C237.501 28.4577 237.74 28.2914 238.218 28.2914H242.949C243.261 28.2914 243.487 28.3508 243.631 28.4695C243.775 28.5645 243.871 28.7307 243.917 28.9682L245.853 37.054L248.291 30.5355C248.412 30.2505 248.53 30.0605 248.649 29.9656C248.793 29.8468 249.033 29.7875 249.368 29.7875H251.624C251.959 29.7875 252.187 29.8468 252.306 29.9656C252.45 30.0605 252.58 30.2505 252.701 30.5355L255.102 37.054L257.075 28.9682C257.145 28.7307 257.24 28.5645 257.361 28.4695C257.48 28.3508 257.696 28.2914 258.005 28.2914H262.774C263.251 28.2914 263.491 28.4577 263.491 28.7901C263.491 28.8614 263.467 28.9682 263.419 29.1107L258.759 44.4984C258.664 44.8546 258.519 45.0922 258.329 45.2108C258.161 45.3296 257.898 45.389 257.54 45.389H254.027C253.692 45.389 253.441 45.3296 253.274 45.2108C253.106 45.0684 252.964 44.831 252.843 44.4984L250.477 38.0512L248.112 44.4984C248.016 44.831 247.872 45.0684 247.681 45.2108C247.514 45.3296 247.265 45.389 246.93 45.389H243.452Z" fill="#08060B"/>
<path d="M272.577 45.9232C270.33 45.9232 268.527 45.2108 267.164 43.7862C265.826 42.3375 265.156 40.3073 265.156 37.695C265.156 35.7004 265.61 33.9549 266.52 32.459C267.45 30.9629 268.753 29.8112 270.425 29.0039C272.124 28.1727 274.071 27.7571 276.269 27.7571C278.086 27.7571 279.686 27.959 281.073 28.3627C282.483 28.7426 283.774 29.3007 284.944 30.0368V44.2848C284.944 44.736 284.86 45.0328 284.693 45.1752C284.525 45.3178 284.193 45.389 283.69 45.389H280.033C279.77 45.389 279.568 45.3534 279.424 45.282C279.279 45.1872 279.161 45.0446 279.065 44.8546L278.6 43.7862C277.907 44.5222 277.069 45.0566 276.09 45.389C275.134 45.7452 273.964 45.9232 272.577 45.9232ZM275.267 41.0789C276.197 41.0789 276.927 40.8533 277.453 40.4023C277.979 39.9511 278.242 39.3099 278.242 38.4786V32.922C277.786 32.7083 277.214 32.6015 276.52 32.6015C275.253 32.6015 274.238 33.0408 273.473 33.9193C272.733 34.7979 272.361 36.0328 272.361 37.6238C272.361 39.9273 273.331 41.0789 275.267 41.0789Z" fill="#08060B"/>
<path d="M289.897 52.5842C289.203 52.5842 288.715 52.4418 288.426 52.1568C288.164 51.8718 288.033 51.4206 288.033 50.8032V30.393C289.108 29.6331 290.46 29.0038 292.083 28.5052C293.709 28.0065 295.405 27.7571 297.173 27.7571C304.392 27.7571 308 30.7967 308 36.8758C308 39.6305 307.235 41.8269 305.706 43.4656C304.176 45.104 302.014 45.9232 299.218 45.9232C298.43 45.9232 297.664 45.8282 296.922 45.6382C296.206 45.4484 295.608 45.1872 295.131 44.8546V50.8032C295.131 51.4206 294.987 51.8718 294.701 52.1568C294.414 52.4418 293.924 52.5842 293.23 52.5842H289.897ZM297.676 41.1145C298.704 41.1145 299.469 40.7347 299.97 39.9747C300.495 39.1911 300.758 38.1462 300.758 36.8402C300.758 35.2968 300.449 34.2161 299.828 33.5987C299.23 32.9577 298.297 32.6371 297.031 32.6371C296.217 32.6371 295.573 32.7439 295.096 32.9577V38.6213C295.096 39.4287 295.322 40.0461 295.775 40.4735C296.231 40.9009 296.864 41.1145 297.676 41.1145Z" fill="#08060B"/>
<path fill-rule="evenodd" clip-rule="evenodd" d="M32.6946 55.9092C25.9035 55.9041 20.4331 54.2848 16.6109 51.3764C12.7428 48.4331 10.6909 44.2561 10.6909 39.5297C10.6909 34.9757 12.7383 31.6919 15.0551 29.4722C16.8707 27.7327 18.8742 26.6186 20.2693 25.9778C19.9538 25.0157 19.5602 23.7563 19.208 22.4554C18.7368 20.7147 18.2746 18.6724 18.2746 17.1757C18.2746 15.4043 18.6633 13.6253 19.7113 12.2429C20.8185 10.7824 22.4854 10 24.4908 10C26.058 10 27.3886 10.5777 28.4303 11.5742C29.426 12.5267 30.0887 13.7917 30.5463 15.1104C31.3504 17.4276 31.6634 20.3388 31.7512 23.244H33.672C33.76 20.3388 34.0729 17.4276 34.8771 15.1104C35.3347 13.7917 35.9972 12.5267 36.9931 11.5742C38.0348 10.5777 39.3652 10 40.9325 10C42.938 10 44.6048 10.7824 45.7121 12.2429C46.7601 13.6253 47.1488 15.4043 47.1488 17.1757C47.1488 18.6724 46.6863 20.7147 46.2153 22.4554C45.8631 23.7563 45.4695 25.0157 45.154 25.9778C46.5491 26.6186 48.5527 27.7327 50.3682 29.4722C52.685 31.6919 54.7323 34.9757 54.7323 39.5297C54.7323 44.2561 52.6805 48.4331 48.8124 51.3764C44.9902 54.2848 39.5197 55.9041 32.7286 55.9092H32.6946Z" fill="#633001"/>
<path d="M24.4907 11.6848C21.5535 11.6848 20.2015 13.8843 20.2015 16.9262C20.2015 19.344 21.7724 24.1864 22.417 26.0714C22.562 26.4954 22.3342 26.9599 21.9187 27.1244C19.5647 28.0561 12.6178 31.4674 12.6178 39.2803C12.6178 47.5101 19.6774 53.7155 32.696 53.7254C32.7012 53.7254 32.7064 53.7252 32.7116 53.7252C32.7167 53.7252 32.7219 53.7254 32.7271 53.7254C45.7456 53.7155 52.8052 47.5101 52.8052 39.2803C52.8052 31.4674 45.8584 28.0561 43.5044 27.1244C43.0889 26.9599 42.8612 26.4954 43.0061 26.0714C43.6507 24.1864 45.2217 19.344 45.2217 16.9262C45.2217 13.8843 43.8696 11.6848 40.9324 11.6848C36.7046 11.6848 35.6506 17.6965 35.5754 24.1485C35.5705 24.5792 35.2235 24.9287 34.7945 24.9287H30.6287C30.1996 24.9287 29.8527 24.5792 29.8477 24.1485C29.7725 17.6965 28.7186 11.6848 24.4907 11.6848Z" fill="#D1884F"/>
<path d="M32.7271 51.0891C23.1617 51.0891 12.6343 45.9494 12.6178 39.296C12.6178 39.3062 12.6178 39.3166 12.6178 39.327C12.6178 47.5635 19.6887 53.7722 32.7271 53.7722C45.7656 53.7722 52.8364 47.5635 52.8364 39.327C52.8364 39.3166 52.8364 39.3062 52.8364 39.296C52.8199 45.9494 42.2924 51.0891 32.7271 51.0891Z" fill="#FEDC90"/>
<path d="M27.4123 37.2523C27.4123 39.4987 26.3547 40.6686 25.0502 40.6686C23.7456 40.6686 22.688 39.4987 22.688 37.2523C22.688 35.0059 23.7456 33.8361 25.0502 33.8361C26.3547 33.8361 27.4123 35.0059 27.4123 37.2523Z" fill="#633001"/>
<path d="M42.7663 37.2523C42.7663 39.4987 41.7088 40.6686 40.4042 40.6686C39.0996 40.6686 38.042 39.4987 38.042 37.2523C38.042 35.0059 39.0996 33.8361 40.4042 33.8361C41.7088 33.8361 42.7663 35.0059 42.7663 37.2523Z" fill="#633001"/>
</g>
<defs>
<clipPath id="clip0_1105_167">
<rect width="298" height="46" fill="white" transform="translate(10 10)"/>
</clipPath>
</defs>
</svg>
