<svg width="192" height="61" viewBox="0 0 192 61" fill="none" xmlns="http://www.w3.org/2000/svg">
<g clip-path="url(#clip0_610_188)">
<path d="M105.913 39.6989C105.914 39.6982 105.915 39.6979 105.915 39.6979L105.913 39.6957V39.6989Z" fill="black"/>
<path d="M98.6344 23.7253V36.9286C98.6344 39.9718 100.137 41.5905 103.119 41.5905C104.477 41.5905 105.346 41.4044 105.913 41.1806V39.6989C105.871 39.7228 105.205 40.093 103.984 40.093C102.241 40.093 101.65 38.5725 101.65 35.6466V23.9403C108.282 25.6657 111.361 35.8129 110.729 41.626L105.871 50.952H108.448L120.543 22.4953H118.006L113.133 36.4936C113.31 33.0723 109.334 21.7869 101.65 21.473V16.6685L98.6344 17.6347V21.7067C95.1154 22.3731 92.9045 24.3477 92.0749 26.6573V22.4953H89.1806V41.2016H92.1146V31.311C92.1146 27.6873 93.4114 24.1286 98.6344 23.7253Z" fill="black"/>
<path fill-rule="evenodd" clip-rule="evenodd" d="M169.45 18.2224C175.938 18.2224 181.455 21.2321 181.455 29.9243C181.455 37.3448 176.525 41.626 169.45 41.626C162.374 41.626 157.475 37.3448 157.475 29.9243C157.475 21.2321 162.99 18.2224 169.45 18.2224ZM169.45 19.9604C164.921 19.9604 161.124 21.9181 161.124 29.9243C161.124 36.8157 164.509 39.888 169.45 39.888C174.39 39.888 177.806 36.8157 177.806 29.9243C177.806 21.9181 174.006 19.9604 169.45 19.9604Z" fill="black"/>
<path fill-rule="evenodd" clip-rule="evenodd" d="M143.992 33.6386L140.846 41.1994H138.526L148.626 18.2224H149.865L159.511 41.1994H155.71L152.799 33.6386H143.992ZM144.547 32.3065H152.286L148.567 22.6459L144.547 32.3065Z" fill="black"/>
<path fill-rule="evenodd" clip-rule="evenodd" d="M83.7955 38.6102L83.6346 41.2016H86.4537C86.4679 39.7042 86.488 37.8867 86.5083 36.0527V36.051V36.0505C86.5475 32.5206 86.5874 28.93 86.5874 27.4438C86.5874 23.4741 83.6744 22.1607 80.7717 22.1607C78.5525 22.1607 76.8152 23.0969 75.7687 23.859C75.4807 19.2342 71.1302 18.693 67.9391 18.693V18.6909H61.4109V41.2016H64.5433V31.5348H66.798C70.511 31.5348 75.2271 30.497 75.7382 25.3106C76.3896 24.6992 77.5188 24.0242 79.3299 24.0242C82.3954 24.0242 83.6744 25.3711 83.6744 27.0861C83.6744 28.9583 81.6045 29.6638 79.274 30.458C76.2728 31.4809 72.8393 32.6511 72.8393 36.6504C72.8393 39.727 75.4222 41.5926 78.2307 41.5926C81.827 41.5926 83.7955 38.6102 83.7955 38.6102ZM79.2651 39.75C77.2401 39.75 75.7837 38.01 75.7837 36.0732C75.7837 33.1454 78.4118 32.0733 80.7241 31.1302C81.9351 30.636 83.0595 30.1774 83.6744 29.506V35.6528C83.6744 38.3613 81.4425 39.75 79.2651 39.75ZM66.3593 30.0957H64.5433V20.2261H66.9465C70.2545 20.2261 72.4068 21.0041 72.4068 24.6935C72.4068 29.094 69.5106 30.0979 66.3571 30.0979L66.3593 30.0957Z" fill="black"/>
<path fill-rule="evenodd" clip-rule="evenodd" d="M130.42 18.6909H121.172V41.2016H130.241C135.438 41.2016 140.752 37.8259 140.752 29.0981C140.752 22.3657 137.421 18.693 130.42 18.693V18.6909ZM128.922 39.886H124.632V20.0274H128.377C133.471 20.0274 137.252 21.5102 137.252 29.0521C137.252 37.6335 133.49 39.888 128.924 39.888L128.922 39.886Z" fill="black"/>
<path d="M34.9511 35.7198C34.6635 34.8086 34.3524 33.908 33.9367 32.7448C35.3068 31.2323 43.5399 21.6087 40.6169 13.9098C43.4954 16.8245 42.847 21.7951 41.592 25.3767C40.29 28.9662 37.937 32.6135 34.9511 35.7198ZM43.3595 41.4125C41.7619 43.0853 37.7905 46.3097 37.4611 46.5434C38.2272 47.1814 38.9514 47.7382 39.6208 48.1898C41.545 46.7536 43.4066 45.0468 45.0878 43.1404C44.5726 42.6152 43.9975 42.0401 43.3569 41.4152L43.3595 41.4125ZM35.2884 36.8384C35.5447 37.7207 35.8087 38.7028 36.1381 39.9973C34.8309 39.6217 33.7823 39.3066 32.7732 38.9549C30.9247 40.3807 28.9741 41.6121 27.0133 42.5654C28.3781 43.0379 29.8973 43.5632 31.3248 44.0594C35.3616 41.809 38.9802 38.3692 41.6157 34.5803C41.6157 34.5803 43.9452 31.1483 44.9963 28.1076C45.7101 26.0647 46.212 23.578 45.9453 21.3041C45.344 17.9509 44.0524 16.9741 43.4092 16.4778C45.0851 18.0428 44.2956 24.077 42.6484 27.3828C40.9934 30.7072 38.3658 34.0156 35.2858 36.8384H35.2884ZM51.3601 26.4901C51.3522 28.6013 50.5286 30.7807 49.6083 32.6923C50.0711 33.2936 50.4737 33.8844 50.811 34.4672C52.981 29.9535 51.8281 27.1781 51.3601 26.4927V26.4901ZM22.5712 41.0293C22.5712 41.0293 24.0092 41.5254 25.9728 42.2057C28.02 41.284 29.9835 40.0498 31.8005 38.6003C30.9115 38.2616 29.9991 37.8704 28.9114 37.3663C26.8355 38.9443 24.6706 40.1889 22.5685 41.0293H22.5712ZM46.4603 29.3495C46.6931 29.5597 47.9402 30.765 48.2985 31.1483C50.0371 26.6083 48.5128 23.2603 47.9506 22.7929C48.1468 24.9934 47.4016 27.3067 46.4603 29.3469V29.3495ZM42.5698 40.4542L41.898 36.3054C39.0926 39.543 35.6309 42.3632 32.1718 44.3562C34.0255 45.0021 35.6256 45.5588 36.3787 45.8266C38.6455 44.343 40.7475 42.497 42.5725 40.4542H42.5698Z" fill="black"/>
<path d="M30.9692 49.9438C32.1903 50.7447 34.4911 51.1019 36.086 50.2798C37.728 49.2295 35.9238 48.0006 33.9053 47.5805C31.2385 47.0266 29.3273 47.914 30.2581 49.2769C30.3679 49.4397 30.5823 49.6864 30.9718 49.9411M30.4699 50.0514C29.4999 49.4029 28.6266 48.0822 30.4071 47.2943C33.2388 46.3569 38.1358 48.1688 37.2102 49.8125C37.0507 50.0961 36.8128 50.2485 36.5618 50.4112H36.5565V50.4164H36.5488V50.4216H36.5408V50.4269H36.5384C34.6218 51.4221 31.8948 51.0073 30.4672 50.0514M31.9602 48.996C32.0282 49.0458 32.6373 49.4816 33.338 49.1298C33.461 49.0641 33.5812 48.996 33.7041 48.9276L32.4307 48.2764C32.2975 48.3499 32.1641 48.4209 32.0308 48.4917C31.9288 48.5521 31.6151 48.7333 31.9602 48.9933M31.4974 49.1534C30.8569 48.7228 31.2857 48.4392 31.4922 48.3027C31.7903 48.1477 32.0883 47.9876 32.3863 47.8195C34.2767 48.8226 34.3498 48.8619 35.9762 49.5054C35.8507 49.5815 35.7252 49.6549 35.6022 49.7285C35.0768 49.5131 34.3734 49.2322 33.8558 48.996C34.0884 49.3792 34.397 49.8913 34.6454 50.2642C34.4936 50.3455 34.3421 50.4243 34.1905 50.5032C33.9864 50.1539 33.712 49.6864 33.5185 49.3294C32.6505 49.8939 31.6151 49.2295 31.5 49.1534" fill="black"/>
<path d="M49.2294 20.2144C44.9781 12.4709 38.4312 10 34.1145 10C30.8699 10 27.0475 11.5807 24.0903 13.6C26.6865 14.7974 30.0384 17.9615 30.0829 18.0035C27.9207 17.1711 25.2303 16.1654 21.0392 15.8529C19.1148 17.4678 17.2794 19.3374 15.6584 21.4249C15.8675 23.5177 16.4427 25.7129 16.4427 25.7129C14.7328 24.4157 13.4438 24.4525 11.5431 28.2941C10.0737 31.7548 9.65801 34.9216 10.2777 37.3636C10.2777 37.3636 11.5614 44.6897 20.1371 48.3159C19.7816 47.0555 19.7058 45.606 19.8835 44.0174C18.3514 43.2533 16.9212 42.3501 15.6296 41.3207C15.844 39.5143 16.3879 37.5422 17.2637 35.4809C18.4664 32.5689 18.4481 31.3427 18.4481 31.3295C18.456 31.348 19.9411 34.7273 21.9726 37.3636C23.1256 34.9479 24.5479 32.9681 25.6931 31.3978L24.6681 29.5545C26.1872 27.6718 27.858 25.9414 29.6176 24.4288C30.1745 24.7203 30.9221 25.1037 31.479 25.4083C33.8426 23.4205 36.716 21.5694 39.796 20.4088C37.8899 17.2683 35.4349 15.1413 35.4349 15.1413C35.4349 15.1413 42.9727 15.8923 46.871 19.4293C47.7573 19.5685 48.5417 19.8363 49.2268 20.217L49.2294 20.2144ZM13.6975 35.2892C13.3314 36.484 13.0778 37.6289 12.9497 38.7107C12.2778 37.9229 11.7208 37.1089 11.2659 36.295C11.3914 35.2394 11.6319 34.1313 11.9875 32.9864C12.4686 31.537 12.9 31.3716 13.5824 32.3745V32.3615C14.1655 33.2016 14.0766 34.0394 13.6975 35.2866V35.2892ZM22.7098 25.634L22.6968 25.6472C21.7477 23.6122 21.4183 22.8744 20.5842 20.7002L20.6234 20.6608C22.8641 21.4118 23.523 21.6534 25.6747 22.5698C24.6498 23.523 23.6484 24.5549 22.7124 25.634H22.7098ZM37.6337 12.6836C36.431 12.8753 35.1787 13.2166 33.9132 13.7024C33.2048 13.1431 32.4961 12.6599 31.7876 12.2529C33.0033 11.796 34.193 11.4652 35.3329 11.2867C35.7513 11.2368 37.0297 11.0713 38.1435 11.9483V11.9352C38.8155 12.4578 38.1828 12.5838 37.6363 12.6862L37.6337 12.6836Z" fill="black"/>
</g>
<defs>
<clipPath id="clip0_610_188">
<rect width="171.455" height="41" fill="white" transform="translate(10 10)"/>
</clipPath>
</defs>
</svg>
