<svg width="157" height="61" viewBox="0 0 157 61" fill="none" xmlns="http://www.w3.org/2000/svg">
<g clip-path="url(#clip0_610_144)">
<path d="M94.0656 38.2871C94.0665 38.2867 94.0669 38.2864 94.0669 38.2864L94.0656 38.2852V38.2871Z" fill="white"/>
<path d="M89.0363 27.2534V36.3738C89.0363 38.4759 90.0745 39.5941 92.135 39.5941C93.0736 39.5941 93.6742 39.4656 94.0656 39.3109V38.2874C94.0368 38.3039 93.5768 38.5597 92.7328 38.5597C91.5286 38.5597 91.1199 37.5094 91.1199 35.4881V27.4019C95.7026 28.5937 97.8301 35.603 97.3939 39.6187L94.0367 46.0607H95.817L104.175 26.4038H102.422L99.0544 36.0733C99.1769 33.7098 96.4295 25.9144 91.1199 25.6975V22.3787L89.0363 23.0462V25.859C86.6047 26.3192 85.0771 27.6834 84.5037 29.2787V26.4038H82.5039V39.3253H84.5313V32.4933C84.5313 29.9902 85.4273 27.532 89.0363 27.2534Z" fill="white"/>
<path fill-rule="evenodd" clip-rule="evenodd" d="M137.969 23.4521C142.453 23.4521 146.264 25.5311 146.264 31.5354C146.264 36.6613 142.858 39.6187 137.969 39.6187C133.08 39.6187 129.695 36.6613 129.695 31.5354C129.695 25.5311 133.505 23.4521 137.969 23.4521ZM137.969 24.6527C134.84 24.6527 132.216 26.005 132.216 31.5354C132.216 36.2958 134.555 38.4181 137.969 38.4181C141.383 38.4181 143.743 36.2958 143.743 31.5354C143.743 26.005 141.117 24.6527 137.969 24.6527Z" fill="white"/>
<path fill-rule="evenodd" clip-rule="evenodd" d="M120.378 34.1013L118.204 39.3239H116.601L123.58 23.4521H124.436L131.101 39.3239H128.475L126.464 34.1013H120.378ZM120.761 33.1809H126.109L123.539 26.5077L120.761 33.1809Z" fill="white"/>
<path fill-rule="evenodd" clip-rule="evenodd" d="M78.7829 37.5353L78.6717 39.3253H80.6195C80.6295 38.2911 80.6434 37.0356 80.6575 35.7687V35.7676V35.7672C80.6845 33.3288 80.712 30.8485 80.712 29.8219C80.712 27.0799 78.6991 26.1725 76.6936 26.1725C75.1599 26.1725 73.9596 26.8193 73.2364 27.3457C73.0375 24.151 70.0312 23.7772 67.8262 23.7772V23.7758H63.3154V39.3253H65.4798V32.6479H67.0379C69.6035 32.6479 72.8622 31.9311 73.2154 28.3484C73.6654 27.9261 74.4456 27.4598 75.6972 27.4598C77.8154 27.4598 78.6991 28.3902 78.6991 29.5749C78.6991 30.8681 77.2689 31.3554 75.6586 31.9041C73.5847 32.6107 71.2122 33.419 71.2122 36.1816C71.2122 38.3069 72.9971 39.5955 74.9376 39.5955C77.4227 39.5955 78.7829 37.5353 78.7829 37.5353ZM75.6524 38.3227C74.2532 38.3227 73.2468 37.1207 73.2468 35.7828C73.2468 33.7605 75.0627 33.02 76.6606 32.3684C77.4974 32.0271 78.2743 31.7103 78.6991 31.2464V35.4924C78.6991 37.3634 77.157 38.3227 75.6524 38.3227ZM66.7346 31.6538H65.4798V24.8362H67.1404C69.4262 24.8362 70.9134 25.3737 70.9134 27.9221C70.9134 30.9619 68.9121 31.6553 66.7331 31.6553L66.7346 31.6538Z" fill="white"/>
<path fill-rule="evenodd" clip-rule="evenodd" d="M111 23.7758H104.609V39.3253H110.876C114.467 39.3253 118.139 36.9936 118.139 30.9647C118.139 26.3141 115.837 23.7772 111 23.7772V23.7758ZM109.965 38.4166H107V24.6989H109.588C113.108 24.6989 115.72 25.7232 115.72 30.933C115.72 36.8606 113.121 38.4181 109.966 38.4181L109.965 38.4166Z" fill="white"/>
<path d="M36.3499 34.4182C36.0496 33.4708 35.7248 32.5343 35.2907 31.3248C36.7213 29.7521 45.3189 19.7456 42.2666 11.7404C45.2726 14.771 44.5955 19.9394 43.2849 23.6635C41.9252 27.3958 39.468 31.1883 36.3499 34.4182ZM45.1306 40.3375C43.4623 42.0767 39.3151 45.4294 38.9711 45.6725C39.7711 46.3359 40.5274 46.9147 41.2263 47.3844C43.2358 45.8908 45.1798 44.1162 46.9354 42.1339C46.3975 41.5879 45.7968 40.99 45.1279 40.3402L45.1306 40.3375ZM36.7022 35.5812C36.9698 36.4986 37.2455 37.5198 37.5896 38.8658C36.2245 38.4754 35.1295 38.1478 34.0756 37.7819C32.1453 39.2645 30.1086 40.545 28.0608 41.5361C29.486 42.0276 31.0723 42.5736 32.5631 43.0896C36.7787 40.7497 40.5574 37.173 43.3095 33.2332C43.3095 33.2332 45.7421 29.6647 46.8398 26.5031C47.5851 24.3789 48.1093 21.7933 47.8308 19.4288C47.203 15.9423 45.8542 14.9266 45.1826 14.4106C46.9327 16.0378 46.108 22.312 44.3879 25.7495C42.6596 29.2061 39.9157 32.6462 36.6995 35.5812H36.7022ZM53.4854 24.8212C53.4772 27.0163 52.6171 29.2825 51.656 31.2701C52.1393 31.8954 52.5597 32.5096 52.9119 33.1158C55.1781 28.4225 53.974 25.5365 53.4854 24.8239V24.8212ZM23.4221 39.9388C23.4221 39.9388 24.9237 40.4549 26.9741 41.162C29.1119 40.2037 31.1625 38.9204 33.06 37.4133C32.1317 37.061 31.1788 36.6542 30.043 36.1301C27.8752 37.771 25.6145 39.0651 23.4192 39.9388H23.4221ZM48.3687 27.7945C48.6117 28.0129 49.9141 29.2661 50.2882 29.6647C52.1038 24.9441 50.512 21.4629 49.925 20.9769C50.1297 23.2649 49.3517 25.6703 48.3687 27.7917V27.7945ZM44.3061 39.341L43.6044 35.027C40.6748 38.3934 37.0599 41.3258 33.4477 43.3981C35.3834 44.0698 37.0544 44.6486 37.8407 44.927C40.2079 43.3845 42.403 41.465 44.3088 39.341H44.3061Z" fill="white"/>
<path d="M32.1918 49.2081C33.4669 50.0408 35.8696 50.4122 37.535 49.5576C39.2497 48.4654 37.3658 47.1877 35.258 46.7509C32.473 46.1747 30.4772 47.0976 31.4493 48.5146C31.5638 48.6839 31.7878 48.9405 32.1946 49.2054M31.6703 49.3201C30.6575 48.6457 29.7455 47.2724 31.6049 46.4532C34.5618 45.4785 39.6756 47.3624 38.7091 49.0716C38.5424 49.3664 38.294 49.5248 38.032 49.6941H38.0264V49.6995H38.0183V49.7051H38.0102V49.7105H38.0074C36.0061 50.7452 33.1583 50.3138 31.6676 49.3201M33.2266 48.2225C33.2976 48.2743 33.9338 48.7275 34.6655 48.3618C34.7939 48.2934 34.9193 48.2225 35.0477 48.1515L33.7181 47.4744C33.5789 47.5509 33.4397 47.6245 33.3004 47.6983C33.1939 47.761 32.8662 47.9495 33.2266 48.2198M32.7433 48.3863C32.0744 47.9385 32.5223 47.6436 32.7379 47.5016C33.0491 47.3406 33.3604 47.1741 33.6716 46.9992C35.6457 48.0422 35.7221 48.0832 37.4203 48.7521C37.2893 48.8313 37.1582 48.9078 37.0299 48.9842C36.4811 48.7603 35.7467 48.4681 35.2061 48.2225C35.4492 48.6211 35.7713 49.1534 36.0307 49.5411C35.8723 49.6258 35.714 49.7078 35.5555 49.7896C35.3426 49.4266 35.0559 48.9405 34.8539 48.5692C33.9474 49.1563 32.8662 48.4654 32.7461 48.3863" fill="white"/>
<path d="M51.2603 18.2957C46.8207 10.2441 39.9841 7.67487 35.4764 7.67487C32.0881 7.67487 28.0964 9.3185 25.0084 11.4181C27.7195 12.6631 31.2199 15.9531 31.2663 15.9968C29.0083 15.1313 26.1988 14.0856 21.8222 13.7607C19.8127 15.4398 17.896 17.3838 16.2032 19.5544C16.4216 21.7304 17.0223 24.0129 17.0223 24.0129C15.2367 22.6641 13.8906 22.7023 11.9057 26.6968C10.3713 30.2953 9.93722 33.5881 10.5843 36.1273C10.5843 36.1273 11.9249 43.7448 20.8802 47.5153C20.5089 46.2047 20.4297 44.6977 20.6154 43.0459C19.0155 42.2513 17.522 41.3121 16.1732 40.2419C16.3971 38.3634 16.965 36.3129 17.8796 34.1696C19.1356 31.1417 19.1165 29.8667 19.1165 29.853C19.1247 29.8721 20.6755 33.386 22.7969 36.1273C24.001 33.6154 25.4863 31.5568 26.6821 29.9241L25.6117 28.0073C27.198 26.0498 28.9428 24.2505 30.7803 22.6778C31.3619 22.9809 32.1426 23.3794 32.7242 23.6962C35.1924 21.6293 38.193 19.7046 41.4093 18.4978C39.4189 15.2323 36.8552 13.0208 36.8552 13.0208C36.8552 13.0208 44.7267 13.8016 48.7975 17.4793C49.723 17.624 50.5421 17.9025 51.2575 18.2984L51.2603 18.2957ZM14.1555 33.9704C13.7732 35.2126 13.5084 36.403 13.3747 37.5279C12.673 36.7088 12.0914 35.8624 11.6163 35.0161C11.7474 33.9184 11.9985 32.7663 12.3699 31.5759C12.8722 30.0687 13.3228 29.8967 14.0354 30.9397V30.926C14.6442 31.7997 14.5514 32.6707 14.1555 33.9676V33.9704ZM23.5668 23.9311L23.5533 23.9447C22.5621 21.8287 22.2181 21.0615 21.3471 18.8008L21.388 18.7599C23.7278 19.5407 24.416 19.7919 26.663 20.7448C25.5928 21.7358 24.547 22.8088 23.5695 23.9311H23.5668ZM39.1514 10.4652C37.8955 10.6645 36.5876 11.0195 35.2661 11.5246C34.5262 10.943 33.7863 10.4406 33.0464 10.0174C34.316 9.54237 35.5583 9.19838 36.7487 9.01271C37.1855 8.96084 38.5206 8.7888 39.6838 9.70072V9.68709C40.3854 10.2304 39.7247 10.3615 39.1541 10.468L39.1514 10.4652Z" fill="white"/>
</g>
<defs>
<clipPath id="clip0_610_144">
<rect width="136.264" height="46" fill="white" transform="translate(10 7.5)"/>
</clipPath>
</defs>
</svg>
