<svg width="306" height="64" viewBox="0 0 306 64" fill="none" xmlns="http://www.w3.org/2000/svg">
<mask id="mask0_1207_34" style="mask-type:luminance" maskUnits="userSpaceOnUse" x="10" y="10" width="286" height="44">
<path d="M296 10H10V53.9959H296V10Z" fill="white"/>
</mask>
<g mask="url(#mask0_1207_34)">
<path d="M246.534 10.2424H214.853C213.316 10.2424 212.069 11.4887 212.069 13.0258V51.1785C212.069 52.7157 213.316 53.9619 214.853 53.9619H246.459C247.196 53.9619 247.907 53.6686 248.428 53.1473C248.949 52.626 249.243 51.918 249.243 51.1785V38.6654H243.676V48.3952H217.639V15.8116H243.751V20.2486H224.861C223.324 20.2486 222.078 21.4948 222.078 23.0319V41.1627C222.078 42.6999 223.324 43.9461 224.861 43.9461H239.239V38.3769H227.645V25.8129H246.534C248.071 25.8129 249.318 24.5667 249.318 23.0295V13.0258C249.318 11.4887 248.071 10.2424 246.534 10.2424Z" fill="white"/>
<path d="M48.274 10.24H10V15.8431H45.4712V30.3201H22.8428C21.296 30.3201 20.0401 31.5736 20.0401 33.1229V44.1982H25.6456V35.9257H48.274C49.8208 35.9257 51.0767 34.6722 51.0767 33.1229V13.0403C51.0767 11.4935 49.8232 10.2375 48.274 10.2375V10.24Z" fill="white"/>
<path d="M30.0801 48.3903H15.6056V25.8832H41.0367V20.28H12.8028C11.2559 20.28 10 21.5335 10 23.0828V51.1955C10 52.7424 11.2535 53.9983 12.8028 53.9983H32.8829C34.4298 53.9983 35.6857 52.7448 35.6857 51.1955V40.3626H30.0801V48.3951V48.3903Z" fill="white"/>
<path d="M202.42 53.9958H192.38C190.833 53.9958 189.577 52.7423 189.577 51.1931V13.0403C189.577 11.4935 190.83 10.2375 192.38 10.2375H205.237V15.8431H195.182V48.3903H199.619V20.28H205.222V51.1931C205.222 52.7399 203.969 53.9958 202.42 53.9958Z" fill="white"/>
<path d="M70.5168 53.9958H60.4767C58.9298 53.9958 57.6739 52.7423 57.6739 51.1931V13.0403C57.6739 11.4935 58.9274 10.2375 60.4767 10.2375H73.3341V15.8431H63.2795V48.3903H67.7164V20.28H73.3195V51.1931C73.3195 52.7399 72.0661 53.9958 70.5168 53.9958Z" fill="white"/>
<path d="M141.697 13.0405V51.1931C141.697 52.74 140.443 53.9959 138.896 53.9959H126.429V48.3904H136.094V15.8432H121.403L113.393 34.6383C112.951 35.6712 111.938 36.3403 110.815 36.3403C109.693 36.3403 108.679 35.6712 108.238 34.6383L100.227 15.8432H85.5369V48.3904H95.2012V53.9959H82.7341C81.1872 53.9959 79.9338 52.74 79.9338 51.1931V13.0405C79.9338 11.4936 81.1872 10.2401 82.7341 10.2401H102.077C103.202 10.2401 104.216 10.9093 104.657 11.9421L110.815 26.3925L116.974 11.9421C117.415 10.9093 118.428 10.2401 119.553 10.2401H138.896C140.443 10.2401 141.697 11.4936 141.697 13.0405Z" fill="white"/>
<path d="M131.657 23.0829V43.9534H126.429V28.0145L118.731 45.8106C118.293 46.8434 117.277 47.5126 116.154 47.5126H105.476C104.354 47.5126 103.338 46.8434 102.899 45.8106L95.2012 28.0145V43.9534H89.9738V23.0829C89.9738 21.5336 91.2297 20.2802 92.7766 20.2802H95.3806C96.5031 20.2802 97.519 20.9493 97.9579 21.9822L106.565 41.9095H115.065L123.673 21.9822C124.111 20.9493 125.127 20.2802 126.25 20.2802H128.854C130.401 20.2802 131.657 21.5336 131.657 23.0829Z" fill="white"/>
<path d="M177.604 48.3903H154.132V20.28H148.527V51.1931C148.527 52.7399 149.78 53.9959 151.329 53.9959H180.407C181.954 53.9959 183.21 52.7424 183.21 51.1931V38.4787H177.604V48.3903Z" fill="white"/>
<path d="M158.567 41.153C158.567 42.6999 159.82 43.9558 161.37 43.9558H173.167V38.3526H164.17V13.0403C164.17 11.4935 162.916 10.2375 161.367 10.2375H148.65V15.8431H158.564V41.153H158.567Z" fill="white"/>
<path d="M293.217 10.2424H258.933C257.396 10.2424 256.148 11.4887 256.148 13.0258V51.1785C256.148 52.7157 257.396 53.9619 258.933 53.9619H293.217C294.754 53.9619 296 52.7157 296 51.1785V13.0258C296 11.4887 294.754 10.2424 293.217 10.2424ZM290.433 48.3952H261.717V15.8116H290.433V48.3952Z" fill="white"/>
<path d="M283.308 20.2487H268.843C267.337 20.2487 266.115 21.4706 266.115 22.9763V35.2881H271.573V25.7039H280.58V38.5031H271.573V34.071H266.115V41.2307C266.115 42.7364 267.337 43.9583 268.843 43.9583H283.308C284.816 43.9583 286.038 42.7364 286.038 41.2307V22.9763C286.038 21.4706 284.816 20.2487 283.308 20.2487Z" fill="white"/>
</g>
</svg>
