<svg width="306" height="64" viewBox="0 0 306 64" fill="none" xmlns="http://www.w3.org/2000/svg">
<mask id="mask0_1207_41" style="mask-type:luminance" maskUnits="userSpaceOnUse" x="10" y="10" width="286" height="44">
<path d="M296 10H10V54H296V10Z" fill="white"/>
</mask>
<g mask="url(#mask0_1207_41)">
<path d="M246.534 10.2426H214.853C213.316 10.2426 212.069 11.4889 212.069 13.0262V51.1825C212.069 52.7198 213.316 53.9661 214.853 53.9661H246.459C247.196 53.9661 247.907 53.6727 248.428 53.1514C248.949 52.6301 249.243 51.922 249.243 51.1825V38.6682H243.676V48.3988H217.639V15.8123H243.751V20.2496H224.861C223.324 20.2496 222.078 21.4959 222.078 23.0333V41.1657C222.078 42.703 223.324 43.9494 224.861 43.9494H239.239V38.3797H227.645V25.8145H246.534C248.071 25.8145 249.318 24.5681 249.318 23.0308V13.0262C249.318 11.4889 248.071 10.2426 246.534 10.2426Z" fill="#1F0430"/>
<path d="M48.274 10.24H10V15.8436H45.4712V30.322H22.8428C21.296 30.322 20.0401 31.5756 20.0401 33.125V44.2014H25.6456V35.9281H48.274C49.8208 35.9281 51.0767 34.6745 51.0767 33.125V13.0406C51.0767 11.4936 49.8232 10.2375 48.274 10.2375V10.24Z" fill="#1F0430"/>
<path d="M30.0801 48.394H15.6056V25.8848H41.0367V20.2811H12.8028C11.2559 20.2811 10 21.5347 10 23.0842V51.1995C10 52.7465 11.2535 54.0025 12.8028 54.0025H32.8829C34.4298 54.0025 35.6857 52.7489 35.6857 51.1995V40.3656H30.0801V48.3989V48.394Z" fill="#1F0430"/>
<path d="M202.42 53.9999H192.38C190.833 53.9999 189.577 52.7463 189.577 51.1969V13.0406C189.577 11.4936 190.83 10.2375 192.38 10.2375H205.237V15.8436H195.182V48.3938H199.619V20.281H205.222V51.1969C205.222 52.7439 203.969 53.9999 202.42 53.9999Z" fill="#1F0430"/>
<path d="M70.5168 53.9999H60.4767C58.9299 53.9999 57.674 52.7463 57.674 51.1969V13.0406C57.674 11.4936 58.9274 10.2375 60.4767 10.2375H73.3341V15.8436H63.2795V48.3938H67.7164V20.281H73.3196V51.1969C73.3196 52.7439 72.0661 53.9999 70.5168 53.9999Z" fill="#1F0430"/>
<path d="M141.697 13.0408V51.1971C141.697 52.7441 140.443 54.0001 138.896 54.0001H126.429V48.394H136.094V15.8439H121.403L113.393 34.6407C112.951 35.6737 111.938 36.3429 110.815 36.3429C109.693 36.3429 108.679 35.6737 108.238 34.6407L100.227 15.8439H85.5369V48.394H95.2011V54.0001H82.7341C81.1872 54.0001 79.9337 52.7441 79.9337 51.1971V13.0408C79.9337 11.4938 81.1872 10.2402 82.7341 10.2402H102.077C103.202 10.2402 104.216 10.9095 104.657 11.9424L110.815 26.3941L116.974 11.9424C117.415 10.9095 118.428 10.2402 119.553 10.2402H138.896C140.443 10.2402 141.697 11.4938 141.697 13.0408Z" fill="#1F0430"/>
<path d="M131.657 23.0842V43.9566H126.429V28.0162L118.731 45.8139C118.293 46.8469 117.277 47.5161 116.154 47.5161H105.476C104.354 47.5161 103.338 46.8469 102.899 45.8139L95.2011 28.0162V43.9566H89.9738V23.0842C89.9738 21.5347 91.2297 20.2811 92.7766 20.2811H95.3806C96.5031 20.2811 97.519 20.9504 97.9579 21.9833L106.565 41.9125H115.065L123.673 21.9833C124.111 20.9504 125.127 20.2811 126.25 20.2811H128.854C130.401 20.2811 131.657 21.5347 131.657 23.0842Z" fill="#1F0430"/>
<path d="M177.604 48.394H154.132V20.2811H148.527V51.1971C148.527 52.7441 149.78 54.0001 151.329 54.0001H180.407C181.954 54.0001 183.21 52.7465 183.21 51.1971V38.4815H177.604V48.394Z" fill="#1F0430"/>
<path d="M158.567 41.1559C158.567 42.7029 159.82 43.9589 161.37 43.9589H173.167V38.3553H164.17V13.0406C164.17 11.4936 162.916 10.2375 161.367 10.2375H148.65V15.8436H158.564V41.1559H158.567Z" fill="#1F0430"/>
<path d="M293.217 10.2426H258.933C257.396 10.2426 256.148 11.4889 256.148 13.0262V51.1825C256.148 52.7198 257.396 53.9661 258.933 53.9661H293.217C294.754 53.9661 296 52.7198 296 51.1825V13.0262C296 11.4889 294.754 10.2426 293.217 10.2426ZM290.433 48.3988H261.717V15.8123H290.433V48.3988Z" fill="#1F0430"/>
<path d="M283.307 20.2495H268.843C267.337 20.2495 266.115 21.4716 266.115 22.9774V35.2904H271.573V25.7053H280.58V38.5057H271.573V34.0732H266.115V41.2335C266.115 42.7393 267.337 43.9614 268.843 43.9614H283.307C284.816 43.9614 286.038 42.7393 286.038 41.2335V22.9774C286.038 21.4716 284.816 20.2495 283.307 20.2495Z" fill="#1F0430"/>
</g>
</svg>
