<svg width="150" height="61" viewBox="0 0 150 61" fill="none" xmlns="http://www.w3.org/2000/svg">
<g clip-path="url(#clip0_204_162)">
<path d="M40.3846 47.8163C40.3846 49.5166 33.9272 50.8949 25.9615 50.8949C17.9959 50.8949 11.5385 49.5166 11.5385 47.8163C11.5385 46.1161 17.9959 44.7379 25.9615 44.7379C33.9272 44.7379 40.3846 46.1161 40.3846 47.8163Z" fill="#F4FAFC"/>
<path fill-rule="evenodd" clip-rule="evenodd" d="M10.4574 34.4473C10.4574 39.4169 15.0393 41.6455 19.5192 41.6593C30.0012 41.6593 41.5986 35.2162 41.5383 24.4337C41.4947 16.6599 34.3519 10.042 25.8993 10.1056C17.8562 10.1056 10.0005 15.3571 10 22.5114C10 24.4327 11.1022 26.2914 13.9835 26.5007C11.5811 28.8795 10.4574 31.7298 10.4574 34.4473ZM25.9269 27.4215C27.6071 27.4215 28.9692 25.7848 28.9692 23.7658C28.9692 21.7468 27.6071 20.1101 25.9269 20.1101C24.2467 20.1101 22.8846 21.7468 22.8846 23.7658C22.8846 25.7848 24.2467 27.4215 25.9269 27.4215ZM34.65 27.4215C36.3302 27.4215 37.6922 25.7848 37.6922 23.7658C37.6922 21.7469 36.3302 20.1101 34.65 20.1101C32.9697 20.1101 31.6076 21.7469 31.6076 23.7658C31.6076 25.7848 32.9697 27.4215 34.65 27.4215Z" fill="#F4FAFC"/>
<path d="M55.5367 43.3956C56.048 43.3956 56.4662 42.9741 56.4662 42.4592C56.4662 39.7422 56.4662 37.0253 56.4662 34.3086C58.0928 34.3086 59.7193 34.3086 61.3459 34.3086C66.9692 34.3086 71.1053 30.141 71.1053 24.4751C71.1053 18.8092 66.9692 14.6417 61.3459 14.6417H52.9808C52.4695 14.6417 52.0513 15.0631 52.0513 15.5782V42.4592C52.0513 42.9741 52.4695 43.3956 52.9808 43.3956H55.5367ZM56.4662 29.86C56.4662 26.27 56.4662 22.6801 56.4662 19.0901C58.0928 19.0901 59.7193 19.0901 61.3459 19.0901C64.4131 19.0901 66.551 21.2909 66.551 24.4751C66.551 27.6592 64.4131 29.86 61.3459 29.86C59.7193 29.86 58.0928 29.86 56.4662 29.86Z" fill="#F4FAFC"/>
<path d="M77.1294 43.3956C77.6405 43.3956 78.0587 42.9741 78.0587 42.4592V31.221C78.0587 26.2574 81.3585 24.3843 85.0298 24.3843H85.9593C86.4705 24.3843 86.8887 23.9629 86.8887 23.4478V20.9192C86.8887 20.4042 86.4705 19.9827 85.9593 19.9827H85.0298C79.4521 19.9827 77.5255 23.8536 77.5255 23.8536C77.5255 23.8536 77.5255 21.4397 77.5255 20.9192C77.5255 20.1803 77.1073 19.9827 76.596 19.9827H74.8056C74.2945 19.9827 73.8763 20.4042 73.8763 20.9192V42.4592C73.8763 42.9741 74.2945 43.3956 74.8056 43.3956H77.1294Z" fill="#F4FAFC"/>
<path d="M92.8799 43.3956C93.3911 43.3956 93.8093 42.9741 93.8093 42.4592V20.9192C93.8093 20.4042 93.3911 19.9827 92.8799 19.9827H90.4632C89.9519 19.9827 89.5337 20.4042 89.5337 20.9192V42.4592C89.5337 42.9741 89.9519 43.3956 90.4632 43.3956H92.8799Z" fill="#F4FAFC"/>
<path d="M108.265 43.3956C108.683 43.3956 108.962 43.1614 109.148 42.6932L117.188 21.4343C117.281 21.2002 117.374 20.9192 117.374 20.6383C117.374 20.3105 117.002 19.9827 116.444 19.9827H113.563C113.145 19.9827 112.866 20.17 112.68 20.6851C110.799 26.1261 106.958 36.6576 106.958 36.6576C106.958 36.6576 103.133 26.1387 101.247 20.6851C101.062 20.17 100.783 19.9827 100.365 19.9827H97.4833C96.9254 19.9827 96.5537 20.3105 96.5537 20.6851C96.5537 20.9192 96.6466 21.2002 96.7396 21.4343L104.826 42.6932C105.012 43.1614 105.291 43.3956 105.709 43.3956H108.265Z" fill="#F4FAFC"/>
<path d="M127.554 50.8949C127.972 50.8949 128.251 50.7075 128.437 50.1924L139.332 21.4343C139.425 21.2002 139.518 20.9192 139.518 20.6851C139.518 20.3105 139.146 19.9827 138.588 19.9827H135.754C135.335 19.9827 135.057 20.17 134.871 20.6851C133.127 25.6935 129.387 36.6576 129.387 36.6576C129.387 36.6576 125.385 25.7451 123.485 20.6851C123.299 20.17 123.02 19.9827 122.602 19.9827H119.767C119.209 19.9827 118.837 20.3105 118.837 20.6851C118.837 20.9192 118.93 21.2002 119.023 21.4343L126.784 41.2885C126.877 41.5225 126.924 41.6629 126.924 41.7567C126.924 41.8971 126.877 41.9907 126.784 42.2718L124.254 49.5368C124.161 49.771 124.115 49.9584 124.115 50.1457C124.115 50.5202 124.44 50.8949 125.044 50.8949H127.554Z" fill="#F4FAFC"/>
</g>
<defs>
<clipPath id="clip0_204_162">
<rect width="129.518" height="41" fill="white" transform="translate(10 10)"/>
</clipPath>
</defs>
</svg>
