<svg width="213" height="81" viewBox="0 0 213 81" fill="none" xmlns="http://www.w3.org/2000/svg">
<g clip-path="url(#clip0_204_162)">
<path d="M55.2063 66.2633C55.2063 68.7931 45.599 70.8436 33.7477 70.8436C21.8963 70.8436 12.2889 68.7931 12.2889 66.2633C12.2889 63.7338 21.8963 61.6833 33.7477 61.6833C45.599 61.6833 55.2063 63.7338 55.2063 66.2633Z" fill="#F4FAFC"/>
<path fill-rule="evenodd" clip-rule="evenodd" d="M10.6806 46.3729C10.6806 53.7667 17.4975 57.0823 24.1628 57.103C39.7579 57.103 57.0125 47.5169 56.9228 31.4746C56.858 19.9087 46.2309 10.0625 33.655 10.1571C21.6885 10.1571 10.0008 17.9703 10 28.6146C10 31.4731 11.6399 34.2385 15.9266 34.5498C12.3524 38.0891 10.6806 42.3297 10.6806 46.3729ZM33.6962 35.9199C36.196 35.9199 38.2225 33.4847 38.2225 30.4809C38.2225 27.4771 36.196 25.042 33.6962 25.042C31.1963 25.042 29.1698 27.4771 29.1698 30.4809C29.1698 33.4847 31.1963 35.9199 33.6962 35.9199ZM46.6745 35.9199C49.1742 35.9199 51.2007 33.4848 51.2007 30.4809C51.2007 27.4771 49.1742 25.042 46.6745 25.042C44.1744 25.042 42.1479 27.4771 42.1479 30.4809C42.1479 33.4848 44.1744 35.9199 46.6745 35.9199Z" fill="#F4FAFC"/>
<path d="M77.7497 59.6862C78.5105 59.6862 79.1327 59.059 79.1327 58.2929C79.1327 54.2507 79.1327 50.2084 79.1327 46.1665C81.5527 46.1665 83.9726 46.1665 86.3926 46.1665C94.759 46.1665 100.913 39.9659 100.913 31.5361C100.913 23.1064 94.759 16.9059 86.3926 16.9059H73.9471C73.1863 16.9059 72.5641 17.533 72.5641 18.2993V58.2929C72.5641 59.059 73.1863 59.6862 73.9471 59.6862H77.7497ZM79.1327 39.5479C79.1327 34.2067 79.1327 28.8655 79.1327 23.5244C81.5527 23.5244 83.9726 23.5244 86.3926 23.5244C90.9561 23.5244 94.1368 26.7987 94.1368 31.5361C94.1368 36.2735 90.9561 39.5479 86.3926 39.5479C83.9726 39.5479 81.5527 39.5479 79.1327 39.5479Z" fill="#F4FAFC"/>
<path d="M109.875 59.6862C110.636 59.6862 111.258 59.059 111.258 58.2929V41.5726C111.258 34.1878 116.168 31.4011 121.63 31.4011H123.013C123.773 31.4011 124.395 30.7741 124.395 30.0078V26.2457C124.395 25.4794 123.773 24.8524 123.013 24.8524H121.63C113.331 24.8524 110.465 30.6114 110.465 30.6114C110.465 30.6114 110.465 27.0201 110.465 26.2457C110.465 25.1463 109.843 24.8524 109.082 24.8524H106.418C105.658 24.8524 105.035 25.4794 105.035 26.2457V58.2929C105.035 59.059 105.658 59.6862 106.418 59.6862H109.875Z" fill="#F4FAFC"/>
<path d="M133.309 59.6862C134.07 59.6862 134.692 59.059 134.692 58.2929V26.2457C134.692 25.4794 134.07 24.8524 133.309 24.8524H129.714C128.953 24.8524 128.331 25.4794 128.331 26.2457V58.2929C128.331 59.059 128.953 59.6862 129.714 59.6862H133.309Z" fill="#F4FAFC"/>
<path d="M156.199 59.6862C156.821 59.6862 157.236 59.3377 157.513 58.6411L169.475 27.012C169.613 26.6637 169.751 26.2457 169.751 25.8277C169.751 25.34 169.198 24.8524 168.369 24.8524H164.082C163.459 24.8524 163.044 25.131 162.768 25.8974C159.969 33.9924 154.254 49.6612 154.254 49.6612C154.254 49.6612 148.564 34.0112 145.758 25.8974C145.482 25.131 145.067 24.8524 144.445 24.8524H140.158C139.328 24.8524 138.775 25.34 138.775 25.8974C138.775 26.2457 138.913 26.6637 139.052 27.012L151.083 58.6411C151.359 59.3377 151.774 59.6862 152.396 59.6862H156.199Z" fill="#F4FAFC"/>
<path d="M184.897 70.8436C185.519 70.8436 185.934 70.5648 186.211 69.7984L202.421 27.012C202.559 26.6637 202.697 26.2457 202.697 25.8974C202.697 25.34 202.144 24.8524 201.314 24.8524H197.097C196.474 24.8524 196.06 25.131 195.783 25.8974C193.189 33.3489 187.624 49.6612 187.624 49.6612C187.624 49.6612 181.671 33.4256 178.843 25.8974C178.566 25.131 178.152 24.8524 177.529 24.8524H173.312C172.482 24.8524 171.929 25.34 171.929 25.8974C171.929 26.2457 172.067 26.6637 172.205 27.012L183.752 56.5511C183.89 56.8993 183.959 57.1082 183.959 57.2478C183.959 57.4567 183.89 57.5959 183.752 58.0142L179.988 68.8231C179.85 69.1715 179.781 69.4503 179.781 69.729C179.781 70.2861 180.264 70.8436 181.163 70.8436H184.897Z" fill="#F4FAFC"/>
</g>
<defs>
<clipPath id="clip0_204_162">
<rect width="192.697" height="61" fill="white" transform="translate(10 10)"/>
</clipPath>
</defs>
</svg>
