<svg width="253" height="61" viewBox="0 0 253 61" fill="none" xmlns="http://www.w3.org/2000/svg">
<g clip-path="url(#clip0_1_57)">
<path d="M12.7797 34.322C11.2445 34.322 10 33.0775 10 31.5424V29.0997C10 28.5257 10 28.2386 10.1117 28.0194C10.21 27.8265 10.3668 27.6697 10.5597 27.5715C10.7789 27.4597 11.0659 27.4597 11.64 27.4597H12.7797C24.2455 27.4597 33.5404 36.7546 33.5404 48.2204V49.36C33.5404 49.9341 33.5404 50.2211 33.4286 50.4403C33.3303 50.6332 33.1736 50.79 32.9807 50.8883C32.7614 51 32.4744 51 31.9004 51H29.4577C27.9225 51 26.678 49.7555 26.678 48.2204C26.678 40.5445 20.4555 34.322 12.7797 34.322Z" fill="white"/>
<path d="M35.408 48.2204C35.408 35.7231 25.2769 25.5921 12.7797 25.5921H11.64C11.0659 25.5921 10.7789 25.5921 10.5597 25.4804C10.3668 25.3822 10.21 25.2254 10.1117 25.0325C10 24.8132 10 24.5262 10 23.9521V20.3699C10 19.7958 10 19.5088 10.1117 19.2895C10.21 19.0967 10.3668 18.9398 10.5597 18.8416C10.7789 18.7299 11.0659 18.7299 11.64 18.7299H12.7797C29.0668 18.7299 42.2703 31.9332 42.2703 48.2204V49.36C42.2703 49.9341 42.2703 50.2211 42.1586 50.4404C42.0603 50.6332 41.9035 50.79 41.7106 50.8883C41.4913 51 41.2043 51 40.6303 51H37.048C36.4739 51 36.1869 51 35.9676 50.8883C35.7748 50.79 35.6179 50.6332 35.5197 50.4404C35.408 50.2211 35.408 49.9341 35.408 49.36V48.2204Z" fill="white"/>
<path d="M10 12.7797C10 11.2445 11.2445 10 12.7797 10C33.8883 10 51.0001 27.1118 51.0001 48.2204C51.0001 49.7555 49.7556 51 48.2205 51H45.7778C45.2038 51 44.9168 51 44.6975 50.8883C44.5046 50.79 44.3478 50.6332 44.2496 50.4403C44.1378 50.2211 44.1378 49.9341 44.1378 49.36V48.2204C44.1378 30.9017 30.0983 16.8623 12.7797 16.8623H11.64C11.0659 16.8623 10.7789 16.8623 10.5597 16.7505C10.3668 16.6523 10.21 16.4955 10.1117 16.3026C10 16.0834 10 15.7963 10 15.2223V12.7797Z" fill="white"/>
<path d="M84.2864 19.8574L83.8241 26.7885C82.6438 26.121 81.5148 25.8643 79.9234 25.8643C76.8438 25.8643 74.7908 27.6099 74.7908 31.5631V42.3447H67.4V19.5494H74.7908V23.708C75.6635 21.141 78.0246 18.9333 81.1037 18.9333C82.4895 18.9333 83.6703 19.3441 84.2864 19.8574ZM99.9402 32.6926V32.2306L96.1938 33.0007C93.8839 33.4628 92.4469 34.0275 92.4469 35.8245C92.4469 37.1593 93.4734 37.9808 95.0642 37.9808C97.7846 37.9808 99.9402 35.9271 99.9402 32.6926ZM107.228 27.8153V36.1325C107.228 37.3133 107.741 37.8268 108.665 37.8268C109.333 37.8268 109.898 37.724 110.565 37.416V41.3693C109.435 42.1907 107.998 42.8581 105.74 42.8581C103.02 42.8581 101.018 41.4206 100.351 38.8535C99.0679 41.472 96.245 42.8581 92.7037 42.8581C88.1357 42.8581 85.2611 40.5478 85.2611 36.6459C85.2611 32.2819 88.5463 30.4336 93.5759 29.4582L99.9402 28.3287V27.918C99.9402 25.7616 98.8624 24.4781 96.6043 24.4781C94.4487 24.4781 93.3704 25.813 92.9599 27.7126L86.0827 27.1992C86.8524 22.3218 90.4963 18.9333 97.0148 18.9333C102.969 18.9333 107.228 21.6031 107.228 27.8153ZM113.182 19.5494H120.573V42.3447H113.182V19.5494ZM113.131 16.777V10H120.675V16.777H113.131ZM132.788 30.7417V42.3447H125.398V19.5494H132.788V23.0919C134.02 20.5762 136.791 18.9333 140.23 18.9333C146.39 18.9333 148.443 23.1946 148.443 28.072V42.3447H141.051V29.8689C141.051 26.5831 139.974 24.7861 137.254 24.7861C134.277 24.7861 132.788 27.1478 132.788 30.7417ZM160.401 30.6903V31.2038C160.401 34.9003 162.506 37.2106 165.585 37.2106C169.075 37.2106 170.769 34.695 170.769 30.9471C170.769 27.2505 169.075 24.7348 165.585 24.7348C162.506 24.7348 160.401 27.0451 160.401 30.6903ZM160.042 38.2375L158.708 42.3447H153.011V10H160.401V23.6566C161.53 20.9356 164.148 18.9333 168.1 18.9333C174.772 18.9333 178.262 24.2728 178.262 30.9471C178.262 37.6727 174.772 42.9608 167.946 42.9608C164.148 42.9608 161.274 41.0099 160.042 38.2375ZM188.168 30.9471C188.168 34.7463 189.656 37.3647 192.941 37.3647C196.175 37.3647 197.766 34.7463 197.766 30.9471C197.766 27.1478 196.175 24.5295 192.941 24.5295C189.656 24.5295 188.168 27.1478 188.168 30.9471ZM205.259 30.9471C205.259 38.0321 200.229 42.9608 192.941 42.9608C185.653 42.9608 180.674 38.0321 180.674 30.9471C180.674 23.9133 185.653 18.9333 192.941 18.9333C200.229 18.9333 205.259 23.9133 205.259 30.9471ZM227.74 19.5494L231.384 33.4114H231.589L235.952 19.5494H242.675L235.438 42.3447H228.201L224.506 28.5854H224.301L220.657 42.3447H213.42L206.183 19.5494H213.574L217.937 33.4114H218.142L221.786 19.5494H227.74Z" fill="white"/>
</g>
<defs>
<clipPath id="clip0_1_57">
<rect width="232.675" height="41" fill="white" transform="translate(10 10)"/>
</clipPath>
</defs>
</svg>
