<svg width="203" height="61" viewBox="0 0 203 61" fill="none" xmlns="http://www.w3.org/2000/svg">
<path d="M40.575 21.2068H57.9614C58.4264 21.2068 58.7203 21.5861 58.61 22.0511L57.7413 25.8073C57.6314 26.2723 57.1664 26.6516 56.7015 26.6516H46.6805C46.2278 26.6516 45.7751 27.0186 45.6772 27.4714V27.5203C45.5671 27.973 45.8485 28.3401 46.3012 28.3401H55.3067C55.7716 28.3401 56.0652 28.7194 55.9549 29.1843L55.3186 31.9618C55.2087 32.4267 54.7437 32.806 54.2788 32.806H45.2734C44.8207 32.806 44.368 33.1731 44.2701 33.6258C44.1723 34.0785 44.4537 34.4456 44.9064 34.4456H54.9274C55.3924 34.4456 55.6859 34.8249 55.5756 35.2898L54.6949 39.095C54.5847 39.56 54.1197 39.9393 53.6548 39.9393H36.2682C35.8032 39.9393 35.5096 39.56 35.6197 39.095L39.5472 22.0755C39.6574 21.6106 40.1223 21.2313 40.5873 21.2313L40.575 21.2068Z" fill="white"/>
<path d="M70.4906 22.051L67.8355 33.589C67.7256 34.0539 68.0192 34.4332 68.4841 34.4332H76.9756C77.4406 34.4332 77.7341 34.8125 77.6238 35.2775L76.7432 39.0827C76.6329 39.5477 76.1679 39.927 75.7153 39.927H59.8335C59.3685 39.927 59.075 39.5477 59.1853 39.0827L63.1004 22.0755C63.2107 21.6105 63.6756 21.2312 64.1405 21.2312H69.8301C70.2951 21.2312 70.5886 21.6105 70.4783 22.0755L70.4906 22.051Z" fill="white"/>
<path d="M30.1382 21.2068H11.9564C11.4914 21.2068 11.0265 21.5861 10.9286 22.0511L10.0476 25.8563C9.9375 26.3212 10.2312 26.7005 10.6961 26.7005H12.042C12.4702 26.7005 12.7761 27.0921 12.6905 27.5081L10.0232 39.0828C9.91303 39.5477 10.2067 39.927 10.6716 39.927H16.3734C16.8383 39.927 17.3032 39.5477 17.4134 39.0828L18.5268 34.2498C18.6369 33.7848 19.1018 33.4056 19.5668 33.4056H20.9616C21.292 33.4056 21.5489 33.5891 21.6346 33.8705L23.4087 39.4866C23.4944 39.7557 23.7391 39.927 24.045 39.927H30.0159C30.6644 39.927 31.2272 39.2174 31.0314 38.6668L29.4041 34.0173C29.2573 33.5891 29.5631 33.0507 30.0526 32.8305C32.1204 31.925 33.7599 29.9674 34.3717 27.3123C35.2404 23.556 33.4296 21.219 30.126 21.219L30.1382 21.2068ZM27.8012 27.4958C27.6911 27.9608 27.2262 28.3401 26.7612 28.3401H20.7169C20.252 28.3401 19.9583 27.9608 20.0685 27.4958C20.1786 27.0309 20.6435 26.6516 21.1085 26.6516H27.1528C27.6177 26.6516 27.9114 27.0309 27.8012 27.4958Z" fill="white"/>
<path d="M104.493 38.7279L100.651 21.7084C100.578 21.4148 100.333 21.219 100.003 21.219H86.1765C85.7115 21.219 85.2466 21.5983 85.149 22.0632L84.2679 25.8684C84.1576 26.3334 84.4512 26.7127 84.9161 26.7127H86.2991C86.8374 26.7127 87.1433 27.3122 86.8374 27.7527L79.2147 38.7524C78.8354 39.303 79.0921 39.9392 79.7042 39.9392H85.9198C86.2868 39.9392 86.666 39.719 86.8739 39.3764L88.0121 37.59C88.2199 37.2597 88.5869 37.0394 88.9542 37.0394H95.3166C95.659 37.0394 95.9284 37.2474 96.0018 37.5533L96.4056 39.3886C96.479 39.7068 96.748 39.9148 97.103 39.9148H103.478C104.089 39.9148 104.64 39.2785 104.517 38.7279H104.493ZM94.0071 32.4634H92.2088C91.6336 32.4634 91.3523 31.8883 91.6705 31.35L93.1752 28.756C93.6155 27.9974 94.6803 28.0097 94.766 28.756L95.0596 31.35C95.1207 31.9006 94.5823 32.4634 94.0071 32.4634Z" fill="white"/>
<path d="M129.673 21.2068H122.516C122.234 21.2068 121.929 21.3537 121.733 21.6106L118.882 25.5259C118.503 25.9909 117.83 26.0643 117.56 25.6605L114.734 21.476C114.624 21.3047 114.428 21.2068 114.196 21.2068H107.992C107.271 21.2068 106.708 22.0755 107.099 22.5894L113.254 31.5458C113.449 31.8027 113.413 32.1943 113.18 32.5124L108.127 38.6913C107.686 39.2296 107.919 39.9026 108.543 39.9026H115.346C115.627 39.9026 115.933 39.7557 116.129 39.4988L130.09 22.4059C130.53 21.8675 130.298 21.1946 129.673 21.1946V21.2068Z" fill="white"/>
<path d="M192.858 30.2733C192.747 29.6125 192.123 29.1109 191.389 29.1109H154.695C154.34 29.1109 154.206 28.8295 154.181 28.7438C154.157 28.6582 154.071 28.3645 154.353 28.1321L173.562 12.5319C174.125 12.0792 174.309 11.2961 173.966 10.7088C173.758 10.3417 173.415 10.097 172.999 10.0236C172.596 9.95018 172.18 10.0481 171.861 10.3172L152.737 25.8563C152.456 26.0887 152.175 25.9419 152.101 25.893C152.028 25.844 151.771 25.6605 151.857 25.3057L154.242 14.9912C154.401 14.2815 154.059 13.5596 153.447 13.3027C153.055 13.1436 152.64 13.1559 152.26 13.3516C151.905 13.5352 151.636 13.8778 151.551 14.2815L148.798 26.1989C148.724 26.517 148.455 26.5904 148.381 26.6149C148.308 26.6393 148.027 26.6638 147.831 26.4069L143.867 21.2435C143.426 20.6684 142.643 20.4727 142.056 20.7908C141.689 20.9866 141.432 21.3292 141.346 21.7329C141.261 22.1367 141.346 22.5527 141.603 22.8708L145.727 28.2422C145.861 28.4134 145.873 28.6337 145.788 28.8173C145.69 29.013 145.506 29.1231 145.298 29.1231H134.47C133.736 29.1231 133.112 29.6248 133.001 30.2855C132.928 30.7015 133.038 31.1053 133.32 31.4234C133.589 31.7415 133.968 31.9128 134.384 31.9128H143.769C144.124 31.9128 144.258 32.1942 144.283 32.2799C144.307 32.3655 144.393 32.6592 144.111 32.8916L137.969 37.8837C137.419 38.3242 137.247 39.095 137.553 39.6579C137.749 40.0249 138.104 40.2819 138.532 40.3675C138.948 40.4531 139.364 40.3553 139.67 40.0983L145.727 35.1674C146.008 34.935 146.289 35.0818 146.363 35.1307C146.436 35.1797 146.693 35.3632 146.607 35.718L144.222 46.0447C144.062 46.7177 144.368 47.4029 144.931 47.6843C145.311 47.8678 145.763 47.8801 146.155 47.6843C146.546 47.5008 146.828 47.1582 146.926 46.7544L149.679 34.8371C149.752 34.5189 150.021 34.4455 150.094 34.4211C150.18 34.4089 150.449 34.3721 150.645 34.6291L162.832 50.474C163.064 50.7921 163.443 50.9758 163.847 51C163.872 51 163.909 51 163.933 51C164.324 51 164.691 50.841 164.948 50.5719C165.413 50.0825 165.426 49.2871 164.985 48.7121L152.737 32.7938C152.603 32.6225 152.591 32.4022 152.676 32.2187C152.774 32.0229 152.958 31.9128 153.166 31.9128H191.487C191.903 31.9128 192.282 31.7293 192.552 31.4234C192.821 31.1053 192.931 30.7015 192.87 30.2855L192.858 30.2733Z" fill="white"/>
</svg>
