<svg width="232" height="61" viewBox="0 0 232 61" fill="none" xmlns="http://www.w3.org/2000/svg">
<mask id="mask0_588_2" style="mask-type:luminance" maskUnits="userSpaceOnUse" x="10" y="10" width="212" height="41">
<path d="M221.926 10H10V51H221.926V10Z" fill="white"/>
</mask>
<g mask="url(#mask0_588_2)">
<path d="M57.006 40.7499C58.5961 40.9439 62.1254 40.9439 63.7155 40.7499V29.4251C64.7627 26.6326 65.965 25.7406 70.4251 25.7406C70.5803 24.1893 70.5803 21.5907 70.4251 20.0006C66.7795 20.0006 64.2973 21.1253 63.6768 23.8014H63.4053L63.0174 20.3884C61.0007 20.2721 59.0227 20.2721 57.006 20.3884V40.7499Z" fill="white"/>
<path d="M91.3617 27.8737C91.3617 21.901 87.1343 20.0006 82.3639 20.0006C76.9342 20.0006 73.0558 21.552 73.0558 26.9429V34.3506C73.0558 39.5089 76.8178 41.2153 82.6742 41.2153C85.389 41.2153 87.5997 40.9826 90.4309 40.4784C90.6248 38.9271 90.6248 36.9103 90.4309 35.3202C88.259 35.708 86.5913 35.9407 84.4194 35.9407C81.0065 35.9407 79.7654 35.3978 79.7654 32.9932V32.5666C82.9844 32.7605 88.8796 32.7605 91.3617 32.5278V27.8737ZM84.8461 28.8045H82.0536L79.7654 28.9984V27.7574C79.7654 25.5467 81.0065 25.2752 82.2863 25.2752C83.605 25.2752 84.8461 25.5467 84.8461 27.7962V28.8045Z" fill="white"/>
<path d="M110.068 33.8852C110.068 30.7825 108.904 29.5802 106.538 28.9209L103.63 28.1064C102.466 27.7574 101.613 27.4859 101.613 26.7102V26.0509C101.613 25.0813 102.738 25.0037 104.017 25.0037C105.685 25.0037 107.314 25.1589 109.757 25.5855C109.951 24.0341 109.951 22.2501 109.757 20.6599C107.469 20.1945 105.258 20.0006 103.203 20.0006C98.1223 20.0006 94.9032 21.4356 94.9032 25.0813V27.4859C94.9032 30.1232 96.1055 31.597 98.1611 32.1787L101.419 33.1095C102.66 33.4974 103.358 33.5749 103.358 34.467V35.2039C103.358 36.1347 102.195 36.2122 100.876 36.2122C99.3634 36.2122 97.2303 36.0959 95.0584 35.7468C94.8644 37.2982 94.8644 39.121 95.0584 40.7112C97.3854 41.0602 99.8288 41.2153 101.962 41.2153C107.043 41.2153 110.068 39.7416 110.068 35.9795V33.8852Z" fill="white"/>
<path d="M132.039 27.8737C132.039 21.901 127.812 20.0006 123.041 20.0006C117.612 20.0006 113.733 21.552 113.733 26.9429V34.3506C113.733 39.5089 117.495 41.2153 123.352 41.2153C126.067 41.2153 128.277 40.9826 131.108 40.4784C131.302 38.9271 131.302 36.9103 131.108 35.3202C128.937 35.708 127.269 35.9407 125.097 35.9407C121.684 35.9407 120.443 35.3978 120.443 32.9932V32.5666C123.662 32.7605 129.557 32.7605 132.039 32.5278V27.8737ZM125.524 28.8045H122.731L120.443 28.9984V27.7574C120.443 25.5467 121.684 25.2752 122.964 25.2752C124.283 25.2752 125.524 25.5467 125.524 27.7962V28.8045Z" fill="white"/>
<path d="M136.24 40.7499C137.83 40.9439 141.36 40.9439 142.95 40.7499V29.4251C143.997 26.6326 145.199 25.7406 149.659 25.7406C149.814 24.1893 149.814 21.5907 149.659 20.0006C146.014 20.0006 143.531 21.1253 142.911 23.8014H142.639L142.252 20.3884C140.235 20.2721 138.257 20.2721 136.24 20.3884V40.7499Z" fill="white"/>
<path d="M156.517 40.75C158.612 40.9439 163.111 40.9439 165.205 40.75L171.022 20.5825C169.471 20.3885 166.058 20.3885 164.507 20.5825L160.939 34.4283L157.332 20.5825C155.78 20.3885 152.251 20.3885 150.661 20.5825L156.517 40.75Z" fill="white"/>
<path d="M192.277 26.8653C192.277 21.552 188.477 20.0006 182.775 20.0006C177.035 20.0006 173.235 21.552 173.235 26.8653V34.5057C173.235 39.5089 177.035 41.2153 182.775 41.2153C188.477 41.2153 192.277 39.5089 192.277 34.5057V26.8653ZM185.568 33.0707C185.568 35.359 184.288 35.6305 182.775 35.6305C181.224 35.6305 179.944 35.359 179.944 33.0707V28.184C179.944 25.857 181.224 25.5467 182.775 25.5467C184.288 25.5467 185.568 25.857 185.568 28.184V33.0707Z" fill="white"/>
<path d="M196.688 40.7501C198.278 40.944 201.808 40.944 203.398 40.7501V20.5825C201.808 20.3886 198.278 20.3886 196.688 20.5825V40.7501ZM203.631 12.9421C202.002 12.7481 198.046 12.7481 196.456 12.9421L196.572 17.984C198.162 18.1779 201.924 18.1779 203.514 17.984L203.631 12.9421Z" fill="white"/>
<path d="M208.202 40.7499C209.792 40.9439 213.321 40.9439 214.912 40.7499V29.4251C215.959 26.6326 217.161 25.7406 221.621 25.7406C221.776 24.1893 221.776 21.5907 221.621 20.0006C217.976 20.0006 215.493 21.1253 214.873 23.8014H214.601L214.214 20.3884C212.197 20.2721 210.219 20.2721 208.202 20.3884V40.7499Z" fill="white"/>
<path d="M45.4905 40.7514L27.755 30.4947V10L45.4905 20.2568V40.7514Z" fill="#A3A3A3"/>
<path d="M10 40.7514L27.7544 30.4947V10L10 20.2568V40.7514Z" fill="#A3A3A3"/>
<path d="M27.7544 40.7517L45.4899 30.4948L27.7544 20.257L10 30.4948L27.7544 40.7517Z" fill="#F5F5F5"/>
<path d="M10 40.7514L27.7544 50.9892V40.7514L10 30.4945V40.7514Z" fill="white"/>
<path d="M45.4905 40.7514L27.755 50.9892V40.7514L45.4905 30.4945V40.7514Z" fill="white"/>
</g>
</svg>
