<svg width="300" height="81" viewBox="0 0 300 81" fill="none" xmlns="http://www.w3.org/2000/svg">
<path d="M102.743 34.1247H98.2396C94.0971 34.1247 92.0258 37.222 92.0258 43.4164V56.9835H85.0144V28.2532H92.0258V33.3266C92.7482 31.5025 93.6794 30.2104 94.8194 29.4503C95.9972 28.6522 97.5172 28.2532 99.3796 28.2532H102.743V34.1247ZM130.007 53.2782C127.195 56.0525 123.604 57.4396 119.233 57.4396C114.863 57.4396 111.253 56.0525 108.402 53.2782C105.59 50.466 104.184 46.9127 104.184 42.6184C104.184 38.3241 105.59 34.7898 108.402 32.0155C111.253 29.2033 114.863 27.7972 119.233 27.7972C123.604 27.7972 127.195 29.2033 130.007 32.0155C132.819 34.7898 134.225 38.3241 134.225 42.6184C134.225 46.9127 132.819 50.466 130.007 53.2782ZM119.233 51.3971C121.59 51.3971 123.49 50.58 124.934 48.9459C126.416 47.3117 127.157 45.2026 127.157 42.6184C127.157 40.0342 126.416 37.925 124.934 36.2909C123.49 34.6567 121.59 33.8397 119.233 33.8397C116.839 33.8397 114.901 34.6567 113.419 36.2909C111.975 37.925 111.253 40.0342 111.253 42.6184C111.253 45.2026 111.975 47.3117 113.419 48.9459C114.901 50.58 116.839 51.3971 119.233 51.3971ZM139.356 56.9835V15.9402H146.311V56.9835H139.356ZM153.385 56.9835V15.9402H160.339V56.9835H153.385ZM193.693 28.2532V56.9835H186.681V52.5372C185.009 55.8054 182.025 57.4396 177.731 57.4396C174.501 57.4396 171.898 56.3945 169.921 54.3043C167.983 52.1761 167.014 49.4209 167.014 46.0386V28.2532H174.026V44.5565C174.026 46.5327 174.577 48.1478 175.679 49.4019C176.781 50.618 178.225 51.2261 180.011 51.2261C181.987 51.2261 183.583 50.542 184.799 49.1739C186.054 47.8058 186.681 46.0576 186.681 43.9295V28.2532H193.693ZM200.369 68.6122V28.2532H207.323V31.8445C209.223 29.1463 212.112 27.7972 215.988 27.7972C220.093 27.7972 223.342 29.1653 225.736 31.9015C228.13 34.5997 229.327 38.172 229.327 42.6184C229.327 47.0267 228.054 50.599 225.508 53.3352C223 56.0715 219.656 57.4396 215.475 57.4396C213.727 57.4396 212.131 57.1166 210.687 56.4705C209.243 55.8245 208.122 54.9504 207.323 53.8483V68.6122H200.369ZM214.677 51.3971C216.995 51.3971 218.857 50.599 220.264 49.0029C221.67 47.4067 222.373 45.2786 222.373 42.6184C222.373 39.9582 221.67 37.83 220.264 36.2339C218.857 34.6377 216.995 33.8397 214.677 33.8397C212.321 33.8397 210.421 34.6377 208.977 36.2339C207.57 37.83 206.867 39.9582 206.867 42.6184C206.867 45.2786 207.57 47.4067 208.977 49.0029C210.421 50.599 212.321 51.3971 214.677 51.3971ZM233.169 49.5729H240.75V56.9835H233.169V49.5729ZM247.616 17.0803H255.14V24.0349H247.616V17.0803ZM247.901 56.9835V28.2532H254.912V56.9835H247.901ZM273.347 57.4396C269.091 57.4396 265.747 56.0905 263.314 53.3922C260.883 50.656 259.666 47.0647 259.666 42.6184C259.666 38.172 260.883 34.5997 263.314 31.9015C265.747 29.1653 269.053 27.7972 273.233 27.7972C276.996 27.7972 279.808 29.1083 281.67 31.7305V15.9402H288.625V56.9835H281.67V53.3922C280.834 54.6463 279.675 55.6344 278.193 56.3565C276.711 57.0786 275.095 57.4396 273.347 57.4396ZM268.73 49.0029C270.136 50.599 272.017 51.3971 274.374 51.3971C276.73 51.3971 278.611 50.599 280.017 49.0029C281.423 47.4067 282.126 45.2786 282.126 42.6184C282.126 39.9582 281.423 37.83 280.017 36.2339C278.611 34.6377 276.73 33.8397 274.374 33.8397C272.017 33.8397 270.136 34.6377 268.73 36.2339C267.324 37.83 266.621 39.9582 266.621 42.6184C266.621 45.2786 267.324 47.4067 268.73 49.0029Z" fill="#1F2937"/>
<path d="M51.5247 65.7045C61.097 61.2946 67.7415 51.6156 67.7415 40.385C67.7415 24.9969 55.267 12.5224 39.8789 12.5224C24.4908 12.5224 12.0163 24.9969 12.0163 40.385C12.0163 50.527 17.4351 59.4034 25.5354 64.2771V40.2201L25.5363 40.2211C25.6242 32.3749 32.0119 26.0415 39.8789 26.0415C47.8006 26.0415 54.2224 32.4633 54.2224 40.385C54.2224 48.3057 47.8021 54.7269 39.8817 54.7285L51.5247 65.7045Z" fill="#6366F1"/>
</svg>
