<svg width="194" height="61" viewBox="0 0 194 61" fill="none" xmlns="http://www.w3.org/2000/svg">
<path d="M67.9769 26.5987H65.2212C62.6863 26.5987 61.4188 28.494 61.4188 32.2847V40.5869H57.1282V23.0057H61.4188V26.1103C61.8608 24.9941 62.4307 24.2034 63.1283 23.7382C63.849 23.2499 64.7792 23.0057 65.9189 23.0057H67.9769V26.5987ZM84.661 38.3195C82.9403 40.0172 80.7426 40.866 78.068 40.866C75.3937 40.866 73.1845 40.0172 71.4401 38.3195C69.7194 36.5986 68.859 34.4242 68.859 31.7963C68.859 29.1684 69.7194 27.0057 71.4401 25.308C73.1845 23.5871 75.3937 22.7266 78.068 22.7266C80.7426 22.7266 82.9403 23.5871 84.661 25.308C86.382 27.0057 87.2424 29.1684 87.2424 31.7963C87.2424 34.4242 86.382 36.5986 84.661 38.3195ZM78.068 37.1683C79.51 37.1683 80.6728 36.6684 81.5565 35.6684C82.4633 34.6684 82.9169 33.3777 82.9169 31.7963C82.9169 30.2149 82.4633 28.9242 81.5565 27.9243C80.6728 26.9243 79.51 26.4243 78.068 26.4243C76.6029 26.4243 75.4171 26.9243 74.51 27.9243C73.6262 28.9242 73.1845 30.2149 73.1845 31.7963C73.1845 33.3777 73.6262 34.6684 74.51 35.6684C75.4171 36.6684 76.6029 37.1683 78.068 37.1683ZM90.3821 40.5869V15.4709H94.6381V40.5869H90.3821ZM98.9668 40.5869V15.4709H103.222V40.5869H98.9668ZM123.633 23.0057V40.5869H119.342V37.866C118.319 39.866 116.493 40.866 113.865 40.866C111.889 40.866 110.296 40.2265 109.086 38.9474C107.9 37.6451 107.307 35.9591 107.307 33.8893V23.0057H111.598V32.9823C111.598 34.1916 111.935 35.18 112.61 35.9474C113.284 36.6916 114.168 37.0637 115.261 37.0637C116.47 37.0637 117.447 36.6451 118.191 35.8079C118.958 34.9707 119.342 33.9009 119.342 32.5986V23.0057H123.633ZM127.718 47.703V23.0057H131.974V25.2034C133.137 23.5522 134.904 22.7266 137.276 22.7266C139.788 22.7266 141.776 23.5638 143.241 25.2382C144.706 26.8894 145.439 29.0754 145.439 31.7963C145.439 34.494 144.66 36.68 143.102 38.3544C141.567 40.0288 139.521 40.866 136.963 40.866C135.893 40.866 134.916 40.6683 134.032 40.273C133.149 39.8776 132.462 39.3427 131.974 38.6683V47.703H127.718ZM136.474 37.1683C137.893 37.1683 139.032 36.68 139.893 35.7033C140.753 34.7265 141.183 33.4242 141.183 31.7963C141.183 30.1684 140.753 28.8661 139.893 27.8894C139.032 26.9126 137.893 26.4243 136.474 26.4243C135.032 26.4243 133.869 26.9126 132.986 27.8894C132.125 28.8661 131.695 30.1684 131.695 31.7963C131.695 33.4242 132.125 34.7265 132.986 35.7033C133.869 36.68 135.032 37.1683 136.474 37.1683ZM147.79 36.0521H152.429V40.5869H147.79V36.0521ZM156.63 16.1686H161.235V20.4243H156.63V16.1686ZM156.805 40.5869V23.0057H161.096V40.5869H156.805ZM172.377 40.866C169.772 40.866 167.726 40.0404 166.237 38.3893C164.749 36.7149 164.005 34.5172 164.005 31.7963C164.005 29.0754 164.749 26.8894 166.237 25.2382C167.726 23.5638 169.749 22.7266 172.307 22.7266C174.609 22.7266 176.33 23.529 177.47 25.1336V15.4709H181.726V40.5869H177.47V38.3893C176.958 39.1567 176.249 39.7614 175.342 40.2032C174.435 40.6451 173.446 40.866 172.377 40.866ZM169.551 35.7033C170.412 36.68 171.563 37.1683 173.005 37.1683C174.446 37.1683 175.598 36.68 176.458 35.7033C177.318 34.7265 177.749 33.4242 177.749 31.7963C177.749 30.1684 177.318 28.8661 176.458 27.8894C175.598 26.9126 174.446 26.4243 173.005 26.4243C171.563 26.4243 170.412 26.9126 169.551 27.8894C168.691 28.8661 168.261 30.1684 168.261 31.7963C168.261 33.4242 168.691 34.7265 169.551 35.7033Z" fill="#1F2937"/>
<path d="M36.6345 45.9237C42.4922 43.2251 46.5582 37.3021 46.5582 30.4297C46.5582 21.013 38.9246 13.3794 29.508 13.3794C20.0914 13.3794 12.4577 21.013 12.4577 30.4297C12.4577 36.636 15.7737 42.0678 20.7306 45.0502V30.3288L20.7312 30.3293C20.7849 25.5279 24.6938 21.6523 29.508 21.6523C34.3556 21.6523 38.2853 25.582 38.2853 30.4297C38.2853 35.2767 34.3565 39.206 29.5097 39.207L36.6345 45.9237Z" fill="#6366F1"/>
</svg>
