<svg width="194" height="61" viewBox="0 0 194 61" fill="none" xmlns="http://www.w3.org/2000/svg">
<path d="M68.161 26.5987H65.4053C62.8704 26.5987 61.6029 28.494 61.6029 32.2847V40.5869H57.3123V23.0057H61.6029V26.1103C62.0449 24.9941 62.6148 24.2034 63.3124 23.7382C64.0331 23.2499 64.9633 23.0057 66.103 23.0057H68.161V26.5987ZM84.8451 38.3195C83.1244 40.0172 80.9267 40.866 78.2521 40.866C75.5778 40.866 73.3686 40.0172 71.6242 38.3195C69.9035 36.5986 69.0431 34.4242 69.0431 31.7963C69.0431 29.1684 69.9035 27.0057 71.6242 25.308C73.3686 23.5871 75.5778 22.7266 78.2521 22.7266C80.9267 22.7266 83.1244 23.5871 84.8451 25.308C86.5661 27.0057 87.4265 29.1684 87.4265 31.7963C87.4265 34.4242 86.5661 36.5986 84.8451 38.3195ZM78.2521 37.1683C79.6942 37.1683 80.8569 36.6684 81.7406 35.6684C82.6474 34.6684 83.101 33.3777 83.101 31.7963C83.101 30.2149 82.6474 28.9242 81.7406 27.9243C80.8569 26.9243 79.6942 26.4243 78.2521 26.4243C76.787 26.4243 75.6012 26.9243 74.6941 27.9243C73.8103 28.9242 73.3686 30.2149 73.3686 31.7963C73.3686 33.3777 73.8103 34.6684 74.6941 35.6684C75.6012 36.6684 76.787 37.1683 78.2521 37.1683ZM90.5662 40.5869V15.4709H94.8222V40.5869H90.5662ZM99.1509 40.5869V15.4709H103.407V40.5869H99.1509ZM123.817 23.0057V40.5869H119.526V37.866C118.503 39.866 116.677 40.866 114.049 40.866C112.073 40.866 110.48 40.2265 109.27 38.9474C108.084 37.6451 107.491 35.9591 107.491 33.8893V23.0057H111.782V32.9823C111.782 34.1916 112.119 35.18 112.794 35.9474C113.468 36.6916 114.352 37.0637 115.445 37.0637C116.654 37.0637 117.631 36.6451 118.375 35.8079C119.142 34.9707 119.526 33.9009 119.526 32.5986V23.0057H123.817ZM127.902 47.703V23.0057H132.158V25.2034C133.321 23.5522 135.088 22.7266 137.461 22.7266C139.972 22.7266 141.96 23.5638 143.425 25.2382C144.891 26.8894 145.623 29.0754 145.623 31.7963C145.623 34.494 144.844 36.68 143.286 38.3544C141.751 40.0288 139.705 40.866 137.147 40.866C136.077 40.866 135.1 40.6683 134.216 40.273C133.333 39.8776 132.647 39.3427 132.158 38.6683V47.703H127.902ZM136.658 37.1683C138.077 37.1683 139.216 36.68 140.077 35.7033C140.937 34.7265 141.367 33.4242 141.367 31.7963C141.367 30.1684 140.937 28.8661 140.077 27.8894C139.216 26.9126 138.077 26.4243 136.658 26.4243C135.216 26.4243 134.053 26.9126 133.17 27.8894C132.309 28.8661 131.879 30.1684 131.879 31.7963C131.879 33.4242 132.309 34.7265 133.17 35.7033C134.053 36.68 135.216 37.1683 136.658 37.1683ZM147.974 36.0521H152.613V40.5869H147.974V36.0521ZM156.815 16.1686H161.419V20.4243H156.815V16.1686ZM156.989 40.5869V23.0057H161.28V40.5869H156.989ZM172.561 40.866C169.956 40.866 167.91 40.0404 166.421 38.3893C164.933 36.7149 164.189 34.5172 164.189 31.7963C164.189 29.0754 164.933 26.8894 166.421 25.2382C167.91 23.5638 169.933 22.7266 172.491 22.7266C174.793 22.7266 176.514 23.529 177.654 25.1336V15.4709H181.91V40.5869H177.654V38.3893C177.142 39.1567 176.433 39.7614 175.526 40.2032C174.619 40.6451 173.631 40.866 172.561 40.866ZM169.735 35.7033C170.596 36.68 171.747 37.1683 173.189 37.1683C174.631 37.1683 175.782 36.68 176.642 35.7033C177.503 34.7265 177.933 33.4242 177.933 31.7963C177.933 30.1684 177.503 28.8661 176.642 27.8894C175.782 26.9126 174.631 26.4243 173.189 26.4243C171.747 26.4243 170.596 26.9126 169.735 27.8894C168.875 28.8661 168.445 30.1684 168.445 31.7963C168.445 33.4242 168.875 34.7265 169.735 35.7033Z" fill="white"/>
<path d="M36.6345 45.9237C42.4922 43.2247 46.5582 37.302 46.5582 30.4295C46.5582 21.013 38.9246 13.3793 29.508 13.3793C20.0914 13.3793 12.4577 21.013 12.4577 30.4295C12.4577 36.6359 15.7737 42.0677 20.7306 45.0499V30.3286L20.7312 30.3292C20.7849 25.5278 24.6938 21.6522 29.508 21.6522C34.3556 21.6522 38.2853 25.5819 38.2853 30.4295C38.2853 35.2765 34.3565 39.2059 29.5097 39.2069L36.6345 45.9237Z" fill="white"/>
</svg>
