<svg width="300" height="81" viewBox="0 0 300 81" fill="none" xmlns="http://www.w3.org/2000/svg">
<path d="M103.044 34.1247H98.5404C94.398 34.1247 92.3267 37.222 92.3267 43.4164V56.9835H85.3153V28.2532H92.3267V33.3266C93.0491 31.5025 93.9803 30.2104 95.1203 29.4503C96.298 28.6522 97.8181 28.2532 99.6805 28.2532H103.044V34.1247ZM130.308 53.2782C127.496 56.0525 123.905 57.4396 119.534 57.4396C115.164 57.4396 111.554 56.0525 108.703 53.2782C105.891 50.466 104.485 46.9127 104.485 42.6184C104.485 38.3241 105.891 34.7898 108.703 32.0155C111.554 29.2033 115.164 27.7972 119.534 27.7972C123.905 27.7972 127.496 29.2033 130.308 32.0155C133.12 34.7898 134.526 38.3241 134.526 42.6184C134.526 46.9127 133.12 50.466 130.308 53.2782ZM119.534 51.3971C121.89 51.3971 123.791 50.58 125.235 48.9459C126.717 47.3117 127.458 45.2026 127.458 42.6184C127.458 40.0342 126.717 37.925 125.235 36.2909C123.791 34.6567 121.89 33.8397 119.534 33.8397C117.14 33.8397 115.202 34.6567 113.72 36.2909C112.275 37.925 111.554 40.0342 111.554 42.6184C111.554 45.2026 112.275 47.3117 113.72 48.9459C115.202 50.58 117.14 51.3971 119.534 51.3971ZM139.657 56.9835V15.9402H146.612V56.9835H139.657ZM153.686 56.9835V15.9402H160.64V56.9835H153.686ZM193.993 28.2532V56.9835H186.981V52.5372C185.31 55.8054 182.326 57.4396 178.032 57.4396C174.802 57.4396 172.199 56.3945 170.222 54.3043C168.284 52.1761 167.315 49.4209 167.315 46.0386V28.2532H174.327V44.5565C174.327 46.5327 174.878 48.1478 175.98 49.4019C177.082 50.618 178.526 51.2261 180.312 51.2261C182.288 51.2261 183.884 50.542 185.1 49.1739C186.354 47.8058 186.981 46.0576 186.981 43.9295V28.2532H193.993ZM200.67 68.6122V28.2532H207.624V31.8445C209.524 29.1463 212.413 27.7972 216.289 27.7972C220.394 27.7972 223.643 29.1653 226.037 31.9015C228.431 34.5997 229.628 38.172 229.628 42.6184C229.628 47.0267 228.355 50.599 225.809 53.3352C223.301 56.0715 219.956 57.4396 215.776 57.4396C214.028 57.4396 212.432 57.1166 210.988 56.4705C209.544 55.8245 208.423 54.9504 207.624 53.8483V68.6122H200.67ZM214.978 51.3971C217.296 51.3971 219.158 50.599 220.565 49.0029C221.971 47.4067 222.674 45.2786 222.674 42.6184C222.674 39.9582 221.971 37.83 220.565 36.2339C219.158 34.6377 217.296 33.8397 214.978 33.8397C212.622 33.8397 210.721 34.6377 209.278 36.2339C207.871 37.83 207.168 39.9582 207.168 42.6184C207.168 45.2786 207.871 47.4067 209.278 49.0029C210.721 50.599 212.622 51.3971 214.978 51.3971ZM233.47 49.5729H241.051V56.9835H233.47V49.5729ZM247.916 17.0803H255.441V24.0349H247.916V17.0803ZM248.202 56.9835V28.2532H255.213V56.9835H248.202ZM273.648 57.4396C269.392 57.4396 266.048 56.0905 263.615 53.3922C261.183 50.656 259.967 47.0647 259.967 42.6184C259.967 38.172 261.183 34.5997 263.615 31.9015C266.048 29.1653 269.354 27.7972 273.534 27.7972C277.296 27.7972 280.109 29.1083 281.971 31.7305V15.9402H288.926V56.9835H281.971V53.3922C281.135 54.6463 279.976 55.6344 278.494 56.3565C277.012 57.0786 275.396 57.4396 273.648 57.4396ZM269.031 49.0029C270.437 50.599 272.318 51.3971 274.675 51.3971C277.031 51.3971 278.912 50.599 280.318 49.0029C281.724 47.4067 282.427 45.2786 282.427 42.6184C282.427 39.9582 281.724 37.83 280.318 36.2339C278.912 34.6377 277.031 33.8397 274.675 33.8397C272.318 33.8397 270.437 34.6377 269.031 36.2339C267.625 37.83 266.922 39.9582 266.922 42.6184C266.922 45.2786 267.625 47.4067 269.031 49.0029Z" fill="white"/>
<path d="M51.5247 65.7046C61.097 61.2941 67.7415 51.6155 67.7415 40.3849C67.7415 24.9968 55.267 12.5223 39.8789 12.5223C24.4908 12.5223 12.0163 24.9968 12.0163 40.3849C12.0163 50.5269 17.4351 59.4034 25.5354 64.2766V40.22L25.5363 40.221C25.6242 32.3748 32.0119 26.0415 39.8789 26.0415C47.8006 26.0415 54.2224 32.4632 54.2224 40.3849C54.2224 48.3056 47.8021 54.7268 39.8817 54.7284L51.5247 65.7046Z" fill="white"/>
</svg>
