<svg width="207" height="61" viewBox="0 0 207 61" fill="none" xmlns="http://www.w3.org/2000/svg">
<path d="M12.7437 20.2483C14.5436 17.1376 17.1377 14.5436 20.2484 12.7437L30.5 30.5003L12.7437 20.2487V20.2483Z" fill="#16AF39"/>
<path d="M10 30.4999C10 26.7652 10.9988 23.2638 12.7437 20.2483L30.5 30.4999H10Z" fill="#0092CF"/>
<path d="M12.7437 40.7516C10.9988 37.7361 10 34.2347 10 30.5H30.5L12.7437 40.7516Z" fill="#275CAD"/>
<path d="M20.2484 48.2563C17.1377 46.4564 14.5436 43.8623 12.7437 40.7516L30.5 30.5L20.2484 48.2563Z" fill="#4C2A93"/>
<path d="M30.5 51C26.7653 51 23.2639 50.0012 20.2484 48.2563L30.5 30.5V51Z" fill="#8F3396"/>
<path d="M40.7516 48.2567C37.7361 50.0016 34.2347 51 30.5 51V30.5L40.7516 48.2567Z" fill="#C2174B"/>
<path d="M40.7516 48.2567C43.8627 46.4568 46.4568 43.8627 48.2567 40.7516L30.5004 30.5L40.752 48.2567H40.7516Z" fill="#FF2F1D"/>
<path d="M48.2567 40.7516C50.0016 37.7361 51.0004 34.2347 51.0004 30.5H30.5004L48.2567 40.7516Z" fill="#FF5417"/>
<path d="M51 30.4999C51 26.7652 50.0012 23.2638 48.2563 20.2483L30.5 30.4999H51Z" fill="#FF9A00"/>
<path d="M48.2567 20.2483C46.4568 17.1376 43.8627 14.5436 40.752 12.7437L30.5004 30.4999L48.2567 20.2483Z" fill="#FFBC00"/>
<path d="M40.752 12.7437C37.7365 10.9988 34.2351 10 30.5004 10V30.5L40.752 12.7437Z" fill="#FBEC0D"/>
<path d="M20.2484 12.7433C23.2639 10.9984 26.7653 10 30.5 10V30.5L20.2484 12.7433Z" fill="#C8DD14"/>
<path d="M64.5079 19.0146H73.839C75.3757 19.0146 76.643 19.243 77.6402 19.6993C79.5335 20.5751 80.4806 22.1917 80.4806 24.5484C80.4806 25.778 80.2268 26.7846 79.7189 27.5668C79.2109 28.3495 78.5007 28.9781 77.5877 29.4532C78.3888 29.7796 78.9919 30.2081 79.3974 30.739C79.8025 31.27 80.0284 32.1318 80.0751 33.3245L80.1731 36.0776C80.201 36.8603 80.2662 37.4425 80.3687 37.8246C80.5364 38.4769 80.8345 38.896 81.2629 39.0825V39.5438H77.8529C77.7599 39.367 77.6853 39.1387 77.6295 38.8591C77.5737 38.5794 77.527 38.0395 77.4897 37.2379L77.322 33.814C77.2584 32.4725 76.7742 31.5734 75.8694 31.117C75.3532 30.8653 74.543 30.7398 73.4389 30.7398H67.2885V39.5438H64.5074V19.0151L64.5079 19.0146ZM73.5402 28.4196C74.8083 28.4196 75.8116 28.1589 76.55 27.6369C77.2884 27.1154 77.6578 26.1745 77.6578 24.8141C77.6578 23.3516 77.1416 22.3545 76.1088 21.8236C75.5557 21.5439 74.8177 21.4041 73.8936 21.4041H67.2889V28.4192H73.5402V28.4196Z" fill="white"/>
<path d="M95.3497 26.0703C96.6723 27.3548 97.3341 29.2441 97.3341 31.7386C97.3341 34.233 96.7511 36.1416 95.5854 37.7147C94.4198 39.2879 92.6113 40.0743 90.1599 40.0743C88.1152 40.0743 86.4916 39.3785 85.2891 37.987C84.0866 36.5954 83.4851 34.7266 83.4851 32.381C83.4851 29.8677 84.119 27.8665 85.3863 26.3774C86.6536 24.8883 88.3559 24.1433 90.4928 24.1433C92.4079 24.1433 94.0266 24.7858 95.3497 26.0703ZM93.788 36.0173C94.4005 34.7566 94.7072 33.3536 94.7072 31.8091C94.7072 30.4134 94.4862 29.2782 94.0438 28.4036C93.344 27.0264 92.1369 26.3376 90.4235 26.3376C88.9033 26.3376 87.7979 26.9239 87.107 28.0965C86.4162 29.2691 86.0706 30.6832 86.0706 32.3396C86.0706 33.996 86.4158 35.2568 87.107 36.3174C87.7979 37.3781 88.8942 37.9087 90.3961 37.9087C92.0447 37.9087 93.1755 37.2781 93.788 36.0173Z" fill="white"/>
<path d="M102.938 24.5764V34.5124C102.938 35.2762 103.056 35.9006 103.292 36.3848C103.727 37.279 104.539 37.7263 105.728 37.7263C107.434 37.7263 108.595 36.9437 109.212 35.3787C109.548 34.5402 109.716 33.3898 109.716 31.9269V24.5764H112.231V39.5431H109.855L109.883 37.3352C109.563 37.9035 109.165 38.3832 108.69 38.7747C107.748 39.5574 106.606 39.9485 105.262 39.9485C103.168 39.9485 101.742 39.236 100.984 37.8104C100.572 37.0466 100.366 36.0265 100.366 34.7502V24.5768H102.938V24.5764Z" fill="white"/>
<path d="M116.843 20.3979H119.386V24.5763H121.775V26.6304H119.386V36.3986C119.386 36.9205 119.563 37.2699 119.917 37.4466C120.112 37.5491 120.438 37.6003 120.895 37.6003C121.016 37.6003 121.147 37.5975 121.286 37.5913C121.426 37.5852 121.589 37.5696 121.775 37.5446V39.5429C121.486 39.6265 121.186 39.6872 120.874 39.7245C120.562 39.7618 120.224 39.7803 119.861 39.7803C118.687 39.7803 117.891 39.4798 117.472 38.8791C117.053 38.2781 116.843 37.4982 116.843 36.5384V26.6304H114.816V24.5763H116.843V20.3979Z" fill="white"/>
<path d="M133.536 24.9889C134.526 25.4874 135.281 26.1328 135.8 26.9245C136.3 27.6793 136.633 28.5596 136.8 29.5657C136.948 30.2553 137.022 31.3545 137.022 32.8638H126.136C126.182 34.3865 126.538 35.6083 127.203 36.5283C127.869 37.4484 128.9 37.9084 130.295 37.9084C131.599 37.9084 132.638 37.4734 133.415 36.603C133.85 36.0978 134.157 35.5128 134.339 34.8482H136.812C136.747 35.398 136.53 36.0105 136.162 36.6858C135.794 37.3615 135.384 37.9133 134.931 38.3418C134.172 39.0871 133.234 39.5902 132.115 39.851C131.514 39.9998 130.834 40.0744 130.076 40.0744C128.225 40.0744 126.655 39.3967 125.368 38.0412C124.081 36.6858 123.438 34.7875 123.438 32.3467C123.438 29.906 124.086 27.9913 125.383 26.4915C126.679 24.9918 128.373 24.2415 130.466 24.2415C131.521 24.2415 132.544 24.4907 133.535 24.9889H133.536ZM134.437 30.865C134.335 29.7748 134.099 28.904 133.73 28.2517C133.046 27.0405 131.905 26.435 130.307 26.435C129.162 26.435 128.201 26.8519 127.425 27.6859C126.649 28.5198 126.237 29.5792 126.192 30.865H134.437Z" fill="white"/>
<path d="M141.703 34.8475C141.779 35.686 141.993 36.3288 142.345 36.7762C142.992 37.5867 144.114 37.9918 145.711 37.9918C146.662 37.9918 147.499 37.7893 148.221 37.3838C148.944 36.9787 149.305 36.3522 149.305 35.5043C149.305 34.8615 149.016 34.3723 148.439 34.0369C148.07 33.8319 147.341 33.5946 146.252 33.3244L144.221 32.8213C142.924 32.5048 141.968 32.1505 141.353 31.7594C140.254 31.0796 139.705 30.1383 139.705 28.9365C139.705 27.5204 140.222 26.3745 141.256 25.4987C142.289 24.6229 143.68 24.1851 145.427 24.1851C147.712 24.1851 149.359 24.8468 150.369 26.1695C151.002 27.0079 151.309 27.9115 151.29 28.8804H148.915C148.867 28.3154 148.662 27.8013 148.3 27.3375C147.708 26.6799 146.683 26.3507 145.224 26.3507C144.251 26.3507 143.514 26.5319 143.013 26.8939C142.512 27.256 142.262 27.734 142.262 28.3281C142.262 28.978 142.591 29.4978 143.249 29.8877C143.629 30.1198 144.189 30.3244 144.929 30.5015L146.624 30.9066C148.465 31.3445 149.699 31.7684 150.326 32.1784C151.304 32.8213 151.793 33.8324 151.793 35.2108C151.793 36.5892 151.282 37.6937 150.258 38.6626C149.235 39.6314 147.676 40.116 145.582 40.116C143.328 40.116 141.731 39.6105 140.793 38.5998C139.854 37.5892 139.352 36.3383 139.286 34.8475H141.704H141.703Z" fill="white"/>
<path d="M164.405 25.3731C165.463 26.1931 166.098 27.6043 166.313 29.6075H163.867C163.718 28.685 163.378 27.9192 162.847 27.3087C162.316 26.6986 161.464 26.3931 160.29 26.3931C158.687 26.3931 157.541 27.175 156.852 28.7379C156.405 29.7523 156.181 31.0036 156.181 32.4923C156.181 33.981 156.498 35.2512 157.132 36.275C157.765 37.2987 158.762 37.8104 160.122 37.8104C161.166 37.8104 161.993 37.4927 162.603 36.8568C163.213 36.2213 163.634 35.3512 163.868 34.2467H166.313C166.034 36.2311 165.335 37.6821 164.217 38.5997C163.099 39.5172 161.669 39.976 159.927 39.976C157.97 39.976 156.41 39.261 155.245 37.8309C154.081 36.4008 153.498 34.6145 153.498 32.4718C153.498 29.8445 154.136 27.7999 155.413 26.337C156.689 24.8745 158.315 24.1431 160.29 24.1431C161.976 24.1431 163.349 24.5531 164.406 25.3727L164.405 25.3731Z" fill="white"/>
<path d="M176.85 30.4857C177.428 30.4115 177.814 30.1696 178.01 29.7604C178.121 29.5358 178.177 29.2135 178.177 28.7924C178.177 27.9322 177.872 27.3078 177.264 26.9195C176.655 26.5317 175.783 26.3373 174.649 26.3373C173.338 26.3373 172.408 26.6932 171.859 27.4046C171.552 27.7982 171.353 28.3832 171.26 29.1602H168.912C168.958 27.3103 169.556 26.0233 170.705 25.2992C171.854 24.5752 173.187 24.2131 174.704 24.2131C176.462 24.2131 177.891 24.5485 178.989 25.2193C180.078 25.89 180.622 26.9335 180.622 28.3496V36.9723C180.622 37.2331 180.676 37.443 180.783 37.6009C180.89 37.7591 181.116 37.8378 181.461 37.8378C181.573 37.8378 181.698 37.8309 181.838 37.8169C181.978 37.803 182.127 37.7821 182.285 37.7542V39.6127C181.894 39.7247 181.596 39.7944 181.391 39.8222C181.186 39.8501 180.906 39.8641 180.553 39.8641C179.686 39.8641 179.057 39.5566 178.666 38.942C178.461 38.616 178.317 38.1548 178.233 37.5586C177.72 38.2294 176.984 38.8116 176.025 39.3052C175.065 39.7989 174.008 40.0457 172.853 40.0457C171.465 40.0457 170.33 39.6246 169.45 38.7825C168.57 37.9403 168.129 36.8866 168.129 35.621C168.129 34.2348 168.563 33.1597 169.429 32.3971C170.295 31.6341 171.432 31.1643 172.839 30.9872L176.85 30.4849V30.4857ZM171.553 37.2811C172.084 37.6993 172.713 37.9084 173.44 37.9084C174.325 37.9084 175.182 37.7038 176.011 37.2946C177.408 36.6156 178.107 35.5041 178.107 33.9601V31.9371C177.8 32.1335 177.405 32.2971 176.922 32.4279C176.439 32.5591 175.964 32.6522 175.499 32.7079L173.979 32.9035C173.068 33.0244 172.383 33.2151 171.923 33.4754C171.145 33.9125 170.756 34.6095 170.756 35.5669C170.756 36.2917 171.022 36.8633 171.553 37.2819V37.2811Z" fill="white"/>
<path d="M184.745 24.5764H187.135V26.7006C187.843 25.8249 188.593 25.1963 189.385 24.8142C190.177 24.4325 191.057 24.2415 192.026 24.2415C194.15 24.2415 195.585 24.9819 196.33 26.4632C196.74 27.2738 196.945 28.4337 196.945 29.9429V39.5435H194.388V30.1106C194.388 29.1975 194.253 28.4616 193.983 27.9028C193.536 26.9712 192.725 26.5055 191.551 26.5055C190.955 26.5055 190.466 26.5662 190.084 26.6871C189.394 26.8921 188.789 27.3021 188.267 27.9167C187.848 28.4107 187.576 28.9208 187.45 29.4468C187.324 29.9733 187.261 30.7256 187.261 31.7039V39.5435H184.746V24.5768L184.745 24.5764Z" fill="white"/>
</svg>
