<svg width="237" height="61" viewBox="0 0 237 61" fill="none" xmlns="http://www.w3.org/2000/svg">
<path d="M82.8243 43.1474C87.6427 43.1474 91.038 40.3788 91.038 36.1379C91.0754 32.4758 88.8909 30.3616 85.246 29.0277L82.7494 28.109C80.2154 27.1904 79.0046 26.3976 79.0046 24.6231C79.0046 22.8487 80.8021 21.8168 82.8867 21.8168C84.8216 21.8168 86.3195 22.5971 87.5678 24.0694L90.3764 21.3638C88.5789 19.2119 85.9825 18.0415 82.9242 18.0415C78.3555 18.0415 74.9227 20.6465 74.9227 24.8874C74.9227 28.2097 76.8326 30.3239 80.7397 31.7333L83.4485 32.6898C85.8077 33.5455 86.9436 34.6403 86.9436 36.3896C86.9436 38.2017 85.2834 39.3972 82.9616 39.3972C80.5649 39.3972 78.5303 38.2395 77.2445 36.2889L74.0614 38.7806C75.5094 41.3982 78.8673 43.1474 82.8243 43.1474ZM102.073 43.0719C105.718 43.0719 108.414 41.5618 109.974 39.1078L107.053 37.0565C106.117 38.5667 104.557 39.6615 102.098 39.6615C99.1892 39.6615 96.9298 37.8494 96.7675 35.0053H110.386C110.424 34.4642 110.424 34.1495 110.424 33.772C110.424 28.2726 106.654 25.2901 102.073 25.2901C96.805 25.2901 93.0352 29.1535 93.0352 34.1873C93.0227 39.4098 96.805 43.0719 102.073 43.0719ZM96.9423 32.2619C97.4915 29.7324 99.676 28.4614 101.935 28.4614C104.157 28.4614 106.167 29.7953 106.579 32.2619H96.9423ZM130.221 49.8801V25.6299H126.414V27.9203C125.44 26.5486 123.368 25.2901 120.872 25.2901C116.128 25.2901 112.521 29.292 112.521 34.1873C112.521 39.0826 116.128 43.0845 120.872 43.0845C123.368 43.0845 125.44 41.8135 126.414 40.4543V49.8926H130.221V49.8801ZM121.558 39.6489C118.512 39.6489 116.39 37.2579 116.39 34.1747C116.39 31.0915 118.5 28.7005 121.558 28.7005C124.604 28.7005 126.726 31.0915 126.726 34.1747C126.714 37.2579 124.604 39.6489 121.558 39.6489ZM140.083 43.0719C142.305 43.0719 144.14 42.1532 145.138 40.404V42.7321H148.945V25.6299H145.138V34.0489C145.138 37.7487 143.403 39.6615 140.907 39.6615C138.685 39.6615 137.436 37.9878 137.436 35.2444V25.6299H133.629V35.861C133.629 40.2404 136.088 43.0719 140.083 43.0719ZM160.866 43.0719C164.499 43.0719 167.208 41.5618 168.768 39.1078L165.86 37.0565C164.923 38.5667 163.363 39.6615 160.904 39.6615C157.995 39.6615 155.748 37.8494 155.574 35.0053H169.192C169.23 34.4642 169.23 34.1495 169.23 33.772C169.23 28.2726 165.46 25.2901 160.879 25.2901C155.611 25.2901 151.829 29.1535 151.829 34.1873C151.829 39.4098 155.599 43.0719 160.866 43.0719ZM155.736 32.2619C156.285 29.7324 158.47 28.4614 160.729 28.4614C162.951 28.4614 164.961 29.7953 165.373 32.2619H155.736ZM172.101 42.7321H175.908V34.3131C175.908 30.6133 177.843 28.7005 180.377 28.7005C182.599 28.7005 183.984 30.3113 183.984 33.0421V42.7195H187.792V32.4255C187.792 28.0839 185.195 25.2775 181.176 25.2775C178.929 25.2775 176.982 26.1962 175.908 27.9454V25.6173H172.101V42.7321ZM199.525 43.0719C203.133 43.0719 206.104 41.222 207.602 38.3527L204.269 36.5783C203.433 38.3276 201.735 39.586 199.525 39.586C196.442 39.586 194.258 37.2201 194.258 34.1873C194.258 31.1545 196.442 28.7886 199.525 28.7886C201.747 28.7886 203.445 30.0596 204.269 31.7963L207.602 30.0093C206.116 27.14 203.133 25.2901 199.525 25.2901C194.333 25.2901 190.376 29.1158 190.376 34.1873C190.376 39.2588 194.333 43.0719 199.525 43.0719ZM217.875 43.0719C221.52 43.0719 224.216 41.5618 225.777 39.1078L222.868 37.0565C221.932 38.5667 220.372 39.6615 217.913 39.6615C215.004 39.6615 212.757 37.8494 212.57 35.0053H226.189C226.226 34.4642 226.226 34.1495 226.226 33.772C226.226 28.2726 222.456 25.2901 217.875 25.2901C212.607 25.2901 208.838 29.1535 208.838 34.1873C208.825 39.4098 212.607 43.0719 217.875 43.0719ZM212.745 32.2619C213.294 29.7324 215.478 28.4614 217.738 28.4614C219.96 28.4614 221.969 29.7953 222.381 32.2619H212.745Z" fill="white"/>
<path fill-rule="evenodd" clip-rule="evenodd" d="M12.6463 41.9769V18.9852C12.6463 14.2912 16.4036 10.4907 21.0472 10.4907H53.6771C58.3207 10.4907 62.078 14.2912 62.078 18.9852V41.9769C62.078 46.6709 58.3207 50.4714 53.6771 50.4714H21.0472C16.4036 50.4714 12.6463 46.6709 12.6463 41.9769ZM22.5326 17.9785C23.8933 17.9785 25.0042 19.0985 25.0042 20.4828C25.0042 21.8671 23.8933 22.9871 22.5326 22.9871C21.172 22.9871 20.0611 21.8671 20.0611 20.4828C20.0611 19.0985 21.172 17.9785 22.5326 17.9785ZM25.0042 40.4542C25.0042 39.07 23.8933 37.95 22.5326 37.95C21.172 37.95 20.0611 39.07 20.0611 40.4542C20.0611 41.8385 21.172 42.9585 22.5326 42.9585C23.8933 42.9585 25.0042 41.8385 25.0042 40.4542ZM52.1917 27.9705C53.5523 27.9705 54.6633 29.0905 54.6633 30.4748C54.6633 31.859 53.5523 32.9791 52.1917 32.9791C50.8311 32.9791 49.7201 31.859 49.7201 30.4748C49.7201 29.0905 50.8311 27.9705 52.1917 27.9705ZM32.419 17.991H52.1917C53.5523 17.991 54.6632 19.0984 54.6632 20.4953C54.6632 21.8795 53.5523 22.9996 52.1917 22.9996H32.419C31.0584 22.9996 29.9474 21.8795 29.9474 20.4953C29.9474 19.111 31.0584 17.991 32.419 17.991ZM52.1917 37.9624H32.419C31.0584 37.9624 29.9474 39.0824 29.9474 40.4667C29.9474 41.851 31.0584 42.971 32.419 42.971H52.1917C53.5523 42.971 54.6632 41.851 54.6632 40.4667C54.6632 39.0698 53.5523 37.9624 52.1917 37.9624ZM22.5326 27.9832H42.3053C43.6659 27.9832 44.7769 29.1032 44.7769 30.4875C44.7769 31.8717 43.6659 32.9917 42.3053 32.9917H22.5326C21.172 32.9917 20.0611 31.8717 20.0611 30.4875C20.0611 29.1032 21.172 27.9832 22.5326 27.9832Z" fill="white"/>
</svg>
