<svg width="165" height="61" viewBox="0 0 165 61" fill="none" xmlns="http://www.w3.org/2000/svg">
<path d="M27.1634 13.1271L10.8511 41.549C8.84661 45.0931 10.5746 49.332 14.0306 50.5828C13.7541 49.193 13.9615 47.6642 14.7909 46.2049L31.5872 17.0186C33.0387 14.4475 35.8726 13.4051 38.4301 13.8915L38.0153 13.1271C35.5961 8.95764 29.5826 8.95764 27.1634 13.1271Z" fill="white"/>
<path d="M32.9695 19.9372L19.6294 43.2168C17.7631 46.4828 19.9058 50.5828 23.5001 50.9998C23.5001 50.0964 23.7074 49.1235 24.1913 48.2201L37.4624 25.0796C38.7756 22.8558 41.3331 22.0914 43.4758 22.7169L41.886 19.9372C39.9507 16.4627 34.974 16.4627 32.9695 19.9372Z" fill="white"/>
<path d="M39.1212 27.0256L28.7532 45.0237C27.2326 47.6644 29.1679 51 32.2092 51H46.9318H48.8671H50.8025H52.807C55.8483 51 57.7836 47.6644 56.2631 45.0237L55.2954 43.217L54.3277 41.5492L50.1804 34.3221L46.0333 27.0951C44.4435 24.3849 40.6419 24.3849 39.1212 27.0256Z" fill="white"/>
<path d="M70.3441 42.3739C76.3182 42.3739 78.97 39.8422 78.97 36.1622C78.97 32.394 76.2271 30.7159 72.2645 29.9211L69.3686 29.3323C67.296 28.8907 66.6254 28.1253 66.6254 27.0655C66.6254 25.7996 67.7532 24.8576 70.3133 24.8576C73.0569 24.8576 74.2458 26.1823 74.3677 27.772H78.6043C78.5742 23.9155 75.1601 21.2365 70.3743 21.2365C65.4367 21.2365 62.3276 23.5917 62.3276 27.0655C62.3276 30.8043 64.949 32.3057 68.6371 33.0711L71.746 33.7188C73.7582 34.1309 74.6725 34.8669 74.6725 36.2505C74.6725 37.8108 73.3924 38.7824 70.3441 38.7824C67.7227 38.7824 66.0463 37.6342 65.8634 35.3085H61.6265C61.8399 39.5772 64.7965 42.3739 70.3441 42.3739Z" fill="white"/>
<path d="M80.6577 48.8506H84.7423V40.4604H84.8642C85.6566 41.4613 86.9674 42.3739 89.2535 42.3739C93.3682 42.3739 95.7454 39.0178 95.7454 34.4842C95.7454 29.7739 93.2463 26.5356 89.2535 26.5356C86.9674 26.5356 85.6566 27.4482 84.8642 28.4491H84.7423L84.3156 26.8005H80.6577V48.8506ZM88.0948 38.9001C85.5039 38.9001 84.5896 36.8688 84.5896 34.4842C84.5896 32.0702 85.5648 30.0094 88.0948 30.0094C90.6856 30.0094 91.6005 32.0702 91.6005 34.4842C91.6005 36.8688 90.7164 38.9001 88.0948 38.9001Z" fill="white"/>
<path d="M97.374 42.109H101.245V34.602C101.245 31.8347 102.647 30.2155 105.086 30.2155H106.518V26.5651H105.36C103.348 26.5651 101.946 27.6838 101.245 29.1263H101.123L100.818 26.8006H97.374V42.109Z" fill="white"/>
<path d="M117.924 26.8006V35.5441C117.924 37.4871 117.071 38.6941 114.998 38.6941C112.895 38.6941 112.041 37.4871 112.041 35.5441V26.8006H107.957V36.1623C107.957 39.4595 110.152 42.374 114.968 42.374H114.998C119.784 42.374 122.008 39.4595 122.008 36.1623V26.8006H117.924Z" fill="white"/>
<path d="M131.324 42.3739C135.805 42.3739 138.122 39.7833 138.365 36.3389H134.25C134.067 37.8697 133.001 38.9001 131.232 38.9001C128.916 38.9001 127.758 37.3398 127.758 34.4548C127.758 31.5992 128.916 30.0094 131.232 30.0094C132.97 30.0094 134.067 31.0692 134.22 32.6295H138.335C138.122 29.2146 135.805 26.5356 131.232 26.5356C126.264 26.5356 123.582 29.8033 123.582 34.4548C123.582 39.1651 126.356 42.3739 131.324 42.3739Z" fill="white"/>
<path d="M146.758 42.3739C150.843 42.3739 153.433 40.1071 153.86 37.3398H149.867C149.562 38.2818 148.587 39.1061 146.758 39.1061C144.412 39.1061 143.314 37.6342 143.284 35.544H154.074V34.0132C154.074 29.8328 151.422 26.5356 146.697 26.5356C141.607 26.5356 139.107 30.1272 139.107 34.4842C139.107 38.9001 141.851 42.3739 146.758 42.3739ZM143.314 32.9239C143.405 31.187 144.412 29.8328 146.697 29.8328C148.831 29.8328 149.837 31.187 149.898 32.9239H143.314Z" fill="white"/>
</svg>
