<svg width="230" height="81" viewBox="0 0 230 81" fill="none" xmlns="http://www.w3.org/2000/svg">
<g clip-path="url(#clip0_213_143)">
<path d="M35.0191 15.1894C38.4775 9.10767 47.1232 9.10769 50.5816 15.1894L74.3835 57.0471C77.8419 63.1288 73.5189 70.7311 66.6023 70.7311H18.9984C12.0817 70.7311 7.75884 63.1288 11.2172 57.0471L35.0191 15.1894Z" fill="#4C49E4"/>
<path d="M41.8327 25.4684C45.0844 19.7359 53.214 19.7359 56.4658 25.4684L74.8247 57.8326C78.0765 63.5652 74.0117 70.7308 67.5081 70.7308H30.7904C24.2867 70.7308 20.222 63.5652 23.4738 57.8326L41.8327 25.4684Z" fill="#3376E7"/>
<path d="M51.9155 35.6237C54.325 31.3923 60.3488 31.3923 62.7584 35.6237L77.3284 61.2104C79.7379 65.4419 76.726 70.7311 71.9069 70.7311H42.7669C37.9478 70.7311 34.9359 65.4419 37.3454 61.2104L51.9155 35.6237Z" fill="#26F3A8"/>
<path d="M97.9199 57.168C106.624 57.168 110.488 53.4793 110.488 48.1177C110.488 42.6276 106.491 40.1826 100.718 39.0245L96.4988 38.1668C93.4789 37.5233 92.5019 36.4082 92.5019 34.8641C92.5019 33.0196 94.145 31.6471 97.8754 31.6471C101.872 31.6471 103.604 33.5772 103.782 35.8934H109.955C109.911 30.2745 104.937 26.3713 97.9643 26.3713C90.7699 26.3713 86.2401 29.8028 86.2401 34.8641C86.2401 40.3114 90.0594 42.4988 95.4329 43.6141L99.9624 44.5577C102.894 45.1582 104.226 46.2305 104.226 48.2464C104.226 50.5197 102.361 51.9352 97.9199 51.9352C94.1006 51.9352 91.6581 50.2623 91.3917 46.8739H85.2187C85.5296 53.0933 89.8373 57.168 97.9199 57.168Z" fill="#0A2128"/>
<path d="M112.946 66.6043H118.898V54.38H119.075C120.23 55.8383 122.14 57.168 125.47 57.168C131.465 57.168 134.929 52.2783 134.929 45.6729C134.929 38.8101 131.288 34.0919 125.47 34.0919C122.14 34.0919 120.23 35.4215 119.075 36.8799H118.898L118.276 34.4779H112.946V66.6043ZM123.782 52.1067C120.007 52.1067 118.675 49.1472 118.675 45.6729C118.675 42.1557 120.096 39.1532 123.782 39.1532C127.557 39.1532 128.89 42.1557 128.89 45.6729C128.89 49.1472 127.602 52.1067 123.782 52.1067Z" fill="#0A2128"/>
<path d="M137.302 56.782H142.941V45.8444C142.941 41.8126 144.984 39.4535 148.537 39.4535H150.625V34.1348H148.937C146.006 34.1348 143.963 35.7648 142.941 37.8665H142.764L142.32 34.478H137.302V56.782Z" fill="#0A2128"/>
<path d="M167.243 34.478V47.217C167.243 50.0479 165.999 51.8065 162.979 51.8065C159.915 51.8065 158.671 50.0479 158.671 47.217V34.478H152.72V48.1177C152.72 52.9217 155.918 57.168 162.935 57.168H162.979C169.952 57.168 173.194 52.9217 173.194 48.1177V34.478H167.243Z" fill="#0A2128"/>
<path d="M186.766 57.1679C193.294 57.1679 196.67 53.3935 197.025 48.3751H191.03C190.764 50.6054 189.209 52.1067 186.633 52.1067C183.258 52.1067 181.571 49.8334 181.571 45.63C181.571 41.4694 183.258 39.1532 186.633 39.1532C189.164 39.1532 190.764 40.6973 190.985 42.9706H196.98C196.67 37.9951 193.294 34.0919 186.633 34.0919C179.394 34.0919 175.486 38.853 175.486 45.63C175.486 52.4927 179.528 57.1679 186.766 57.1679Z" fill="#0A2128"/>
<path d="M209.254 57.1679C215.204 57.1679 218.979 53.8652 219.6 49.8334H213.783C213.339 51.2059 211.918 52.4069 209.254 52.4069C205.834 52.4069 204.235 50.2623 204.191 47.217H219.912V44.9866C219.912 38.8958 216.048 34.0919 209.165 34.0919C201.748 34.0919 198.107 39.3248 198.107 45.6729C198.107 52.1067 202.103 57.1679 209.254 57.1679ZM204.235 43.3995C204.368 40.8689 205.834 38.8958 209.165 38.8958C212.273 38.8958 213.739 40.8689 213.828 43.3995H204.235Z" fill="#0A2128"/>
</g>
<defs>
<clipPath id="clip0_213_143">
<rect width="209.912" height="61" fill="white" transform="translate(10 10)"/>
</clipPath>
</defs>
</svg>
