<svg width="235" height="81" viewBox="0 0 235 81" fill="none" xmlns="http://www.w3.org/2000/svg">
<path d="M35.5358 14.6525L11.2663 56.9387C8.28399 62.2116 10.8549 68.5184 15.9968 70.3793C15.5854 68.3115 15.8939 66.037 17.128 63.8658L42.1175 20.4423C44.2771 16.617 48.4934 15.0661 52.2984 15.7899L51.6813 14.6525C48.082 8.44917 39.1351 8.44917 35.5358 14.6525Z" fill="white"/>
<path d="M44.1742 24.7847L24.3266 59.4201C21.55 64.2793 24.7379 70.3793 30.0855 70.9997C30.0855 69.6555 30.394 68.2081 31.1138 66.8641L50.8586 32.4354C52.8125 29.127 56.6175 27.9897 59.8055 28.9202L57.4402 24.7847C54.5608 19.6152 47.1565 19.6152 44.1742 24.7847Z" fill="white"/>
<path d="M53.3267 35.3307L37.9011 62.1085C35.6387 66.0373 38.5181 71 43.043 71H64.9474H67.8267H70.7062H73.6885C78.2134 71 81.0928 66.0373 78.8304 62.1085L77.3907 59.4204L75.9509 56.939L69.7807 46.1866L63.6105 35.4341C61.2452 31.4019 55.5892 31.4019 53.3267 35.3307Z" fill="white"/>
<path d="M99.7803 58.1661C108.669 58.1661 112.614 54.3993 112.614 48.9243C112.614 43.318 108.533 40.8213 102.637 39.6387L98.329 38.7628C95.2452 38.1057 94.2476 36.967 94.2476 35.3902C94.2476 33.5067 95.9255 32.1052 99.7345 32.1052C103.816 32.1052 105.585 34.0761 105.767 36.4414H112.07C112.025 30.7036 106.946 26.7178 99.8251 26.7178C92.4789 26.7178 87.8533 30.2218 87.8533 35.3902C87.8533 40.9528 91.7534 43.1865 97.2406 44.3254L101.866 45.2889C104.86 45.9021 106.22 46.9972 106.22 49.0557C106.22 51.3771 104.316 52.8226 99.7803 52.8226C95.8801 52.8226 93.3859 51.1143 93.1139 47.6542H86.8102C87.1277 54.0052 91.5265 58.1661 99.7803 58.1661Z" fill="white"/>
<path d="M115.125 67.8021H121.202V55.3191H121.383C122.562 56.8083 124.512 58.1661 127.914 58.1661C134.036 58.1661 137.572 53.1729 137.572 46.4277C137.572 39.4198 133.854 34.6017 127.914 34.6017C124.512 34.6017 122.562 35.9595 121.383 37.4487H121.202L120.567 34.9959H115.125V67.8021ZM126.19 52.9977C122.335 52.9977 120.975 49.9756 120.975 46.4277C120.975 42.8361 122.426 39.7701 126.19 39.7701C130.044 39.7701 131.406 42.8361 131.406 46.4277C131.406 49.9756 130.09 52.9977 126.19 52.9977Z" fill="white"/>
<path d="M139.995 57.7719H145.755V46.6029C145.755 42.4858 147.84 40.0768 151.469 40.0768H153.6V34.6456H151.876C148.884 34.6456 146.798 36.31 145.755 38.4562H145.573L145.12 34.996H139.995V57.7719Z" fill="white"/>
<path d="M170.57 34.996V48.0046C170.57 50.8954 169.3 52.6911 166.216 52.6911C163.087 52.6911 161.817 50.8954 161.817 48.0046V34.996H155.74V48.9244C155.74 53.83 159.006 58.1661 166.171 58.1661H166.216C173.337 58.1661 176.646 53.83 176.646 48.9244V34.996H170.57Z" fill="white"/>
<path d="M190.507 58.1661C197.173 58.1661 200.62 54.3117 200.983 49.1871H194.86C194.588 51.4647 193.001 52.9977 190.37 52.9977C186.924 52.9977 185.201 50.6763 185.201 46.384C185.201 42.1354 186.924 39.7701 190.37 39.7701C192.955 39.7701 194.588 41.3469 194.815 43.6684H200.937C200.62 38.5875 197.173 34.6017 190.37 34.6017C182.979 34.6017 178.988 39.4635 178.988 46.384C178.988 53.3919 183.114 58.1661 190.507 58.1661Z" fill="white"/>
<path d="M213.469 58.1661C219.546 58.1661 223.401 54.7935 224.036 50.6763H218.095C217.642 52.0779 216.191 53.3043 213.469 53.3043C209.978 53.3043 208.345 51.1143 208.3 48.0045H224.354V45.727C224.354 39.5073 220.408 34.6017 213.379 34.6017C205.806 34.6017 202.086 39.9454 202.086 46.4277C202.086 52.9977 206.168 58.1661 213.469 58.1661ZM208.345 44.1063C208.481 41.5222 209.978 39.5073 213.379 39.5073C216.554 39.5073 218.05 41.5222 218.141 44.1063H208.345Z" fill="white"/>
</svg>
