<svg width="162" height="61" viewBox="0 0 162 61" fill="none" xmlns="http://www.w3.org/2000/svg">
<g clip-path="url(#clip0_213_143)">
<path d="M26.8161 13.488C29.1406 9.40024 34.9517 9.40025 37.2761 13.488L53.2742 41.6219C55.5986 45.7096 52.6931 50.8192 48.0442 50.8192H16.0481C11.3992 50.8192 8.49365 45.7096 10.8181 41.6219L26.8161 13.488Z" fill="#4C49E4"/>
<path d="M31.3957 20.3968C33.5813 16.5438 39.0455 16.5438 41.2311 20.3968L53.5707 42.1498C55.7564 46.0028 53.0243 50.819 48.653 50.819H23.9739C19.6026 50.819 16.8705 46.0028 19.0562 42.1498L31.3957 20.3968Z" fill="#3376E7"/>
<path d="M38.1727 27.2225C39.7922 24.3784 43.841 24.3784 45.4605 27.2225L55.2535 44.4201C56.873 47.2642 54.8486 50.8192 51.6096 50.8192H32.0236C28.7846 50.8192 26.7602 47.2642 28.3797 44.4201L38.1727 27.2225Z" fill="#26F3A8"/>
<path d="M69.0937 41.7031C74.944 41.7031 77.5409 39.2238 77.5409 35.6201C77.5409 31.93 74.8548 30.2867 70.9742 29.5083L68.1385 28.9317C66.1088 28.4992 65.4521 27.7497 65.4521 26.7119C65.4521 25.4722 66.5565 24.5497 69.0638 24.5497C71.7502 24.5497 72.9145 25.847 73.0339 27.4038H77.1827C77.1532 23.6271 73.8099 21.0037 69.1236 21.0037C64.288 21.0037 61.2434 23.31 61.2434 26.7119C61.2434 30.3732 63.8104 31.8435 67.4221 32.593L70.4666 33.2273C72.437 33.6309 73.3323 34.3516 73.3323 35.7066C73.3323 37.2345 72.0788 38.1859 69.0937 38.1859C66.5266 38.1859 64.8849 37.0616 64.7059 34.7841H60.5568C60.7658 38.9643 63.6612 41.7031 69.0937 41.7031Z" fill="#0A2128"/>
<path d="M79.1935 48.0455H83.1934V39.8292H83.3128C84.0888 40.8094 85.3725 41.7031 87.6112 41.7031C91.6406 41.7031 93.9686 38.4165 93.9686 33.9768C93.9686 29.3642 91.5213 26.1929 87.6112 26.1929C85.3725 26.1929 84.0888 27.0866 83.3128 28.0668H83.1934L82.7756 26.4524H79.1935V48.0455ZM86.4765 38.3012C83.9393 38.3012 83.0439 36.312 83.0439 33.9768C83.0439 31.6128 83.999 29.5948 86.4765 29.5948C89.0136 29.5948 89.9096 31.6128 89.9096 33.9768C89.9096 36.312 89.0438 38.3012 86.4765 38.3012Z" fill="#0A2128"/>
<path d="M95.5634 41.4436H99.3541V34.0921C99.3541 31.3822 100.727 29.7966 103.115 29.7966H104.518V26.2217H103.384C101.414 26.2217 100.041 27.3173 99.3541 28.7299H99.2347L98.9362 26.4524H95.5634V41.4436Z" fill="#0A2128"/>
<path d="M115.688 26.4524V35.0147C115.688 36.9175 114.852 38.0994 112.822 38.0994C110.762 38.0994 109.927 36.9175 109.927 35.0147V26.4524H105.927V35.6201C105.927 38.849 108.076 41.7031 112.792 41.7031H112.822C117.509 41.7031 119.688 38.849 119.688 35.6201V26.4524H115.688Z" fill="#0A2128"/>
<path d="M128.81 41.7031C133.198 41.7031 135.467 39.1661 135.705 35.7931H131.676C131.497 37.2922 130.452 38.3012 128.72 38.3012C126.452 38.3012 125.318 36.7733 125.318 33.948C125.318 31.1516 126.452 29.5948 128.72 29.5948C130.422 29.5948 131.497 30.6326 131.646 32.1606H135.675C135.467 28.8164 133.198 26.1929 128.72 26.1929C123.855 26.1929 121.228 29.393 121.228 33.948C121.228 38.5607 123.945 41.7031 128.81 41.7031Z" fill="#0A2128"/>
<path d="M143.925 41.7031C147.924 41.7031 150.461 39.4832 150.879 36.7733H146.969C146.67 37.6958 145.715 38.503 143.925 38.503C141.626 38.503 140.551 37.0616 140.522 35.0147H151.088V33.5156C151.088 29.4218 148.491 26.1929 143.865 26.1929C138.88 26.1929 136.433 29.7101 136.433 33.9768C136.433 38.3012 139.119 41.7031 143.925 41.7031ZM140.551 32.4489C140.641 30.748 141.626 29.4218 143.865 29.4218C145.954 29.4218 146.939 30.748 146.999 32.4489H140.551Z" fill="#0A2128"/>
</g>
<defs>
<clipPath id="clip0_213_143">
<rect width="141.088" height="41" fill="white" transform="translate(10 10)"/>
</clipPath>
</defs>
</svg>
