<svg width="139" height="61" viewBox="0 0 139 61" fill="none" xmlns="http://www.w3.org/2000/svg">
<path d="M26.3031 10.5437C27.5614 9.81876 29.1117 9.81876 30.3701 10.5437L44.6395 18.7646C45.898 19.4895 46.673 20.8292 46.673 22.2791V27.1674L38.5721 27.1697L31.3796 27.1721C31.0588 27.1721 30.7986 26.9125 30.7986 26.5923V19.1092C30.7986 18.8366 30.4556 18.7147 30.283 18.926L18.1022 33.8334L10 25.6886V22.2791C10 20.8292 10.7752 19.4895 12.0335 18.7646L26.3031 10.5437Z" fill="black"/>
<path d="M18.1022 33.8334L25.296 33.8402C25.6167 33.8404 25.8766 34.0999 25.8766 34.42V41.8969C25.8766 42.1698 26.2196 42.2916 26.3922 42.0802L38.5721 27.1697L46.673 35.31V38.7208C46.673 40.1708 45.898 41.5105 44.6395 42.2353L30.3701 50.4562C29.1117 51.1813 27.5614 51.1813 26.3031 50.4562L12.0335 42.2353C10.7752 41.5105 10 40.1708 10 38.7208V33.8333L18.1022 33.8334Z" fill="black"/>
<path d="M56.0723 38.4115C57.4559 39.4254 59.358 39.9323 61.7794 39.9323C63.3358 39.9323 64.687 39.695 65.8325 39.2205C66.9783 38.7459 67.8646 38.088 68.4916 37.2467C69.1402 36.3839 69.4642 35.37 69.4642 34.2051C69.4642 32.6305 68.8697 31.3793 67.6808 30.4518C66.5135 29.5242 64.8923 28.9526 62.8169 28.7368L61.2605 28.5751C60.3093 28.4672 59.6175 28.2623 59.1852 27.9603C58.7746 27.6583 58.569 27.2269 58.569 26.666C58.569 26.0836 58.8284 25.609 59.3473 25.2423C59.8663 24.8756 60.6012 24.6923 61.5524 24.6923C62.6116 24.6923 63.4221 24.908 63.9842 25.3394C64.5462 25.7708 64.8491 26.2885 64.8923 26.8925H68.9456C68.8807 25.059 68.1783 23.6676 66.8378 22.7185C65.4974 21.7694 63.7464 21.2948 61.5848 21.2948C60.2013 21.2948 58.9692 21.5105 57.8882 21.9419C56.829 22.3518 55.9965 22.9666 55.3913 23.7863C54.7861 24.606 54.4835 25.6198 54.4835 26.8278C54.4835 28.3378 55.0131 29.5458 56.0723 30.4518C57.1316 31.3578 58.6449 31.9186 60.6119 32.1343L62.1683 32.2961C63.3358 32.404 64.1573 32.6305 64.6328 32.9756C65.13 33.3207 65.3787 33.7845 65.3787 34.3669C65.3787 35.0356 65.0544 35.5641 64.4058 35.9524C63.7789 36.3407 62.9249 36.5348 61.8443 36.5348C60.547 36.5348 59.5961 36.2868 58.9906 35.7906C58.3854 35.2945 58.0504 34.7444 57.9855 34.1404H53.9322C53.997 35.9524 54.7105 37.3761 56.0723 38.4115Z" fill="black"/>
<path d="M71.4618 31.0861V22.3259H75.6932V31.0861C75.6932 33.4983 77.6529 35.4538 80.07 35.4538C82.4874 35.4538 84.4471 33.4983 84.4471 31.0861V22.3259H88.6785V31.0861C88.6785 35.8302 84.8243 39.6761 80.07 39.6761C75.316 39.6761 71.4618 35.8302 71.4618 31.0861Z" fill="black"/>
<path fill-rule="evenodd" clip-rule="evenodd" d="M100.241 21.7592C98.1923 21.7592 96.4187 22.1578 95.0033 23.0616L94.8867 23.136V22.4015H91.2813V34.7681H91.2877V45.0012H95.0908V37.8417L95.5103 38.106C96.8791 38.9686 98.5013 39.4679 100.241 39.4679C105.142 39.4679 109.114 35.5037 109.114 30.6136C109.114 25.7234 105.142 21.7592 100.241 21.7592ZM95.1706 30.6136C95.1706 27.8194 97.4406 25.5541 100.241 25.5541C103.041 25.5541 105.311 27.8194 105.311 30.6136C105.311 33.4078 103.041 35.6729 100.241 35.6729C97.4406 35.6729 95.1706 33.4078 95.1706 30.6136Z" fill="black"/>
<path fill-rule="evenodd" clip-rule="evenodd" d="M128.621 22.4015V34.7681H128.614V39.266H124.811V37.8417L124.392 38.106C123.023 38.9686 121.401 39.4679 119.661 39.4679C114.761 39.4679 110.788 35.5037 110.788 30.6136C110.788 25.7234 114.761 21.7592 119.661 21.7592C121.705 21.7592 123.479 22.303 124.896 23.285L125.015 23.3674V22.4015H128.621ZM119.661 25.5541C116.861 25.5541 114.591 27.8194 114.591 30.6136C114.591 33.4078 116.861 35.6729 119.661 35.6729C122.461 35.6729 124.732 33.4078 124.732 30.6136C124.732 27.8194 122.461 25.5541 119.661 25.5541Z" fill="black"/>
</svg>
