<svg width="177" height="61" viewBox="0 0 177 61" fill="none" xmlns="http://www.w3.org/2000/svg">
<g clip-path="url(#clip0_706_134)">
<path d="M74.7494 45.8345C72.4927 45.8345 70.2292 45.4174 67.9588 44.5831C65.6886 43.7488 63.767 42.6479 62.1941 41.2802L65.8868 35.7821C67.1314 36.8626 68.547 37.7379 70.1335 38.4081C71.7336 39.0646 73.2586 39.3928 74.7084 39.3928C75.9119 39.3928 76.924 39.174 77.7445 38.7363C78.5789 38.2986 78.9959 37.7174 78.9959 36.9926C78.9959 36.7327 78.9413 36.5002 78.8318 36.295C78.7225 36.0898 78.5377 35.8984 78.2779 35.7206C78.0181 35.5428 77.7582 35.3923 77.4984 35.2692C77.2386 35.1325 76.8624 34.9889 76.3701 34.8384C75.8914 34.6881 75.4742 34.5717 75.1187 34.4897C74.7767 34.394 74.2775 34.264 73.621 34.0999C66.7826 32.4313 63.3634 29.2788 63.3634 24.6424C63.3634 21.9755 64.4098 19.8419 66.5023 18.2418C68.5948 16.6279 71.3575 15.821 74.7904 15.821C76.9376 15.821 78.9208 16.1492 80.7398 16.8057C82.5725 17.4622 84.0632 18.3238 85.212 19.3906L81.8886 24.9091C81.0133 24.1159 79.926 23.48 78.6267 23.0012C77.3274 22.5089 76.0213 22.2627 74.7084 22.2627C73.5594 22.2627 72.6226 22.461 71.8978 22.8576C71.1729 23.2543 70.8105 23.7672 70.8105 24.3962C70.8105 25.0665 71.2344 25.6204 72.0824 26.058C72.944 26.4956 74.1271 26.8923 75.6315 27.2479C76.1375 27.3573 76.6026 27.4736 77.0265 27.5966C77.4642 27.7061 78.0659 27.8975 78.8318 28.1711C79.6114 28.4309 80.309 28.7181 80.9244 29.0327C81.5535 29.3473 82.2237 29.7576 82.9349 30.2636C83.646 30.7697 84.2342 31.3167 84.6991 31.9048C85.1778 32.4929 85.5745 33.2041 85.889 34.0384C86.2173 34.8727 86.3814 35.7616 86.3814 36.7054C86.3814 38.4833 85.8685 40.0767 84.8427 41.4853C83.817 42.8804 82.422 43.954 80.6577 44.7062C78.8934 45.4584 76.924 45.8345 74.7494 45.8345Z" fill="white"/>
<path d="M106.63 43.3522C104.756 45.0071 102.274 45.8345 99.1828 45.8345C96.0919 45.8345 93.6095 45.0071 91.7358 43.3522C89.8621 41.6837 88.9253 39.4817 88.9253 36.7464V23.9039H95.7362V35.7821C95.7362 36.8216 96.0508 37.6558 96.6799 38.285C97.3228 38.9141 98.1571 39.2287 99.1828 39.2287C100.209 39.2287 101.036 38.9141 101.665 38.285C102.308 37.6558 102.629 36.8216 102.629 35.7821V23.9039H109.44V36.7464C109.44 39.4817 108.504 41.6837 106.63 43.3522Z" fill="white"/>
<path d="M121.236 45.8345C117.803 45.8345 114.699 44.7678 111.923 42.6341L114.938 38.3465C116.922 39.8373 118.952 40.5827 121.031 40.5827C121.934 40.5827 122.659 40.4596 123.206 40.2134C123.753 39.9536 124.026 39.5979 124.026 39.1466C124.026 38.6816 123.739 38.326 123.165 38.0799C122.604 37.8337 121.729 37.5874 120.539 37.3412C119.91 37.2045 119.403 37.0951 119.021 37.013C118.652 36.9173 118.153 36.7668 117.524 36.5617C116.894 36.3565 116.382 36.1514 115.985 35.9462C115.602 35.7274 115.164 35.4402 114.672 35.0846C114.193 34.729 113.817 34.3461 113.543 33.9358C113.283 33.5118 113.058 33.0058 112.866 32.4177C112.675 31.8159 112.579 31.1594 112.579 30.4482C112.579 28.9165 112.996 27.6103 113.83 26.5298C114.665 25.4494 115.759 24.6561 117.112 24.1501C118.467 23.6441 119.999 23.391 121.709 23.391C124.868 23.391 127.767 24.3142 130.407 26.1605L127.371 30.4482C125.442 29.2447 123.637 28.6429 121.955 28.6429C121.189 28.6429 120.56 28.7455 120.068 28.9506C119.589 29.1558 119.349 29.4704 119.349 29.8943C119.349 30.3456 119.623 30.6944 120.17 30.9405C120.716 31.1731 121.592 31.4124 122.796 31.6586C123.383 31.768 123.883 31.8706 124.294 31.9663C124.704 32.0621 125.21 32.2057 125.812 32.3972C126.413 32.5886 126.92 32.7937 127.33 33.0126C127.753 33.2314 128.198 33.5186 128.663 33.8742C129.128 34.2161 129.504 34.5991 129.792 35.0231C130.079 35.447 130.311 35.96 130.489 36.5617C130.68 37.1498 130.776 37.7994 130.776 38.5107C130.776 40.822 129.88 42.6205 128.088 43.9061C126.311 45.1917 124.026 45.8345 121.236 45.8345Z" fill="white"/>
<path d="M146.758 23.391C149.178 23.391 151.127 24.1227 152.604 25.5861C154.094 27.0495 154.841 28.9916 154.841 31.4124V45.3217H148.03V33.6896C148.03 32.5681 147.708 31.6723 147.065 31.0021C146.422 30.3182 145.568 29.9763 144.5 29.9763C143.325 29.9763 142.374 30.3251 141.649 31.0226C140.938 31.7201 140.582 32.6365 140.582 33.7717V45.3217H133.791V15.0619H140.582V25.9143C142.223 24.2321 144.282 23.391 146.758 23.391Z" fill="white"/>
<path d="M162.369 21.5857C161.193 21.5857 160.209 21.196 159.415 20.4163C158.622 19.6231 158.225 18.6384 158.225 17.4622C158.225 16.2586 158.622 15.2671 159.415 14.4875C160.209 13.6942 161.193 13.2976 162.369 13.2976C163.573 13.2976 164.565 13.6942 165.344 14.4875C166.137 15.2671 166.534 16.2586 166.534 17.4622C166.534 18.6384 166.137 19.6231 165.344 20.4163C164.565 21.196 163.573 21.5857 162.369 21.5857ZM158.985 45.3217V23.9039H165.774V45.3217H158.985Z" fill="white"/>
<path fill-rule="evenodd" clip-rule="evenodd" d="M44.1681 27.3622C44.6497 28.4323 44.7755 29.377 44.2938 30.0277C43.833 30.6776 42.8905 30.8672 41.7381 30.762C39.6634 30.5939 36.9398 29.4608 34.2998 27.572C31.6598 25.6825 29.7114 23.4579 28.894 21.5477C28.4332 20.4776 28.3074 19.5329 28.7684 18.8822C29.2298 18.2316 30.1722 18.0427 31.3454 18.127C33.3982 18.316 36.1438 19.4283 38.7624 21.3177C41.4024 23.2066 43.3508 25.452 44.1681 27.3622Z" fill="white"/>
<path fill-rule="evenodd" clip-rule="evenodd" d="M53.76 30.3681C53.6455 30.036 53.5139 29.6984 53.3656 29.3568C51.6479 25.3687 47.6041 20.6463 42.0934 16.6796C36.5626 12.7332 30.8217 10.4035 26.4848 10.0464C23.3419 9.79443 20.9118 10.571 19.6544 12.3339L11.0014 24.424C9.74457 26.1869 9.78609 28.7471 11.0429 31.6438C12.1924 34.2789 14.3383 37.2343 17.2582 40.075C18.8419 41.6098 20.5394 43.0227 22.336 44.3002C27.8461 48.2668 33.6082 50.5758 37.9451 50.9537C41.0666 51.2056 43.518 50.429 44.7755 48.6661L53.4077 36.576C54.5163 35.0211 54.6148 32.8463 53.7606 30.3675L53.76 30.3681ZM52.2132 35.6948L52.1504 35.7994C51.1242 37.122 49.1752 37.5622 46.7025 37.374C42.5755 37.0383 37.107 34.7917 31.8484 31.0139C26.5892 27.2362 22.7132 22.7657 21.0578 18.9458C20.0732 16.679 19.8632 14.685 20.8063 13.2786L20.849 13.1948C21.8543 11.7891 23.8449 11.3268 26.3591 11.5365C30.4866 11.8722 35.9545 14.1182 41.2138 17.8959C46.4932 21.6736 50.3697 26.1448 52.0252 29.9438C53.0097 32.2528 53.2191 34.3092 52.2132 35.6948Z" fill="white"/>
</g>
<defs>
<clipPath id="clip0_706_134">
<rect width="156.62" height="41" fill="white" transform="translate(10 10)"/>
</clipPath>
</defs>
</svg>
