<svg width="337" height="61" viewBox="0 0 337 61" fill="none" xmlns="http://www.w3.org/2000/svg">
<path fill-rule="evenodd" clip-rule="evenodd" d="M34.6794 27.7173L45.7089 16.6949L44.3275 15.3145L33.2918 26.3429L39.2641 11.9328L37.4592 11.1856L31.4887 25.5915V10H29.535V25.5927L23.5639 11.1856L21.759 11.9328L27.7287 26.3364L16.6996 15.3145L15.3181 16.6949L26.3479 27.7177L11.9339 21.7515L11.1864 23.5552L25.6021 29.5222H10V31.4746H25.6021L11.1864 37.4415L11.9339 39.2453L26.3535 33.2768L15.3181 44.305L16.6996 45.6856L27.7287 34.6635L21.759 49.0673L23.5639 49.8144L29.535 35.4073V51H31.4887V35.4086L37.4592 49.8144L39.2641 49.0673L33.2918 34.657L44.3275 45.6856L45.7089 44.305L34.6739 33.2772L49.0925 39.2453L49.8401 37.4415L35.4244 31.4746H51.0266V29.5222H35.4244L49.8401 23.5552L49.0925 21.7515L34.6794 27.7173Z" fill="black"/>
<path d="M75.8584 47.0951C83.6595 47.0951 87.8888 43.1287 87.8888 37.6121C87.8888 32.7338 84.0351 29.7705 78.678 28.585L74.1199 27.5821C70.3608 26.7159 68.6223 25.3481 68.6223 22.6126C68.6223 19.6947 71.0662 17.5976 75.2477 17.5976C80.6048 17.5976 82.6254 20.9713 83.3776 23.0685L87.3718 21.2905C86.3844 18.2358 82.8605 13.9047 75.6243 13.9047C68.9042 13.9047 64.3931 17.6432 64.3931 22.8405C64.3931 28.1292 67.9175 30.4999 72.8048 31.5485L77.316 32.5971C81.3571 33.4634 83.4244 35.1502 83.4244 37.9769C83.4244 41.1683 80.7931 43.3567 76.0936 43.3567C71.0184 43.3567 68.0583 40.3476 66.8836 36.6092L62.7484 38.4328C64.3461 43.4023 68.7637 47.0951 75.8584 47.0951Z" fill="black"/>
<path d="M107.03 46.4569V32.825L118.59 14.543H113.562L107.923 24.026C106.372 26.6702 105.95 28.4939 105.902 30.7279H104.023C103.976 28.5395 103.506 26.7158 101.908 24.0715L95.9878 14.543H90.9127L102.801 32.9618V46.4569H107.03Z" fill="black"/>
<path d="M129.047 46.4569V27.6733C129.047 23.6156 128.483 21.4272 127.261 19.0109L128.859 18.0079L147.514 46.4569H152.918V14.543H148.689V32.5971C148.689 36.4267 149.112 38.068 150.662 40.4844L149.065 41.5786L131.35 14.543H124.818V46.4569H129.047Z" fill="black"/>
<path d="M173.394 46.4569C183.356 46.4569 189.558 40.3476 189.558 30.4087C189.558 20.789 183.121 14.543 173.581 14.543H162.539V46.4569H173.394ZM166.768 18.327H173.017C181.147 18.327 185.095 23.1141 185.095 30.4087C185.095 38.3872 181.054 42.6727 172.735 42.6727H166.768V18.327Z" fill="black"/>
<path d="M201.185 46.4569V14.543H196.956V46.4569H201.185Z" fill="black"/>
<path d="M224.441 47.0951C232.617 47.0951 237.222 42.4448 238.82 37.3842L234.685 35.834C233.369 39.755 230.784 43.3567 224.441 43.3567C217.486 43.3567 213.022 37.8857 213.022 30.1352C213.022 22.3846 217.533 17.6432 224.441 17.6432C230.926 17.6432 233.557 21.9287 234.497 24.801L238.726 23.2965C237.458 19.1021 232.946 13.9047 224.441 13.9047C214.854 13.9047 208.511 20.8802 208.511 30.1808C208.511 39.527 214.244 47.0951 224.441 47.0951Z" fill="black"/>
<path d="M271.824 46.4569L259.653 14.543H253.826L241.421 46.4569H246.026L249.268 37.7033H263.883L267.078 46.4569H271.824ZM254.202 24.3451C255.142 21.8831 255.565 20.105 255.659 17.4152H257.538C257.586 20.105 258.055 21.8831 258.948 24.3451L262.473 33.9649H250.631L254.202 24.3451Z" fill="black"/>
<path d="M285.933 46.4569V18.327H298.104V14.543H269.956V18.327H281.704V46.4569H285.933Z" fill="black"/>
<path d="M326.491 46.4569V42.6727H307.694V31.7764H321.651V28.038H307.694V18.327H326.491V14.543H303.465V46.4569H326.491Z" fill="black"/>
</svg>
