<svg width="337" height="61" viewBox="0 0 337 61" fill="none" xmlns="http://www.w3.org/2000/svg">
<path fill-rule="evenodd" clip-rule="evenodd" d="M34.6674 27.7172L45.6914 16.6949L44.3107 15.3143L33.2804 26.3429L39.2499 11.9327L37.4458 11.1856L31.4782 25.5914V10H29.5255V25.5927L23.5573 11.1856L21.7533 11.9327L27.72 26.3364L16.6963 15.3143L15.3155 16.6949L26.3399 27.7176L11.933 21.7514L11.1858 23.5553L25.5945 29.5222H10V31.4746H25.5945L11.1858 37.4415L11.933 39.2452L26.3455 33.2767L15.3155 44.305L16.6963 45.6855L27.72 34.6635L21.7533 49.0672L23.5573 49.8144L29.5255 35.4073V51H31.4782V35.4085L37.4458 49.8144L39.2499 49.0672L33.2804 34.657L44.3107 45.6855L45.6914 44.305L34.6618 33.2771L49.0734 39.2452L49.8206 37.4415L35.412 31.4746H51.0065V29.5222H35.412L49.8206 23.5553L49.0734 21.7514L34.6674 27.7172Z" fill="white"/>
<path d="M75.8263 47.0952C83.6235 47.0952 87.8508 43.1288 87.8508 37.6122C87.8508 32.7339 83.999 29.7705 78.6444 28.5851L74.0886 27.5821C70.3313 26.7159 68.5936 25.3481 68.5936 22.6126C68.5936 19.6948 71.0364 17.5976 75.2158 17.5976C80.5703 17.5976 82.5899 20.9714 83.3417 23.0685L87.334 21.2905C86.3471 18.2359 82.8249 13.9047 75.5922 13.9047C68.8754 13.9047 64.3666 17.6432 64.3666 22.8406C64.3666 28.1292 67.8892 30.5 72.7741 31.5485L77.2831 32.5971C81.3222 33.4634 83.3885 35.1502 83.3885 37.9769C83.3885 41.1683 80.7586 43.3567 76.0613 43.3567C70.9886 43.3567 68.03 40.3477 66.8558 36.6092L62.7227 38.4328C64.3196 43.4023 68.735 47.0952 75.8263 47.0952Z" fill="white"/>
<path d="M106.982 46.4568V32.8251L118.537 14.543H113.511L107.875 24.026C106.325 26.6702 105.903 28.4939 105.855 30.7279H103.977C103.93 28.5395 103.46 26.7158 101.863 24.0716L95.9458 14.543H90.8731L102.755 32.9618V46.4568H106.982Z" fill="white"/>
<path d="M128.989 46.4568V27.6733C128.989 23.6156 128.425 21.4273 127.204 19.0109L128.801 18.0079L147.447 46.4568H152.848V14.543H148.621V32.5971C148.621 36.4268 149.044 38.0681 150.593 40.4845L148.997 41.5786L131.29 14.543H124.762V46.4568H128.989Z" fill="white"/>
<path d="M173.314 46.4568C183.271 46.4568 189.47 40.3477 189.47 30.4088C189.47 20.789 183.036 14.543 173.501 14.543H162.465V46.4568H173.314ZM166.691 18.3271H172.938C181.064 18.3271 185.009 23.1141 185.009 30.4088C185.009 38.3872 180.97 42.6728 172.656 42.6728H166.691V18.3271Z" fill="white"/>
<path d="M201.092 46.4568V14.543H196.864V46.4568H201.092Z" fill="white"/>
<path d="M224.336 47.0952C232.509 47.0952 237.111 42.4448 238.708 37.3842L234.575 35.8341C233.26 39.755 230.676 43.3567 224.336 43.3567C217.384 43.3567 212.923 37.8857 212.923 30.1353C212.923 22.3847 217.432 17.6432 224.336 17.6432C230.818 17.6432 233.448 21.9288 234.387 24.801L238.614 23.2966C237.346 19.1021 232.837 13.9047 224.336 13.9047C214.754 13.9047 208.414 20.8802 208.414 30.1808C208.414 39.5271 214.144 47.0952 224.336 47.0952Z" fill="white"/>
<path d="M271.696 46.4568L259.531 14.543H253.707L241.308 46.4568H245.91L249.151 37.7034H263.759L266.952 46.4568H271.696ZM254.083 24.3451C255.022 21.8832 255.445 20.1051 255.539 17.4153H257.417C257.465 20.1051 257.934 21.8832 258.826 24.3451L262.349 33.9649H250.513L254.083 24.3451Z" fill="white"/>
<path d="M285.798 46.4568V18.3271H297.963V14.543H269.829V18.3271H281.571V46.4568H285.798Z" fill="white"/>
<path d="M326.336 46.4568V42.6728H307.549V31.7765H321.498V28.038H307.549V18.3271H326.336V14.543H303.322V46.4568H326.336Z" fill="white"/>
</svg>
