<svg width="194" height="61" viewBox="0 0 194 61" fill="none" xmlns="http://www.w3.org/2000/svg">
<path d="M171.657 37.5006C174.608 37.5006 177.333 35.3564 177.333 31.1149C177.333 26.8736 174.608 24.7291 171.657 24.7291C168.706 24.7291 165.982 26.8736 165.982 31.1149C165.982 35.3564 168.706 37.5006 171.657 37.5006ZM171.657 19.2126C178.331 19.2126 183.371 24.184 183.371 31.1149C183.371 38.0459 178.333 43.0172 171.657 43.0172C164.981 43.0172 159.943 38.0008 159.943 31.1149C159.943 24.2291 164.981 19.2126 171.657 19.2126Z" fill="black"/>
<path d="M141.448 51.0001H135.41V19.8975H141.267V22.6342C142.267 20.902 144.763 19.3953 148.122 19.3953C154.661 19.3953 158.428 24.4116 158.428 31.07C158.428 37.7284 154.206 42.8821 147.896 42.8821C144.808 42.8821 142.539 41.65 141.448 40.1453V51.0001ZM152.482 31.1151C152.482 27.1484 150.03 24.8216 146.942 24.8216C143.856 24.8216 141.359 27.1484 141.359 31.1151C141.359 35.0819 143.857 37.4537 146.942 37.4537C150.029 37.4537 152.482 35.127 152.482 31.1151Z" fill="black"/>
<path d="M105.169 42.3366H99.1305V19.8973H104.896V22.634C106.122 20.4447 108.981 19.2598 111.435 19.2598C114.477 19.2598 116.928 20.582 118.063 22.999C119.835 20.2622 122.194 19.2598 125.145 19.2598C129.276 19.2598 133.226 21.7689 133.226 27.7877V42.3366H127.369V29.0198C127.369 26.6028 126.19 24.7783 123.418 24.7783C120.83 24.7783 119.288 26.7853 119.288 29.2023V42.3366H113.294V29.0198C113.294 26.6028 112.067 24.7783 109.345 24.7783C106.622 24.7783 105.169 26.7402 105.169 29.2023V42.3366Z" fill="black"/>
<path d="M81.1631 28.5628H91.1509C91.0611 26.3283 89.608 24.1388 86.157 24.1388C83.0244 24.1388 81.2998 26.5107 81.1631 28.5628ZM91.7427 34.3991L96.7815 35.9038C95.6467 39.7803 92.106 43.0173 86.6121 43.0173C80.4835 43.0173 75.0794 38.5934 75.0794 31.0227C75.0794 23.8621 80.3468 19.2107 86.0672 19.2107C92.9672 19.2107 97.0999 23.6347 97.0999 30.8403C97.0999 31.7075 97.0081 32.6197 97.0081 32.7099H81.0264C81.1631 35.6742 83.6591 37.8185 86.657 37.8185C89.4713 37.8185 91.0162 36.404 91.7427 34.3991Z" fill="black"/>
<path d="M79.8284 15.9737H69.6591V42.3346H63.3488V15.9737H53.1773V10H79.8284V15.9737Z" fill="black"/>
<path fill-rule="evenodd" clip-rule="evenodd" d="M42.2234 42.3684H10V10H42.2234V42.3684ZM20.9789 18.9823C20.7834 18.9823 20.61 19.108 20.5483 19.2943L19.1635 23.4679C19.1119 23.6234 19.2271 23.7838 19.3901 23.7838H23.4112C23.5742 23.7838 23.6894 23.9442 23.6378 24.0997L20.6611 33.0702C20.6095 33.2258 20.7247 33.3861 20.8877 33.3861H25.1999C25.3954 33.3861 25.5687 33.2603 25.6305 33.0741L28.6101 24.0955C28.6717 23.9093 28.8452 23.7835 29.0407 23.7835H33.0703C33.2659 23.7835 33.4395 23.6576 33.5012 23.4714L34.8857 19.2982C34.9374 19.1426 34.8222 18.9823 34.6591 18.9823H20.9789Z" fill="black"/>
</svg>
