<svg width="274" height="61" viewBox="0 0 274 61" fill="none" xmlns="http://www.w3.org/2000/svg">
<path fill-rule="evenodd" clip-rule="evenodd" d="M133.831 13.89C131.772 13.89 130.083 15.5577 130.083 17.6841C130.083 19.7688 131.772 21.4365 133.831 21.4365C135.89 21.4365 137.579 19.7688 137.579 17.6841C137.579 15.5577 135.89 13.89 133.831 13.89ZM137.126 23.3543H130.577V45.827H137.126V23.3543ZM92.359 14.7239H98.7422V23.3545H103.643V29.3584H98.7422V37.2801C98.7422 38.4475 99.6486 39.3647 100.76 39.3647H103.602V45.7438H100.76C96.1478 45.7438 92.359 41.9497 92.359 37.2384V29.3166H89.3939V23.3128H92.359V14.7239ZM119.252 22.8542C116.287 22.8542 113.939 24.1049 113.033 26.0646V14.7239H106.485V45.7855H113.033V33.1941C113.033 30.5675 114.721 28.7329 117.11 28.7329C119.54 28.7329 120.899 30.3173 120.899 32.9857V45.8272H127.448V32.1518C127.448 26.3147 124.482 22.8542 119.252 22.8542ZM146.474 23.3127V26.398C147.463 24.1465 149.851 22.854 152.857 22.8124C153.31 22.8124 153.887 22.854 154.587 22.9374V29.1915C153.928 29.0663 153.187 28.983 152.405 28.983C148.657 28.983 146.474 31.1093 146.474 34.82V45.7854H139.926V23.3127H146.474ZM172.996 26.273C172.338 24.3134 169.743 22.9376 166.407 22.9376C163.277 22.9376 160.641 24.0633 158.541 26.3147C156.482 28.5245 155.411 31.3179 155.411 34.57C155.411 37.8221 156.482 40.5739 158.541 42.867C160.641 45.0767 163.277 46.2025 166.407 46.2025C169.743 46.2025 172.338 44.8266 172.996 42.867V45.8272H179.544V14.7239H172.996V26.273ZM171.678 38.5726C170.566 39.6566 169.207 40.1569 167.601 40.1569C166.036 40.1569 164.677 39.6149 163.606 38.5726C162.495 37.4469 161.959 36.1127 161.959 34.57C161.959 33.0273 162.495 31.6932 163.606 30.6091C164.718 29.4834 166.036 28.9414 167.601 28.9414C169.249 28.9414 170.607 29.4834 171.678 30.6091C172.832 31.6932 173.408 33.0273 173.408 34.57C173.408 36.1127 172.832 37.4469 171.678 38.5726ZM198.449 23.4377L204.379 34.1112L208.374 23.3543H214.799L205.656 47.1195L198.449 34.1946L191.241 47.1195L182.14 23.3543H188.565L192.518 34.1112L198.449 23.4377ZM225.588 22.8124C222.211 22.8124 219.369 23.8964 217.145 26.0644C214.963 28.1908 213.851 31.0259 213.851 34.5282V34.7366C213.851 38.2389 214.963 41.0741 217.145 43.2004C219.411 45.2851 222.293 46.3691 225.918 46.3691C229.295 46.3691 232.054 45.702 234.154 44.3261V38.5307C232.095 39.99 229.459 40.6988 226.288 40.6988C222.829 40.6988 220.564 38.9894 220.44 36.321H236.708C236.79 35.6539 236.831 34.9034 236.831 34.153C236.831 30.9426 235.761 28.2742 233.701 26.1061C231.642 23.8964 228.883 22.8124 225.588 22.8124ZM220.44 32.0266C220.482 30.9842 221.017 30.1087 222.005 29.3999C223.035 28.6911 224.188 28.3159 225.588 28.3159C228.183 28.3159 230.201 30.0253 230.201 32.0266H220.44ZM252.44 22.9375C255.57 22.9375 258.206 24.0633 260.265 26.3147C262.365 28.5661 263.436 31.2762 263.436 34.5283C263.436 37.7804 262.365 40.5322 260.265 42.8253C258.206 45.0351 255.57 46.1608 252.44 46.1608C249.104 46.1608 246.509 44.7849 245.851 42.8253V45.7855H239.303V14.7239H245.851V26.273C246.509 24.3134 249.104 22.9375 252.44 22.9375ZM251.246 40.1569C252.811 40.1569 254.129 39.6566 255.241 38.5726C256.352 37.4469 256.888 36.1127 256.888 34.57C256.888 33.0273 256.352 31.6931 255.241 30.6091C254.17 29.4834 252.811 28.9414 251.246 28.9414C249.64 28.9414 248.28 29.4834 247.127 30.6091C246.015 31.6931 245.439 33.0273 245.439 34.57C245.439 36.1127 246.015 37.4469 247.127 38.5726C248.239 39.6149 249.598 40.1569 251.246 40.1569Z" fill="white"/>
<path d="M45.521 10C45.9344 10.0859 46.3246 10.2597 46.6654 10.5095C47.0469 10.8116 47.339 11.2119 47.5107 11.6677C48.5941 14.3784 49.6775 17.0874 50.7609 19.7949C51.9599 22.8059 53.1649 25.8175 54.3758 28.8296C55.0069 30.4089 55.6347 31.9898 56.2756 33.5657C56.4119 33.8881 56.4821 34.2346 56.4821 34.5847C56.4821 34.9348 56.4119 35.2813 56.2756 35.6037L50.7691 49.3401C50.4045 50.2493 49.744 50.8145 48.7728 50.9619C47.5646 51.1438 46.4839 50.5475 46.0474 49.4875C45.0141 46.9467 44.0037 44.3976 42.9852 41.8502L37.8057 28.8919C36.2721 25.0464 34.7364 21.2021 33.1984 17.3589C32.6883 16.0827 32.1946 14.7999 31.6616 13.5337C31.5148 13.1893 31.4454 12.8169 31.4582 12.4427C31.4711 12.0685 31.5659 11.7017 31.7359 11.3683C31.9059 11.0349 32.147 10.743 32.4422 10.5134C32.7373 10.2837 33.0792 10.1219 33.4437 10.0393C33.4878 10.0295 33.5303 10.0131 33.5728 10H45.521Z" fill="white"/>
<path d="M24.0617 10C24.1974 10.0377 24.3332 10.0704 24.4655 10.1163C24.8103 10.224 25.1266 10.4079 25.3912 10.6542C25.6557 10.9006 25.8618 11.2033 25.9942 11.5399C27.1768 14.4756 28.354 17.4135 29.5257 20.3535C30.7116 23.3176 31.8974 26.2822 33.0833 29.2474C33.6632 30.701 34.2457 32.1541 34.8311 33.6067C34.9621 33.9178 35.0296 34.252 35.0296 34.5896C35.0296 34.9272 34.9621 35.2615 34.8311 35.5726C34.1771 37.2042 33.5231 38.8353 32.8691 40.4659C31.6702 43.4507 30.4712 46.4356 29.2723 49.4204C29.084 49.8851 28.7622 50.2834 28.3477 50.5645C27.9332 50.8457 27.4447 50.9972 26.9441 50.9996C26.4138 51.009 25.8936 50.854 25.4546 50.5558C25.0156 50.2575 24.6793 49.8306 24.4917 49.3335C23.3832 46.5207 22.2519 43.7161 21.1303 40.9082C19.6272 37.1065 18.1166 33.3074 16.5982 29.5111C15.0527 25.6471 13.5076 21.7826 11.9632 17.9175C11.3779 16.4546 10.7975 14.9884 10.204 13.5271C9.9447 12.9182 9.93212 12.2321 10.169 11.6141C10.4058 10.9961 10.8734 10.4948 11.4727 10.2163C11.6901 10.1282 11.9136 10.0559 12.1414 10H24.0617Z" fill="white"/>
<path d="M77.5241 34.9838C77.1973 36.0896 76.7071 37.1331 76.2897 38.1996C75.0837 41.2336 73.8704 44.2659 72.6505 47.2966C72.3709 47.9912 72.0863 48.6842 71.8151 49.3821C71.6239 49.8589 71.2944 50.2674 70.8692 50.5546C70.444 50.8418 69.9427 50.9944 69.4297 50.9928C68.9167 50.9912 68.4165 50.8355 67.993 50.5456C67.5695 50.2559 67.2422 49.8454 67.0543 49.3673L61.7605 36.1272L57.1826 24.6909C55.6883 20.9568 54.1951 17.2233 52.7029 13.4904C52.561 13.1491 52.4956 12.7807 52.5113 12.4113C52.527 12.0419 52.6233 11.6804 52.7935 11.3524C52.9637 11.0243 53.2037 10.7377 53.4966 10.5127C53.7894 10.2877 54.1279 10.1298 54.4883 10.0501C54.5373 10.0387 54.5847 10.0223 54.6338 10.0076H66.5819C66.6191 10.019 66.6552 10.0337 66.693 10.042C67.1121 10.1296 67.5023 10.3218 67.8274 10.6006C68.1525 10.8796 68.4026 11.2362 68.5532 11.6376C69.2491 13.385 69.9455 15.1275 70.643 16.8651C72.4687 21.4281 74.2928 25.9911 76.1152 30.554C76.5943 31.7565 77.1273 32.9377 77.5197 34.1729L77.5241 34.9838Z" fill="white"/>
</svg>
