<svg width="476" height="94" viewBox="0 0 476 94" fill="none" xmlns="http://www.w3.org/2000/svg">
<path fill-rule="evenodd" clip-rule="evenodd" d="M232.805 16.9993C229.1 16.9993 226.062 20 226.062 23.8259C226.062 27.5768 229.1 30.5775 232.805 30.5775C236.51 30.5775 239.549 27.5768 239.549 23.8259C239.549 20 236.51 16.9993 232.805 16.9993ZM238.733 34.0281H226.951V74.4626H238.733V34.0281ZM158.186 18.4997H169.671V34.0284H178.489V44.831H169.671V59.0843C169.671 61.1848 171.302 62.8352 173.302 62.8352H178.415V74.3129H173.302C165.003 74.3129 158.186 67.4863 158.186 59.0093V44.7559H152.851V33.9534H158.186V18.4997ZM206.573 33.1282C201.238 33.1282 197.015 35.3787 195.384 38.9046V18.4997H183.602V74.3879H195.384V51.7326C195.384 47.0065 198.422 43.7057 202.72 43.7057C207.092 43.7057 209.538 46.5564 209.538 51.3575V74.4629H221.32V49.8571C221.32 39.3547 215.984 33.1282 206.573 33.1282ZM255.554 33.9532V39.5045C257.332 35.4535 261.63 33.128 267.039 33.053C267.854 33.053 268.892 33.128 270.151 33.278V44.5307C268.966 44.3056 267.632 44.1556 266.224 44.1556C259.481 44.1556 255.554 47.9815 255.554 54.658V74.3877H243.772V33.9532H255.554ZM303.274 39.2797C302.089 35.7538 297.42 33.2783 291.418 33.2783C285.786 33.2783 281.044 35.3037 277.265 39.3547C273.56 43.3306 271.633 48.3568 271.633 54.2082C271.633 60.0596 273.56 65.0107 277.265 69.1367C281.044 73.1126 285.786 75.1381 291.418 75.1381C297.42 75.1381 302.089 72.6625 303.274 69.1367V74.4629H315.056V18.4997H303.274V39.2797ZM300.903 61.4099C298.902 63.3603 296.457 64.2605 293.567 64.2605C290.751 64.2605 288.306 63.2853 286.379 61.4099C284.379 59.3844 283.415 56.9838 283.415 54.2082C283.415 51.4325 284.379 49.032 286.379 47.0815C288.38 45.056 290.751 44.0808 293.567 44.0808C296.531 44.0808 298.976 45.056 300.903 47.0815C302.978 49.032 304.015 51.4325 304.015 54.2082C304.015 56.9838 302.978 59.3844 300.903 61.4099ZM349.07 34.1781L359.74 53.3826L366.928 34.0281H378.488L362.037 76.7881L349.07 53.5327L336.102 76.7881L319.726 34.0281H331.286L338.399 53.3826L349.07 34.1781ZM397.901 33.053C391.825 33.053 386.712 35.0034 382.71 38.9043C378.783 42.7302 376.782 47.8314 376.782 54.1329V54.508C376.782 60.8095 378.783 65.9107 382.71 69.7366C386.786 73.4875 391.973 75.4379 398.494 75.4379C404.57 75.4379 409.535 74.2376 413.314 71.762V61.3346C409.609 63.9602 404.866 65.2355 399.161 65.2355C392.936 65.2355 388.861 62.1598 388.638 57.3587H417.908C418.056 56.1584 418.13 54.8081 418.13 53.4578C418.13 47.6814 416.204 42.8803 412.499 38.9794C408.794 35.0034 403.829 33.053 397.901 33.053ZM388.638 49.6319C388.713 47.7564 389.676 46.181 391.454 44.9057C393.307 43.6304 395.382 42.9553 397.901 42.9553C402.569 42.9553 406.2 46.031 406.2 49.6319H388.638ZM446.215 33.2782C451.846 33.2782 456.589 35.3037 460.294 39.3547C464.073 43.4056 466 48.2818 466 54.1331C466 59.9845 464.073 64.9357 460.294 69.0617C456.589 73.0376 451.846 75.0631 446.215 75.0631C440.213 75.0631 435.544 72.5875 434.359 69.0617V74.3879H422.577V18.4997H434.359V39.2797C435.544 35.7538 440.213 33.2782 446.215 33.2782ZM444.066 64.2605C446.882 64.2605 449.253 63.3603 451.254 61.4099C453.254 59.3844 454.218 56.9838 454.218 54.2082C454.218 51.4325 453.254 49.0319 451.254 47.0815C449.327 45.056 446.882 44.0808 444.066 44.0808C441.176 44.0808 438.73 45.056 436.656 47.0815C434.655 49.0319 433.618 51.4325 433.618 54.2082C433.618 56.9838 434.655 59.3844 436.656 61.4099C438.656 63.2853 441.102 64.2605 444.066 64.2605Z" fill="white"/>
<path d="M73.9118 10C74.6556 10.1546 75.3578 10.4672 75.9709 10.9167C76.6573 11.4602 77.183 12.1805 77.4918 13.0006C79.4412 17.8779 81.3905 22.7522 83.3399 27.6236C85.4971 33.0413 87.6652 38.46 89.844 43.8796C90.9795 46.7211 92.1091 49.5655 93.2622 52.4011C93.5075 52.9811 93.6339 53.6046 93.6339 54.2345C93.6339 54.8644 93.5075 55.4879 93.2622 56.0679L83.3546 80.7834C82.6986 82.4193 81.5101 83.4363 79.7628 83.7015C77.5889 84.0287 75.6444 82.9558 74.859 81.0487C72.9998 76.477 71.1819 71.8905 69.3492 67.307L60.0299 43.9916C57.2706 37.0726 54.5074 30.1556 51.7402 23.2406C50.8224 20.9444 49.934 18.6364 48.975 16.358C48.7109 15.7384 48.586 15.0683 48.6091 14.395C48.6323 13.7217 48.8028 13.0618 49.1088 12.4619C49.4147 11.862 49.8485 11.3369 50.3795 10.9237C50.9105 10.5104 51.5257 10.2193 52.1815 10.0707C52.2609 10.0531 52.3374 10.0236 52.4139 10H73.9118Z" fill="white"/>
<path d="M35.3008 10C35.545 10.0678 35.7892 10.1267 36.0274 10.2093C36.6478 10.4031 37.2169 10.7339 37.6929 11.1771C38.1689 11.6204 38.5396 12.165 38.7779 12.7707C40.9057 18.0528 43.0238 23.3388 45.132 28.6288C47.2657 33.9619 49.3994 39.2961 51.5331 44.6312C52.5764 47.2467 53.6246 49.8612 54.6778 52.4748C54.9135 53.0345 55.035 53.6358 55.035 54.2433C55.035 54.8508 54.9135 55.4522 54.6778 56.0119C53.5011 58.9477 52.3244 61.8825 51.1477 64.8163C48.9905 70.1868 46.8332 75.5574 44.676 80.9279C44.3373 81.7641 43.7583 82.4806 43.0125 82.9865C42.2667 83.4924 41.3877 83.7649 40.487 83.7693C39.5329 83.7862 38.5969 83.5073 37.807 82.9707C37.0171 82.4341 36.412 81.666 36.0745 80.7716C34.08 75.7106 32.0444 70.6643 30.0264 65.6122C27.322 58.7718 24.6039 51.9363 21.872 45.1058C19.0911 38.1534 16.3112 31.2 13.5323 24.2457C12.4792 21.6135 11.4349 18.9754 10.3671 16.3462C9.9005 15.2506 9.87788 14.0162 10.304 12.9042C10.7301 11.7923 11.5714 10.8902 12.6498 10.3891C13.041 10.2307 13.4431 10.1006 13.853 10H35.3008Z" fill="white"/>
<path d="M131.494 54.9526C130.906 56.9423 130.024 58.8199 129.273 60.7387C127.103 66.1977 124.92 71.6537 122.725 77.1067C122.222 78.3565 121.71 79.6033 121.222 80.859C120.878 81.717 120.285 82.452 119.52 82.9687C118.755 83.4854 117.853 83.7601 116.93 83.7572C116.007 83.7543 115.107 83.4741 114.345 82.9526C113.583 82.4312 112.994 81.6926 112.656 80.8325L103.131 57.01L94.8942 36.4329C92.2055 29.7144 89.5188 22.9968 86.834 16.2803C86.5787 15.6661 86.461 15.0033 86.4892 14.3387C86.5174 13.674 86.6907 13.0236 86.997 12.4334C87.3033 11.8431 87.7351 11.3274 88.262 10.9226C88.7889 10.5177 89.398 10.2336 90.0463 10.0903C90.1346 10.0697 90.2199 10.0402 90.3081 10.0137H111.806C111.873 10.0343 111.938 10.0608 112.006 10.0756C112.76 10.2332 113.462 10.579 114.047 11.0808C114.632 11.5827 115.082 12.2244 115.353 12.9465C116.605 16.0906 117.858 19.2259 119.113 22.3523C122.398 30.5623 125.68 38.7723 128.959 46.9823C129.821 49.1459 130.78 51.2711 131.486 53.4936L131.494 54.9526Z" fill="white"/>
</svg>
