<svg width="189" height="61" viewBox="0 0 189 61" fill="none" xmlns="http://www.w3.org/2000/svg">
<path d="M21.7932 12.9874C21.259 12.905 21.2365 12.8954 21.4879 12.8569C21.9695 12.7833 23.1069 12.8837 23.8907 13.069C25.7204 13.5014 27.3854 14.6092 29.1626 16.5767L29.6348 17.0994L30.3103 16.9914C33.1557 16.5367 36.0507 16.8981 38.4718 18.0102C39.1379 18.3161 40.1881 18.9251 40.3191 19.0816C40.361 19.1315 40.4377 19.4526 40.4897 19.7952C40.6695 20.9805 40.5796 21.889 40.215 22.5676C40.0165 22.9368 40.0056 23.0539 40.1388 23.3699C40.2455 23.6221 40.5422 23.8087 40.8362 23.8083C41.438 23.8075 42.0856 22.8404 42.3857 21.4948L42.5047 20.9603L42.7409 21.2263C44.0362 22.6853 45.0534 24.675 45.2281 26.0913L45.2737 26.4606L45.056 26.1249C44.6812 25.5472 44.3049 25.154 43.8228 24.8368C42.9538 24.2651 42.035 24.0705 39.6015 23.9431C37.4037 23.8279 36.1599 23.6413 34.9266 23.2414C32.8281 22.5611 31.7702 21.6551 29.2776 18.4035C28.1704 16.9592 27.4861 16.1601 26.8054 15.5165C25.2586 14.0543 23.7387 13.2875 21.7932 12.9874Z" fill="#F50DB4"/>
<path d="M40.8149 16.2122C40.8703 15.2444 41.0022 14.606 41.2677 14.023C41.3726 13.7923 41.471 13.6034 41.4862 13.6034C41.5014 13.6034 41.4558 13.7737 41.3848 13.9819C41.1919 14.5476 41.1601 15.3215 41.2931 16.2218C41.4619 17.3642 41.5577 17.529 42.7722 18.763C43.3416 19.3419 44.0043 20.0719 44.2443 20.3853L44.681 20.9552L44.2443 20.5479C43.7103 20.0498 42.4821 19.0786 42.2108 18.9397C42.0289 18.8466 42.0018 18.8482 41.8897 18.9592C41.7863 19.0616 41.7645 19.2153 41.7502 19.9421C41.7278 21.075 41.5725 21.8021 41.1977 22.5292C40.995 22.9224 40.9631 22.8385 41.1464 22.3946C41.2835 22.0632 41.2974 21.9175 41.2964 20.8209C41.2942 18.6174 41.0311 18.0877 39.4881 17.1802C39.0973 16.9504 38.4533 16.6188 38.057 16.4435C37.6608 16.2681 37.346 16.1153 37.3575 16.1039C37.4011 16.0607 38.9059 16.4974 39.5116 16.729C40.4123 17.0736 40.5612 17.1182 40.6704 17.0767C40.7439 17.0488 40.7793 16.8364 40.8149 16.2122Z" fill="#F50DB4"/>
<path d="M22.8307 19.9816C21.7464 18.4973 21.0755 16.2216 21.2207 14.5205L21.2656 13.994L21.5124 14.0388C21.9759 14.1229 22.7751 14.4186 23.1493 14.6446C24.1762 15.2647 24.6208 16.0811 25.0731 18.1775C25.2056 18.7916 25.3794 19.4865 25.4594 19.7217C25.5881 20.1004 26.0747 20.9849 26.4703 21.5593C26.7552 21.973 26.5659 22.1691 25.9361 22.1126C24.9742 22.0262 23.6712 21.1321 22.8307 19.9816Z" fill="#F50DB4"/>
<path d="M39.4998 31.0282C34.4325 28.9996 32.6478 27.2388 32.6478 24.2678C32.6478 23.8306 32.663 23.4729 32.6814 23.4729C32.6999 23.4729 32.8959 23.6172 33.117 23.7936C34.1447 24.613 35.2953 24.963 38.4807 25.425C40.3552 25.6969 41.41 25.9166 42.3831 26.2374C45.4757 27.2573 47.3893 29.3269 47.8456 32.146C47.9783 32.965 47.9006 34.5011 47.6855 35.3106C47.5158 35.9502 46.9978 37.1027 46.8605 37.1468C46.8225 37.1592 46.7851 37.0139 46.7754 36.8166C46.7232 35.7579 46.1853 34.7274 45.2817 33.9555C44.2545 33.0778 42.8743 32.3791 39.4998 31.0282Z" fill="#F50DB4"/>
<path d="M35.9425 31.8709C35.8788 31.4952 35.7687 31.0155 35.6976 30.8048L35.5684 30.4218L35.8084 30.6898C36.1408 31.0607 36.4035 31.5352 36.6262 32.1674C36.7959 32.6497 36.815 32.7933 36.8139 33.5772C36.8126 34.3469 36.7913 34.5084 36.6344 34.9427C36.387 35.6272 36.08 36.1128 35.5649 36.634C34.6394 37.5708 33.4492 38.0892 31.732 38.3045C31.4335 38.3417 30.5634 38.4047 29.7984 38.4442C27.8708 38.5439 26.6021 38.7499 25.4621 39.1479C25.2982 39.2053 25.1519 39.24 25.137 39.2253C25.0909 39.1796 25.8671 38.7195 26.5082 38.4125C27.4121 37.9795 28.312 37.7431 30.3281 37.4094C31.3242 37.2445 32.3527 37.0444 32.6139 36.9647C35.0804 36.2128 36.3481 34.2724 35.9425 31.8709Z" fill="#F50DB4"/>
<path d="M38.2652 35.9725C37.5921 34.5336 37.4374 33.1442 37.8063 31.8485C37.8456 31.7101 37.9091 31.5967 37.9473 31.5967C37.9855 31.5967 38.1444 31.6821 38.3004 31.7863C38.6106 31.994 39.2328 32.3438 40.8905 33.2424C42.9592 34.3639 44.1385 35.2321 44.9406 36.2243C45.643 37.0931 46.0777 38.0825 46.287 39.2891C46.4054 39.9726 46.3359 41.617 46.1594 42.3053C45.6035 44.4755 44.3108 46.1801 42.4671 47.1747C42.1969 47.3205 41.9544 47.44 41.9281 47.4406C41.9021 47.4411 42.0005 47.1923 42.1469 46.8877C42.7672 45.5985 42.8378 44.3447 42.3689 42.949C42.0817 42.0944 41.4964 41.0517 40.3143 39.2893C38.9402 37.2404 38.6032 36.6951 38.2652 35.9725Z" fill="#F50DB4"/>
<path d="M19.2321 43.7369C21.1125 42.1581 23.4522 41.0366 25.5835 40.6925C26.502 40.5441 28.0321 40.603 28.8826 40.8193C30.246 41.1663 31.4654 41.9432 32.0998 42.869C32.7197 43.7738 32.9856 44.5623 33.2624 46.3164C33.3717 47.0084 33.4905 47.7034 33.5263 47.8607C33.7343 48.7697 34.139 49.4964 34.6404 49.8614C35.4367 50.441 36.808 50.4771 38.1572 49.9537C38.3862 49.8651 38.5848 49.8036 38.5989 49.8175C38.6478 49.8657 37.9684 50.3179 37.4891 50.556C36.8443 50.8762 36.3316 51 35.6503 51C34.4147 51 33.389 50.375 32.533 49.1008C32.3647 48.8501 31.986 48.099 31.6918 47.4316C30.788 45.3822 30.3418 44.758 29.2924 44.0747C28.3794 43.4801 27.2017 43.3736 26.3158 43.8056C25.152 44.3728 24.8273 45.8515 25.6608 46.7887C25.9921 47.1611 26.6098 47.4822 27.115 47.5448C28.06 47.6617 28.8721 46.9469 28.8721 45.9981C28.8721 45.3822 28.634 45.0307 28.0346 44.7617C27.2159 44.3943 26.3358 44.8236 26.34 45.5884C26.3419 45.9145 26.4847 46.1194 26.8134 46.2673C27.0244 46.362 27.0293 46.3696 26.8573 46.334C26.1061 46.1791 25.9301 45.2788 26.5341 44.6809C27.2592 43.9635 28.7587 44.28 29.2737 45.2597C29.4899 45.6709 29.5151 46.4904 29.3265 46.9851C28.9044 48.0927 27.6736 48.675 26.4251 48.3582C25.575 48.1425 25.2289 47.9087 24.204 46.8591C22.4231 45.035 21.7317 44.6818 19.1643 44.2831L18.6723 44.2068L19.2321 43.7369Z" fill="#F50DB4"/>
<path fill-rule="evenodd" clip-rule="evenodd" d="M10.8759 11.091C16.8233 18.2681 20.9195 21.2292 21.3747 21.8548C21.7506 22.3714 21.6091 22.8358 20.9652 23.1997C20.6072 23.4021 19.871 23.6071 19.5024 23.6071C19.0856 23.6071 18.9424 23.4472 18.9424 23.4472C18.7007 23.2193 18.5646 23.2592 17.3233 21.0684C15.6 18.4097 14.1578 16.2042 14.1185 16.1673C14.0275 16.0818 14.029 16.0847 17.1476 21.6327C17.6515 22.789 17.2478 23.2134 17.2478 23.3781C17.2478 23.7131 17.1559 23.8892 16.7402 24.3502C16.0473 25.1188 15.7375 25.9825 15.5139 27.7698C15.2632 29.7733 14.5584 31.1887 12.6049 33.6109C11.4615 35.0287 11.2744 35.2888 10.9859 35.8602C10.6224 36.5799 10.5225 36.983 10.482 37.8917C10.4392 38.8527 10.5225 39.4734 10.8178 40.3919C11.0763 41.1962 11.3461 41.7272 12.0358 42.7894C12.6311 43.7062 12.9738 44.3873 12.9738 44.6539C12.9738 44.8659 13.0145 44.8662 13.9369 44.6591C16.1442 44.1633 17.9366 43.2917 18.9447 42.2236C19.5685 41.5623 19.715 41.1973 19.7197 40.2911C19.7229 39.6987 19.7019 39.5746 19.5408 39.2335C19.2785 38.6787 18.801 38.2172 17.7487 37.502C16.3698 36.5647 15.7809 35.8102 15.6182 34.7726C15.4847 33.9214 15.6396 33.3206 16.4024 31.731C17.1919 30.0856 17.3875 29.3845 17.5199 27.726C17.6054 26.6545 17.7238 26.2319 18.0334 25.8928C18.3563 25.5391 18.647 25.4193 19.4462 25.3107C20.7491 25.1337 21.5787 24.7986 22.2607 24.1738C22.8523 23.6318 23.0998 23.1095 23.1378 22.3233L23.1666 21.7274L22.836 21.3441C21.6388 19.9562 10.0741 10 10.0005 10C9.98471 10 10.3787 10.491 10.8759 11.091ZM13.6458 38.9789C13.9165 38.5022 13.7727 37.8896 13.3199 37.5902C12.8921 37.3073 12.2275 37.4405 12.2275 37.8092C12.2275 37.9217 12.2901 38.0034 12.4311 38.0756C12.6684 38.197 12.6857 38.3337 12.4989 38.6128C12.3098 38.8955 12.325 39.144 12.542 39.3128C12.8916 39.5851 13.3866 39.4354 13.6458 38.9789Z" fill="#F50DB4"/>
<path fill-rule="evenodd" clip-rule="evenodd" d="M23.9888 25.6234C23.3772 25.8101 22.7826 26.4547 22.5986 27.1305C22.4863 27.5428 22.55 28.266 22.7182 28.4894C22.9899 28.8501 23.2526 28.9452 23.9641 28.9402C25.357 28.9306 26.5679 28.3366 26.7087 27.594C26.8241 26.9853 26.2923 26.1418 25.5597 25.7715C25.1817 25.5805 24.3778 25.5046 23.9888 25.6234ZM25.6172 26.8893C25.832 26.5859 25.738 26.2579 25.3727 26.0361C24.677 25.6137 23.6249 25.9632 23.6249 26.6167C23.6249 26.942 24.1735 27.2969 24.6764 27.2969C25.0112 27.2969 25.4692 27.0984 25.6172 26.8893Z" fill="#F50DB4"/>
<path d="M163.419 49.3224V27.6688H166.544V30.1244C167.405 28.7212 169.064 27.2861 171.838 27.2861C175.984 27.2861 178.982 30.5708 178.982 35.5458C178.982 40.5206 175.984 43.8053 171.838 43.8053C169 43.8053 167.373 42.3064 166.576 41.0309V49.3224H163.419ZM171.105 41.286C174.198 41.286 175.697 38.7028 175.697 35.5458C175.697 32.3886 174.198 29.8055 171.105 29.8055C168.011 29.8055 166.449 32.4523 166.449 35.5458C166.449 38.6391 168.011 41.286 171.105 41.286Z" fill="#F50DB4"/>
<path d="M151.638 43.8053C148.799 43.8053 146.248 42.0833 146.248 39.1493C146.248 36.2793 148.257 34.9716 151.669 34.302L153.838 33.8556C155.528 33.5047 156.325 33.154 156.325 31.8464C156.325 30.5389 155.241 29.6141 153.328 29.6141C151.255 29.6141 149.915 30.8898 149.788 32.9946L146.535 32.7076C146.758 29.3271 149.469 27.2861 153.36 27.2861C157.378 27.2861 159.515 29.2314 159.515 32.5481V43.4227H156.485V41.573H156.453C155.719 42.7848 154.093 43.8053 151.638 43.8053ZM152.467 41.541C154.699 41.541 156.453 40.0741 156.453 37.4592V35.5458C153.136 36.0879 151.574 36.5343 150.617 37.1403C149.884 37.5867 149.469 38.2246 149.469 39.0856C149.469 40.5525 150.681 41.541 152.467 41.541Z" fill="#F50DB4"/>
<path d="M125.954 43.4231L120.947 27.6692H124.296L127.74 39.5642H127.772L131.343 27.6692H134.501L138.104 39.5325H138.136L141.58 27.6692H144.865L139.858 43.4231H136.542L132.97 31.2728H132.938L129.302 43.4231H125.954Z" fill="#F50DB4"/>
<path d="M113.22 43.8053C109.298 43.8053 106.427 41.9875 106.077 38.2246L109.202 37.8418C109.361 40.3294 111.115 41.4774 113.284 41.4774C115.421 41.4774 116.856 40.5206 116.856 38.9898C116.856 37.4592 115.389 37.1403 113.411 36.6938L111.083 36.1517C108.532 35.5458 106.778 34.334 106.778 31.9102C106.778 29.2314 109.425 27.2861 113.156 27.2861C116.76 27.2861 119.215 29.1039 119.63 32.0378L116.473 32.4842C116.25 30.6027 114.878 29.6141 113.029 29.6141C111.147 29.6141 109.935 30.5389 109.935 31.7508C109.935 32.8987 110.637 33.3135 112.614 33.76L114.942 34.302C118.259 35.0674 120.013 36.1517 120.013 38.6711C120.013 41.828 117.079 43.8053 113.22 43.8053Z" fill="#F50DB4"/>
<path d="M100.198 43.4231V27.6693H103.355V43.4231H100.198ZM100.198 25.2137V21.4825H103.355V25.2137H100.198Z" fill="#F50DB4"/>
<path d="M82.5471 43.4227V27.6688H85.6723V29.9011H85.7043C86.5972 28.5298 88.3511 27.2861 90.7429 27.2861C94.2508 27.2861 96.3236 29.3909 96.3236 33.2177V43.4227H93.1664V34.589C93.1664 31.7508 92.5288 29.933 89.8817 29.933C87.2349 29.933 85.7043 32.0697 85.7043 34.6209V43.4227H82.5471Z" fill="#F50DB4"/>
<path d="M70.2694 43.8059C65.0394 43.8059 61.8505 40.8401 61.8505 35.3867V21.4825H65.1669V35.1953C65.1669 38.7353 66.8252 41.0313 70.2694 41.0313C74.0006 41.0313 75.3719 38.7353 75.3719 35.1953V21.4825H78.6886V35.3867C78.6886 40.8401 75.4995 43.8059 70.2694 43.8059Z" fill="#F50DB4"/>
</svg>
