<svg width="127" height="61" viewBox="0 0 127 61" fill="none" xmlns="http://www.w3.org/2000/svg">
<path d="M27.1165 17.3435C27.1165 16.8604 27.5081 16.4689 27.9911 16.4689H32.5718C33.0548 16.4689 33.4464 16.8604 33.4464 17.3435V38.6461C33.4464 39.1292 33.0548 39.5207 32.5718 39.5207H28.1833C27.7002 39.5207 27.3087 39.1292 27.3087 38.6461V35.1642H27.0286C26.4216 36.4367 25.4286 37.4777 24.0477 38.2872C22.6668 39.0967 20.9681 39.5006 18.9515 39.5006C17.1918 39.5006 15.6385 39.1667 14.2917 38.5008C12.9449 37.8349 11.8945 36.8639 11.1367 35.5842C10.3789 34.3062 10 32.7591 10 30.9444V17.3435C10 16.8604 10.3916 16.4689 10.8746 16.4689H15.4552C15.9382 16.4689 16.3298 16.8604 16.3298 17.3435V30.1152C16.3298 31.5565 16.7967 32.6998 17.7287 33.5488C18.6606 34.3978 19.8853 34.8214 21.4009 34.8214C22.3328 34.8214 23.2361 34.6293 24.1106 34.2434C24.9851 33.8593 25.7033 33.2831 26.269 32.5186C26.8346 31.7539 27.1165 31.0198 27.1165 29.8658V17.3435Z" fill="#010101"/>
<path d="M82.3916 17.3435C82.3916 16.8604 82.7832 16.4689 83.2662 16.4689H87.8468C88.3298 16.4689 88.7214 16.8604 88.7214 17.3435V38.6461C88.7214 39.1292 88.3298 39.5207 87.8468 39.5207H83.4584C82.9754 39.5207 82.5838 39.1292 82.5838 38.6461V35.1642H82.3036C81.6967 36.4367 80.7036 37.4777 79.3228 38.2872C77.9419 39.0967 76.2432 39.5006 74.2266 39.5006C72.4668 39.5006 70.9136 39.1667 69.5667 38.5008C68.22 37.8349 67.1695 36.8639 66.4118 35.5842C65.6539 34.3062 65.2751 32.7591 65.2751 30.9444V17.3435C65.2751 16.8604 65.6667 16.4689 66.1497 16.4689H70.7303C71.2133 16.4689 71.6049 16.8604 71.6049 17.3435V30.1152C71.6049 31.5565 72.0717 32.6998 73.0037 33.5488C73.9357 34.3978 75.1603 34.8214 76.6759 34.8214C77.6079 34.8214 78.5111 34.6293 79.3856 34.2434C80.2602 33.8593 80.9784 33.2831 81.544 32.5186C82.1097 31.7539 82.3916 31.0198 82.3916 29.8658V17.3435Z" fill="#010101"/>
<path d="M110.991 16.4708C110.636 16.4709 110.317 16.6848 110.182 17.0124L104.108 31.7676L97.9475 17.0069C97.8116 16.6812 97.4932 16.4691 97.1403 16.4691L92.3067 16.4691C91.6811 16.4691 91.2578 17.1071 91.5009 17.6836L100.751 39.6157L96.4068 49.7818C96.1603 50.3588 96.5837 51 97.2112 51H102.126C102.479 51 102.797 50.7881 102.933 50.4627L116.633 17.6814C116.874 17.1051 116.45 16.4694 115.826 16.4696L110.991 16.4708Z" fill="#010101"/>
<path d="M54.6375 39.3283C54.7513 39.4611 54.9174 39.5376 55.0923 39.5376H61.0071C61.5188 39.5376 61.7949 38.9376 61.462 38.5489L52.7637 28.3923C52.5719 28.1682 52.5717 27.8378 52.7633 27.6136L66.9671 10.988C67.2992 10.5993 67.023 10 66.5117 10H60.5956C60.4203 10 60.2538 10.0768 60.14 10.2102L45.2793 27.6256C45.0879 27.8499 45.0882 28.18 45.2801 28.404L54.6375 39.3283Z" fill="#010101"/>
<path d="M43.0345 39.3292C42.9206 39.4614 42.7549 39.5375 42.5804 39.5375H36.669C36.1567 39.5375 35.8808 38.9361 36.215 38.5479L44.952 28.395C45.1453 28.1703 45.1453 27.8381 44.9521 27.6136L36.2149 17.4595C35.8807 17.0712 36.1566 16.4698 36.6689 16.4698H42.5804C42.7549 16.4698 42.9206 16.5459 43.0345 16.6781L52.444 27.6136C52.6372 27.8381 52.6372 28.1703 52.444 28.395L43.0345 39.3292Z" fill="#010101"/>
</svg>
