<svg width="324" height="80" viewBox="0 0 324 80" fill="none" xmlns="http://www.w3.org/2000/svg">
<g clip-path="url(#clip0_1210_173)">
<path fill-rule="evenodd" clip-rule="evenodd" d="M114.877 39.9308L85.1279 10.0139V31.9354L55.5862 53.8707L85.1279 53.8846V69.8615L114.877 39.9308Z" fill="black" fill-opacity="0.9"/>
<path fill-rule="evenodd" clip-rule="evenodd" d="M10 39.9307L39.7494 69.8614V48.1617L69.0834 26.2125L39.7632 26.1986V10L10 39.9307Z" fill="black" fill-opacity="0.9"/>
<path d="M160.685 57.5566H137.857V50.9607L150.925 36.2864H138.189V29.8014H160.45V36.0647L146.994 51.0162H160.685V57.5566Z" fill="black" fill-opacity="0.9"/>
<path d="M191.832 29.8014L180.785 41.4827L192.054 57.5566H182.917L175.622 46.9561L172.535 50.2264V57.5566H165.073V16.7206H172.535V40.1386L182.073 29.8153H191.832V29.8014Z" fill="black" fill-opacity="0.9"/>
<path d="M224.281 27.0993L217.332 29.2471C217.069 27.8199 216.363 26.5173 215.2 25.3534C214.037 24.1894 212.334 23.6074 210.092 23.6074C208.264 23.6074 206.769 24.1201 205.607 25.1317C204.444 26.1155 203.862 27.2933 203.862 28.679C203.862 31.1178 205.302 32.6282 208.181 33.1963L213.733 34.2633C217.249 34.9423 219.976 36.3557 221.928 38.4896C223.88 40.6374 224.849 43.1594 224.849 46.0555C224.849 49.3672 223.548 52.2633 220.917 54.7437C218.342 57.1825 214.854 58.4157 210.479 58.4157C207.974 58.4157 205.717 58.0416 203.696 57.2933C201.675 56.5451 200.055 55.5474 198.823 54.3003C197.591 53.0254 196.622 51.6813 195.902 50.2956C195.224 48.8684 194.823 47.3996 194.67 45.8892L201.855 43.9769C202.035 46.1247 202.866 47.9123 204.319 49.3395C205.814 50.7668 207.891 51.4873 210.549 51.4873C212.57 51.4873 214.134 51.03 215.255 50.1294C216.418 49.2287 217 48.037 217 46.582C217 45.418 216.57 44.4203 215.712 43.5889C214.895 42.7298 213.705 42.1478 212.182 41.843L206.631 40.7206C203.419 40.0416 200.872 38.7113 199.003 36.716C197.134 34.7206 196.207 32.2402 196.207 29.2749C196.207 25.7414 197.55 22.7621 200.249 20.3649C202.976 17.9538 206.243 16.7483 210.064 16.7483C212.348 16.7483 214.383 17.067 216.183 17.7044C217.982 18.3418 219.422 19.2148 220.502 20.2956C221.582 21.3488 222.426 22.4434 223.021 23.5658C223.589 24.6744 224.018 25.8522 224.281 27.0993Z" fill="black" fill-opacity="0.9"/>
<path d="M237.405 68.5035H229.5L236.007 54.0647L224.281 29.8014H232.643L239.993 46.0416L246.777 29.8014H254.737L237.405 68.5035Z" fill="black" fill-opacity="0.9"/>
<path d="M265.036 41.5936V57.5566H257.575V29.8014H264.815V33.2379C265.604 31.8799 266.725 30.8545 268.179 30.134C269.632 29.4134 271.169 29.067 272.775 29.067C276.028 29.067 278.492 30.1063 280.181 32.1709C281.897 34.2079 282.756 36.8407 282.756 40.0693V57.5566H275.294V41.3719C275.294 39.7229 274.865 38.3788 274.007 37.3672C273.19 36.3557 271.916 35.843 270.186 35.843C268.622 35.843 267.362 36.3834 266.434 37.4781C265.507 38.5728 265.036 39.9446 265.036 41.5936Z" fill="black" fill-opacity="0.9"/>
<path d="M301.043 35.8984C299.063 35.8984 297.402 36.5912 296.045 37.9908C294.702 39.3764 294.024 41.2748 294.024 43.6859C294.024 46.097 294.702 48.0092 296.045 49.4365C297.43 50.8222 299.105 51.5289 301.098 51.5289C302.856 51.5289 304.254 51.0716 305.306 50.1709C306.358 49.2286 307.065 48.1201 307.438 46.8453L314 49.0485C313.322 51.612 311.868 53.8014 309.626 55.6443C307.383 57.4873 304.545 58.4018 301.098 58.4018C296.987 58.4018 293.526 57.0162 290.716 54.2309C287.947 51.4042 286.562 47.8984 286.562 43.6859C286.562 39.4319 287.933 35.9261 290.66 33.1409C293.429 30.3557 296.834 28.97 300.863 28.97C304.379 28.97 307.258 29.8845 309.501 31.7275C311.744 33.5289 313.183 35.7321 313.82 38.3233L307.148 40.582C306.262 37.4503 304.227 35.8984 301.043 35.8984Z" fill="black" fill-opacity="0.9"/>
</g>
<defs>
<clipPath id="clip0_1210_173">
<rect width="304" height="60" fill="white" transform="translate(10 10)"/>
</clipPath>
</defs>
</svg>
